<svg xmlns="http://www.w3.org/2000/svg" xmlns:xlink="http://www.w3.org/1999/xlink" width="34" height="36" viewBox="0 0 34 36"><defs><path id="a" d="M929 45c0 4.27-1.66 8.3-4.69 11.31A15.9 15.9 0 0 1 913 61a15.9 15.9 0 0 1-11.31-4.69A15.9 15.9 0 0 1 897 45c0-4.27 1.66-8.3 4.69-11.31a15.9 15.9 0 0 1 12.5-4.65l-.14 1.98A14.04 14.04 0 0 0 898.98 45c0 7.73 6.29 14.02 14.02 14.02a14.04 14.04 0 0 0 6.73-26.32v5.51h-1.98v-8.06h8.02v1.98h-3.27A16.04 16.04 0 0 1 929 45zm-21.06-1.35c0 .62-.48 1.32-1.13 2.02l-1.6 1.7h3v.94h-4.38v-.76l2.28-2.44c.44-.46.74-.96.74-1.31 0-.5-.38-.8-1.03-.8-.53 0-1.16.3-1.68.78l-.41-.8a3.6 3.6 0 0 1 2.24-.88c1.17 0 1.97.6 1.97 1.55zm3.88 2.22V44.4h.96v1.46h.9v.92h-.9v1.52h-.96v-1.52h-2.94v-.77l2.1-3.88h1l-2 3.73zm1.88 3.47l2.79-8.22h.86l-2.79 8.22zm5.45-1.03h-1.1l2.4-5.23h-2.4l-.01.86h-.92v-1.8h4.48v.8z"/></defs><use fill="#363a43" xlink:href="#a" transform="translate(-896 -27)"/></svg>