<svg height="64" viewBox="0 0 64 64" width="64" xmlns="http://www.w3.org/2000/svg"><g fill="none" stroke="#4D4D4D" stroke-miterlimit="10"><path d="M32 29.1H15.1v15c0 8.3 6.7 15 15 15h3.8c8.3 0 15-6.7 15-15v-15H32z" stroke-width="2"/><path d="M45.9 43.1c0 6.6-5.4 12-12 12" stroke-linecap="round"/><path d="M33.9 10.9H32v2.8c1.3 0 2.4 1.1 2.4 2.4v5.5c0 1.3-1.1 2.4-2.4 2.4v5h16.9v-3.2c0-8.2-6.7-14.9-15-14.9zm-4.3 10.8v-5.5c0-1.3 1.1-2.4 2.4-2.4V11h-1.9c-8.3 0-15 6.7-15 15v3.2H32v-5c-1.3-.1-2.4-1.2-2.4-2.5z" stroke-width="2"/><path stroke-linecap="round" d="M32 10.9v-6"/></g></svg>