<?xml version="1.0" encoding="utf-8"?>
<!-- Generator: Adobe Illustrator 21.1.0, SVG Export Plug-In . SVG Version: 6.00 Build 0)  -->
<svg version="1.1" id="Layer_3" xmlns="http://www.w3.org/2000/svg" xmlns:xlink="http://www.w3.org/1999/xlink" x="0px" y="0px"
	 width="22px" height="22px" viewBox="0 0 22 22" enable-background="new 0 0 22 22" xml:space="preserve">
<title></title>
<circle fill="none" stroke="#4e75f3" stroke-width="2" stroke-linecap="round" stroke-linejoin="round" cx="11" cy="11" r="7"/>
<path fill="#4e75f3" d="M9,4V1c0-0.6,0.4-1,1-1h2c0.6,0,1,0.4,1,1v3"/>
<path fill="#4e75f3" d="M13,18v3c0,0.6-0.4,1-1,1h-2c-0.6,0-1-0.4-1-1v-3"/>
<path fill="#4e75f3" d="M4.6,7.5L2.5,5.3c-0.4-0.4-0.4-1,0-1.4l1.4-1.4c0.4-0.4,1-0.4,1.4,0l2.1,2.1"/>
<path fill="#4e75f3" d="M17.4,14.5l2.1,2.1c0.4,0.4,0.4,1,0,1.4l-1.4,1.4c-0.4,0.4-1,0.4-1.4,0l-2.1-2.1"/>
<path fill="#4e75f3" d="M4,13H1c-0.6,0-1-0.4-1-1v-2c0-0.6,0.4-1,1-1h3"/>
<path fill="#4e75f3" d="M18,9h3c0.6,0,1,0.4,1,1v2c0,0.6-0.4,1-1,1h-3"/>
<path fill="#4e75f3" d="M7.5,17.4l-2.1,2.1c-0.4,0.4-1,0.4-1.4,0l-1.4-1.4c-0.4-0.4-0.4-1,0-1.4l2.1-2.1"/>
<path fill="#4e75f3" d="M14.5,4.6l2.1-2.1c0.4-0.4,1-0.4,1.4,0l1.4,1.4c0.4,0.4,0.4,1,0,1.4l-2.1,2.1"/>
<line fill="none" stroke="#4e75f3" stroke-miterlimit="10" x1="15.5" y1="6" x2="15.5" y2="16"/>
</svg>
