<?xml version="1.0" encoding="utf-8"?>
<!-- Generator: Adobe Illustrator 22.1.0, SVG Export Plug-In . SVG Version: 6.00 Build 0)  -->
<svg version="1.1" id="OBJECTS" xmlns="http://www.w3.org/2000/svg" xmlns:xlink="http://www.w3.org/1999/xlink" x="0px" y="0px"
	 viewBox="0 0 397 349.5" style="enable-background:new 0 0 397 349.5;" xml:space="preserve">
<style type="text/css">
	.st0{fill:#263C3B;}
	.st1{fill:#FFFFFF;}
	.st2{fill:#BDDCFB;}
	.st3{fill:#0C9CE3;}
	.st4{fill:none;}
</style>
<g>
	<g>
		<path class="st0" d="M205.4,349.5c-0.3,0-0.5-0.2-0.5-0.5c0-0.3,0.2-0.5,0.5-0.5l1,0c0.2,0,0.5,0.2,0.5,0.5c0,0.3-0.2,0.5-0.5,0.5
			L205.4,349.5C205.4,349.5,205.4,349.5,205.4,349.5z M201.4,349.5C201.4,349.5,201.4,349.5,201.4,349.5l-1,0
			c-0.3,0-0.5-0.2-0.5-0.5c0-0.3,0.2-0.5,0.5-0.5l1,0c0.3,0,0.5,0.2,0.5,0.5C201.9,349.2,201.7,349.5,201.4,349.5z M210.4,349.3
			c-0.3,0-0.5-0.2-0.5-0.5c0-0.3,0.2-0.5,0.5-0.5l1,0c0.3,0,0.5,0.2,0.5,0.5c0,0.3-0.2,0.5-0.5,0.5L210.4,349.3
			C210.4,349.3,210.4,349.3,210.4,349.3z M196.4,349.3C196.4,349.3,196.4,349.3,196.4,349.3l-1,0c-0.3,0-0.5-0.2-0.5-0.5
			c0-0.3,0.2-0.5,0.5-0.5l1,0c0.3,0,0.5,0.2,0.5,0.5C196.9,349.1,196.7,349.3,196.4,349.3z M215.4,349.1c-0.3,0-0.5-0.2-0.5-0.5
			c0-0.3,0.2-0.5,0.5-0.5l1-0.1c0.3,0,0.5,0.2,0.5,0.5c0,0.3-0.2,0.5-0.5,0.5L215.4,349.1C215.4,349.1,215.4,349.1,215.4,349.1z
			 M191.4,349C191.4,349,191.4,349,191.4,349l-1-0.1c-0.3,0-0.5-0.3-0.5-0.5c0-0.3,0.3-0.5,0.5-0.5l1,0.1c0.3,0,0.5,0.3,0.5,0.5
			C191.9,348.8,191.7,349,191.4,349z M220.4,348.7c-0.3,0-0.5-0.2-0.5-0.5c0-0.3,0.2-0.5,0.4-0.5l1-0.1c0.3,0,0.5,0.2,0.5,0.4
			c0,0.3-0.2,0.5-0.4,0.5L220.4,348.7C220.4,348.6,220.4,348.7,220.4,348.7z M186.4,348.6C186.4,348.6,186.4,348.6,186.4,348.6
			l-1-0.1c-0.3,0-0.5-0.3-0.4-0.6c0-0.3,0.3-0.5,0.6-0.4l1,0.1c0.3,0,0.5,0.3,0.4,0.5C186.9,348.4,186.7,348.6,186.4,348.6z
			 M225.3,348.1c-0.2,0-0.5-0.2-0.5-0.4c0-0.3,0.2-0.5,0.4-0.6l1-0.1c0.3,0,0.5,0.2,0.6,0.4c0,0.3-0.2,0.5-0.4,0.6L225.3,348.1
			C225.4,348.1,225.4,348.1,225.3,348.1z M181.5,348C181.5,348,181.4,348,181.5,348l-1.1-0.1c-0.3,0-0.5-0.3-0.4-0.6
			c0-0.3,0.3-0.5,0.6-0.4l1,0.1c0.3,0,0.5,0.3,0.4,0.6C181.9,347.8,181.7,348,181.5,348z M230.3,347.4c-0.2,0-0.5-0.2-0.5-0.4
			c0-0.3,0.1-0.5,0.4-0.6l1-0.2c0.3,0,0.5,0.1,0.6,0.4c0,0.3-0.1,0.5-0.4,0.6L230.3,347.4C230.3,347.3,230.3,347.4,230.3,347.4z
			 M176.5,347.2C176.5,347.2,176.5,347.2,176.5,347.2l-1.1-0.2c-0.3,0-0.5-0.3-0.4-0.6c0-0.3,0.3-0.5,0.6-0.4l1,0.2
			c0.3,0,0.5,0.3,0.4,0.6C177,347,176.8,347.2,176.5,347.2z M235.2,346.5c-0.2,0-0.4-0.2-0.5-0.4c-0.1-0.3,0.1-0.5,0.4-0.6l1-0.2
			c0.3-0.1,0.5,0.1,0.6,0.4c0.1,0.3-0.1,0.5-0.4,0.6L235.2,346.5C235.3,346.5,235.2,346.5,235.2,346.5z M171.6,346.3
			C171.6,346.3,171.6,346.3,171.6,346.3l-1.1-0.2c-0.3-0.1-0.4-0.3-0.4-0.6c0.1-0.3,0.3-0.4,0.6-0.4l1,0.2c0.3,0.1,0.4,0.3,0.4,0.6
			C172.1,346.1,171.9,346.3,171.6,346.3z M240.1,345.4c-0.2,0-0.4-0.2-0.5-0.4c-0.1-0.3,0.1-0.5,0.4-0.6l1-0.2
			c0.3-0.1,0.5,0.1,0.6,0.4c0.1,0.3-0.1,0.5-0.4,0.6l-1,0.2C240.2,345.4,240.1,345.4,240.1,345.4z M166.7,345.3c0,0-0.1,0-0.1,0
			l-1-0.2c-0.3-0.1-0.4-0.3-0.4-0.6c0.1-0.3,0.3-0.4,0.6-0.4l1,0.2c0.3,0.1,0.4,0.3,0.4,0.6C167.2,345.1,167,345.3,166.7,345.3z
			 M245,344.3c-0.2,0-0.4-0.1-0.5-0.4c-0.1-0.3,0.1-0.5,0.4-0.6l1-0.3c0.3-0.1,0.5,0.1,0.6,0.4c0.1,0.3-0.1,0.5-0.4,0.6l-1,0.3
			C245.1,344.3,245,344.3,245,344.3z M161.9,344.1c0,0-0.1,0-0.1,0l-1-0.3c-0.3-0.1-0.4-0.3-0.4-0.6c0.1-0.3,0.4-0.4,0.6-0.4l1,0.3
			c0.3,0.1,0.4,0.3,0.4,0.6C162.3,343.9,162.1,344.1,161.9,344.1z M249.8,342.9c-0.2,0-0.4-0.1-0.5-0.4c-0.1-0.3,0.1-0.5,0.3-0.6
			l1-0.3c0.3-0.1,0.5,0.1,0.6,0.3c0.1,0.3-0.1,0.5-0.3,0.6l-1,0.3C249.9,342.9,249.8,342.9,249.8,342.9z M157.1,342.7
			c0,0-0.1,0-0.1,0l-1-0.3c-0.3-0.1-0.4-0.4-0.3-0.6c0.1-0.3,0.4-0.4,0.6-0.3l1,0.3c0.3,0.1,0.4,0.4,0.3,0.6
			C157.5,342.6,157.3,342.7,157.1,342.7z M254.6,341.5c-0.2,0-0.4-0.1-0.5-0.3c-0.1-0.3,0.1-0.5,0.3-0.6l0.9-0.3
			c0.3-0.1,0.5,0.1,0.6,0.3c0.1,0.3-0.1,0.5-0.3,0.6l-1,0.3C254.7,341.5,254.6,341.5,254.6,341.5z M152.3,341.2c-0.1,0-0.1,0-0.2,0
			l-1-0.3c-0.3-0.1-0.4-0.4-0.3-0.6c0.1-0.3,0.4-0.4,0.6-0.3l1,0.3c0.3,0.1,0.4,0.4,0.3,0.6C152.7,341.1,152.5,341.2,152.3,341.2z
			 M259.3,339.9c-0.2,0-0.4-0.1-0.5-0.3c-0.1-0.3,0-0.5,0.3-0.6l0.9-0.3c0.3-0.1,0.5,0,0.6,0.3c0.1,0.3,0,0.5-0.3,0.6l-0.9,0.3
			C259.4,339.8,259.4,339.9,259.3,339.9z M147.5,339.5c-0.1,0-0.1,0-0.2,0l-0.9-0.3c-0.3-0.1-0.4-0.4-0.3-0.6
			c0.1-0.3,0.4-0.4,0.6-0.3l0.9,0.3c0.3,0.1,0.4,0.4,0.3,0.6C147.9,339.4,147.7,339.5,147.5,339.5z M264,338.1
			c-0.2,0-0.4-0.1-0.5-0.3c-0.1-0.3,0-0.5,0.3-0.6l0.9-0.4c0.3-0.1,0.5,0,0.6,0.3c0.1,0.3,0,0.5-0.3,0.6l-0.9,0.4
			C264.1,338.1,264,338.1,264,338.1z M142.9,337.8c-0.1,0-0.1,0-0.2,0l-0.9-0.4c-0.3-0.1-0.4-0.4-0.3-0.7c0.1-0.3,0.4-0.4,0.7-0.3
			l0.9,0.4c0.3,0.1,0.4,0.4,0.3,0.6C143.2,337.6,143,337.8,142.9,337.8z M268.6,336.2c-0.2,0-0.4-0.1-0.5-0.3
			c-0.1-0.3,0-0.5,0.3-0.7l0.9-0.4c0.3-0.1,0.5,0,0.7,0.3c0.1,0.3,0,0.5-0.3,0.7l-0.9,0.4C268.7,336.2,268.7,336.2,268.6,336.2z
			 M138.2,335.8c-0.1,0-0.1,0-0.2,0l-0.9-0.4c-0.3-0.1-0.4-0.4-0.3-0.7c0.1-0.3,0.4-0.4,0.7-0.3l0.9,0.4c0.3,0.1,0.4,0.4,0.3,0.7
			C138.6,335.7,138.4,335.8,138.2,335.8z M273.1,334.2c-0.2,0-0.4-0.1-0.5-0.3c-0.1-0.2,0-0.5,0.2-0.7l0.9-0.4
			c0.3-0.1,0.5,0,0.7,0.2c0.1,0.2,0,0.5-0.2,0.7l-0.9,0.4C273.3,334.1,273.2,334.2,273.1,334.2z M133.7,333.7c-0.1,0-0.1,0-0.2,0
			l-0.9-0.4c-0.2-0.1-0.4-0.4-0.2-0.7c0.1-0.2,0.4-0.4,0.7-0.2l0.9,0.4c0.2,0.1,0.4,0.4,0.2,0.7C134,333.6,133.9,333.7,133.7,333.7z
			 M277.6,332c-0.2,0-0.4-0.1-0.4-0.3c-0.1-0.2,0-0.5,0.2-0.7l0.9-0.5c0.2-0.1,0.5,0,0.7,0.2s0,0.5-0.2,0.7l-0.9,0.5
			C277.8,332,277.7,332,277.6,332z M129.2,331.5c-0.1,0-0.2,0-0.2-0.1L128,331c-0.2-0.1-0.3-0.4-0.2-0.7c0.1-0.2,0.4-0.3,0.7-0.2
			l0.9,0.5c0.2,0.1,0.3,0.4,0.2,0.7C129.5,331.4,129.4,331.5,129.2,331.5z M282,329.7c-0.2,0-0.3-0.1-0.4-0.3
			c-0.1-0.2,0-0.5,0.2-0.7l0.9-0.5c0.2-0.1,0.5,0,0.7,0.2c0.1,0.2,0,0.5-0.2,0.7l-0.9,0.5C282.2,329.6,282.1,329.7,282,329.7z
			 M124.7,329.2c-0.1,0-0.2,0-0.2-0.1l-0.9-0.5c-0.2-0.1-0.3-0.4-0.2-0.7c0.1-0.2,0.4-0.3,0.7-0.2l0.9,0.5c0.2,0.1,0.3,0.4,0.2,0.7
			C125.1,329.1,124.9,329.2,124.7,329.2z M286.4,327.2c-0.2,0-0.3-0.1-0.4-0.2c-0.1-0.2-0.1-0.5,0.2-0.7l0.9-0.5
			c0.2-0.1,0.5-0.1,0.7,0.2c0.1,0.2,0.1,0.5-0.2,0.7l-0.9,0.5C286.6,327.2,286.5,327.2,286.4,327.2z M120.4,326.7
			c-0.1,0-0.2,0-0.3-0.1l-0.9-0.5c-0.2-0.1-0.3-0.4-0.2-0.7c0.1-0.2,0.4-0.3,0.7-0.2l0.9,0.5c0.2,0.1,0.3,0.4,0.2,0.7
			C120.7,326.6,120.6,326.7,120.4,326.7z M290.7,324.6c-0.2,0-0.3-0.1-0.4-0.2c-0.1-0.2-0.1-0.5,0.2-0.7l0.8-0.5
			c0.2-0.1,0.5-0.1,0.7,0.2c0.1,0.2,0.1,0.5-0.2,0.7l-0.8,0.5C290.8,324.6,290.7,324.6,290.7,324.6z M116.1,324.1
			c-0.1,0-0.2,0-0.3-0.1l-0.8-0.5c-0.2-0.1-0.3-0.5-0.1-0.7c0.1-0.2,0.5-0.3,0.7-0.1l0.8,0.5c0.2,0.1,0.3,0.5,0.2,0.7
			C116.5,324,116.3,324.1,116.1,324.1z M294.8,321.9c-0.2,0-0.3-0.1-0.4-0.2c-0.2-0.2-0.1-0.5,0.1-0.7l0.8-0.6
			c0.2-0.2,0.5-0.1,0.7,0.1c0.2,0.2,0.1,0.5-0.1,0.7l-0.8,0.6C295,321.9,294.9,321.9,294.8,321.9z M111.9,321.3
			c-0.1,0-0.2,0-0.3-0.1l-0.8-0.6c-0.2-0.2-0.3-0.5-0.1-0.7c0.2-0.2,0.5-0.3,0.7-0.1l0.8,0.6c0.2,0.2,0.3,0.5,0.1,0.7
			C112.3,321.2,112.1,321.3,111.9,321.3z M299,319.1c-0.2,0-0.3-0.1-0.4-0.2c-0.2-0.2-0.1-0.5,0.1-0.7l0.8-0.6
			c0.2-0.2,0.5-0.1,0.7,0.1c0.2,0.2,0.1,0.5-0.1,0.7l-0.8,0.6C299.2,319.1,299.1,319.1,299,319.1z M107.8,318.4
			c-0.1,0-0.2,0-0.3-0.1l-0.8-0.6c-0.2-0.2-0.3-0.5-0.1-0.7c0.2-0.2,0.5-0.3,0.7-0.1l0.8,0.6c0.2,0.2,0.3,0.5,0.1,0.7
			C108.1,318.4,108,318.4,107.8,318.4z M303,316.1c-0.2,0-0.3-0.1-0.4-0.2c-0.2-0.2-0.1-0.5,0.1-0.7l0.8-0.6
			c0.2-0.2,0.5-0.1,0.7,0.1c0.2,0.2,0.1,0.5-0.1,0.7l-0.8,0.6C303.2,316.1,303.1,316.1,303,316.1z M103.8,315.4
			c-0.1,0-0.2,0-0.3-0.1l-0.8-0.6c-0.2-0.2-0.3-0.5-0.1-0.7c0.2-0.2,0.5-0.3,0.7-0.1l0.8,0.6c0.2,0.2,0.3,0.5,0.1,0.7
			C104.1,315.4,104,315.4,103.8,315.4z M306.9,313c-0.1,0-0.3-0.1-0.4-0.2c-0.2-0.2-0.1-0.5,0.1-0.7l0.8-0.6
			c0.2-0.2,0.5-0.1,0.7,0.1c0.2,0.2,0.1,0.5-0.1,0.7l-0.8,0.6C307.1,313,307,313,306.9,313z M99.9,312.3c-0.1,0-0.2,0-0.3-0.1
			l-0.8-0.6c-0.2-0.2-0.2-0.5-0.1-0.7c0.2-0.2,0.5-0.2,0.7-0.1l0.8,0.6c0.2,0.2,0.2,0.5,0.1,0.7C100.2,312.3,100.1,312.3,99.9,312.3
			z M310.7,309.8c-0.1,0-0.3-0.1-0.4-0.2c-0.2-0.2-0.2-0.5,0.1-0.7l0.8-0.7c0.2-0.2,0.5-0.2,0.7,0c0.2,0.2,0.2,0.5,0,0.7l-0.8,0.7
			C311,309.8,310.9,309.8,310.7,309.8z M96.1,309.1c-0.1,0-0.2,0-0.3-0.1l-0.8-0.7c-0.2-0.2-0.2-0.5,0-0.7c0.2-0.2,0.5-0.2,0.7,0
			l0.7,0.7c0.2,0.2,0.2,0.5,0,0.7C96.4,309,96.2,309.1,96.1,309.1z M314.5,306.5c-0.1,0-0.3-0.1-0.4-0.2c-0.2-0.2-0.2-0.5,0-0.7
			l0.7-0.7c0.2-0.2,0.5-0.2,0.7,0c0.2,0.2,0.2,0.5,0,0.7l-0.7,0.7C314.7,306.5,314.6,306.5,314.5,306.5z M92.4,305.8
			c-0.1,0-0.2,0-0.3-0.1l-0.7-0.7c-0.2-0.2-0.2-0.5,0-0.7c0.2-0.2,0.5-0.2,0.7,0l0.7,0.7c0.2,0.2,0.2,0.5,0,0.7
			C92.6,305.7,92.5,305.8,92.4,305.8z M318.1,303.1c-0.1,0-0.3-0.1-0.4-0.2c-0.2-0.2-0.2-0.5,0-0.7l0.7-0.7c0.2-0.2,0.5-0.2,0.7,0
			c0.2,0.2,0.2,0.5,0,0.7l-0.7,0.7C318.4,303,318.2,303.1,318.1,303.1z M88.8,302.3c-0.1,0-0.3,0-0.4-0.1l-0.7-0.7
			c-0.2-0.2-0.2-0.5,0-0.7c0.2-0.2,0.5-0.2,0.7,0l0.7,0.7c0.2,0.2,0.2,0.5,0,0.7C89,302.3,88.9,302.3,88.8,302.3z M321.7,299.6
			c-0.1,0-0.3,0-0.3-0.1c-0.2-0.2-0.2-0.5,0-0.7l0.7-0.7c0.2-0.2,0.5-0.2,0.7,0c0.2,0.2,0.2,0.5,0,0.7l-0.7,0.7
			C321.9,299.5,321.8,299.6,321.7,299.6z M85.3,298.7c-0.1,0-0.3-0.1-0.4-0.2l-0.7-0.7c-0.2-0.2-0.2-0.5,0-0.7
			c0.2-0.2,0.5-0.2,0.7,0l0.7,0.7c0.2,0.2,0.2,0.5,0,0.7C85.5,298.7,85.4,298.7,85.3,298.7z M325.1,295.9c-0.1,0-0.2,0-0.3-0.1
			c-0.2-0.2-0.2-0.5,0-0.7l0.7-0.7c0.2-0.2,0.5-0.2,0.7,0c0.2,0.2,0.2,0.5,0,0.7l-0.7,0.7C325.3,295.9,325.2,295.9,325.1,295.9z
			 M81.9,295.1c-0.1,0-0.3-0.1-0.4-0.2l-0.7-0.7c-0.2-0.2-0.2-0.5,0-0.7c0.2-0.2,0.5-0.2,0.7,0l0.7,0.7c0.2,0.2,0.2,0.5,0,0.7
			C82.1,295,82,295.1,81.9,295.1z M328.4,292.2c-0.1,0-0.2,0-0.3-0.1c-0.2-0.2-0.2-0.5-0.1-0.7l0.6-0.8c0.2-0.2,0.5-0.2,0.7-0.1
			c0.2,0.2,0.2,0.5,0.1,0.7l-0.7,0.8C328.7,292.1,328.5,292.2,328.4,292.2z M78.6,291.3c-0.1,0-0.3-0.1-0.4-0.2l-0.6-0.8
			c-0.2-0.2-0.1-0.5,0.1-0.7c0.2-0.2,0.5-0.1,0.7,0.1l0.6,0.8c0.2,0.2,0.2,0.5-0.1,0.7C78.8,291.3,78.7,291.3,78.6,291.3z
			 M331.6,288.3c-0.1,0-0.2,0-0.3-0.1c-0.2-0.2-0.2-0.5-0.1-0.7l0.6-0.8c0.2-0.2,0.5-0.3,0.7-0.1c0.2,0.2,0.3,0.5,0.1,0.7l-0.6,0.8
			C331.9,288.3,331.7,288.3,331.6,288.3z M75.4,287.4c-0.1,0-0.3-0.1-0.4-0.2l-0.6-0.8c-0.2-0.2-0.1-0.5,0.1-0.7
			c0.2-0.2,0.5-0.1,0.7,0.1l0.6,0.8c0.2,0.2,0.1,0.5-0.1,0.7C75.6,287.4,75.5,287.4,75.4,287.4z M334.7,284.4c-0.1,0-0.2,0-0.3-0.1
			c-0.2-0.2-0.3-0.5-0.1-0.7l0.6-0.8c0.2-0.2,0.5-0.3,0.7-0.1c0.2,0.2,0.3,0.5,0.1,0.7l-0.6,0.8C335,284.3,334.8,284.4,334.7,284.4z
			 M72.4,283.5c-0.2,0-0.3-0.1-0.4-0.2l-0.6-0.8c-0.2-0.2-0.1-0.5,0.1-0.7c0.2-0.2,0.5-0.1,0.7,0.1l0.6,0.8c0.2,0.2,0.1,0.5-0.1,0.7
			C72.6,283.5,72.5,283.5,72.4,283.5z M337.6,280.3c-0.1,0-0.2,0-0.3-0.1c-0.2-0.2-0.3-0.5-0.1-0.7l0.6-0.8c0.2-0.2,0.5-0.3,0.7-0.1
			c0.2,0.2,0.3,0.5,0.1,0.7l-0.6,0.8C337.9,280.3,337.8,280.3,337.6,280.3z M69.4,279.4c-0.2,0-0.3-0.1-0.4-0.2l-0.6-0.8
			c-0.2-0.2-0.1-0.5,0.1-0.7c0.2-0.2,0.5-0.1,0.7,0.1l0.6,0.8c0.2,0.2,0.1,0.5-0.1,0.7C69.6,279.4,69.5,279.4,69.4,279.4z
			 M340.5,276.2c-0.1,0-0.2,0-0.3-0.1c-0.2-0.2-0.3-0.5-0.1-0.7l0.6-0.8c0.2-0.2,0.5-0.3,0.7-0.1c0.2,0.2,0.3,0.5,0.1,0.7l-0.6,0.8
			C340.8,276.1,340.6,276.2,340.5,276.2z M66.6,275.3c-0.2,0-0.3-0.1-0.4-0.2l-0.5-0.8c-0.1-0.2-0.1-0.5,0.1-0.7
			c0.2-0.1,0.5-0.1,0.7,0.1l0.5,0.8c0.2,0.2,0.1,0.5-0.1,0.7C66.8,275.3,66.7,275.3,66.6,275.3z M343.2,272c-0.1,0-0.2,0-0.3-0.1
			c-0.2-0.1-0.3-0.5-0.2-0.7l0.5-0.9c0.1-0.2,0.5-0.3,0.7-0.2c0.2,0.1,0.3,0.5,0.2,0.7l-0.5,0.9C343.5,271.9,343.3,272,343.2,272z
			 M64,271.1c-0.2,0-0.3-0.1-0.4-0.2L63,270c-0.1-0.2-0.1-0.5,0.2-0.7c0.2-0.1,0.5-0.1,0.7,0.2l0.5,0.9c0.1,0.2,0.1,0.5-0.2,0.7
			C64.1,271.1,64,271.1,64,271.1z M345.8,267.7c-0.1,0-0.2,0-0.2-0.1c-0.2-0.1-0.3-0.4-0.2-0.7l0.5-0.9c0.1-0.2,0.4-0.3,0.7-0.2
			c0.2,0.1,0.3,0.4,0.2,0.7l-0.5,0.9C346.1,267.6,345.9,267.7,345.8,267.7z M61.4,266.8c-0.2,0-0.3-0.1-0.4-0.3l-0.5-0.9
			c-0.1-0.2-0.1-0.5,0.2-0.7c0.2-0.1,0.5-0.1,0.7,0.2l0.5,0.9c0.1,0.2,0.1,0.5-0.2,0.7C61.6,266.8,61.5,266.8,61.4,266.8z
			 M348.2,263.3c-0.1,0-0.2,0-0.2-0.1c-0.2-0.1-0.3-0.4-0.2-0.7l0.5-0.9c0.1-0.2,0.4-0.3,0.7-0.2c0.2,0.1,0.3,0.4,0.2,0.7l-0.5,0.9
			C348.5,263.2,348.4,263.3,348.2,263.3z M59,262.4c-0.2,0-0.4-0.1-0.4-0.3l-0.5-0.9c-0.1-0.2,0-0.5,0.2-0.7c0.2-0.1,0.5,0,0.7,0.2
			l0.5,0.9c0.1,0.2,0,0.5-0.2,0.7C59.2,262.4,59.1,262.4,59,262.4z M350.5,258.9c-0.1,0-0.2,0-0.2-0.1c-0.2-0.1-0.3-0.4-0.2-0.7
			l0.4-0.9c0.1-0.2,0.4-0.3,0.7-0.2c0.2,0.1,0.3,0.4,0.2,0.7l-0.4,0.9C350.9,258.8,350.7,258.9,350.5,258.9z M56.7,258
			c-0.2,0-0.4-0.1-0.4-0.3l-0.4-0.9c-0.1-0.2,0-0.5,0.2-0.7c0.2-0.1,0.5,0,0.7,0.2l0.4,0.9c0.1,0.2,0,0.5-0.2,0.7
			C56.9,258,56.8,258,56.7,258z M352.7,254.4c-0.1,0-0.1,0-0.2,0c-0.3-0.1-0.4-0.4-0.2-0.7l0.4-0.9c0.1-0.3,0.4-0.4,0.7-0.2
			c0.3,0.1,0.4,0.4,0.2,0.7l-0.4,0.9C353.1,254.3,352.9,254.4,352.7,254.4z M54.6,253.5c-0.2,0-0.4-0.1-0.5-0.3l-0.4-0.9
			c-0.1-0.3,0-0.5,0.3-0.7c0.3-0.1,0.5,0,0.7,0.3l0.4,0.9c0.1,0.3,0,0.5-0.2,0.7C54.7,253.5,54.7,253.5,54.6,253.5z M354.7,249.8
			c-0.1,0-0.1,0-0.2,0c-0.3-0.1-0.4-0.4-0.3-0.7l0.4-0.9c0.1-0.3,0.4-0.4,0.7-0.3c0.3,0.1,0.4,0.4,0.3,0.7l-0.4,0.9
			C355.1,249.7,354.9,249.8,354.7,249.8z M52.6,248.9c-0.2,0-0.4-0.1-0.5-0.3l-0.4-0.9c-0.1-0.3,0-0.5,0.3-0.7
			c0.3-0.1,0.5,0,0.7,0.3l0.4,0.9c0.1,0.3,0,0.5-0.3,0.7C52.7,248.9,52.7,248.9,52.6,248.9z M356.6,245.2c-0.1,0-0.1,0-0.2,0
			c-0.3-0.1-0.4-0.4-0.3-0.6l0.4-0.9c0.1-0.3,0.4-0.4,0.6-0.3c0.3,0.1,0.4,0.4,0.3,0.6l-0.4,0.9C357,245,356.8,245.2,356.6,245.2z
			 M50.7,244.3c-0.2,0-0.4-0.1-0.5-0.3l-0.4-0.9c-0.1-0.3,0-0.5,0.3-0.6c0.3-0.1,0.5,0,0.6,0.3l0.4,0.9c0.1,0.3,0,0.5-0.3,0.6
			C50.9,244.3,50.8,244.3,50.7,244.3z M358.4,240.5c-0.1,0-0.1,0-0.2,0c-0.3-0.1-0.4-0.4-0.3-0.6l0.3-0.9c0.1-0.3,0.4-0.4,0.6-0.3
			c0.3,0.1,0.4,0.4,0.3,0.6l-0.3,1C358.8,240.3,358.6,240.5,358.4,240.5z M49,239.6c-0.2,0-0.4-0.1-0.5-0.3l-0.3-0.9
			c-0.1-0.3,0.1-0.5,0.3-0.6c0.3-0.1,0.5,0.1,0.6,0.3l0.3,0.9c0.1,0.3,0,0.5-0.3,0.6C49.1,239.6,49.1,239.6,49,239.6z M360,235.7
			c-0.1,0-0.1,0-0.2,0c-0.3-0.1-0.4-0.4-0.3-0.6l0.3-1c0.1-0.3,0.4-0.4,0.6-0.3c0.3,0.1,0.4,0.4,0.3,0.6l-0.3,1
			C360.4,235.6,360.2,235.7,360,235.7z M47.4,234.9c-0.2,0-0.4-0.1-0.5-0.3l-0.3-1c-0.1-0.3,0.1-0.5,0.3-0.6
			c0.3-0.1,0.5,0.1,0.6,0.3l0.3,1c0.1,0.3-0.1,0.5-0.3,0.6C47.5,234.8,47.5,234.9,47.4,234.9z M361.4,230.9c0,0-0.1,0-0.1,0
			c-0.3-0.1-0.4-0.4-0.3-0.6l0.3-1c0.1-0.3,0.4-0.4,0.6-0.3c0.3,0.1,0.4,0.4,0.3,0.6l-0.3,1C361.9,230.8,361.7,230.9,361.4,230.9z
			 M46,230.1c-0.2,0-0.4-0.1-0.5-0.4l-0.3-1c-0.1-0.3,0.1-0.5,0.3-0.6c0.3-0.1,0.5,0.1,0.6,0.3l0.3,1c0.1,0.3-0.1,0.5-0.3,0.6
			C46.1,230.1,46,230.1,46,230.1z M362.8,226.1c0,0-0.1,0-0.1,0c-0.3-0.1-0.4-0.3-0.4-0.6l0.2-1c0.1-0.3,0.3-0.4,0.6-0.4
			c0.3,0.1,0.4,0.3,0.4,0.6l-0.2,1C363.2,225.9,363,226.1,362.8,226.1z M44.7,225.2c-0.2,0-0.4-0.2-0.5-0.4l-0.2-1
			c-0.1-0.3,0.1-0.5,0.4-0.6c0.3-0.1,0.5,0.1,0.6,0.4l0.2,1c0.1,0.3-0.1,0.5-0.4,0.6C44.8,225.2,44.8,225.2,44.7,225.2z
			 M363.9,221.2c0,0-0.1,0-0.1,0c-0.3-0.1-0.4-0.3-0.4-0.6l0.2-1c0.1-0.3,0.3-0.4,0.6-0.4c0.3,0.1,0.4,0.3,0.4,0.6l-0.2,1
			C364.4,221.1,364.1,221.2,363.9,221.2z M43.6,220.4c-0.2,0-0.4-0.2-0.5-0.4l-0.2-1c-0.1-0.3,0.1-0.5,0.4-0.6
			c0.3-0.1,0.5,0.1,0.6,0.4l0.2,1c0.1,0.3-0.1,0.5-0.4,0.6C43.7,220.4,43.6,220.4,43.6,220.4z M364.9,216.3
			C364.9,216.3,364.9,216.3,364.9,216.3c-0.4-0.1-0.5-0.3-0.5-0.6l0.2-1c0-0.3,0.3-0.5,0.6-0.4c0.3,0.1,0.5,0.3,0.4,0.6l-0.2,1
			C365.4,216.2,365.2,216.3,364.9,216.3z M42.6,215.5c-0.2,0-0.4-0.2-0.5-0.4l-0.2-1c0-0.3,0.1-0.5,0.4-0.6c0.3,0,0.5,0.1,0.6,0.4
			l0.2,1C43.1,215.1,43,215.4,42.6,215.5C42.7,215.5,42.6,215.5,42.6,215.5z M365.8,211.4C365.8,211.4,365.7,211.4,365.8,211.4
			c-0.4,0-0.5-0.3-0.5-0.6l0.2-1c0-0.3,0.3-0.5,0.6-0.4c0.3,0,0.5,0.3,0.4,0.6l-0.2,1C366.2,211.2,366,211.4,365.8,211.4z
			 M41.8,210.5c-0.2,0-0.5-0.2-0.5-0.4l-0.1-1c0-0.3,0.1-0.5,0.4-0.6c0.3,0,0.5,0.1,0.6,0.4l0.1,1C42.3,210.2,42.1,210.5,41.8,210.5
			C41.8,210.5,41.8,210.5,41.8,210.5z M366.5,206.5C366.5,206.5,366.4,206.4,366.5,206.5c-0.3,0-0.5-0.3-0.5-0.6l0.1-1
			c0-0.3,0.3-0.5,0.6-0.4s0.5,0.3,0.4,0.6l-0.1,1C367,206.3,366.7,206.5,366.5,206.5z M41.1,205.6c-0.2,0-0.5-0.2-0.5-0.4l-0.1-1
			c0-0.3,0.2-0.5,0.4-0.6c0.3,0,0.5,0.2,0.6,0.4l0.1,1C41.6,205.3,41.4,205.5,41.1,205.6C41.1,205.6,41.1,205.6,41.1,205.6z
			 M367,201.5C367,201.5,367,201.5,367,201.5c-0.3,0-0.5-0.3-0.5-0.5l0.1-1c0-0.3,0.3-0.5,0.5-0.5c0.3,0,0.5,0.3,0.5,0.5l-0.1,1
			C367.5,201.3,367.3,201.5,367,201.5z M40.6,200.6c-0.3,0-0.5-0.2-0.5-0.5l-0.1-1c0-0.3,0.2-0.5,0.5-0.5c0.3,0,0.5,0.2,0.5,0.5
			l0.1,1C41.1,200.3,40.9,200.6,40.6,200.6C40.6,200.6,40.6,200.6,40.6,200.6z M367.5,196.5C367.4,196.5,367.4,196.5,367.5,196.5
			c-0.3,0-0.5-0.3-0.5-0.5l0.1-1c0-0.3,0.3-0.5,0.5-0.5c0.3,0,0.5,0.3,0.5,0.5l-0.1,1C367.9,196.3,367.7,196.5,367.5,196.5z
			 M40.2,195.6c-0.3,0-0.5-0.2-0.5-0.5l-0.1-1c0-0.3,0.2-0.5,0.5-0.5c0.3,0,0.5,0.2,0.5,0.5l0.1,1C40.7,195.4,40.5,195.6,40.2,195.6
			C40.2,195.6,40.2,195.6,40.2,195.6z M367.7,191.5C367.7,191.5,367.7,191.5,367.7,191.5c-0.3,0-0.5-0.2-0.5-0.5l0-1
			c0-0.3,0.3-0.5,0.5-0.5c0.3,0,0.5,0.2,0.5,0.5l0,1C368.2,191.3,368,191.5,367.7,191.5z M40,190.6c-0.3,0-0.5-0.2-0.5-0.5l0-1
			c0-0.3,0.2-0.5,0.5-0.5c0,0,0,0,0,0c0.3,0,0.5,0.2,0.5,0.5l0,1C40.5,190.4,40.2,190.6,40,190.6C40,190.6,40,190.6,40,190.6z
			 M367.8,186.5C367.8,186.5,367.8,186.5,367.8,186.5c-0.3,0-0.5-0.2-0.5-0.5l0-1l0-0.2c0-0.3,0.2-0.5,0.5-0.5s0.5,0.2,0.5,0.5
			l0,0.2l0,1C368.3,186.3,368.1,186.5,367.8,186.5z M39.9,185.6c-0.3,0-0.5-0.2-0.5-0.5l0-1c0-0.3,0.2-0.5,0.5-0.5c0,0,0,0,0,0
			c0.3,0,0.5,0.2,0.5,0.5l0,1C40.4,185.4,40.2,185.6,39.9,185.6z M367.8,181.3c-0.3,0-0.5-0.2-0.5-0.5l0-1c0-0.3,0.2-0.5,0.5-0.5
			c0.3,0,0.5,0.2,0.5,0.5l0,1C368.3,181,368.1,181.3,367.8,181.3C367.8,181.3,367.8,181.3,367.8,181.3z M39.9,180.6
			C39.9,180.6,39.9,180.6,39.9,180.6c-0.3,0-0.5-0.2-0.5-0.5l0-1c0-0.3,0.3-0.5,0.5-0.5c0.3,0,0.5,0.2,0.5,0.5l0,1
			C40.4,180.4,40.2,180.6,39.9,180.6z M367.6,176.3c-0.3,0-0.5-0.2-0.5-0.5l-0.1-1c0-0.3,0.2-0.5,0.5-0.5c0.3,0,0.5,0.2,0.5,0.5
			l0.1,1C368.1,176,367.9,176.3,367.6,176.3C367.6,176.3,367.6,176.3,367.6,176.3z M40.2,175.6C40.2,175.6,40.1,175.6,40.2,175.6
			c-0.3,0-0.5-0.3-0.5-0.5l0.1-1c0-0.3,0.3-0.5,0.5-0.5c0.3,0,0.5,0.3,0.5,0.5l-0.1,1C40.7,175.4,40.4,175.6,40.2,175.6z
			 M367.2,171.3c-0.3,0-0.5-0.2-0.5-0.5l-0.1-1c0-0.3,0.2-0.5,0.5-0.5c0.3,0,0.5,0.2,0.5,0.5l0.1,1
			C367.7,171,367.5,171.3,367.2,171.3C367.2,171.3,367.2,171.3,367.2,171.3z M40.5,170.6C40.5,170.6,40.5,170.6,40.5,170.6
			c-0.3,0-0.5-0.3-0.5-0.5l0.1-1c0-0.3,0.3-0.5,0.5-0.4c0.3,0,0.5,0.3,0.4,0.5l-0.1,1C41,170.4,40.8,170.6,40.5,170.6z M366.7,166.3
			c-0.3,0-0.5-0.2-0.5-0.4l-0.1-1c0-0.3,0.2-0.5,0.4-0.6c0.3,0,0.5,0.2,0.6,0.4l0.1,1C367.2,166,367,166.3,366.7,166.3
			C366.7,166.3,366.7,166.3,366.7,166.3z M41.1,165.7C41,165.7,41,165.7,41.1,165.7c-0.3,0-0.5-0.3-0.5-0.6l0.1-1
			c0-0.3,0.3-0.5,0.6-0.4c0.3,0,0.5,0.3,0.4,0.6l-0.1,1C41.5,165.5,41.3,165.7,41.1,165.7z M366,161.4c-0.2,0-0.5-0.2-0.5-0.4
			l-0.1-1c0-0.3,0.1-0.5,0.4-0.6c0.3,0,0.5,0.1,0.6,0.4l0.1,1C366.6,161.1,366.4,161.3,366,161.4C366.1,161.4,366.1,161.4,366,161.4
			z M41.7,160.7C41.7,160.7,41.7,160.7,41.7,160.7c-0.3,0-0.5-0.3-0.5-0.6l0.2-1c0-0.3,0.3-0.5,0.6-0.4c0.3,0,0.5,0.3,0.4,0.6
			l-0.2,1C42.2,160.5,42,160.7,41.7,160.7z M365.2,156.4c-0.2,0-0.4-0.2-0.5-0.4l-0.2-1c-0.1-0.3,0.1-0.5,0.4-0.6
			c0.3-0.1,0.5,0.1,0.6,0.4l0.2,1C365.8,156.1,365.6,156.4,365.2,156.4C365.3,156.4,365.3,156.4,365.2,156.4z M42.6,155.8
			C42.5,155.8,42.5,155.8,42.6,155.8c-0.4-0.1-0.5-0.3-0.5-0.6l0.2-1c0.1-0.3,0.3-0.4,0.6-0.4c0.3,0.1,0.4,0.3,0.4,0.6l-0.2,1
			C43,155.6,42.8,155.8,42.6,155.8z M364.3,151.5c-0.2,0-0.4-0.2-0.5-0.4l-0.2-1c-0.1-0.3,0.1-0.5,0.4-0.6c0.3-0.1,0.5,0.1,0.6,0.4
			l0.2,1c0.1,0.3-0.1,0.5-0.4,0.6C364.4,151.5,364.3,151.5,364.3,151.5z M43.5,150.9c0,0-0.1,0-0.1,0c-0.3-0.1-0.4-0.3-0.4-0.6
			l0.2-1c0.1-0.3,0.3-0.4,0.6-0.4c0.3,0.1,0.4,0.3,0.4,0.6l-0.2,1C44,150.7,43.8,150.9,43.5,150.9z M363.2,146.6
			c-0.2,0-0.4-0.2-0.5-0.4l-0.2-1c-0.1-0.3,0.1-0.5,0.4-0.6c0.3-0.1,0.5,0.1,0.6,0.4l0.2,1c0.1,0.3-0.1,0.5-0.4,0.6
			C363.3,146.6,363.2,146.6,363.2,146.6z M44.7,146c0,0-0.1,0-0.1,0c-0.3-0.1-0.4-0.3-0.4-0.6l0.2-1c0.1-0.3,0.3-0.4,0.6-0.4
			c0.3,0.1,0.4,0.3,0.4,0.6l-0.2,1C45.1,145.9,44.9,146,44.7,146z M361.9,141.8c-0.2,0-0.4-0.1-0.5-0.4l-0.3-1
			c-0.1-0.3,0.1-0.5,0.3-0.6c0.3-0.1,0.5,0.1,0.6,0.3l0.3,1c0.1,0.3-0.1,0.5-0.3,0.6C362,141.8,362,141.8,361.9,141.8z M45.9,141.2
			c0,0-0.1,0-0.1,0c-0.3-0.1-0.4-0.4-0.3-0.6l0.3-1c0.1-0.3,0.4-0.4,0.6-0.3c0.3,0.1,0.4,0.4,0.3,0.6l-0.3,1
			C46.4,141,46.2,141.2,45.9,141.2z M360.5,137c-0.2,0-0.4-0.1-0.5-0.4l-0.3-1c-0.1-0.3,0.1-0.5,0.3-0.6c0.3-0.1,0.5,0.1,0.6,0.3
			l0.3,1c0.1,0.3-0.1,0.5-0.3,0.6C360.6,137,360.6,137,360.5,137z M47.4,136.4c0,0-0.1,0-0.1,0c-0.3-0.1-0.4-0.4-0.3-0.6l0.3-1
			c0.1-0.3,0.4-0.4,0.6-0.3c0.3,0.1,0.4,0.4,0.3,0.6l-0.3,1C47.8,136.2,47.6,136.4,47.4,136.4z M359,132.2c-0.2,0-0.4-0.1-0.5-0.3
			l-0.3-0.9c-0.1-0.3,0-0.5,0.3-0.6c0.3-0.1,0.5,0,0.6,0.3l0.3,0.9c0.1,0.3-0.1,0.5-0.3,0.6C359.1,132.2,359,132.2,359,132.2z
			 M48.9,131.6c-0.1,0-0.1,0-0.2,0c-0.3-0.1-0.4-0.4-0.3-0.6l0.3-1c0.1-0.3,0.4-0.4,0.6-0.3c0.3,0.1,0.4,0.4,0.3,0.6l-0.3,0.9
			C49.3,131.5,49.1,131.6,48.9,131.6z M357.3,127.5c-0.2,0-0.4-0.1-0.5-0.3l-0.4-0.9c-0.1-0.3,0-0.5,0.3-0.6c0.3-0.1,0.5,0,0.6,0.3
			l0.4,0.9c0.1,0.3,0,0.5-0.3,0.6C357.4,127.5,357.3,127.5,357.3,127.5z M50.7,126.9c-0.1,0-0.1,0-0.2,0c-0.3-0.1-0.4-0.4-0.3-0.6
			l0.4-0.9c0.1-0.3,0.4-0.4,0.6-0.3c0.3,0.1,0.4,0.4,0.3,0.6l-0.4,0.9C51.1,126.8,50.9,126.9,50.7,126.9z M355.4,122.9
			c-0.2,0-0.4-0.1-0.5-0.3l-0.4-0.9c-0.1-0.3,0-0.5,0.3-0.7c0.3-0.1,0.5,0,0.7,0.3l0.4,0.9c0.1,0.3,0,0.5-0.3,0.7
			C355.6,122.9,355.5,122.9,355.4,122.9z M52.5,122.2c-0.1,0-0.1,0-0.2,0c-0.3-0.1-0.4-0.4-0.3-0.7l0.4-0.9c0.1-0.3,0.4-0.4,0.7-0.3
			c0.3,0.1,0.4,0.4,0.3,0.7l-0.4,0.9C52.9,122.1,52.7,122.2,52.5,122.2z M353.5,118.3c-0.2,0-0.4-0.1-0.5-0.3l-0.4-0.9
			c-0.1-0.3,0-0.5,0.2-0.7c0.3-0.1,0.5,0,0.7,0.2l0.4,0.9c0.1,0.3,0,0.5-0.3,0.7C353.6,118.3,353.5,118.3,353.5,118.3z M54.5,117.6
			c-0.1,0-0.1,0-0.2,0c-0.3-0.1-0.4-0.4-0.2-0.7l0.4-0.9c0.1-0.3,0.4-0.4,0.7-0.2c0.3,0.1,0.4,0.4,0.2,0.7l-0.4,0.9
			C54.9,117.5,54.7,117.6,54.5,117.6z M351.3,113.8c-0.2,0-0.4-0.1-0.4-0.3l-0.4-0.9c-0.1-0.2,0-0.5,0.2-0.7c0.2-0.1,0.5,0,0.7,0.2
			l0.4,0.9c0.1,0.2,0,0.5-0.2,0.7C351.5,113.8,351.4,113.8,351.3,113.8z M56.7,113.1c-0.1,0-0.1,0-0.2-0.1c-0.2-0.1-0.3-0.4-0.2-0.7
			l0.4-0.9c0.1-0.2,0.4-0.3,0.7-0.2c0.2,0.1,0.3,0.4,0.2,0.7l-0.4,0.9C57,113,56.9,113.1,56.7,113.1z M349.1,109.3
			c-0.2,0-0.4-0.1-0.4-0.3l-0.5-0.9c-0.1-0.2,0-0.5,0.2-0.7c0.2-0.1,0.5,0,0.7,0.2l0.5,0.9c0.1,0.2,0,0.5-0.2,0.7
			C349.3,109.3,349.2,109.3,349.1,109.3z M59,108.7c-0.1,0-0.2,0-0.2-0.1c-0.2-0.1-0.3-0.4-0.2-0.7L59,107c0.1-0.2,0.4-0.3,0.7-0.2
			c0.2,0.1,0.3,0.4,0.2,0.7l-0.5,0.9C59.3,108.6,59.1,108.7,59,108.7z M346.7,105c-0.2,0-0.3-0.1-0.4-0.3l-0.5-0.9
			c-0.1-0.2-0.1-0.5,0.2-0.7c0.2-0.1,0.5-0.1,0.7,0.2l0.5,0.9c0.1,0.2,0.1,0.5-0.2,0.7C346.9,104.9,346.8,105,346.7,105z
			 M61.4,104.3c-0.1,0-0.2,0-0.2-0.1c-0.2-0.1-0.3-0.4-0.2-0.7l0.5-0.9c0.1-0.2,0.4-0.3,0.7-0.2c0.2,0.1,0.3,0.4,0.2,0.7l-0.5,0.9
			C61.7,104.2,61.6,104.3,61.4,104.3z M344.2,100.7c-0.2,0-0.3-0.1-0.4-0.2l-0.5-0.8c-0.1-0.2-0.1-0.5,0.2-0.7
			c0.2-0.1,0.5-0.1,0.7,0.2l0.5,0.9c0.1,0.2,0.1,0.5-0.2,0.7C344.4,100.6,344.3,100.7,344.2,100.7z M63.9,100c-0.1,0-0.2,0-0.3-0.1
			c-0.2-0.1-0.3-0.5-0.2-0.7l0.5-0.9c0.1-0.2,0.5-0.3,0.7-0.2c0.2,0.1,0.3,0.5,0.2,0.7l-0.5,0.9C64.3,99.9,64.1,100,63.9,100z
			 M341.5,96.4c-0.2,0-0.3-0.1-0.4-0.2l-0.5-0.8c-0.2-0.2-0.1-0.5,0.1-0.7c0.2-0.2,0.5-0.1,0.7,0.1l0.5,0.8c0.2,0.2,0.1,0.5-0.1,0.7
			C341.7,96.4,341.6,96.4,341.5,96.4z M66.6,95.7c-0.1,0-0.2,0-0.3-0.1c-0.2-0.2-0.3-0.5-0.1-0.7l0.6-0.8c0.2-0.2,0.5-0.3,0.7-0.1
			c0.2,0.2,0.3,0.5,0.1,0.7L67,95.5C66.9,95.7,66.8,95.7,66.6,95.7z M338.8,92.3c-0.2,0-0.3-0.1-0.4-0.2l-0.6-0.8
			c-0.2-0.2-0.1-0.5,0.1-0.7c0.2-0.2,0.5-0.1,0.7,0.1l0.6,0.8c0.2,0.2,0.1,0.5-0.1,0.7C339,92.3,338.9,92.3,338.8,92.3z M69.4,91.6
			c-0.1,0-0.2,0-0.3-0.1c-0.2-0.2-0.3-0.5-0.1-0.7l0.6-0.8c0.2-0.2,0.5-0.3,0.7-0.1c0.2,0.2,0.3,0.5,0.1,0.7l-0.6,0.8
			C69.7,91.5,69.6,91.6,69.4,91.6z M335.9,88.2c-0.2,0-0.3-0.1-0.4-0.2l-0.6-0.8c-0.2-0.2-0.1-0.5,0.1-0.7c0.2-0.2,0.5-0.1,0.7,0.1
			l0.6,0.8c0.2,0.2,0.1,0.5-0.1,0.7C336.1,88.2,336,88.2,335.9,88.2z M72.4,87.5c-0.1,0-0.2,0-0.3-0.1c-0.2-0.2-0.3-0.5-0.1-0.7
			l0.6-0.8c0.2-0.2,0.5-0.3,0.7-0.1c0.2,0.2,0.3,0.5,0.1,0.7l-0.6,0.8C72.7,87.5,72.5,87.5,72.4,87.5z M332.8,84.3
			c-0.1,0-0.3-0.1-0.4-0.2l-0.6-0.8c-0.2-0.2-0.1-0.5,0.1-0.7c0.2-0.2,0.5-0.1,0.7,0.1l0.6,0.8c0.2,0.2,0.1,0.5-0.1,0.7
			C333,84.2,332.9,84.3,332.8,84.3z M75.4,83.6c-0.1,0-0.2,0-0.3-0.1c-0.2-0.2-0.3-0.5-0.1-0.7l0.6-0.8c0.2-0.2,0.5-0.2,0.7-0.1
			c0.2,0.2,0.2,0.5,0.1,0.7l-0.6,0.8C75.7,83.5,75.6,83.6,75.4,83.6z M329.7,80.4c-0.1,0-0.3-0.1-0.4-0.2l-0.6-0.8
			c-0.2-0.2-0.2-0.5,0.1-0.7c0.2-0.2,0.5-0.2,0.7,0.1l0.6,0.8c0.2,0.2,0.1,0.5-0.1,0.7C329.9,80.3,329.8,80.4,329.7,80.4z
			 M78.6,79.7c-0.1,0-0.2,0-0.3-0.1c-0.2-0.2-0.2-0.5-0.1-0.7l0.7-0.8c0.2-0.2,0.5-0.2,0.7-0.1c0.2,0.2,0.2,0.5,0.1,0.7L79,79.5
			C78.9,79.6,78.7,79.7,78.6,79.7z M326.4,76.6c-0.1,0-0.3-0.1-0.4-0.2l-0.7-0.7c-0.2-0.2-0.2-0.5,0-0.7c0.2-0.2,0.5-0.2,0.7,0
			l0.7,0.7c0.2,0.2,0.2,0.5,0,0.7C326.7,76.5,326.5,76.6,326.4,76.6z M81.9,75.9c-0.1,0-0.2,0-0.3-0.1c-0.2-0.2-0.2-0.5,0-0.7
			l0.7-0.7c0.2-0.2,0.5-0.2,0.7,0c0.2,0.2,0.2,0.5,0,0.7l-0.7,0.7C82.1,75.9,82,75.9,81.9,75.9z M323,72.9c-0.1,0-0.3-0.1-0.4-0.2
			L322,72c-0.2-0.2-0.2-0.5,0-0.7c0.2-0.2,0.5-0.2,0.7,0l0.7,0.7c0.2,0.2,0.2,0.5,0,0.7C323.3,72.9,323.2,72.9,323,72.9z M85.3,72.3
			c-0.1,0-0.2,0-0.3-0.1c-0.2-0.2-0.2-0.5,0-0.7l0.7-0.7c0.2-0.2,0.5-0.2,0.7,0c0.2,0.2,0.2,0.5,0,0.7l-0.7,0.7
			C85.5,72.2,85.4,72.3,85.3,72.3z M319.6,69.3c-0.1,0-0.3,0-0.4-0.1l-0.7-0.7c-0.2-0.2-0.2-0.5,0-0.7c0.2-0.2,0.5-0.2,0.7,0
			l0.7,0.7c0.2,0.2,0.2,0.5,0,0.7C319.8,69.3,319.7,69.3,319.6,69.3z M88.8,68.7c-0.1,0-0.3,0-0.4-0.1c-0.2-0.2-0.2-0.5,0-0.7
			l0.7-0.7c0.2-0.2,0.5-0.2,0.7,0c0.2,0.2,0.2,0.5,0,0.7l-0.7,0.7C89,68.6,88.9,68.7,88.8,68.7z M316,65.9c-0.1,0-0.2,0-0.3-0.1
			l-0.7-0.7c-0.2-0.2-0.2-0.5,0-0.7c0.2-0.2,0.5-0.2,0.7,0l0.7,0.7c0.2,0.2,0.2,0.5,0,0.7C316.2,65.8,316.1,65.9,316,65.9z
			 M92.4,65.2c-0.1,0-0.3-0.1-0.4-0.2c-0.2-0.2-0.2-0.5,0-0.7l0.7-0.7c0.2-0.2,0.5-0.2,0.7,0c0.2,0.2,0.2,0.5,0,0.7l-0.7,0.7
			C92.6,65.2,92.5,65.2,92.4,65.2z M312.3,62.5c-0.1,0-0.2,0-0.3-0.1l-0.8-0.7c-0.2-0.2-0.2-0.5,0-0.7c0.2-0.2,0.5-0.2,0.7,0
			l0.8,0.7c0.2,0.2,0.2,0.5,0,0.7C312.5,62.4,312.4,62.5,312.3,62.5z M96.1,61.9c-0.1,0-0.3-0.1-0.4-0.2c-0.2-0.2-0.2-0.5,0-0.7
			l0.8-0.7c0.2-0.2,0.5-0.2,0.7,0.1c0.2,0.2,0.2,0.5-0.1,0.7l-0.8,0.7C96.3,61.9,96.2,61.9,96.1,61.9z M308.5,59.2
			c-0.1,0-0.2,0-0.3-0.1l-0.8-0.6c-0.2-0.2-0.2-0.5-0.1-0.7c0.2-0.2,0.5-0.2,0.7-0.1l0.8,0.6c0.2,0.2,0.2,0.5,0.1,0.7
			C308.7,59.2,308.6,59.2,308.5,59.2z M99.9,58.7c-0.1,0-0.3-0.1-0.4-0.2c-0.2-0.2-0.1-0.5,0.1-0.7l0.8-0.6c0.2-0.2,0.5-0.1,0.7,0.1
			c0.2,0.2,0.1,0.5-0.1,0.7l-0.8,0.6C100.1,58.6,100,58.7,99.9,58.7z M304.6,56.1c-0.1,0-0.2,0-0.3-0.1l-0.8-0.6
			c-0.2-0.2-0.3-0.5-0.1-0.7c0.2-0.2,0.5-0.3,0.7-0.1l0.8,0.6c0.2,0.2,0.3,0.5,0.1,0.7C304.9,56,304.7,56.1,304.6,56.1z M103.8,55.6
			c-0.1,0-0.3-0.1-0.4-0.2c-0.2-0.2-0.1-0.5,0.1-0.7l0.8-0.6c0.2-0.2,0.5-0.1,0.7,0.1c0.2,0.2,0.1,0.5-0.1,0.7l-0.8,0.6
			C104,55.5,103.9,55.6,103.8,55.6z M300.6,53.1c-0.1,0-0.2,0-0.3-0.1l-0.8-0.6c-0.2-0.2-0.3-0.5-0.1-0.7c0.2-0.2,0.5-0.3,0.7-0.1
			l0.8,0.6c0.2,0.2,0.3,0.5,0.1,0.7C300.9,53,300.7,53.1,300.6,53.1z M107.8,52.6c-0.2,0-0.3-0.1-0.4-0.2c-0.2-0.2-0.1-0.5,0.1-0.7
			l0.8-0.6c0.2-0.2,0.5-0.1,0.7,0.1c0.2,0.2,0.1,0.5-0.1,0.7l-0.8,0.6C108,52.5,107.9,52.6,107.8,52.6z M296.5,50.2
			c-0.1,0-0.2,0-0.3-0.1l-0.8-0.6c-0.2-0.2-0.3-0.5-0.1-0.7c0.2-0.2,0.5-0.3,0.7-0.1l0.8,0.6c0.2,0.2,0.3,0.5,0.1,0.7
			C296.8,50.1,296.6,50.2,296.5,50.2z M111.9,49.7c-0.2,0-0.3-0.1-0.4-0.2c-0.2-0.2-0.1-0.5,0.1-0.7l0.8-0.6
			c0.2-0.2,0.5-0.1,0.7,0.1c0.2,0.2,0.1,0.5-0.1,0.7l-0.8,0.6C112.1,49.7,112,49.7,111.9,49.7z M292.3,47.4c-0.1,0-0.2,0-0.3-0.1
			l-0.8-0.5c-0.2-0.1-0.3-0.5-0.2-0.7c0.1-0.2,0.5-0.3,0.7-0.2l0.8,0.5c0.2,0.1,0.3,0.5,0.1,0.7C292.6,47.3,292.5,47.4,292.3,47.4z
			 M116.1,47c-0.2,0-0.3-0.1-0.4-0.2c-0.1-0.2-0.1-0.5,0.2-0.7l0.8-0.5c0.2-0.1,0.5-0.1,0.7,0.2c0.1,0.2,0.1,0.5-0.2,0.7l-0.8,0.5
			C116.3,46.9,116.2,47,116.1,47z M288.1,44.8c-0.1,0-0.2,0-0.3-0.1l-0.9-0.5c-0.2-0.1-0.3-0.4-0.2-0.7c0.1-0.2,0.4-0.3,0.7-0.2
			l0.9,0.5c0.2,0.1,0.3,0.4,0.2,0.7C288.4,44.7,288.2,44.8,288.1,44.8z M120.3,44.4c-0.2,0-0.3-0.1-0.4-0.2
			c-0.1-0.2-0.1-0.5,0.2-0.7l0.9-0.5c0.2-0.1,0.5-0.1,0.7,0.2c0.1,0.2,0.1,0.5-0.2,0.7l-0.9,0.5C120.5,44.3,120.4,44.4,120.3,44.4z
			 M283.7,42.3c-0.1,0-0.2,0-0.2-0.1l-0.9-0.5c-0.2-0.1-0.3-0.4-0.2-0.7c0.1-0.2,0.4-0.3,0.7-0.2l0.9,0.5c0.2,0.1,0.3,0.4,0.2,0.7
			C284.1,42.2,283.9,42.3,283.7,42.3z M124.7,41.9c-0.2,0-0.3-0.1-0.4-0.3c-0.1-0.2,0-0.5,0.2-0.7l0.9-0.5c0.2-0.1,0.5,0,0.7,0.2
			c0.1,0.2,0,0.5-0.2,0.7l-0.9,0.5C124.8,41.9,124.8,41.9,124.7,41.9z M279.3,39.9c-0.1,0-0.2,0-0.2-0.1l-0.9-0.5
			c-0.2-0.1-0.3-0.4-0.2-0.7c0.1-0.2,0.4-0.3,0.7-0.2l0.9,0.5c0.2,0.1,0.3,0.4,0.2,0.7C279.7,39.8,279.5,39.9,279.3,39.9z
			 M129.1,39.5c-0.2,0-0.4-0.1-0.4-0.3c-0.1-0.2,0-0.5,0.2-0.7l0.9-0.5c0.2-0.1,0.5,0,0.7,0.2c0.1,0.2,0,0.5-0.2,0.7l-0.9,0.5
			C129.2,39.5,129.2,39.5,129.1,39.5z M274.8,37.7c-0.1,0-0.1,0-0.2,0l-0.9-0.4c-0.2-0.1-0.4-0.4-0.2-0.7c0.1-0.2,0.4-0.4,0.7-0.2
			l0.9,0.4c0.2,0.1,0.4,0.4,0.2,0.7C275.2,37.5,275,37.7,274.8,37.7z M133.5,37.3c-0.2,0-0.4-0.1-0.5-0.3c-0.1-0.2,0-0.5,0.2-0.7
			l0.9-0.4c0.3-0.1,0.5,0,0.7,0.2c0.1,0.2,0,0.5-0.2,0.7l-0.9,0.4C133.7,37.3,133.6,37.3,133.5,37.3z M270.3,35.5
			c-0.1,0-0.1,0-0.2,0l-0.9-0.4c-0.3-0.1-0.4-0.4-0.3-0.7c0.1-0.3,0.4-0.4,0.7-0.3l0.9,0.4c0.3,0.1,0.4,0.4,0.3,0.7
			C270.6,35.4,270.5,35.5,270.3,35.5z M138.1,35.3c-0.2,0-0.4-0.1-0.5-0.3c-0.1-0.3,0-0.5,0.3-0.7l0.9-0.4c0.3-0.1,0.5,0,0.7,0.3
			c0.1,0.3,0,0.5-0.3,0.7l-0.9,0.4C138.2,35.2,138.1,35.3,138.1,35.3z M265.7,33.6c-0.1,0-0.1,0-0.2,0l-0.9-0.4
			c-0.3-0.1-0.4-0.4-0.3-0.6c0.1-0.3,0.4-0.4,0.6-0.3l0.9,0.4c0.3,0.1,0.4,0.4,0.3,0.7C266,33.5,265.9,33.6,265.7,33.6z M142.7,33.3
			c-0.2,0-0.4-0.1-0.5-0.3c-0.1-0.3,0-0.5,0.3-0.7l0.9-0.4c0.3-0.1,0.5,0,0.6,0.3c0.1,0.3,0,0.5-0.3,0.6l-0.9,0.4
			C142.8,33.3,142.7,33.3,142.7,33.3z M261,31.8c-0.1,0-0.1,0-0.2,0l-0.9-0.3c-0.3-0.1-0.4-0.4-0.3-0.6c0.1-0.3,0.4-0.4,0.6-0.3
			l0.9,0.3c0.3,0.1,0.4,0.4,0.3,0.6C261.4,31.6,261.2,31.8,261,31.8z M147.3,31.5c-0.2,0-0.4-0.1-0.5-0.3c-0.1-0.3,0-0.5,0.3-0.6
			l0.9-0.3c0.3-0.1,0.5,0,0.6,0.3c0.1,0.3,0,0.5-0.3,0.6l-0.9,0.3C147.5,31.5,147.4,31.5,147.3,31.5z M256.3,30.1
			c-0.1,0-0.1,0-0.2,0l-0.9-0.3c-0.3-0.1-0.4-0.4-0.3-0.6c0.1-0.3,0.4-0.4,0.6-0.3l1,0.3c0.3,0.1,0.4,0.4,0.3,0.6
			C256.7,30,256.5,30.1,256.3,30.1z M152.1,29.9c-0.2,0-0.4-0.1-0.5-0.3c-0.1-0.3,0.1-0.5,0.3-0.6l1-0.3c0.3-0.1,0.5,0.1,0.6,0.3
			c0.1,0.3-0.1,0.5-0.3,0.6l-0.9,0.3C152.2,29.9,152.1,29.9,152.1,29.9z M251.5,28.6c0,0-0.1,0-0.1,0l-1-0.3
			c-0.3-0.1-0.4-0.4-0.3-0.6c0.1-0.3,0.4-0.4,0.6-0.3l1,0.3c0.3,0.1,0.4,0.4,0.3,0.6C251.9,28.4,251.7,28.6,251.5,28.6z M156.8,28.4
			c-0.2,0-0.4-0.1-0.5-0.4c-0.1-0.3,0.1-0.5,0.3-0.6l1-0.3c0.3-0.1,0.5,0.1,0.6,0.3c0.1,0.3-0.1,0.5-0.3,0.6l-1,0.3
			C156.9,28.4,156.9,28.4,156.8,28.4z M246.7,27.2c0,0-0.1,0-0.1,0l-1-0.3c-0.3-0.1-0.4-0.3-0.4-0.6c0.1-0.3,0.3-0.4,0.6-0.4l1,0.3
			c0.3,0.1,0.4,0.3,0.4,0.6C247.1,27,246.9,27.2,246.7,27.2z M161.6,27c-0.2,0-0.4-0.1-0.5-0.4c-0.1-0.3,0.1-0.5,0.4-0.6l1-0.3
			c0.3-0.1,0.5,0.1,0.6,0.4c0.1,0.3-0.1,0.5-0.4,0.6l-1,0.3C161.7,27,161.7,27,161.6,27z M241.8,26c0,0-0.1,0-0.1,0l-1-0.2
			c-0.3-0.1-0.4-0.3-0.4-0.6c0.1-0.3,0.3-0.4,0.6-0.4l1,0.2c0.3,0.1,0.4,0.3,0.4,0.6C242.3,25.8,242,26,241.8,26z M166.5,25.8
			c-0.2,0-0.4-0.2-0.5-0.4c-0.1-0.3,0.1-0.5,0.4-0.6l1-0.2c0.3-0.1,0.5,0.1,0.6,0.4c0.1,0.3-0.1,0.5-0.4,0.6l-1,0.2
			C166.6,25.8,166.5,25.8,166.5,25.8z M236.9,24.9c0,0-0.1,0-0.1,0l-1-0.2c-0.3-0.1-0.4-0.3-0.4-0.6c0.1-0.3,0.3-0.4,0.6-0.4l1,0.2
			c0.3,0.1,0.4,0.3,0.4,0.6C237.4,24.7,237.2,24.9,236.9,24.9z M171.4,24.7c-0.2,0-0.4-0.2-0.5-0.4c-0.1-0.3,0.1-0.5,0.4-0.6l1-0.2
			c0.3-0.1,0.5,0.1,0.6,0.4c0.1,0.3-0.1,0.5-0.4,0.6L171.4,24.7C171.4,24.7,171.4,24.7,171.4,24.7z M232,23.9
			C232,23.9,232,23.9,232,23.9l-1.1-0.2c-0.3,0-0.5-0.3-0.4-0.6c0-0.3,0.3-0.5,0.6-0.4l1,0.2c0.3,0,0.5,0.3,0.4,0.6
			C232.5,23.8,232.3,23.9,232,23.9z M176.3,23.8c-0.2,0-0.5-0.2-0.5-0.4c0-0.3,0.1-0.5,0.4-0.6l1-0.2c0.3,0,0.5,0.1,0.6,0.4
			c0,0.3-0.1,0.5-0.4,0.6L176.3,23.8C176.3,23.8,176.3,23.8,176.3,23.8z M227.1,23.2C227.1,23.2,227,23.2,227.1,23.2L226,23
			c-0.3,0-0.5-0.3-0.4-0.6c0-0.3,0.3-0.5,0.6-0.4l1,0.1c0.3,0,0.5,0.3,0.4,0.6C227.5,23,227.3,23.2,227.1,23.2z M181.2,23.1
			c-0.2,0-0.5-0.2-0.5-0.4c0-0.3,0.2-0.5,0.4-0.6l1-0.1c0.3,0,0.5,0.2,0.6,0.4c0,0.3-0.2,0.5-0.4,0.6L181.2,23.1
			C181.3,23.1,181.3,23.1,181.2,23.1z M222.1,22.5C222.1,22.5,222.1,22.5,222.1,22.5l-1-0.1c-0.3,0-0.5-0.3-0.4-0.5
			c0-0.3,0.3-0.5,0.5-0.4l1,0.1c0.3,0,0.5,0.3,0.4,0.6C222.6,22.4,222.4,22.5,222.1,22.5z M186.2,22.5c-0.3,0-0.5-0.2-0.5-0.4
			c0-0.3,0.2-0.5,0.4-0.6l1-0.1c0.3,0,0.5,0.2,0.5,0.4c0,0.3-0.2,0.5-0.4,0.5L186.2,22.5C186.2,22.5,186.2,22.5,186.2,22.5z
			 M217.1,22.1C217.1,22.1,217.1,22.1,217.1,22.1l-1-0.1c-0.3,0-0.5-0.3-0.5-0.5c0-0.3,0.3-0.5,0.5-0.5l1,0.1c0.3,0,0.5,0.3,0.5,0.5
			C217.6,21.9,217.4,22.1,217.1,22.1z M191.2,22c-0.3,0-0.5-0.2-0.5-0.5c0-0.3,0.2-0.5,0.5-0.5l1-0.1c0.3,0,0.5,0.2,0.5,0.5
			c0,0.3-0.2,0.5-0.5,0.5L191.2,22C191.2,22,191.2,22,191.2,22z M212.2,21.7C212.1,21.7,212.1,21.7,212.2,21.7l-1,0
			c-0.3,0-0.5-0.2-0.5-0.5c0-0.3,0.3-0.5,0.5-0.5l1,0c0.3,0,0.5,0.2,0.5,0.5C212.6,21.5,212.4,21.7,212.2,21.7z M196.2,21.7
			c-0.3,0-0.5-0.2-0.5-0.5c0-0.3,0.2-0.5,0.5-0.5l1,0c0.3,0,0.5,0.2,0.5,0.5c0,0.3-0.2,0.5-0.5,0.5L196.2,21.7
			C196.2,21.7,196.2,21.7,196.2,21.7z M207.2,21.6C207.2,21.6,207.2,21.6,207.2,21.6l-1,0c-0.3,0-0.5-0.2-0.5-0.5
			c0-0.3,0.2-0.5,0.5-0.5c0,0,0,0,0,0l1,0c0.3,0,0.5,0.2,0.5,0.5C207.7,21.4,207.4,21.6,207.2,21.6z M201.2,21.6
			c-0.3,0-0.5-0.2-0.5-0.5c0-0.3,0.2-0.5,0.5-0.5l1,0c0,0,0,0,0,0c0.3,0,0.5,0.2,0.5,0.5c0,0.3-0.2,0.5-0.5,0.5L201.2,21.6
			C201.2,21.6,201.2,21.6,201.2,21.6z"/>
	</g>
	<g>
		<g>
			<path class="st1" d="M125.6,182.9H32.8c-4,0-7.2-3.2-7.2-7.2V49.4c0-4,3.2-7.2,7.2-7.2h92.8c4,0,7.3,3.2,7.3,7.2v126.2
				C132.8,179.7,129.6,182.9,125.6,182.9z"/>
		</g>
		<g>
			<rect x="32.5" y="55.4" class="st2" width="93.4" height="114.3"/>
		</g>
		<g>
			<path class="st0" d="M125.6,183.4H32.8c-4.3,0-7.8-3.5-7.8-7.8V49.4c0-4.3,3.5-7.8,7.8-7.8h92.8c4.3,0,7.8,3.5,7.8,7.8v126.2
				C133.3,179.9,129.9,183.4,125.6,183.4z M32.8,42.7c-3.7,0-6.8,3-6.8,6.8v126.2c0,3.7,3,6.8,6.8,6.8h92.8c3.7,0,6.8-3,6.8-6.8
				V49.4c0-3.7-3-6.8-6.8-6.8H32.8z"/>
		</g>
		<g>
			<g>
				<rect x="55.7" y="97.2" class="st1" width="47.1" height="30.7"/>
			</g>
			<g>
				<path class="st0" d="M103.2,128.4H55.2V96.7h48.1V128.4z M56.2,127.4h46.1V97.7H56.2V127.4z"/>
			</g>
		</g>
		<g>
			<path class="st0" d="M72.2,120.7v-16.3l14.6,8.2L72.2,120.7z M73.2,106.1V119l11.6-6.5L73.2,106.1z"/>
		</g>
	</g>
	<g>
		<g>
			<path class="st1" d="M286.1,268.8H121.6V153.3c0-2.8,2.2-5,5-5h154.5c2.8,0,5,2.2,5,5V268.8z"/>
		</g>
		<g>
			<path class="st0" d="M286.6,269.3H121.1v-116c0-3,2.5-5.5,5.5-5.5h154.5c3,0,5.5,2.5,5.5,5.5V269.3z M122.1,268.3h163.5v-115
				c0-2.5-2-4.5-4.5-4.5H126.6c-2.5,0-4.5,2-4.5,4.5V268.3z"/>
		</g>
		<g>
			<path class="st1" d="M227.7,262.6l-2.9,5.2h-41.9l-2.9-5.2h-67.5v7.2c0,3.7,3,6.7,6.7,6.7h169.1c3.7,0,6.7-3,6.7-6.7v-7.2H227.7z
				"/>
		</g>
		<g>
			<rect x="133.7" y="161.5" class="st2" width="140.3" height="93.4"/>
		</g>
		<g>
			<g>
				<polyline class="st1" points="255.1,143.6 204.5,113.9 152.6,143.6 				"/>
			</g>
			<g>
				<g>
					<rect x="140.8" y="246.3" class="st1" width="126" height="9.5"/>
				</g>
				<g>
					<rect x="145.6" y="238" class="st1" width="116.6" height="8.3"/>
				</g>
			</g>
			<g>
				<g>
					<g>
						<rect x="153.6" y="161.6" class="st1" width="16" height="6.1"/>
					</g>
					<g>
						<rect x="153.6" y="231.8" class="st1" width="16" height="6.1"/>
					</g>
					<g>
						<rect x="156.5" y="167.8" class="st1" width="10.2" height="64"/>
					</g>
				</g>
				<g>
					<g>
						<rect x="181.7" y="161.6" class="st1" width="16" height="6.1"/>
					</g>
					<g>
						<rect x="181.7" y="231.8" class="st1" width="16" height="6.1"/>
					</g>
					<g>
						<rect x="184.7" y="167.8" class="st1" width="10.2" height="64"/>
					</g>
				</g>
				<g>
					<g>
						<rect x="209.9" y="161.6" class="st1" width="16" height="6.1"/>
					</g>
					<g>
						<rect x="209.9" y="231.8" class="st1" width="16" height="6.1"/>
					</g>
					<g>
						<rect x="212.8" y="167.8" class="st1" width="10.2" height="64"/>
					</g>
				</g>
				<g>
					<g>
						<rect x="238.1" y="161.6" class="st1" width="16" height="6.1"/>
					</g>
					<g>
						<rect x="238.1" y="231.8" class="st1" width="16" height="6.1"/>
					</g>
					<g>
						<rect x="241" y="167.8" class="st1" width="10.2" height="64"/>
					</g>
				</g>
			</g>
			<g>
				<rect x="145.6" y="153.1" class="st1" width="116.6" height="8.3"/>
			</g>
			<g>
				<rect x="140.8" y="143.6" class="st1" width="126" height="9.5"/>
			</g>
			<g>
				<polyline class="st3" points="249.6,143.6 204.4,117.1 158.1,143.6 				"/>
			</g>
			<g>
				<polygon class="st1" points="165.6,143.8 165.4,143.4 204.3,121.1 204.4,121.2 242.3,143.4 242.1,143.8 204.3,121.7 				"/>
			</g>
			<g>
				<rect x="145.6" y="240.2" class="st3" width="116.6" height="6.1"/>
			</g>
			<g>
				<path class="st0" d="M267.4,153.6h-127v-10.5h127V153.6z M141.3,152.6h125v-8.5h-125V152.6z"/>
			</g>
			<g>
				<polygon class="st0" points="152.8,144 152.4,143.2 204.5,113.4 204.7,113.5 255.3,143.2 254.8,144 204.5,114.5 				"/>
			</g>
			<g>
				<path class="st0" d="M262.6,161.9H145.1v-9.3h117.6V161.9z M146.1,160.9h115.6v-7.3H146.1V160.9z"/>
			</g>
			<g>
				<g>
					<path class="st0" d="M267.4,256.3h-127v-10.5h127V256.3z M141.3,255.3h125v-8.5h-125V255.3z"/>
				</g>
				<g>
					<path class="st0" d="M262.6,246.8H145.1v-9.3h117.6V246.8z M146.1,245.8h115.6v-7.3H146.1V245.8z"/>
				</g>
			</g>
			<g>
				<g>
					<g>
						<path class="st0" d="M170.1,168.1h-17v-7.1h17V168.1z M154.1,167.1h15v-5.1h-15V167.1z"/>
					</g>
					<g>
						<path class="st0" d="M170.1,238.4h-17v-7.1h17V238.4z M154.1,237.4h15v-5.1h-15V237.4z"/>
					</g>
					<g>
						<path class="st0" d="M167.2,232.3H156v-65h11.2V232.3z M157,231.3h9.2v-63H157V231.3z"/>
					</g>
				</g>
				<g>
					<g>
						<path class="st0" d="M198.3,168.1h-17v-7.1h17V168.1z M182.2,167.1h15v-5.1h-15V167.1z"/>
					</g>
					<g>
						<path class="st0" d="M198.3,238.4h-17v-7.1h17V238.4z M182.2,237.4h15v-5.1h-15V237.4z"/>
					</g>
					<g>
						<path class="st0" d="M195.4,232.3h-11.2v-65h11.2V232.3z M185.2,231.3h9.2v-63h-9.2V231.3z"/>
					</g>
				</g>
				<g>
					<g>
						<path class="st0" d="M226.5,168.1h-17v-7.1h17V168.1z M210.4,167.1h15v-5.1h-15V167.1z"/>
					</g>
					<g>
						<path class="st0" d="M226.5,238.4h-17v-7.1h17V238.4z M210.4,237.4h15v-5.1h-15V237.4z"/>
					</g>
					<g>
						<path class="st0" d="M223.5,232.3h-11.2v-65h11.2V232.3z M213.3,231.3h9.2v-63h-9.2V231.3z"/>
					</g>
				</g>
				<g>
					<g>
						<path class="st0" d="M254.6,168.1h-17v-7.1h17V168.1z M238.6,167.1h15v-5.1h-15V167.1z"/>
					</g>
					<g>
						<path class="st0" d="M254.6,238.4h-17v-7.1h17V238.4z M238.6,237.4h15v-5.1h-15V237.4z"/>
					</g>
					<g>
						<path class="st0" d="M251.7,232.3h-11.2v-65h11.2V232.3z M241.5,231.3h9.2v-63h-9.2V231.3z"/>
					</g>
				</g>
			</g>
		</g>
		<g>
			<path class="st2" d="M224.8,271.5h-41.9l-2.9-5.2h-67.5v3.5c0,3.7,3,6.7,6.7,6.7h169.1c3.7,0,6.7-3,6.7-6.7v-3.5h-67.5
				L224.8,271.5z"/>
		</g>
		<g>
			<path class="st0" d="M288.4,277H119.3c-4,0-7.2-3.2-7.2-7.2v-7.7h68.3l2.9,5.2h41.3l2.9-5.2h68.3v7.7
				C295.6,273.8,292.4,277,288.4,277z M113,263.1v6.7c0,3.4,2.8,6.2,6.2,6.2h169.1c3.4,0,6.2-2.8,6.2-6.2v-6.7H228l-2.9,5.2h-42.4
				l-2.9-5.2H113z"/>
		</g>
	</g>
	<g>
		<g>
			
				<ellipse transform="matrix(0.1593 -0.9872 0.9872 0.1593 186.731 383.9717)" class="st2" cx="318.8" cy="82.3" rx="18.1" ry="18.1"/>
		</g>
		<g>
			<g>
				<path class="st0" d="M320.1,81.1c2.1,0.6,4.5,1.4,4.5,4.3c0,2.3-1.8,3.8-4.5,4.2v2.9h-1.8v-2.9c-2-0.2-3.9-1-5.2-2.3l1.1-2.1
					c1.3,1.1,2.8,1.9,4.1,2.1v-4.2c-2.1-0.6-4.3-1.4-4.3-4.2c0-2.2,1.7-3.7,4.3-4v-2.8h1.8v2.7c1.6,0.1,3.1,0.7,4.3,1.5l-1,2.2
					c-1.1-0.7-2.3-1.1-3.2-1.3V81.1z M318.3,80.5v-3.3c-1,0.2-1.6,0.7-1.6,1.5C316.7,79.6,317.3,80.1,318.3,80.5z M320.1,87.3
					c1.1-0.2,1.7-0.8,1.7-1.7c0-1-0.7-1.5-1.7-1.9V87.3z"/>
			</g>
		</g>
		<g>
			<path class="st0" d="M318.8,98.7c-9,0-16.3-7.3-16.3-16.3S309.8,66,318.8,66s16.3,7.3,16.3,16.3S327.8,98.7,318.8,98.7z
				 M318.8,67c-8.5,0-15.3,6.9-15.3,15.3s6.9,15.3,15.3,15.3c8.5,0,15.3-6.9,15.3-15.3S327.3,67,318.8,67z"/>
		</g>
	</g>
	<g>
		<g>
			<path class="st0" d="M383.6,227.5c-7.4,0-13.4-6-13.4-13.4s6-13.4,13.4-13.4s13.4,6,13.4,13.4S390.9,227.5,383.6,227.5z
				 M383.6,201.7c-6.8,0-12.4,5.6-12.4,12.4c0,6.8,5.6,12.4,12.4,12.4c6.8,0,12.4-5.6,12.4-12.4C396,207.2,390.4,201.7,383.6,201.7z
				"/>
		</g>
		<g>
			<g>
				<path class="st4" d="M379.8,210.3c-0.1,1.2-0.1,2.5-0.1,3.8c0,1.3,0,2.6,0.1,3.8c1.2,0.1,2.5,0.1,3.8,0.1c1.3,0,2.6,0,3.8-0.1
					c0.1-1.2,0.1-2.5,0.1-3.8c0-1.3,0-2.6-0.1-3.8c-1.2-0.1-2.5-0.1-3.8-0.1S381,210.2,379.8,210.3z"/>
			</g>
			<g>
				<path class="st0" d="M395.8,218.1c0.1-0.4,0.3-0.8,0.3-1.3c-2,0.5-4.6,0.8-7.6,1c0,0.4,0,0.8-0.1,1.2
					C391.1,218.8,393.6,218.5,395.8,218.1z"/>
			</g>
			<g>
				<path class="st0" d="M371,216.8c0.1,0.4,0.2,0.9,0.3,1.3c2.2,0.4,4.7,0.7,7.3,0.9c0-0.4,0-0.8-0.1-1.2
					C375.6,217.6,373,217.3,371,216.8z"/>
			</g>
			<g>
				<path class="st0" d="M388.6,210.3c3,0.2,5.6,0.6,7.6,1c-0.1-0.4-0.2-0.9-0.3-1.3c-2.2-0.4-4.7-0.7-7.3-0.9
					C388.5,209.5,388.5,209.9,388.6,210.3z"/>
			</g>
			<g>
				<path class="st0" d="M383.6,210.2c1.3,0,2.6,0,3.8,0.1c0-0.4,0-0.8-0.1-1.2c-1.2-0.1-2.5-0.1-3.7-0.1s-2.5,0-3.7,0.1
					c0,0.4-0.1,0.8-0.1,1.2C381,210.2,382.2,210.2,383.6,210.2z"/>
			</g>
			<g>
				<path class="st0" d="M383.6,218c-1.3,0-2.6,0-3.8-0.1c0,0.4,0,0.8,0.1,1.2c1.2,0.1,2.5,0.1,3.7,0.1s2.5,0,3.7-0.1
					c0-0.4,0.1-0.8,0.1-1.2C386.2,217.9,384.9,218,383.6,218z"/>
			</g>
			<g>
				<path class="st0" d="M371.3,210.1c-0.1,0.4-0.3,0.8-0.3,1.3c2-0.5,4.6-0.8,7.6-1c0-0.4,0-0.8,0.1-1.2
					C376,209.3,373.5,209.6,371.3,210.1z"/>
			</g>
			<g>
				<path class="st0" d="M379.7,214.1c0-1.3,0-2.6,0.1-3.8c0-0.4,0-0.8,0.1-1.2c0.2-3,0.6-5.6,1-7.6c-0.4,0.1-0.9,0.2-1.3,0.3
					c-0.4,2.2-0.7,4.7-0.9,7.3c0,0.4,0,0.8-0.1,1.2c-0.1,1.2-0.1,2.5-0.1,3.7c0,1.3,0,2.5,0.1,3.7c0,0.4,0,0.8,0.1,1.2
					c0.2,2.6,0.5,5.2,0.9,7.3c0.4,0.1,0.8,0.3,1.3,0.3c-0.5-2-0.8-4.6-1-7.6c0-0.4-0.1-0.8-0.1-1.2
					C379.7,216.7,379.7,215.4,379.7,214.1z"/>
			</g>
			<g>
				<path class="st0" d="M387.6,201.8c-0.4-0.1-0.8-0.3-1.3-0.3c0.5,2,0.8,4.6,1,7.6c0,0.4,0.1,0.8,0.1,1.2c0.1,1.2,0.1,2.5,0.1,3.8
					c0,1.3,0,2.6-0.1,3.8c0,0.4,0,0.8-0.1,1.2c-0.2,3-0.6,5.6-1,7.6c0.4-0.1,0.9-0.2,1.3-0.3c0.4-2.2,0.7-4.7,0.9-7.3
					c0-0.4,0-0.8,0.1-1.2c0.1-1.2,0.1-2.5,0.1-3.7c0-1.3,0-2.5-0.1-3.7c0-0.4,0-0.8-0.1-1.2C388.3,206.5,388,204,387.6,201.8z"/>
			</g>
		</g>
	</g>
	<g>
		<circle class="st2" cx="366" cy="189.1" r="7.8"/>
	</g>
	<g>
		<path class="st2" d="M12.4,201.2c0,3.4-2.8,6.2-6.2,6.2c-3.4,0-6.2-2.8-6.2-6.2c0-3.4,2.8-6.2,6.2-6.2
			C9.7,194.9,12.4,197.7,12.4,201.2z"/>
	</g>
	<g>
		<circle class="st2" cx="24.6" cy="9.5" r="9.5"/>
	</g>
	<g>
		<path class="st2" d="M388.8,87.4c0,3.5-2.9,6.4-6.4,6.4c-3.5,0-6.4-2.9-6.4-6.4c0-3.5,2.9-6.4,6.4-6.4
			C386,81,388.8,83.9,388.8,87.4z"/>
	</g>
	<g>
		<g>
			<path class="st1" d="M158.5,101.6h-44c-1.7,0-3.1-1.4-3.1-3.1V9.9c0-1.7,1.4-3.1,3.1-3.1h44c1.7,0,3.1,1.4,3.1,3.1v88.6
				C161.6,100.2,160.2,101.6,158.5,101.6z"/>
		</g>
		<g>
			<path class="st0" d="M158.5,102.1h-44c-2,0-3.6-1.6-3.6-3.6V9.9c0-2,1.6-3.6,3.6-3.6h44c2,0,3.6,1.6,3.6,3.6v88.6
				C162.1,100.5,160.5,102.1,158.5,102.1z M114.5,7.4c-1.4,0-2.6,1.2-2.6,2.6v88.6c0,1.4,1.2,2.6,2.6,2.6h44c1.4,0,2.6-1.2,2.6-2.6
				V9.9c0-1.4-1.2-2.6-2.6-2.6H114.5z"/>
		</g>
		<g>
			<rect x="114.2" y="16.8" class="st3" width="44.6" height="72.9"/>
		</g>
		<g>
			<circle class="st2" cx="136.5" cy="95.2" r="3.7"/>
		</g>
	</g>
	<g>
		<g>
			<polygon class="st1" points="116.5,328.1 112.2,302.8 88.5,313.7 97.3,318.2 90.7,330.9 101.2,336.3 107.7,323.6 			"/>
		</g>
		<g>
			<path class="st0" d="M101.4,336.9l-11.3-5.8l6.5-12.7l-9.3-4.8l25.3-11.6l4.5,27l-9.3-4.8L101.4,336.9z M91.4,330.7l9.6,4.9
				l6.5-12.7l8.4,4.3l-4-23.7l-22.3,10.2l8.3,4.3L91.4,330.7z"/>
		</g>
	</g>
	<g>
		<g>
			<rect x="156" y="301.6" class="st1" width="81.4" height="10.5"/>
		</g>
		<g>
			<rect x="156" y="305.1" class="st3" width="70.1" height="7"/>
		</g>
		<g>
			<path class="st0" d="M237.9,312.6h-82.4v-11.5h82.4V312.6z M156.5,311.6h80.4v-9.5h-80.4V311.6z"/>
		</g>
		<g>
			<g>
				<rect x="156" y="316.3" class="st0" width="2.5" height="2.5"/>
			</g>
			<g>
				<rect x="160.5" y="316.3" class="st0" width="2.5" height="2.5"/>
			</g>
			<g>
				<rect x="165" y="316.3" class="st0" width="2.5" height="2.5"/>
			</g>
			<g>
				<rect x="169.5" y="316.3" class="st0" width="2.5" height="2.5"/>
			</g>
			<g>
				<rect x="174" y="316.3" class="st0" width="2.5" height="2.5"/>
			</g>
			<g>
				<rect x="178.5" y="316.3" class="st0" width="2.5" height="2.5"/>
			</g>
			<g>
				<rect x="183" y="316.3" class="st0" width="2.5" height="2.5"/>
			</g>
			<g>
				<rect x="187.5" y="316.3" class="st0" width="2.5" height="2.5"/>
			</g>
		</g>
	</g>
	<g>
		<g>
			<rect x="307.7" y="113.9" class="st1" width="71.1" height="37.2"/>
		</g>
		<g>
			<rect x="307.7" y="119.5" class="st3" width="71.1" height="31.6"/>
		</g>
		<g>
			<path class="st0" d="M379.2,151.6h-72.1v-38.2h72.1V151.6z M308.2,150.6h70.1v-36.2h-70.1V150.6z"/>
		</g>
		<g>
			<rect x="307.7" y="153.8" class="st0" width="71.1" height="1"/>
		</g>
		<g>
			<rect x="307.7" y="157.1" class="st0" width="71.1" height="1"/>
		</g>
		<g>
			<rect x="307.7" y="160.4" class="st0" width="71.1" height="1"/>
		</g>
		<g>
			<rect x="307.7" y="163.6" class="st0" width="71.1" height="1"/>
		</g>
		<g>
			
				<ellipse transform="matrix(0.9249 -0.3803 0.3803 0.9249 -25.4924 140.6314)" class="st1" cx="343.2" cy="134.8" rx="10.5" ry="10.5"/>
		</g>
		<g>
			<path class="st0" d="M343.2,145.8c-6,0-11-4.9-11-11s4.9-11,11-11c6,0,11,4.9,11,11S349.2,145.8,343.2,145.8z M343.2,124.9
				c-5.5,0-10,4.5-10,10s4.5,10,10,10c5.5,0,10-4.5,10-10S348.7,124.9,343.2,124.9z"/>
		</g>
		<g>
			<g>
				<rect x="316.3" y="133" class="st2" width="9.8" height="3.3"/>
			</g>
			<g>
				<rect x="360.4" y="133" class="st2" width="9.8" height="3.3"/>
			</g>
		</g>
	</g>
	<g>
		<g>
			<circle class="st1" cx="86.3" cy="39.6" r="15"/>
		</g>
		<g>
			<g>
				<path class="st0" d="M78.8,35.9L78.8,35.9c0-2,1.3-3.8,3.3-3.8c2,0,3.2,1.8,3.2,3.8v0c0,2-1.3,3.8-3.3,3.8
					C80,39.6,78.8,37.8,78.8,35.9z M84.2,35.9L84.2,35.9c0-1.7-1-2.9-2.2-2.9c-1.3,0-2.1,1.3-2.1,2.8v0c0,1.7,1,2.9,2.2,2.9
					C83.3,38.7,84.2,37.5,84.2,35.9z M80.8,46.4l10.3-14.1c0.1-0.1,0.2-0.2,0.4-0.2c0.3,0,0.5,0.2,0.5,0.4c0,0.1,0,0.2-0.1,0.3
					L81.6,46.9c-0.1,0.1-0.2,0.2-0.4,0.2c-0.3,0-0.5-0.2-0.5-0.4C80.7,46.6,80.7,46.5,80.8,46.4z M87.4,43.5L87.4,43.5
					c0-2,1.3-3.8,3.3-3.8c2,0,3.2,1.8,3.2,3.8v0c0,2-1.3,3.8-3.3,3.8C88.7,47.2,87.4,45.4,87.4,43.5z M92.8,43.5L92.8,43.5
					c0-1.7-1-2.9-2.2-2.9c-1.3,0-2.1,1.3-2.1,2.8v0c0,1.7,1,2.9,2.2,2.9C91.9,46.3,92.8,45,92.8,43.5z"/>
			</g>
		</g>
		<g>
			<path class="st0" d="M86.3,55.1c-8.5,0-15.5-6.9-15.5-15.5c0-8.5,6.9-15.5,15.5-15.5c8.5,0,15.5,6.9,15.5,15.5
				C101.8,48.2,94.9,55.1,86.3,55.1z M86.3,25.1c-8,0-14.5,6.5-14.5,14.5c0,8,6.5,14.5,14.5,14.5c8,0,14.5-6.5,14.5-14.5
				C100.8,31.6,94.3,25.1,86.3,25.1z"/>
		</g>
	</g>
	<g>
		<g>
			<polygon class="st0" points="213.4,70.4 212,65.4 207.1,66.9 206.8,65.9 212.7,64.2 214.4,70.1 			"/>
		</g>
		<g>
			<polygon class="st0" points="178,87 177.2,86.4 186.6,73.8 191.9,82.8 201.6,69.4 205.3,75.3 211.6,65.5 212.4,66.1 205.2,77.2 
				201.5,71.2 191.8,84.6 186.5,75.7 			"/>
		</g>
	</g>
	<g>
		<g>
			<path class="st1" d="M288.3,106.1h-56.2c-1.7,0-3-1.3-3-3V11c0-1.7,1.3-3,3-3h56.2c1.7,0,3,1.3,3,3v92.1
				C291.3,104.8,290,106.1,288.3,106.1z"/>
		</g>
		<g>
			<rect x="232.2" y="8" class="st2" width="4" height="98.1"/>
		</g>
		<g>
			<path class="st0" d="M288.3,106.6h-56.2c-1.9,0-3.5-1.6-3.5-3.5V11c0-1.9,1.6-3.5,3.5-3.5h56.2c1.9,0,3.5,1.6,3.5,3.5v92.1
				C291.8,105,290.3,106.6,288.3,106.6z M232.2,8.5c-1.4,0-2.5,1.1-2.5,2.5v92.1c0,1.4,1.1,2.5,2.5,2.5h56.2c1.4,0,2.5-1.1,2.5-2.5
				V11c0-1.4-1.1-2.5-2.5-2.5H232.2z"/>
		</g>
		<g>
			<g>
				<rect x="241.5" y="24.1" class="st1" width="43.5" height="18.9"/>
			</g>
			<g>
				<rect x="241.5" y="24.4" class="st1" width="43.5" height="18.6"/>
			</g>
			<g>
				<rect x="241.5" y="28.1" class="st3" width="43.5" height="14.9"/>
			</g>
			<g>
				<path class="st0" d="M285.6,43.5H241V23.9h44.5V43.5z M242,42.5h42.5V24.9H242V42.5z"/>
			</g>
		</g>
		<g>
			<g>
				<rect x="233.2" y="34.8" class="st0" width="1" height="56.2"/>
			</g>
		</g>
		<g>
			<g>
				<path class="st0" d="M254.4,59.5h-12.9v-8.3h12.9V59.5z M242.5,58.5h10.9v-6.3h-10.9V58.5z"/>
			</g>
			<g>
				<path class="st0" d="M269.8,59.5h-12.9v-8.3h12.9V59.5z M257.9,58.5h10.9v-6.3h-10.9V58.5z"/>
			</g>
			<g>
				<path class="st0" d="M285.1,59.5h-12.9v-8.3h12.9V59.5z M273.2,58.5h10.9v-6.3h-10.9V58.5z"/>
			</g>
		</g>
		<g>
			<g>
				<path class="st0" d="M254.4,70.5h-12.9v-8.3h12.9V70.5z M242.5,69.5h10.9v-6.3h-10.9V69.5z"/>
			</g>
			<g>
				<path class="st0" d="M269.8,70.5h-12.9v-8.3h12.9V70.5z M257.9,69.5h10.9v-6.3h-10.9V69.5z"/>
			</g>
			<g>
				<path class="st0" d="M285.1,70.5h-12.9v-8.3h12.9V70.5z M273.2,69.5h10.9v-6.3h-10.9V69.5z"/>
			</g>
		</g>
		<g>
			<g>
				<path class="st0" d="M254.4,81.5h-12.9v-8.3h12.9V81.5z M242.5,80.5h10.9v-6.3h-10.9V80.5z"/>
			</g>
			<g>
				<path class="st0" d="M269.8,81.5h-12.9v-8.3h12.9V81.5z M257.9,80.5h10.9v-6.3h-10.9V80.5z"/>
			</g>
			<g>
				<path class="st0" d="M285.1,81.5h-12.9v-8.3h12.9V81.5z M273.2,80.5h10.9v-6.3h-10.9V80.5z"/>
			</g>
		</g>
		<g>
			<g>
				<path class="st0" d="M254.4,92.5h-12.9v-8.3h12.9V92.5z M242.5,91.5h10.9v-6.3h-10.9V91.5z"/>
			</g>
			<g>
				<path class="st0" d="M269.8,92.5h-12.9v-8.3h12.9V92.5z M257.9,91.5h10.9v-6.3h-10.9V91.5z"/>
			</g>
			<g>
				<path class="st0" d="M285.1,92.5h-12.9v-8.3h12.9V92.5z M273.2,91.5h10.9v-6.3h-10.9V91.5z"/>
			</g>
		</g>
	</g>
	<g>
		<g>
			<g>
				<g>
					<g>
						<polygon class="st1" points="72.4,208.1 33.6,208.1 33.6,277 36.1,280.6 39.4,277 43,280.6 46.2,277 49.8,280.6 53.1,276.8 
							56.1,280.6 59.7,277 63,280.6 66.6,277 69.9,280.6 72.4,277 						"/>
					</g>
					<g>
						<path class="st0" d="M69.9,281.4l-3.3-3.7l-3.6,3.6l-3.3-3.6l-3.6,3.7l-3-3.8l-3.2,3.8l-3.6-3.6l-3.3,3.6l-3.6-3.6l-3.3,3.7
							l-3-4.3v-69.5h39.8v69.5L69.9,281.4z M39.4,276.3l3.6,3.6l3.3-3.6l3.6,3.6l3.3-3.9l3.1,3.9l3.6-3.6l3.3,3.6l3.6-3.6l3.2,3.6
							l2.1-3v-68.2H34.1v68.2l2.1,3L39.4,276.3z"/>
					</g>
				</g>
				<g>
					<g>
						<g>
							<g>
								<rect x="38.4" y="266.1" class="st0" width="2" height="1.8"/>
							</g>
						</g>
						<g>
							<g>
								<rect x="55.2" y="266.1" class="st0" width="12.5" height="1.8"/>
							</g>
							<g>
								<rect x="42.8" y="266.1" class="st0" width="10.7" height="1.8"/>
							</g>
						</g>
					</g>
					<g>
						<g>
							<g>
								<rect x="38.4" y="262.1" class="st0" width="2" height="1.8"/>
							</g>
						</g>
						<g>
							<g>
								<rect x="42.8" y="262.1" class="st0" width="10.7" height="1.8"/>
							</g>
							<g>
								<rect x="55.2" y="262.1" class="st0" width="12.5" height="1.8"/>
							</g>
						</g>
					</g>
					<g>
						<g>
							<g>
								<rect x="38.4" y="258.1" class="st0" width="2" height="1.8"/>
							</g>
						</g>
						<g>
							<g>
								<rect x="42.8" y="258.1" class="st0" width="10.7" height="1.8"/>
							</g>
							<g>
								<rect x="55.2" y="258.1" class="st0" width="12.5" height="1.8"/>
							</g>
						</g>
					</g>
					<g>
						<g>
							<g>
								<rect x="38.4" y="254.1" class="st0" width="2" height="1.8"/>
							</g>
						</g>
						<g>
							<g>
								<rect x="42.8" y="254.1" class="st0" width="10.7" height="1.8"/>
							</g>
							<g>
								<rect x="55.2" y="254.1" class="st0" width="12.5" height="1.8"/>
							</g>
						</g>
					</g>
					<g>
						<g>
							<g>
								<rect x="38.4" y="250.1" class="st0" width="2" height="1.8"/>
							</g>
						</g>
						<g>
							<g>
								<rect x="42.8" y="250.1" class="st0" width="10.7" height="1.8"/>
							</g>
							<g>
								<rect x="55.2" y="250.1" class="st0" width="12.5" height="1.8"/>
							</g>
						</g>
					</g>
					<g>
						<g>
							<g>
								<rect x="38.4" y="246.1" class="st0" width="2" height="1.8"/>
							</g>
						</g>
						<g>
							<g>
								<rect x="42.8" y="246.1" class="st0" width="10.7" height="1.8"/>
							</g>
							<g>
								<rect x="55.2" y="246.1" class="st0" width="12.5" height="1.8"/>
							</g>
						</g>
					</g>
				</g>
			</g>
			<g>
				<path class="st0" d="M48.7,243.3h-1.5c-3.6,0-6.6-3-6.6-6.6v-28.6h1v28.6c0,3.1,2.5,5.6,5.6,5.6h1.5V243.3z"/>
			</g>
			<g>
				<g>
					<polygon class="st1" points="49.1,242.8 87.9,242.8 87.9,173.9 85.4,170.3 82.1,173.9 78.5,170.3 75.2,173.9 71.6,170.3 
						68.4,174.1 65.3,170.3 61.7,173.9 58.5,170.3 54.9,173.9 51.6,170.3 49.1,173.9 					"/>
				</g>
				<g>
					<path class="st0" d="M88.4,243.3H48.6v-69.5l3-4.3l3.3,3.7l3.6-3.6l3.3,3.6l3.6-3.7l3,3.8l3.2-3.8l3.6,3.6l3.3-3.6l3.6,3.6
						l3.3-3.7l3,4.3V243.3z M49.6,242.3h37.8v-68.2l-2.1-3l-3.2,3.6l-3.6-3.6l-3.3,3.6l-3.6-3.6l-3.3,3.9l-3.1-3.9l-3.6,3.6
						l-3.3-3.6l-3.6,3.6l-3.2-3.6l-2.1,3V242.3z"/>
				</g>
			</g>
			<g>
				<g>
					<g>
						<g>
							<rect x="53.9" y="183" class="st0" width="2" height="1.8"/>
						</g>
					</g>
					<g>
						<g>
							<rect x="58.3" y="183" class="st0" width="11.2" height="1.8"/>
						</g>
						<g>
							<rect x="70.8" y="183" class="st0" width="12.3" height="1.8"/>
						</g>
					</g>
				</g>
				<g>
					<g>
						<g>
							<rect x="53.9" y="187" class="st0" width="2" height="1.8"/>
						</g>
					</g>
					<g>
						<g>
							<rect x="58.3" y="187" class="st0" width="11.2" height="1.8"/>
						</g>
						<g>
							<rect x="70.8" y="187" class="st0" width="12.3" height="1.8"/>
						</g>
					</g>
				</g>
				<g>
					<g>
						<g>
							<rect x="53.9" y="191" class="st0" width="2" height="1.8"/>
						</g>
					</g>
					<g>
						<g>
							<rect x="58.3" y="191" class="st0" width="11.2" height="1.8"/>
						</g>
						<g>
							<rect x="70.8" y="191" class="st0" width="12.3" height="1.8"/>
						</g>
					</g>
				</g>
				<g>
					<g>
						<g>
							<rect x="53.9" y="195" class="st0" width="2" height="1.8"/>
						</g>
					</g>
					<g>
						<g>
							<rect x="58.3" y="195" class="st0" width="11.2" height="1.8"/>
						</g>
						<g>
							<rect x="70.8" y="195" class="st0" width="12.3" height="1.8"/>
						</g>
					</g>
				</g>
				<g>
					<g>
						<g>
							<rect x="53.9" y="199" class="st0" width="2" height="1.8"/>
						</g>
					</g>
					<g>
						<g>
							<rect x="58.3" y="199" class="st0" width="11.2" height="1.8"/>
						</g>
						<g>
							<rect x="70.8" y="199" class="st0" width="12.3" height="1.8"/>
						</g>
					</g>
				</g>
				<g>
					<g>
						<g>
							<rect x="53.9" y="203" class="st0" width="2" height="1.8"/>
						</g>
					</g>
					<g>
						<g>
							<rect x="70.8" y="203" class="st0" width="12.3" height="1.8"/>
						</g>
						<g>
							<rect x="58.3" y="203" class="st0" width="11.2" height="1.8"/>
						</g>
					</g>
				</g>
				<g>
					<g>
						<g>
							<rect x="53.9" y="207" class="st0" width="2" height="1.8"/>
						</g>
					</g>
					<g>
						<g>
							<rect x="58.3" y="207" class="st0" width="11.2" height="1.8"/>
						</g>
						<g>
							<rect x="70.8" y="207" class="st0" width="12.3" height="1.8"/>
						</g>
					</g>
				</g>
				<g>
					<g>
						<g>
							<rect x="53.9" y="211" class="st0" width="2" height="1.8"/>
						</g>
					</g>
					<g>
						<g>
							<rect x="70.8" y="211" class="st0" width="12.3" height="1.8"/>
						</g>
						<g>
							<rect x="58.3" y="211" class="st0" width="11.2" height="1.8"/>
						</g>
					</g>
				</g>
				<g>
					<g>
						<g>
							<rect x="53.9" y="215" class="st0" width="2" height="1.8"/>
						</g>
					</g>
					<g>
						<g>
							<rect x="58.3" y="215" class="st0" width="11.2" height="1.8"/>
						</g>
						<g>
							<rect x="70.8" y="215" class="st0" width="12.3" height="1.8"/>
						</g>
					</g>
				</g>
				<g>
					<g>
						<g>
							<rect x="53.9" y="219" class="st0" width="2" height="1.8"/>
						</g>
					</g>
					<g>
						<g>
							<rect x="70.8" y="219" class="st0" width="12.3" height="1.8"/>
						</g>
						<g>
							<rect x="58.3" y="219" class="st0" width="11.2" height="1.8"/>
						</g>
					</g>
				</g>
				<g>
					<g>
						<g>
							<rect x="53.9" y="223" class="st0" width="2" height="1.8"/>
						</g>
					</g>
					<g>
						<g>
							<rect x="58.3" y="223" class="st0" width="11.2" height="1.8"/>
						</g>
						<g>
							<rect x="70.8" y="223" class="st0" width="12.3" height="1.8"/>
						</g>
					</g>
				</g>
				<g>
					<g>
						<g>
							<rect x="53.9" y="227.1" class="st0" width="2" height="1.8"/>
						</g>
					</g>
					<g>
						<g>
							<rect x="70.8" y="227.1" class="st0" width="12.3" height="1.8"/>
						</g>
						<g>
							<rect x="58.3" y="227.1" class="st0" width="11.2" height="1.8"/>
						</g>
					</g>
				</g>
				<g>
					<g>
						<g>
							<rect x="53.9" y="231.1" class="st0" width="2" height="1.8"/>
						</g>
					</g>
					<g>
						<g>
							<rect x="58.3" y="231.1" class="st0" width="11.2" height="1.8"/>
						</g>
						<g>
							<rect x="70.8" y="231.1" class="st0" width="12.3" height="1.8"/>
						</g>
					</g>
				</g>
			</g>
		</g>
		<g>
			<g>
				<rect x="28.6" y="274.8" class="st1" width="49.7" height="5.9"/>
			</g>
			<g>
				<path class="st0" d="M78.8,281.2H28.1v-6.9h50.7V281.2z M29.1,280.2h48.7v-4.9H29.1V280.2z"/>
			</g>
		</g>
		<g>
			<g>
				<rect x="25.3" y="280.8" class="st1" width="56.2" height="5.9"/>
			</g>
			<g>
				<rect x="25.3" y="282.7" class="st3" width="56.2" height="4"/>
			</g>
			<g>
				<path class="st0" d="M82,287.2H24.8v-6.9H82V287.2z M25.8,286.2H81v-4.9H25.8V286.2z"/>
			</g>
		</g>
	</g>
	<g>
		<g>
			<path class="st1" d="M359.1,270.6v-38.5c0-3.3-1.3-6.5-3.7-8.8l-13.8-13.8h-21.3v45.2c0,0,7.4,7.9,7,14.9
				C327.4,269.1,359.1,270.6,359.1,270.6z"/>
		</g>
		<g>
			<g>
				<path class="st3" d="M325.6,226.2c-0.2-0.2-0.4-0.4-0.6-0.7v17h8.4v-8.4L325.6,226.2z"/>
			</g>
			<g>
				<path class="st3" d="M325.1,184.1v35.6c0.1-0.2,0.3-0.4,0.4-0.6c2-2.2,5.4-2.3,7.5-0.1l0.4,0.4v-35.4H325.1z"/>
			</g>
		</g>
		<g>
			<g>
				<path class="st0" d="M359.6,270.6h-1v-38.5c0-3.2-1.2-6.2-3.5-8.5l-13.8-13.8l0.7-0.7l13.8,13.8c2.5,2.5,3.8,5.7,3.8,9.2V270.6z
					"/>
			</g>
			<g>
				<path class="st0" d="M327.9,269.8h-1v-1.1c0-3.2-1.2-6.2-3.5-8.5c-2.5-2.5-3.8-5.7-3.8-9.2V243h1v8.1c0,3.2,1.2,6.2,3.5,8.5
					c2.5,2.5,3.8,5.7,3.8,9.2V269.8z"/>
			</g>
			<g>
				<path class="st0" d="M335.1,243.5h-25.4c-3.9,0-7.1-3.2-7.1-7.1v-46c0-3.9,3.2-7.1,7.1-7.1h25.4c3.9,0,7.1,3.2,7.1,7.1v38.8
					l-9.6-9.8c-0.9-0.9-2.1-1.4-3.4-1.4c-1.3,0-2.5,0.6-3.4,1.5c-1.7,1.8-1.6,4.6,0.1,6.4l12.5,12.8l-0.2,0.3c0,0-1,1.6-1.9,4
					l-0.1,0.3l-0.5,0.1C335.6,243.4,335.4,243.5,335.1,243.5z M309.7,184.2c-3.4,0-6.1,2.7-6.1,6.1v46c0,3.4,2.7,6.1,6.1,6.1h25.4
					c0.2,0,0.3,0,0.5,0c0.6-1.7,1.3-3,1.7-3.6l-12-12.3c-2.1-2.1-2.2-5.6-0.1-7.8c1.1-1.2,2.5-1.8,4.1-1.9c1.6,0,3.1,0.6,4.2,1.7
					l7.8,8v-36.3c0-3.4-2.7-6.1-6.1-6.1H309.7z"/>
			</g>
			<g>
				<path class="st0" d="M337.9,259.3c-7.8-9.2-0.5-20.7-0.4-20.8l0.8,0.5c-0.1,0.1-7,10.9,0.3,19.6L337.9,259.3z"/>
			</g>
			<g>
				
					<rect x="343.3" y="227" transform="matrix(0.7071 -0.7071 0.7071 0.7071 -61.9108 310.4776)" class="st0" width="1" height="5.9"/>
			</g>
		</g>
		<g>
			<g>
				<polyline class="st1" points="322.2,298 322.2,270.1 364.1,270.1 364.1,298 				"/>
			</g>
			<g>
				<rect x="322.2" y="274.9" class="st3" width="42" height="23.1"/>
			</g>
			<g>
				<polygon class="st0" points="364.6,298 363.6,298 363.6,270.6 322.7,270.6 322.7,298 321.7,298 321.7,269.6 364.6,269.6 				"/>
			</g>
			<g>
				<path class="st0" d="M328.7,284.6c-1.7,0-3.1-1.4-3.1-3.1c0-1.7,1.4-3.1,3.1-3.1c1.7,0,3.1,1.4,3.1,3.1
					C331.8,283.1,330.4,284.6,328.7,284.6z M328.7,279.3c-1.2,0-2.1,1-2.1,2.1c0,1.2,1,2.1,2.1,2.1c1.2,0,2.1-1,2.1-2.1
					C330.8,280.2,329.9,279.3,328.7,279.3z"/>
			</g>
		</g>
		<g>
			<rect x="313.7" y="192.6" class="st2" width="2" height="27.4"/>
		</g>
		<g>
			<rect x="313.7" y="222" class="st2" width="2" height="3.3"/>
		</g>
		<g>
			<rect x="313.7" y="228.1" class="st2" width="2" height="3.3"/>
		</g>
		<g>
			<rect x="308.2" y="192.6" class="st2" width="2" height="17.7"/>
		</g>
	</g>
	<g>
		<g>
			<path class="st3" d="M211.5,26.4c0-7.1-5.7-12.8-12.8-12.8c-7.1,0-12.8,5.7-12.8,12.8c0,7.2,12.8,24.1,12.8,24.1
				S211.5,34.4,211.5,26.4z"/>
		</g>
		<g>
			<g>
				<circle class="st1" cx="198.7" cy="26.6" r="8"/>
			</g>
			<g>
				<path class="st0" d="M198.7,35.1c-4.7,0-8.5-3.8-8.5-8.5c0-4.7,3.8-8.5,8.5-8.5c4.7,0,8.5,3.8,8.5,8.5
					C207.3,31.3,203.4,35.1,198.7,35.1z M198.7,19.1c-4.1,0-7.5,3.4-7.5,7.5c0,4.1,3.4,7.5,7.5,7.5c4.1,0,7.5-3.4,7.5-7.5
					C206.3,22.5,202.9,19.1,198.7,19.1z"/>
			</g>
		</g>
	</g>
	<g>
		<g>
			<g>
				<circle class="st1" cx="335.9" cy="31.3" r="17.7"/>
			</g>
			<g>
				<path class="st0" d="M335.9,49.5c-10,0-18.2-8.2-18.2-18.2c0-10,8.2-18.2,18.2-18.2c10,0,18.2,8.2,18.2,18.2
					C354.1,41.4,346,49.5,335.9,49.5z M335.9,14.1c-9.5,0-17.2,7.7-17.2,17.2c0,9.5,7.7,17.2,17.2,17.2c9.5,0,17.2-7.7,17.2-17.2
					C353.1,21.9,345.4,14.1,335.9,14.1z"/>
			</g>
		</g>
		<g>
			<g>
				<path class="st0" d="M329.1,29.1h12.4c0.3,0,0.5-0.2,0.5-0.5c0-0.3-0.2-0.5-0.5-0.5h-12.4c-0.3,0-0.5,0.2-0.5,0.5
					C328.6,28.9,328.8,29.1,329.1,29.1z"/>
			</g>
			<g>
				<path class="st0" d="M344.5,27.5c-0.2-0.1-0.5,0.1-0.6,0.3l-2.8,8.8h-11.4l-3.3-10.4H324c-0.3,0-0.5,0.2-0.5,0.5
					c0,0.3,0.2,0.5,0.5,0.5h1.7l3.3,10.4h12.8l3-9.4C344.9,27.8,344.7,27.5,344.5,27.5z"/>
			</g>
			<g>
				<path class="st0" d="M341,31.4c0-0.3-0.2-0.5-0.5-0.5H330c-0.3,0-0.5,0.2-0.5,0.5c0,0.3,0.2,0.5,0.5,0.5h10.6
					C340.8,31.9,341,31.7,341,31.4z"/>
			</g>
			<g>
				<path class="st0" d="M331.1,33.7c-0.3,0-0.5,0.2-0.5,0.5c0,0.3,0.2,0.5,0.5,0.5h8.3c0.3,0,0.5-0.2,0.5-0.5
					c0-0.3-0.2-0.5-0.5-0.5H331.1z"/>
			</g>
			<g>
				<path class="st0" d="M331.4,38.6c-0.7,0-1.3,0.6-1.3,1.3c0,0.7,0.6,1.3,1.3,1.3c0.7,0,1.3-0.6,1.3-1.3
					C332.7,39.2,332.1,38.6,331.4,38.6z"/>
			</g>
			<g>
				<path class="st0" d="M339.8,38.6c-0.7,0-1.3,0.6-1.3,1.3c0,0.7,0.6,1.3,1.3,1.3c0.7,0,1.3-0.6,1.3-1.3
					C341.1,39.2,340.5,38.6,339.8,38.6z"/>
			</g>
		</g>
		<g>
			<g>
				<path class="st3" d="M348.6,25.5c0,3-2.4,5.4-5.4,5.4c-3,0-5.4-2.4-5.4-5.4s2.4-5.4,5.4-5.4C346.1,20.1,348.6,22.6,348.6,25.5z"
					/>
			</g>
			<g>
				<path class="st0" d="M343.2,29.8c-2.4,0-4.3-1.9-4.3-4.3s1.9-4.3,4.3-4.3s4.3,1.9,4.3,4.3S345.5,29.8,343.2,29.8z M343.2,21.8
					c-2.1,0-3.8,1.7-3.8,3.8s1.7,3.8,3.8,3.8c2.1,0,3.8-1.7,3.8-3.8S345.2,21.8,343.2,21.8z"/>
			</g>
			<g>
				<path class="st0" d="M345.1,24.8h-1.2v-1.2c0-0.4-0.3-0.8-0.8-0.8s-0.8,0.3-0.8,0.8v1.2h-1.2c-0.4,0-0.8,0.3-0.8,0.8
					c0,0.4,0.3,0.8,0.8,0.8h1.2v1.2c0,0.4,0.3,0.8,0.8,0.8s0.8-0.3,0.8-0.8v-1.2h1.2c0.4,0,0.8-0.3,0.8-0.8
					C345.9,25.1,345.5,24.8,345.1,24.8z"/>
			</g>
		</g>
	</g>
	<g>
		<g>
			<rect x="274.4" y="309.9" class="st2" width="18.9" height="18.9"/>
		</g>
		<g>
			<path class="st0" d="M291.3,326.8h-15v-15h15V326.8z M276.9,326.3h14v-14h-14V326.3z"/>
		</g>
		<g>
			<polygon class="st0" points="294.6,308.5 284.6,318.7 283.9,316 279.5,316 283.1,323.2 300.1,308.5 			"/>
		</g>
	</g>
	<g>
		<g>
			<path class="st0" d="M365.1,74.9c-0.8,0.5-2.1,1.1-3.8,1.1c-2.1,0-3.9-0.8-5.2-2.3c-1-1.1-1.6-2.6-1.9-4.4h-1.6V68h1.5
				c0-0.1,0-0.3,0-0.4c0-0.4,0-0.8,0.1-1.2h-1.5v-1.3h1.7c0.3-1.8,1.1-3.3,2.1-4.4c1.3-1.4,3-2.1,5.1-2.1c1.5,0,2.7,0.4,3.4,0.8
				l-0.5,1.7c-0.6-0.4-1.7-0.7-2.9-0.7c-1.4,0-2.5,0.5-3.4,1.4c-0.8,0.7-1.3,1.9-1.5,3.3h7.2v1.3h-7.4c0,0.3-0.1,0.7-0.1,1.1
				c0,0.2,0,0.3,0,0.5h7.5v1.3h-7.3c0.2,1.5,0.7,2.6,1.4,3.4c1,1,2.2,1.5,3.6,1.5c1.4,0,2.5-0.5,3.1-0.8L365.1,74.9z"/>
		</g>
	</g>
</g>
</svg>
