<?xml version="1.0" encoding="utf-8"?>
<!-- Generator: Adobe Illustrator 21.1.0, SVG Export Plug-In . SVG Version: 6.00 Build 0)  -->
<svg version="1.1" id="Capa_1" xmlns="http://www.w3.org/2000/svg" xmlns:xlink="http://www.w3.org/1999/xlink" x="0px" y="0px"
	 width="549.6px" height="623.1px" viewBox="0 0 549.6 623.1" style="enable-background:new 0 0 549.6 623.1;" xml:space="preserve"
	>
<style type="text/css">
	.st0{fill:#FFFFFF;}
</style>
<g>
	<g>
		
			<rect x="299.7" y="58.6" transform="matrix(0.5049 -0.8632 0.8632 0.5049 57.0453 323.3002)" class="st0" width="21.3" height="106.7"/>
	</g>
</g>
<g>
	<g>
		
			<rect x="241.3" y="116.6" transform="matrix(0.5049 -0.8632 0.8632 0.5049 14.9163 280.4506)" class="st0" width="21.3" height="21.3"/>
	</g>
</g>
<g>
	<g>
		
			<rect x="278.1" y="138.1" transform="matrix(0.5049 -0.8632 0.8632 0.5049 14.556 322.9399)" class="st0" width="21.3" height="21.3"/>
	</g>
</g>
<g>
	<g>
		<path class="st0" d="M549.2,267.7l-30.5-116.8c-0.7-2.7-2.5-5-4.9-6.5L274.4,4.4c-15.3-8.9-34.8-3.8-43.8,11.5L4.4,402.6
			c-8.9,15.3-3.8,34.8,11.5,43.8l294.6,172.3c15.3,8.9,34.8,3.8,43.8-11.5l193.9-331.5C549.5,273.3,549.9,270.4,549.2,267.7z
			 M335.9,596.4c-3,5.1-9.5,6.8-14.6,3.8L26.6,428c-5.1-3-6.8-9.5-3.8-14.6L249,26.6c3-5.1,9.5-6.8,14.6-3.8l235.6,137.8l28.3,108.2
			L335.9,596.4z"/>
	</g>
</g>
<g>
	<g>
		<path class="st0" d="M489.1,228.8c-5.1-3-6.8-9.5-3.8-14.6l32.3-55.2l-18.4-10.8l-32.3,55.2c-8.9,15.3-3.8,34.8,11.5,43.8
			l18.4,10.8l10.8-18.4L489.1,228.8z"/>
	</g>
</g>
<g>
	<g>
		<path class="st0" d="M319,293.6c-7.2,1.8-10.5,2.5-15.7-0.5c-5.2-3-6.3-6.3-8.1-13.4c-1.8-11-8.4-20.8-18-26.5l-10.8,18.4
			c5.2,3,6.2,6.3,8.1,13.4c1.8,11,8.4,20.8,18,26.5c9.7,5.6,21.4,6.5,31.9,2.7c7.2-1.8,10.5-2.5,15.7,0.5l10.8-18.4
			C341,290.7,329.4,289.7,319,293.6z"/>
	</g>
</g>
<g>
	<g>
		
			<rect x="137.3" y="383.7" transform="matrix(0.5049 -0.8632 0.8632 0.5049 -219.6059 405.8393)" class="st0" width="213.3" height="21.3"/>
	</g>
</g>
<g>
	<g>
		<path class="st0" d="M350.7,315.4l6.2-95.2c0-1.8-0.5-3.7-1.4-5.3c-3-5.4-9.7-7.3-15.1-4.3l-79.9,52.1c-1.4,0.9-2.5,2.1-3.4,3.6
			l-96.9,165.7l18.4,10.8l95.7-163.6l59.9-39.1l-4.7,71.4L233.8,475l18.5,10.8l96.9-165.7C350.1,318.6,350.5,317,350.7,315.4z"/>
	</g>
</g>
<g>
	<g>
		
			<rect x="319.5" y="225.7" transform="matrix(0.5049 -0.8632 0.8632 0.5049 -49.8479 407.2788)" class="st0" width="21.3" height="42.7"/>
	</g>
</g>
</svg>
