<?xml version="1.0" encoding="utf-8"?>
<!-- Generator: Adobe Illustrator 21.1.0, SVG Export Plug-In . SVG Version: 6.00 Build 0)  -->
<svg version="1.1" id="Layer_1" xmlns="http://www.w3.org/2000/svg" xmlns:xlink="http://www.w3.org/1999/xlink" x="0px" y="0px"
	 width="1479.2px" height="532.2px" viewBox="0 0 1479.2 532.2" style="enable-background:new 0 0 1479.2 532.2;"
	 xml:space="preserve">
<style type="text/css">
	.st0{opacity:0.7;}
	.st1{fill:#776F8E;}
	.st2{fill:#FFE7CC;}
	.st3{fill:#E54038;}
	.st4{fill:#FF574A;}
	.st5{fill:#FFFFFF;}
	.st6{opacity:0.7;fill:#776F8E;enable-background:new    ;}
	.st7{fill:#FFD301;}
	.st8{fill:#F471AD;}
	.st9{fill:#6B7BB8;}
	.st10{fill:#C4EA5F;}
	.st11{fill:#9BBDED;}
	.st12{fill:#FFEF5F;}
	.st13{fill:#EAEAEA;}
	.st14{fill:#474A4C;}
	.st15{fill:#B2B2B2;}
	.st16{fill:#888888;}
	.st17{fill:#C1C1C1;}
	.st18{fill:none;stroke:#4F4642;stroke-width:1.72;stroke-miterlimit:10;}
	.st19{opacity:0.42;fill:#565560;enable-background:new    ;}
	.st20{fill:#EA3B48;}
	.st21{fill:#AF2233;}
	.st22{fill:#42705A;}
	.st23{fill:#383B42;}
	.st24{fill:#E1EEEF;}
	.st25{opacity:0.71;}
	.st26{fill:none;stroke:#26292D;stroke-width:1.8163;stroke-linecap:round;stroke-linejoin:round;stroke-miterlimit:10;}
	.st27{fill:#FFFFFB;}
	.st28{fill:#FF2775;}
	.st29{fill:#00ADEF;}
	.st30{fill:#FF7555;}
	.st31{fill:#94DB49;}
	.st32{opacity:0.85;fill:#5D5D5D;enable-background:new    ;}
	.st33{fill:#ED6294;}
	.st34{fill:#20B6CE;}
	.st35{fill:#FBDCAC;}
	.st36{fill:#485155;}
	.st37{fill:#B0BFD6;}
	.st38{fill:none;stroke:#6AD1DB;stroke-width:2.3258;stroke-linecap:round;stroke-miterlimit:10;}
	.st39{fill:none;stroke:#F4C6D6;stroke-width:2.3258;stroke-linecap:round;stroke-miterlimit:10;}
	.st40{fill:#1890B5;}
	.st41{fill:#94A6BF;}
	.st42{fill:#C4D9F7;}
	.st43{fill:#FFB287;}
	.st44{fill:none;stroke:#FFB287;stroke-width:14.9642;stroke-linecap:round;stroke-miterlimit:10;}
	.st45{fill:none;stroke:#FFB287;stroke-width:13.3072;stroke-linecap:round;stroke-miterlimit:10;}
	.st46{fill:none;stroke:#FFB287;stroke-width:18.4461;stroke-linecap:round;stroke-linejoin:round;stroke-miterlimit:10;}
	.st47{fill:#DB926E;}
	.st48{fill:#C7D1E0;}
	.st49{fill:#2B333F;}
	.st50{fill:#49555B;}
	.st51{fill:#2C2E3A;}
	.st52{fill:#959090;}
	.st53{fill:#F7B24D;}
	.st54{fill:none;stroke:#FFFFFF;stroke-width:4.7393;stroke-linecap:round;stroke-linejoin:round;stroke-miterlimit:3;}
	.st55{fill:none;stroke:#303030;stroke-width:4.7393;stroke-linecap:round;stroke-linejoin:round;stroke-miterlimit:3;}
	.st56{fill:#46495B;}
	.st57{opacity:0.8;fill:#3E6376;enable-background:new    ;}
	.st58{fill:#E2E6E8;}
	.st59{fill:#E2E6E8;stroke:#5B5B5B;stroke-width:2;stroke-miterlimit:10;}
	.st60{fill:#EDC48E;}
	.st61{fill:#C8CED6;}
	.st62{fill:#FFFFFF;stroke:#494242;stroke-width:7.6027;stroke-linecap:round;stroke-miterlimit:10;}
	.st63{fill:#494242;}
	.st64{fill:#2ECCCC;}
	.st65{fill:none;stroke:#76FFFF;stroke-width:2.5634;stroke-linecap:round;stroke-miterlimit:10;}
	.st66{fill:none;stroke:#5D5E66;stroke-width:2.4158;stroke-linecap:round;stroke-miterlimit:10;}
	.st67{fill:#1DA8B2;}
	.st68{fill:none;stroke:#494242;stroke-width:2.4158;stroke-linecap:round;stroke-miterlimit:10;}
	.st69{fill:none;stroke:#66EFF2;stroke-width:2.4158;stroke-linecap:round;stroke-miterlimit:10;}
	.st70{fill:none;stroke:#CCD3D6;stroke-width:7.0644;stroke-linecap:round;stroke-linejoin:round;stroke-miterlimit:10;}
	.st71{opacity:0.32;fill:#E2E1DE;stroke:#CCD3D6;stroke-miterlimit:10;enable-background:new    ;}
	.st72{fill:none;stroke:#CCD3D6;stroke-width:5.046;stroke-miterlimit:10;}
	.st73{fill:#CCD3D6;}
	.st74{fill:none;stroke:#262523;stroke-width:7.0644;stroke-linecap:round;stroke-linejoin:round;stroke-miterlimit:10;}
	.st75{opacity:0.32;fill:#E2E1DE;enable-background:new    ;}
	.st76{fill:none;stroke:#3F3E3A;stroke-width:5.046;stroke-miterlimit:10;}
	.st77{fill:#3F3E3A;}
	.st78{opacity:0.57;fill:#FFFFFF;enable-background:new    ;}
	.st79{fill:#EDCC07;stroke:#FFFFFF;stroke-width:3.2448;stroke-miterlimit:10;}
	.st80{fill:#32E05F;stroke:#FFFFFF;stroke-width:3.2448;stroke-miterlimit:10;}
	.st81{fill:#30B4E2;stroke:#FFFFFF;stroke-width:3.2448;stroke-miterlimit:10;}
	.st82{fill:#E54C2E;stroke:#FFFFFF;stroke-width:3.2448;stroke-miterlimit:10;}
	.st83{fill:#A325E5;stroke:#FFFFFF;stroke-width:3.2448;stroke-miterlimit:10;}
	.st84{opacity:0.36;}
	.st85{opacity:0.36;fill:#776F8E;enable-background:new    ;}
	.st86{fill:#00A652;}
	.st87{fill:#AA2C26;}
	.st88{fill:#282F38;stroke:#424B59;stroke-width:3.6959;stroke-miterlimit:10;}
	.st89{opacity:0.31;fill:#424D5B;enable-background:new    ;}
	.st90{fill:#61E59C;}
	.st91{fill:#257549;}
	.st92{fill:#FFB217;}
	.st93{fill:#E86393;}
	.st94{fill:#FFCE88;}
	.st95{fill:#FF85B7;}
	.st96{fill:#1A961A;}
	.st97{fill:#FFE0A1;}
	.st98{fill:#ED3E3E;}
	.st99{fill:#424D5B;}
</style>
<g class="st0">
	<path class="st1" d="M957.1,122.9l-0.4,1.3c-0.2,0.5-0.4,1-0.6,1.5c-3.7,8.7-7.1,15.3-15.7,12.5l-56.7-18.5
		c-8.6-2.8-7.5-10.3-5.3-19.4c0.1-0.5,0.3-1.1,0.4-1.6l0.4-1.3c3.1-9.6,7.1-16.9,16.2-13.9l56.7,18.5
		C961.3,105.1,960.2,113.2,957.1,122.9z"/>
</g>
<g>
	<g>
		<path class="st2" d="M974.6,148.8l-0.4,1.3c-0.2,0.5-0.4,1-0.6,1.5c-3.7,8.7-7.1,15.3-15.7,12.5l-56.7-18.4
			c-8.6-2.8-7.5-10.3-5.3-19.4c0.1-0.5,0.3-1.1,0.4-1.6l0.4-1.3c3.1-9.6,7.1-16.9,16.2-13.9l56.7,18.5
			C978.8,131,977.7,139.2,974.6,148.8z"/>
	</g>
	
		<rect x="916.3" y="114.6" transform="matrix(0.3105 -0.9506 0.9506 0.3105 514.9342 983.4833)" class="st3" width="38.2" height="44.3"/>
	
		<rect x="916.3" y="117.2" transform="matrix(0.3105 -0.9506 0.9506 0.3105 514.9432 983.4743)" class="st4" width="38.2" height="39.1"/>
	<path class="st5" d="M932.1,126c1-2.7-3-3.9-3.9-1.3c-2.1,5.9-3.9,11.8-5.5,17.8c-0.7,2.7,3.2,4,3.9,1.3
		C928.1,137.8,930,131.9,932.1,126z"/>
	<path class="st5" d="M935.8,143.2c0.7-3.9,1.7-7.7,3.1-11.5c1-2.7-3-3.9-3.9-1.3c-1.5,4.1-2.6,8.3-3.3,12.6
		C931.2,145.8,935.4,145.9,935.8,143.2z"/>
</g>
<g>
	<polygon class="st6" points="1261.2,89.7 1269,57.7 1268.1,57.5 1269.3,53.6 1261.7,51.4 1263.3,42.3 1192.9,30.4 1189.4,50.8 
		1186.2,50.2 1184.5,60.3 1176.3,58.9 1164.4,129.3 1205.4,136.2 1225.6,152.8 1238,137.8 1245,139 1247,126.9 1247.7,126 
		1252.1,127.1 1254.2,118.2 1271.1,97.8 	"/>
	<g>
		
			<rect x="1180.5" y="21.4" transform="matrix(0.1668 -0.986 0.986 0.1668 957.0748 1246.6886)" class="st7" width="71.4" height="71.4"/>
		
			<rect x="1183.3" y="27.7" transform="matrix(0.2811 -0.9597 0.9597 0.2811 815.4864 1215.4946)" class="st8" width="71.4" height="71.4"/>
		
			<rect x="1184.2" y="33.7" transform="matrix(0.2371 -0.9715 0.9715 0.2371 863.176 1238.0662)" class="st9" width="71.4" height="71.4"/>
		
			<rect x="1173.8" y="41.2" transform="matrix(0.1668 -0.986 0.986 0.1668 931.9675 1256.5804)" class="st10" width="71.4" height="71.4"/>
		
			<rect x="1164" y="49.9" transform="matrix(0.1668 -0.986 0.986 0.1668 915.2134 1254.1595)" class="st11" width="71.4" height="71.4"/>
		
			<rect x="1174.1" y="47.7" transform="matrix(0.1668 -0.986 0.986 0.1668 925.8034 1262.2836)" class="st8" width="71.4" height="71.4"/>
		
			<rect x="1179" y="52.5" transform="matrix(0.6375 -0.7704 0.7704 0.6375 372.3472 967.8746)" class="st12" width="71.4" height="71.4"/>
	</g>
</g>
<g>
	<path class="st6" d="M615.2,14.5c0.1-6.4-5.9-11.7-13.2-11.8L270.3,0C263-0.1,257,5.1,256.9,11.5l-2.7,322.3
		c-0.1,6.4,5.9,11.7,13.2,11.8l331.6,2.8c7.3,0.1,13.3-5.1,13.4-11.5L615.2,14.5z"/>
	<path class="st13" d="M590.7,135.9c0-4.4-4-8-9-8l-355.4-3c-5,0-9.1,3.5-9.1,7.9l-1.7,193.8c0,4.4,4,8,9,8l355.4,3
		c5,0,9.1-3.5,9.1-7.9L590.7,135.9z"/>
	<path class="st14" d="M252.8,274.6l299.7,2.5c6.8,0.1,12.3-5.4,12.4-12.2l0.9-107c0.1-6.8-5.4-12.3-12.2-12.4L254,143
		c-6.8-0.1-12.3,5.4-12.4,12.2l-0.9,107C240.6,269,246.1,274.6,252.8,274.6z"/>
	<path class="st15" d="M371.7,326.4l61.4,0.5c5.1,0,9.3-4.1,9.4-9.2l0.2-25.5c0-5.1-4.1-9.3-9.2-9.4l-61.4-0.5
		c-5.1,0-9.3,4.1-9.4,9.2l-0.2,25.5C362.4,322.2,366.6,326.4,371.7,326.4z"/>
	<g>
		<g>
			<path class="st16" d="M534.6,167.9c0,1.6,1.3,3,3,3l15.6,0.2c1.6,0,3-1.3,3-3l0.1-9.2c0-1.7-1.3-3-3-3l-15.6-0.1
				c-1.6,0-3,1.3-3,3L534.6,167.9z"/>
		</g>
		<g>
			<path class="st16" d="M477.9,167.5c0,1.6,1.3,3,3,3l15.6,0.1c1.6,0,3-1.3,3-3l0.1-9.2c0-1.6-1.3-3-3-3l-15.6-0.1
				c-1.6,0-3,1.3-3,3L477.9,167.5z"/>
		</g>
		<g>
			<path class="st16" d="M449.6,167.2c0,1.6,1.3,3,3,3l15.6,0.1c1.6,0,3-1.3,3-3l0.1-9.2c0-1.6-1.3-3-3-3l-15.6-0.1
				c-1.6,0-3,1.3-3,3L449.6,167.2z"/>
		</g>
		<g>
			<path class="st16" d="M421.2,167c0,1.6,1.3,3,3,3l15.6,0.1c1.7,0,3-1.3,3-3l0.1-9.2c0-1.6-1.3-3-3-3l-15.6-0.1c-1.6,0-3,1.3-3,3
				L421.2,167z"/>
		</g>
		<g>
			<path class="st16" d="M364.5,166.5c0,1.6,1.3,3,3,3l15.6,0.1c1.6,0,3-1.3,3-3l0.1-9.2c0-1.6-1.3-3-3-3l-15.6-0.1
				c-1.6,0-3,1.3-3,3L364.5,166.5z"/>
		</g>
		<g>
			<path class="st16" d="M336.2,166.2c0,1.6,1.3,3,3,3l15.6,0.1c1.6,0,3-1.3,3-3l0.1-9.2c0-1.6-1.3-3-3-3l-15.6-0.1
				c-1.6,0-3,1.3-3,3L336.2,166.2z"/>
		</g>
		<g>
			<path class="st16" d="M307.8,166c0,1.6,1.3,3,3,3l15.6,0.1c1.6,0,3-1.3,3-3l0.1-9.2c0-1.6-1.3-3-3-3l-15.6-0.1c-1.6,0-3,1.3-3,3
				L307.8,166z"/>
		</g>
		<g>
			<path class="st16" d="M251.1,165.5c0,1.6,1.3,3,3,3l15.6,0.1c1.6,0,3-1.3,3-3l0.1-9.2c0-1.6-1.3-3-3-3l-15.6-0.1
				c-1.6,0-3,1.3-3,3L251.1,165.5z"/>
		</g>
	</g>
	<path class="st5" d="M227.7,125.8l352.8,0.8c7,0,13.9-6.1,16.8-13.9l24.2-62.6c3.7-10,0.1-18.3-8.2-18.3l-416.7-1.1
		c-8.3,0-12.1,8.3-8.5,18.3l24.2,62.6C214.9,119.6,220.7,125.8,227.7,125.8z"/>
	<path class="st17" d="M227.7,125.8l352.9,0.8c7,0,10.7,0.8,13.5-6.1l26.7-61.8c3.6-8.8-0.1-16.2-8.4-16.2l-415.2-1
		c-8.3,0-12.1,7.4-8.6,16.2l25.8,61.9C217.1,126.5,220.7,125.8,227.7,125.8z"/>
	<path class="st5" d="M237.6,117l334.2,2.8c5.5,0,12.7-5.8,16.2-13.2l15.4-33.1c4.2-9,2.5-16.7-3.9-16.8L211,53.5
		c-6.4-0.1-8.2,7.6-4.1,16.7l14.8,33.3C225,111,232.1,116.9,237.6,117z"/>
	<g>
		<g>
			<path class="st16" d="M534.4,186.4c0,1.6,1.3,3,3,3l15.6,0.1c1.6,0,3-1.3,3-3l0.1-9.2c0-1.6-1.3-3-3-3l-15.6-0.1
				c-1.6,0-3,1.3-3,3L534.4,186.4z"/>
		</g>
		<g>
			<path class="st16" d="M506.1,186.2c0,1.6,1.3,3,3,3l15.6,0.1c1.6,0,3-1.3,3-3l0.1-9.2c0-1.6-1.3-3-3-3l-15.6-0.1
				c-1.7,0-3,1.3-3,3L506.1,186.2z"/>
		</g>
		<g>
			<path class="st16" d="M477.7,185.9c0,1.6,1.3,3,3,3l15.6,0.1c1.6,0,3-1.3,3-3l0.1-9.2c0-1.6-1.3-3-3-3l-15.6-0.1
				c-1.6,0-3,1.3-3,3L477.7,185.9z"/>
		</g>
		<g>
			<path class="st16" d="M449.4,185.7c0,1.6,1.3,3,3,3l15.6,0.1c1.6,0,3-1.3,3-3l0.1-9.2c0-1.6-1.3-3-3-3l-15.6-0.1
				c-1.6,0-3,1.3-3,3L449.4,185.7z"/>
		</g>
		<g>
			<path class="st16" d="M421.1,185.5c0,1.6,1.3,3,3,3l15.6,0.1c1.7,0,3-1.3,3-3l0.1-9.2c0-1.7-1.3-3-3-3l-15.6-0.1
				c-1.6,0-3,1.3-3,3L421.1,185.5z"/>
		</g>
		<g>
			<path class="st16" d="M392.7,185.3c0,1.6,1.3,3,3,3l15.6,0.1c1.6,0,3-1.3,3-3l0.1-9.2c0-1.7-1.3-3-3-3l-15.6-0.1
				c-1.6,0-3,1.3-3,3L392.7,185.3z"/>
		</g>
		<g>
			<path class="st16" d="M364.4,184.9c0,1.6,1.3,3,3,3L383,188c1.6,0,3-1.3,3-3l0.1-9.2c0-1.7-1.3-3-3-3l-15.6-0.1c-1.6,0-3,1.3-3,3
				L364.4,184.9z"/>
		</g>
		<g>
			<path class="st16" d="M336,184.7c0,1.6,1.3,3,3,3l15.6,0.1c1.6,0,3-1.3,3-3l0.1-9.2c0-1.6-1.3-3-3-3l-15.6-0.1c-1.6,0-3,1.3-3,3
				L336,184.7z"/>
		</g>
		<g>
			<path class="st16" d="M307.7,184.5c0,1.6,1.3,3,3,3l15.6,0.1c1.6,0,3-1.3,3-3l0.1-9.2c0-1.6-1.3-3-3-3l-15.6-0.1
				c-1.6,0-3,1.3-3,3L307.7,184.5z"/>
		</g>
		<g>
			<path class="st16" d="M279.3,184.2c0,1.6,1.3,3,3,3l15.6,0.1c1.6,0,3-1.3,3-3l0.1-9.2c0-1.6-1.3-3-3-3l-15.6-0.1
				c-1.7,0-3,1.3-3,3L279.3,184.2z"/>
		</g>
		<g>
			<path class="st16" d="M251,184c0,1.6,1.3,3,3,3l15.6,0.1c1.6,0,3-1.3,3-3l0.1-9.2c0-1.6-1.3-3-3-3l-15.6-0.1c-1.6,0-3,1.3-3,3
				L251,184z"/>
		</g>
	</g>
	<g>
		<g>
			<path class="st16" d="M534,244.6c0,1.6,1.3,3,3,3l15.6,0.1c1.6,0,3-1.3,3-3l0.1-9.2c0-1.6-1.3-3-3-3l-15.6-0.1c-1.6,0-3,1.3-3,3
				L534,244.6z"/>
		</g>
		<g>
			<path class="st16" d="M505.7,244.4c0,1.6,1.3,3,3,3l15.6,0.1c1.6,0,3-1.3,3-3l0.1-9.2c0-1.6-1.3-3-3-3l-15.6-0.1
				c-1.6,0-3,1.3-3,3L505.7,244.4z"/>
		</g>
		<g>
			<path class="st16" d="M477.3,244.1c0,1.6,1.3,3,3,3l15.6,0.1c1.6,0,3-1.3,3-3l0.1-9.2c0-1.6-1.3-3-3-3l-15.6-0.1
				c-1.6,0-3,1.3-3,3L477.3,244.1z"/>
		</g>
		<g>
			<path class="st16" d="M449,243.9c0,1.6,1.3,3,3,3l15.6,0.1c1.6,0,3-1.3,3-3l0.1-9.2c0-1.6-1.3-3-3-3l-15.6-0.1c-1.6,0-3,1.3-3,3
				L449,243.9z"/>
		</g>
		<g>
			<path class="st16" d="M420.6,243.7c0,1.6,1.3,3,3,3l15.6,0.1c1.6,0,3-1.3,3-3l0.1-9.2c0-1.6-1.3-3-3-3l-15.6-0.1
				c-1.6,0-3,1.3-3,3L420.6,243.7z"/>
		</g>
		<g>
			<path class="st16" d="M392.3,243.5c0,1.6,1.3,3,3,3l15.6,0.1c1.6,0,3-1.3,3-3l0.1-9.2c0-1.6-1.3-3-3-3l-15.6-0.1
				c-1.7,0-3,1.3-3,3L392.3,243.5z"/>
		</g>
		<g>
			<path class="st16" d="M363.9,243.1c0,1.6,1.3,3,3,3l15.6,0.1c1.6,0,3-1.3,3-3l0.1-9.2c0-1.6-1.3-3-3-3l-15.6-0.1
				c-1.6,0-3,1.3-3,3L363.9,243.1z"/>
		</g>
		<g>
			<path class="st16" d="M335.6,242.9c0,1.6,1.3,3,3,3l15.6,0.1c1.6,0,3-1.3,3-3l0.1-9.2c0-1.6-1.3-3-3-3l-15.6-0.1
				c-1.7,0-3,1.3-3,3L335.6,242.9z"/>
		</g>
		<g>
			<path class="st16" d="M307.3,242.7c0,1.6,1.3,3,3,3l15.6,0.1c1.6,0,3-1.3,3-3l0.1-9.2c0-1.6-1.3-3-3-3l-15.6-0.1
				c-1.6,0-3,1.3-3,3L307.3,242.7z"/>
		</g>
		<g>
			<path class="st16" d="M278.9,242.4c0,1.6,1.3,3,3,3l15.6,0.1c1.6,0,3-1.3,3-3l0.1-9.2c0-1.6-1.3-3-3-3l-15.6-0.1
				c-1.6,0-3,1.3-3,3L278.9,242.4z"/>
		</g>
		<g>
			<path class="st16" d="M250.6,242.2c0,1.6,1.3,3,3,3l15.6,0.1c1.6,0,3-1.3,3-3l0.1-9.2c0-1.6-1.3-3-3-3l-15.6-0.1
				c-1.6,0-3,1.3-3,3L250.6,242.2z"/>
		</g>
	</g>
	<g>
		<g>
			<path class="st16" d="M534.1,224.6c0,1.6,1.3,3,3,3l15.6,0.1c1.6,0,3-1.3,3-3l0.1-9.2c0-1.6-1.3-3-3-3l-15.6-0.1
				c-1.6,0-3,1.3-3,3L534.1,224.6z"/>
		</g>
		<g>
			<path class="st16" d="M505.8,224.4c0,1.6,1.3,3,3,3l15.6,0.1c1.6,0,3-1.3,3-3l0.1-9.2c0-1.6-1.3-3-3-3l-15.6-0.1
				c-1.6,0-3,1.3-3,3L505.8,224.4z"/>
		</g>
		<g>
			<path class="st16" d="M477.4,224.2c0,1.6,1.3,3,3,3l15.6,0.1c1.6,0,3-1.3,3-3l0.1-9.2c0-1.6-1.3-3-3-3l-15.6-0.1
				c-1.6,0-3,1.3-3,3L477.4,224.2z"/>
		</g>
		<g>
			<path class="st16" d="M449.1,223.9c0,1.6,1.3,3,3,3l15.6,0.1c1.6,0,3-1.3,3-3l0.1-9.2c0-1.6-1.3-3-3-3l-15.6-0.1
				c-1.6,0-3,1.3-3,3L449.1,223.9z"/>
		</g>
		<g>
			<path class="st16" d="M420.7,223.7c0,1.6,1.3,3,3,3l15.6,0.1c1.6,0,3-1.3,3-3l0.1-9.2c0-1.6-1.3-3-3-3l-15.6-0.1
				c-1.6,0-3,1.3-3,3L420.7,223.7z"/>
		</g>
		<g>
			<path class="st16" d="M392.4,223.5c0,1.6,1.3,3,3,3l15.6,0.1c1.6,0,3-1.3,3-3l0.1-9.2c0-1.6-1.3-3-3-3l-15.6-0.1
				c-1.7,0-3,1.3-3,3L392.4,223.5z"/>
		</g>
		<g>
			<path class="st16" d="M364,223.1c0,1.6,1.3,3,3,3l15.6,0.1c1.6,0,3-1.3,3-3l0.1-9.2c0-1.6-1.3-3-3-3l-15.6-0.1c-1.6,0-3,1.3-3,3
				L364,223.1z"/>
		</g>
		<g>
			<path class="st16" d="M335.7,222.9c0,1.6,1.3,3,3,3l15.6,0.1c1.6,0,3-1.3,3-3l0.1-9.2c0-1.6-1.3-3-3-3l-15.6-0.1
				c-1.7,0-3,1.3-3,3L335.7,222.9z"/>
		</g>
		<g>
			<path class="st16" d="M307.4,222.7c0,1.6,1.3,3,3,3l15.6,0.1c1.6,0,3-1.3,3-3l0.1-9.2c0-1.6-1.3-3-3-3l-15.6-0.1
				c-1.6,0-3,1.3-3,3L307.4,222.7z"/>
		</g>
		<g>
			<path class="st16" d="M279,222.5c0,1.6,1.3,3,3,3l15.6,0.1c1.6,0,3-1.3,3-3l0.1-9.2c0-1.6-1.3-3-3-3l-15.6-0.1c-1.6,0-3,1.3-3,3
				L279,222.5z"/>
		</g>
		<g>
			<path class="st16" d="M250.7,222.2c0,1.7,1.3,3,3,3l15.6,0.1c1.6,0,3-1.3,3-3l0.1-9.2c0-1.6-1.3-3-3-3l-15.6-0.1
				c-1.6,0-3,1.3-3,3L250.7,222.2z"/>
		</g>
	</g>
	<g>
		<g>
			<path class="st16" d="M534.3,205.5c0,1.6,1.3,3,3,3l15.6,0.1c1.7,0,3-1.3,3-3l0.1-9.2c0-1.6-1.3-3-3-3l-15.6-0.1
				c-1.6,0-3,1.3-3,3L534.3,205.5z"/>
		</g>
		<g>
			<path class="st16" d="M505.9,205.3c0,1.6,1.3,3,3,3l15.6,0.1c1.6,0,3-1.3,3-3l0.1-9.2c0-1.6-1.3-3-3-3l-15.6-0.1
				c-1.7,0-3,1.3-3,3L505.9,205.3z"/>
		</g>
		<g>
			<path class="st16" d="M477.6,205.1c0,1.6,1.3,3,3,3l15.6,0.1c1.7,0,3-1.3,3-3l0.1-9.2c0-1.6-1.3-3-3-3l-15.6-0.1
				c-1.7,0-3,1.3-3,3L477.6,205.1z"/>
		</g>
		<g>
			<path class="st16" d="M449.2,204.8c0,1.6,1.3,3,3,3l15.6,0.1c1.6,0,3-1.3,3-3l0.1-9.2c0-1.6-1.3-3-3-3l-15.6-0.1
				c-1.6,0-3,1.3-3,3L449.2,204.8z"/>
		</g>
		<g>
			<path class="st16" d="M420.9,204.6c0,1.6,1.3,3,3,3l15.6,0.1c1.6,0,3-1.3,3-3l0.1-9.2c0-1.6-1.3-3-3-3l-15.6-0.1
				c-1.6,0-3,1.3-3,3L420.9,204.6z"/>
		</g>
		<g>
			<path class="st16" d="M392.5,204.4c0,1.6,1.3,3,3,3l15.6,0.1c1.6,0,3-1.3,3-3l0.1-9.2c0-1.6-1.3-3-3-3l-15.6-0.1
				c-1.6,0-3,1.3-3,3L392.5,204.4z"/>
		</g>
		<g>
			<path class="st16" d="M364.2,204c0,1.6,1.3,3,3,3l15.6,0.1c1.6,0,3-1.3,3-3l0.1-9.2c0-1.6-1.3-3-3-3l-15.6-0.1c-1.6,0-3,1.3-3,3
				L364.2,204z"/>
		</g>
		<g>
			<path class="st16" d="M335.9,203.8c0,1.6,1.3,3,3,3l15.6,0.1c1.6,0,3-1.3,3-3l0.1-9.2c0-1.6-1.3-3-3-3l-15.6-0.1
				c-1.7,0-3,1.3-3,3L335.9,203.8z"/>
		</g>
		<g>
			<path class="st16" d="M307.5,203.6c0,1.6,1.3,3,3,3l15.6,0.1c1.6,0,3-1.3,3-3l0.1-9.2c0-1.6-1.3-3-3-3l-15.6-0.1
				c-1.6,0-3,1.3-3,3L307.5,203.6z"/>
		</g>
		<g>
			<path class="st16" d="M279.2,203.4c0,1.6,1.3,3,3,3l15.6,0.1c1.6,0,3-1.3,3-3l0.1-9.2c0-1.6-1.3-3-3-3l-15.6-0.1
				c-1.7,0-3,1.3-3,3L279.2,203.4z"/>
		</g>
		<g>
			<path class="st16" d="M250.8,203.1c0,1.6,1.3,3,3,3l15.6,0.1c1.6,0,3-1.3,3-3l0.1-9.2c0-1.6-1.3-3-3-3l-15.6-0.1
				c-1.6,0-3,1.3-3,3L250.8,203.1z"/>
		</g>
	</g>
	
		<rect x="522.9" y="215.2" transform="matrix(8.457140e-03 -1 1 8.457140e-03 286.0473 768.2971)" class="st16" width="15.1" height="49.4"/>
	<path class="st16" d="M335.9,261.7c0,1.6,1.3,3,3,3l157.5,1.4c1.6,0,3-1.3,3-3l0.1-8.3c0-1.6-1.3-3-3-3L339,250.4c-1.6,0-3,1.3-3,3
		L335.9,261.7z"/>
	<path class="st16" d="M307.5,261.5c0,1.6,1.3,3,3,3l15.5,0.1c1.6,0,3-1.3,3-3l0.1-8.3c0-1.6-1.3-3-3-3l-15.5-0.1c-1.6,0-3,1.3-3,3
		L307.5,261.5z"/>
	<path class="st16" d="M250.6,261.2c0,1.7,1.3,3,3,3l15.6,0.1c1.6,0,3-1.3,3-3l0.1-8.3c0-1.6-1.3-3-3-3l-15.6-0.1c-1.6,0-3,1.3-3,3
		L250.6,261.2z"/>
	<path class="st16" d="M279.2,261.2c0,1.7,1.3,3,3,3l15.6,0.1c1.6,0,3-1.3,3-3l0.1-8.3c0-1.6-1.3-3-3-3l-15.6-0.1c-1.7,0-3,1.3-3,3
		L279.2,261.2z"/>
	<path class="st16" d="M505.6,263.3c0,1.6,1.3,3,3,3l15.6,0.1c1.6,0,3-1.3,3-3l0.1-8.3c0-1.6-1.3-3-3-3l-15.6-0.1c-1.6,0-3,1.3-3,3
		L505.6,263.3z"/>
	<path class="st16" d="M534.2,263.3c0,1.6,1.3,3,3,3l15.6,0.1c1.6,0,3-1.3,3-3l0.1-8.3c0-1.6-1.3-3-3-3l-15.6-0.1c-1.6,0-3,1.3-3,3
		L534.2,263.3z"/>
	<path class="st16" d="M267.6,222.4c0,1.6,1.3,3,3,3l15.6,0.1c1.6,0,3-1.3,3-3l0.1-9.1c0-1.6-1.3-3-3-3l-15.6-0.1c-1.6,0-3,1.3-3,3
		L267.6,222.4z"/>
	<path class="st16" d="M517.2,205.4c0,1.6,1.3,3,3,3l15.6,0.1c1.6,0,3-1.3,3-3l0.1-9.2c0-1.6-1.3-3-3-3l-15.6-0.1c-1.6,0-3,1.3-3,3
		L517.2,205.4z"/>
	<path class="st16" d="M534.2,213.5c0,1.6,1.3,3,3,3l15.6,0.1c1.7,0,3-1.3,3-3l0.1-6.3c0-1.6-1.3-3-3-3l-15.6-0.1c-1.6,0-3,1.3-3,3
		L534.2,213.5z"/>
	<g>
		<g>
			<path class="st18" d="M376.3,67.3l189.1,0.1L376.3,67.3z"/>
			<path class="st18" d="M375.7,77.2l185.9,0.1L375.7,77.2z"/>
			<path class="st18" d="M375,86.5l182.8,0.1L375,86.5z"/>
		</g>
		<g>
			<path class="st18" d="M374.4,94.3l180.2,0.1L374.4,94.3z"/>
			<path class="st18" d="M373.9,102.1l177.7,0.1L373.9,102.1z"/>
			<path class="st18" d="M373.4,109.5l175.2,0.1L373.4,109.5z"/>
		</g>
	</g>
	<path class="st16" d="M279.1,165.3c0,1.7,1.3,3,3,3l15.6,0.1c1.6,0,3-1.3,3-3l0.1-8.3c0-1.7-1.3-3-3-3l-15.6-0.1c-1.6,0-3,1.3-3,3
		L279.1,165.3z"/>
	<path class="st16" d="M392.6,165.9c0,1.6,1.3,3,3,3l15.6,0.2c1.6,0,3-1.3,3-3l0.1-8.3c0-1.6-1.3-3-3-3l-15.6-0.1c-1.6,0-3,1.3-3,3
		L392.6,165.9z"/>
	<path class="st16" d="M506.5,167.2c0,1.6,1.3,3,3,3l15.6,0.1c1.6,0,3-1.3,3-3l0.1-8.3c0-1.6-1.3-3-3-3l-15.6-0.1c-1.7,0-3,1.3-3,3
		L506.5,167.2z"/>
</g>
<path class="st6" d="M328.8,235.4c-9.3,9-17.3,20-24.2,33.2c-1,0.8-1.8,0.3-2.1-0.3C307.6,256.8,317.1,241.9,328.8,235.4z
	 M293.6,248.9c2.9-4.7,8.1-8.9,12.6-12.1c-6.7,7.7-12.1,16.8-15.9,25c-1,1-1.5,0.3-1.7-0.4C289.8,256.8,291.3,252.6,293.6,248.9z
	 M355.3,278.8c-4.2-2.2-9.3-0.5-11.5,3.6l-9,17.4l-13.3,8.4l-0.4-0.9l5.6-15l-0.1-0.4c8.3-17.7,15.9-31,32.3-44.8
	c2.9-2.5,3.3-6.8,0.8-9.7c-2.5-2.9-6.8-3.3-9.7-0.8c-14.7,12.4-23.1,24.6-30.4,38.5c-0.9,0.2-1.7-0.1-2.3-1
	c8.7-16.5,19.3-29.1,32.2-38.1c3.1-2.2,3-7.6,0.9-10.8c-2.2-3.1-5.6-2.7-8.7-0.5c-2.6,1.8-5.1,3.7-7.5,5.8c0.6-1.7,0.6-3.6-0.2-5.3
	c-1.6-3.4-5.7-4.9-9.2-3.3c-5.6,2.6-10.8,6.7-15.4,11.6c0.8-1.9,0.6-4.1-0.6-5.9c-2-2.8-5.8-3.4-8.6-1.5c-5.6,4-12.6,9.4-16.8,16.3
	c-3.9,6.4-5.9,13.1-7.5,20.2l-17.4,41.9c-2.6,8.6-2,13.5,0,19.4c-2.4,4.5-4.4,8.9-6.6,13.3l-0.3-0.1l-2.9,5.4l-11-5.5l-8.8,18.3
	l-2.6,5.3l0,0l-89.2,171.4l88.7,0l69.9-136.2l-2.4-1.2l11.8-23.4l-10.9-5.5L285,361l1-2.2l8.2-15.4c2.3,1,8-0.4,12-3l19.6-14.8
	l20.1-12.7c1.3-0.8,2.3-1.9,3-3.3l10.1-19.4C361.1,286.1,359.5,280.9,355.3,278.8z"/>
<g>
	<path class="st19" d="M1229.4,263.2l0.7-3c1-4.1-1.6-8.2-5.7-9.2l-17.6-4.1c-4.1-1-8.2,1.6-9.2,5.7l-1.1,4.7
		c-0.1,0.5-0.7,0.9-1.2,0.8l0,0c-0.5-0.1-0.9-0.7-0.8-1.2l0.4-1.7c1-4.1-1.6-8.2-5.7-9.2l-17.6-4.1c-4.1-1-8.2,1.6-9.2,5.7l0,0
		c-0.4,1.5-1.9,2.4-3.4,2.1l-54.4-12.6c-1.5-0.4-2.4-1.9-2.1-3.4l0.7-3c1-4.1-1.6-8.2-5.7-9.2l-17.6-4.1c-4.1-1-8.2,1.6-9.2,5.7
		l-0.7,3c-0.4,1.5-1.9,2.4-3.4,2.1l-17.6-4.1c-1.5-0.4-2.4-1.9-2.1-3.4l0,0c1-4.1-1.6-8.2-5.7-9.2l-17.6-4.1c-4.1-1-8.2,1.6-9.2,5.7
		l0,0c-0.4,1.5-1.9,2.4-3.4,2.1l-22.4-5.2c-1.5-0.4-3,0.6-3.4,2.1l-51.6,221.3c-0.4,1.5,0.6,3,2.1,3.4l262.5,61.1
		c1.5,0.4,3-0.6,3.4-2.1l51.5-221.2c0.4-1.5-0.6-3-2.1-3.4l-19.4-4.5C1230,266.2,1229.1,264.7,1229.4,263.2z"/>
	<g>
		<g>
			<path class="st20" d="M1181.2,486.8l-246.6-57.4c-5.9-1.4-9.6-7.3-8.2-13.2l47.8-205.3c1.4-5.9,7.3-9.6,13.2-8.2l246.6,57.4
				c5.9,1.4,9.6,7.3,8.2,13.2l-47.8,205.3C1192.9,484.5,1187,488.2,1181.2,486.8z"/>
			<path class="st21" d="M1177.4,483.2L940.2,428c-4.6-1.1-7.5-5.7-6.4-10.3l47.8-205.4c1.1-4.6,5.7-7.5,10.3-6.4l237.2,55.2
				c4.6,1.1,7.5,5.7,6.4,10.3l-47.8,205.4C1186.6,481.4,1181.9,484.3,1177.4,483.2z"/>
			<g>
				<path class="st5" d="M1175.7,481.7l-106.9-24.7c-4.6-1.1-7.5-5.7-6.5-10.3l47-202.6c1.1-4.6,5.7-7.5,10.3-6.5l106.9,24.7
					c4.6,1.1,7.5,5.7,6.5,10.3l-47,202.6C1185,479.9,1180.3,482.8,1175.7,481.7z"/>
				<g>
					<g>
						<path class="st22" d="M1100.6,324.6c-0.3,1.1-1.4,1.8-2.6,1.5l-7.4-1.7l0.9-4l7.4,1.7C1100.1,322.4,1100.8,323.5,1100.6,324.6
							z"/>
					</g>
					<path class="st22" d="M1098.4,333.9c-0.3,1.1-1.4,1.8-2.6,1.5l-7.3-1.7l0.9-4l7.3,1.7c0.6,0.1,1.1,0.5,1.4,0.9
						C1098.4,332.8,1098.5,333.3,1098.4,333.9z"/>
					<path class="st22" d="M1096.1,343.2c-0.3,1.1-1.4,1.8-2.6,1.5l-7.2-1.7l0.9-4l7.2,1.7c0.6,0.1,1.1,0.5,1.4,0.9
						C1096.1,342.1,1096.3,342.6,1096.1,343.2z"/>
					<path class="st22" d="M1084.2,352.3l7.2,1.7c1.2,0.3,2.3-0.4,2.6-1.5c0.1-0.5,0-1.1-0.3-1.6c-0.3-0.5-0.8-0.8-1.4-0.9l-7.2-1.7
						L1084.2,352.3z"/>
					<path class="st22" d="M1082,361.6l7.1,1.6c1.2,0.3,2.3-0.4,2.6-1.5c0.1-0.5,0-1.1-0.3-1.6s-0.8-0.8-1.4-0.9l-7.1-1.6
						L1082,361.6z"/>
					<path class="st22" d="M1089.4,371c-0.3,1.1-1.4,1.8-2.6,1.5l-7-1.6l0.9-4l7,1.6c0.6,0.1,1.1,0.5,1.4,0.9
						C1089.4,369.9,1089.6,370.4,1089.4,371z"/>
					<path class="st22" d="M1087.2,380.2c-0.3,1.1-1.4,1.8-2.6,1.5l-6.9-1.6l0.9-4l6.9,1.6c0.6,0.1,1.1,0.5,1.4,0.9
						C1087.2,379.1,1087.3,379.7,1087.2,380.2z"/>
					<path class="st22" d="M1085,389.5c-0.3,1.1-1.4,1.8-2.6,1.5l-6.8-1.6l0.9-4l6.8,1.6c0.6,0.1,1.1,0.5,1.4,0.9
						C1085,388.4,1085.1,388.9,1085,389.5z"/>
					<path class="st22" d="M1073.4,398.7l6.7,1.6c1.2,0.3,2.3-0.4,2.6-1.5c0.1-0.5,0-1.1-0.3-1.6c-0.3-0.4-0.8-0.8-1.4-0.9l-6.7-1.6
						L1073.4,398.7z"/>
					<path class="st22" d="M1080.5,408c-0.3,1.1-1.4,1.8-2.6,1.5l-6.7-1.5l0.9-4l6.7,1.5c0.6,0.1,1.1,0.5,1.4,0.9
						C1080.5,406.9,1080.6,407.5,1080.5,408z"/>
					<path class="st22" d="M1078.3,417.3c-0.3,1.1-1.4,1.8-2.6,1.5l-6.6-1.5l0.9-4l6.6,1.5c0.6,0.1,1.1,0.5,1.4,0.9
						C1078.3,416.2,1078.4,416.7,1078.3,417.3z"/>
					<path class="st22" d="M1076,426.6c-0.3,1.1-1.4,1.8-2.6,1.5l-6.5-1.5l0.9-4l6.5,1.5c0.6,0.1,1.1,0.5,1.4,0.9
						C1076.1,425.4,1076.2,426,1076,426.6z"/>
					<path class="st22" d="M1073.8,435.8c-0.3,1.1-1.4,1.8-2.6,1.5l-6.4-1.5l0.9-4l6.4,1.5c0.6,0.1,1.1,0.5,1.4,0.9
						C1073.8,434.7,1073.9,435.3,1073.8,435.8z"/>
					<g>
						<path class="st22" d="M1071.6,445.1c-0.3,1.1-1.4,1.8-2.6,1.5l-6.3-1.5l0.9-4l6.3,1.5C1071.1,442.9,1071.8,444,1071.6,445.1z"
							/>
					</g>
				</g>
				<g>
					<g>
						<path class="st23" d="M1100.7,320.7c-0.8-0.2-1.6,0-2.2,0.3l0.7,0.2c1.2,0.3,1.9,1.4,1.6,2.5l0,0c-0.3,1.1-1.4,1.8-2.6,1.5
							l-0.7-0.2c0.4,0.6,1.1,1.1,1.9,1.3c1.6,0.4,3.2-0.6,3.6-2.1C1103.3,322.6,1102.3,321.1,1100.7,320.7z"/>
						<path class="st24" d="M1100.8,323.7L1100.8,323.7c0.3-1.1-0.5-2.2-1.6-2.5l-0.7-0.2l-9-2.1c-1.2-0.3-2.3,0.4-2.6,1.5l0,0
							c-0.3,1.1,0.5,2.2,1.6,2.5l9,2.1l0.7,0.2C1099.4,325.5,1100.5,324.8,1100.8,323.7z"/>
					</g>
					<g>
						<path class="st23" d="M1096.2,330.3l0.7,0.2c1.2,0.3,1.9,1.4,1.6,2.5l0,0c-0.3,1.1-1.4,1.8-2.6,1.5l-0.7-0.2
							c0.4,0.6,1.1,1.1,1.9,1.3c1.6,0.4,3.2-0.6,3.6-2.1c0.4-1.5-0.7-3.1-2.3-3.5C1097.6,329.8,1096.8,329.9,1096.2,330.3z"/>
						<path class="st24" d="M1084.6,329.7L1084.6,329.7c-0.3,1.1,0.5,2.2,1.6,2.5l9,2.1l0.7,0.2c1.2,0.3,2.3-0.4,2.6-1.5l0,0
							c0.3-1.1-0.5-2.2-1.6-2.5l-0.7-0.2l-9-2.1C1086,327.9,1084.8,328.6,1084.6,329.7z"/>
					</g>
					<g>
						<path class="st23" d="M1094,339.6l0.7,0.2c1.2,0.3,1.9,1.4,1.6,2.5l0,0c-0.3,1.1-1.4,1.8-2.6,1.5l-0.7-0.2
							c0.4,0.6,1.1,1.1,1.9,1.3c1.6,0.4,3.2-0.6,3.6-2.1c0.4-1.5-0.7-3.1-2.3-3.5C1095.4,339.1,1094.6,339.2,1094,339.6z"/>
						<path class="st24" d="M1082.4,339L1082.4,339c-0.3,1.1,0.5,2.2,1.6,2.5l9,2.1l0.7,0.2c1.2,0.3,2.3-0.4,2.6-1.5l0,0
							c0.3-1.1-0.5-2.2-1.6-2.5l-0.7-0.2l-9-2.1C1083.8,337.2,1082.6,337.9,1082.4,339z"/>
					</g>
					<g>
						<path class="st23" d="M1091.7,348.8l0.7,0.2c1.2,0.3,1.9,1.4,1.6,2.5l0,0c-0.3,1.1-1.4,1.8-2.6,1.5l-0.7-0.2
							c0.4,0.6,1.1,1.1,1.9,1.3c1.6,0.4,3.2-0.6,3.6-2.1s-0.7-3.1-2.3-3.5C1093.2,348.3,1092.4,348.5,1091.7,348.8z"/>
						<path class="st24" d="M1080.1,348.2L1080.1,348.2c-0.3,1.1,0.5,2.2,1.6,2.5l9,2.1l0.7,0.2c1.2,0.3,2.3-0.4,2.6-1.5l0,0
							c0.3-1.1-0.5-2.2-1.6-2.5l-0.7-0.2l-9-2.1C1081.5,346.5,1080.4,347.1,1080.1,348.2z"/>
					</g>
					<g>
						<path class="st23" d="M1089.5,358.1l0.7,0.2c1.2,0.3,1.9,1.4,1.6,2.5l0,0c-0.3,1.1-1.4,1.8-2.6,1.5l-0.7-0.2
							c0.4,0.6,1.1,1.1,1.9,1.3c1.6,0.4,3.2-0.6,3.6-2.1c0.4-1.5-0.7-3.1-2.3-3.5C1090.9,357.6,1090.1,357.7,1089.5,358.1z"/>
						<path class="st24" d="M1077.9,357.5L1077.9,357.5c-0.3,1.1,0.5,2.2,1.6,2.5l9,2.1l0.7,0.2c1.2,0.3,2.3-0.4,2.6-1.5l0,0
							c0.3-1.1-0.5-2.2-1.6-2.5l-0.7-0.2l-9-2.1C1079.3,355.7,1078.2,356.4,1077.9,357.5z"/>
					</g>
					<g>
						<path class="st23" d="M1087.3,367.4l0.7,0.2c1.2,0.3,1.9,1.4,1.6,2.5l0,0c-0.3,1.1-1.4,1.8-2.6,1.5l-0.7-0.2
							c0.4,0.6,1.1,1.1,1.9,1.3c1.6,0.4,3.2-0.6,3.6-2.1c0.4-1.5-0.7-3.1-2.3-3.5C1088.7,366.8,1087.9,367,1087.3,367.4z"/>
						<path class="st24" d="M1075.7,366.8L1075.7,366.8c-0.3,1.1,0.5,2.2,1.6,2.5l9,2.1l0.7,0.2c1.2,0.3,2.3-0.4,2.6-1.5l0,0
							c0.3-1.1-0.5-2.2-1.6-2.5l-0.7-0.2l-9-2.1C1077.1,365,1075.9,365.7,1075.7,366.8z"/>
					</g>
					<g>
						<path class="st23" d="M1085,376.6l0.7,0.2c1.2,0.3,1.9,1.4,1.6,2.5l0,0c-0.3,1.1-1.4,1.8-2.6,1.5l-0.7-0.2
							c0.4,0.6,1.1,1.1,1.9,1.3c1.6,0.4,3.2-0.6,3.6-2.1c0.4-1.5-0.7-3.1-2.3-3.5C1086.5,376.1,1085.7,376.2,1085,376.6z"/>
						<path class="st24" d="M1073.4,376L1073.4,376c-0.3,1.1,0.5,2.2,1.6,2.5l9,2.1l0.7,0.2c1.2,0.3,2.3-0.4,2.6-1.5l0,0
							c0.3-1.1-0.5-2.2-1.6-2.5l-0.7-0.2l-9-2.1C1074.9,374.3,1073.7,374.9,1073.4,376z"/>
					</g>
					<g>
						<path class="st23" d="M1082.8,385.9l0.7,0.2c1.2,0.3,1.9,1.4,1.6,2.5l0,0c-0.3,1.1-1.4,1.8-2.6,1.5l-0.7-0.2
							c0.4,0.6,1.1,1.1,1.9,1.3c1.6,0.4,3.2-0.6,3.6-2.1c0.4-1.5-0.7-3.1-2.3-3.5C1084.2,385.4,1083.4,385.5,1082.8,385.9z"/>
						<path class="st24" d="M1071.2,385.3L1071.2,385.3c-0.3,1.1,0.5,2.2,1.6,2.5l9,2.1l0.7,0.2c1.2,0.3,2.3-0.4,2.6-1.5l0,0
							c0.3-1.1-0.5-2.2-1.6-2.5l-0.7-0.2l-9-2.1C1072.6,383.5,1071.5,384.2,1071.2,385.3z"/>
					</g>
					<g>
						<path class="st23" d="M1080.6,395.1l0.7,0.2c1.2,0.3,1.9,1.4,1.6,2.5l0,0c-0.3,1.1-1.4,1.8-2.6,1.5l-0.7-0.2
							c0.4,0.6,1.1,1.1,1.9,1.3c1.6,0.4,3.2-0.6,3.6-2.1c0.4-1.5-0.7-3.1-2.3-3.5C1082,394.6,1081.2,394.8,1080.6,395.1z"/>
						<path class="st24" d="M1069,394.6L1069,394.6c-0.3,1.1,0.5,2.2,1.6,2.5l9,2.1l0.7,0.2c1.2,0.3,2.3-0.4,2.6-1.5l0,0
							c0.3-1.1-0.5-2.2-1.6-2.5l-0.7-0.2l-9-2.1C1070.4,392.8,1069.2,393.5,1069,394.6z"/>
					</g>
					<g>
						<path class="st23" d="M1078.3,404.4l0.7,0.2c1.2,0.3,1.9,1.4,1.6,2.5l0,0c-0.3,1.1-1.4,1.8-2.6,1.5l-0.7-0.2
							c0.4,0.6,1.1,1.1,1.9,1.3c1.6,0.4,3.2-0.6,3.6-2.1c0.4-1.5-0.7-3.1-2.3-3.5C1079.8,403.9,1079,404,1078.3,404.4z"/>
						<path class="st24" d="M1066.8,403.8L1066.8,403.8c-0.3,1.1,0.5,2.2,1.6,2.5l9,2.1l0.7,0.2c1.2,0.3,2.3-0.4,2.6-1.5l0,0
							c0.3-1.1-0.5-2.2-1.6-2.5l-0.7-0.2l-9-2.1C1068.2,402.1,1067,402.7,1066.8,403.8z"/>
					</g>
					<g>
						<path class="st23" d="M1076.1,413.7l0.7,0.2c1.2,0.3,1.9,1.4,1.6,2.5l0,0c-0.3,1.1-1.4,1.8-2.6,1.5l-0.7-0.2
							c0.4,0.6,1.1,1.1,1.9,1.3c1.6,0.4,3.2-0.6,3.6-2.1c0.4-1.5-0.7-3.1-2.3-3.5C1077.6,413.2,1076.8,413.3,1076.1,413.7z"/>
						<path class="st24" d="M1064.5,413.1L1064.5,413.1c-0.3,1.1,0.5,2.2,1.6,2.5l9,2.1l0.7,0.2c1.2,0.3,2.3-0.4,2.6-1.5l0,0
							c0.3-1.1-0.5-2.2-1.6-2.5l-0.7-0.2l-9-2.1C1065.9,411.3,1064.8,412,1064.5,413.1z"/>
					</g>
					<g>
						<path class="st23" d="M1073.9,422.9l0.7,0.2c1.2,0.3,1.9,1.4,1.6,2.5l0,0c-0.3,1.1-1.4,1.8-2.6,1.5l-0.7-0.2
							c0.4,0.6,1.1,1.1,1.9,1.3c1.6,0.4,3.2-0.6,3.6-2.1c0.4-1.5-0.7-3.1-2.3-3.5C1075.3,422.4,1074.5,422.6,1073.9,422.9z"/>
						<path class="st24" d="M1062.3,422.4L1062.3,422.4c-0.3,1.1,0.5,2.2,1.6,2.5l9,2.1l0.7,0.2c1.2,0.3,2.3-0.4,2.6-1.5l0,0
							c0.3-1.1-0.5-2.2-1.6-2.5l-0.7-0.2l-9-2.1C1063.7,420.6,1062.5,421.3,1062.3,422.4z"/>
					</g>
					<g>
						<path class="st23" d="M1071.6,432.2l0.7,0.2c1.2,0.3,1.9,1.4,1.6,2.5l0,0c-0.3,1.1-1.4,1.8-2.6,1.5l-0.7-0.2
							c0.4,0.6,1.1,1.1,1.9,1.3c1.6,0.4,3.2-0.6,3.6-2.1c0.4-1.5-0.7-3.1-2.3-3.5C1073.1,431.7,1072.3,431.8,1071.6,432.2z"/>
						<path class="st24" d="M1060.1,431.6L1060.1,431.6c-0.3,1.1,0.5,2.2,1.6,2.5l9,2.1l0.7,0.2c1.2,0.3,2.3-0.4,2.6-1.5l0,0
							c0.3-1.1-0.5-2.2-1.6-2.5l-0.7-0.2l-9-2.1C1061.5,429.9,1060.3,430.5,1060.1,431.6z"/>
					</g>
					<g>
						<path class="st23" d="M1071.7,441.2c-0.8-0.2-1.6,0-2.2,0.3l0.7,0.2c1.2,0.3,1.9,1.4,1.6,2.5s-1.4,1.8-2.6,1.5l-0.7-0.2
							c0.4,0.6,1.1,1.1,1.9,1.3c1.6,0.4,3.2-0.6,3.6-2.1C1074.3,443.1,1073.3,441.5,1071.7,441.2z"/>
						<path class="st24" d="M1071.8,444.1c0.3-1.1-0.5-2.2-1.6-2.5l-0.7-0.2l-9-2.1c-1.2-0.3-2.3,0.4-2.6,1.5s0.5,2.2,1.6,2.5l9,2.1
							l0.7,0.2C1070.4,445.9,1071.6,445.2,1071.8,444.1z"/>
					</g>
				</g>
				<g>
					<path class="st22" d="M1118.7,250.7c-0.3,1.1-1.4,1.8-2.6,1.5l-6.9-1.6l0.9-4l6.9,1.6c0.6,0.1,1.1,0.5,1.4,0.9
						C1118.7,249.6,1118.9,250.2,1118.7,250.7z"/>
					<path class="st22" d="M1116.5,260c-0.3,1.1-1.4,1.8-2.6,1.5l-6.8-1.6l0.9-4l6.8,1.6c0.6,0.1,1.1,0.5,1.4,0.9
						C1116.5,258.9,1116.6,259.4,1116.5,260z"/>
					<path class="st22" d="M1105,269.2l6.7,1.6c1.2,0.3,2.3-0.4,2.6-1.5c0.1-0.5,0-1.1-0.3-1.6c-0.3-0.4-0.8-0.8-1.4-0.9l-6.7-1.6
						L1105,269.2z"/>
					<path class="st22" d="M1112,278.5c-0.3,1.1-1.4,1.8-2.6,1.5l-6.7-1.5l0.9-4l6.7,1.5c0.6,0.1,1.1,0.5,1.4,0.9
						C1112,277.4,1112.2,278,1112,278.5z"/>
					<path class="st22" d="M1109.8,287.8c-0.3,1.1-1.4,1.8-2.6,1.5l-6.6-1.5l0.9-4l6.6,1.5c0.6,0.1,1.1,0.5,1.4,0.9
						C1109.8,286.7,1109.9,287.2,1109.8,287.8z"/>
					<path class="st22" d="M1107.6,297.1c-0.3,1.1-1.4,1.8-2.6,1.5l-6.5-1.5l0.9-4l6.5,1.5c0.6,0.1,1.1,0.5,1.4,0.9
						C1107.6,296,1107.7,296.5,1107.6,297.1z"/>
					<path class="st22" d="M1105.3,306.3c-0.3,1.1-1.4,1.8-2.6,1.5l-6.4-1.5l0.9-4l6.4,1.5c0.6,0.1,1.1,0.5,1.4,0.9
						C1105.3,305.2,1105.5,305.8,1105.3,306.3z"/>
					<g>
						<path class="st22" d="M1103.1,315.6c-0.3,1.1-1.4,1.8-2.6,1.5l-6.3-1.5l0.9-4l6.3,1.5C1102.6,313.4,1103.4,314.5,1103.1,315.6
							z"/>
					</g>
				</g>
				<g>
					<g>
						<path class="st23" d="M1115.6,251.1c0.4,0.6,1.1,1.1,1.9,1.3c1.6,0.4,3.2-0.6,3.6-2.1c0.4-1.5-0.7-3.1-2.3-3.5
							c-0.8-0.2-1.6,0-2.2,0.3l0.7,0.2c1.2,0.3,1.9,1.4,1.6,2.5l0,0c-0.3,1.1-1.4,1.8-2.6,1.5L1115.6,251.1z"/>
						<path class="st24" d="M1106.6,249l9,2.1l0.7,0.2c1.2,0.3,2.3-0.4,2.6-1.5l0,0c0.3-1.1-0.5-2.2-1.6-2.5l-0.7-0.2l-9-2.1
							c-1.2-0.3-2.3,0.4-2.6,1.5l0,0C1104.7,247.7,1105.5,248.8,1106.6,249z"/>
					</g>
					<g>
						<path class="st23" d="M1113.4,260.4c0.4,0.6,1.1,1.1,1.9,1.3c1.6,0.4,3.2-0.6,3.6-2.1c0.4-1.5-0.7-3.1-2.3-3.5
							c-0.8-0.2-1.6,0-2.2,0.3l0.7,0.2c1.2,0.3,1.9,1.4,1.6,2.5l0,0c-0.3,1.1-1.4,1.8-2.6,1.5L1113.4,260.4z"/>
						<path class="st24" d="M1104.4,258.3l9,2.1l0.7,0.2c1.2,0.3,2.3-0.4,2.6-1.5l0,0c0.3-1.1-0.5-2.2-1.6-2.5l-0.7-0.2l-9-2.1
							c-1.2-0.3-2.3,0.4-2.6,1.5l0,0C1102.5,256.9,1103.2,258,1104.4,258.3z"/>
					</g>
					<g>
						<path class="st23" d="M1111.2,269.7c0.4,0.6,1.1,1.1,1.9,1.3c1.6,0.4,3.2-0.6,3.6-2.1c0.4-1.5-0.7-3.1-2.3-3.5
							c-0.8-0.2-1.6,0-2.2,0.3l0.7,0.2c1.2,0.3,1.9,1.4,1.6,2.5l0,0c-0.3,1.1-1.4,1.8-2.6,1.5L1111.2,269.7z"/>
						<path class="st24" d="M1102.1,267.6l9,2.1l0.7,0.2c1.2,0.3,2.3-0.4,2.6-1.5l0,0c0.3-1.1-0.5-2.2-1.6-2.5l-0.7-0.2l-9-2.1
							c-1.2-0.3-2.3,0.4-2.6,1.5l0,0C1100.3,266.2,1101,267.3,1102.1,267.6z"/>
					</g>
					<g>
						<path class="st23" d="M1108.9,278.9c0.4,0.6,1.1,1.1,1.9,1.3c1.6,0.4,3.2-0.6,3.6-2.1c0.4-1.5-0.7-3.1-2.3-3.5
							c-0.8-0.2-1.6,0-2.2,0.3l0.7,0.2c1.2,0.3,1.9,1.4,1.6,2.5l0,0c-0.3,1.1-1.4,1.8-2.6,1.5L1108.9,278.9z"/>
						<path class="st24" d="M1099.9,276.8l9,2.1l0.7,0.2c1.2,0.3,2.3-0.4,2.6-1.5l0,0c0.3-1.1-0.5-2.2-1.6-2.5l-0.7-0.2l-9-2.1
							c-1.2-0.3-2.3,0.4-2.6,1.5l0,0C1098,275.4,1098.8,276.6,1099.9,276.8z"/>
					</g>
					<g>
						<path class="st23" d="M1106.7,288.2c0.4,0.6,1.1,1.1,1.9,1.3c1.6,0.4,3.2-0.6,3.6-2.1c0.4-1.5-0.7-3.1-2.3-3.5
							c-0.8-0.2-1.6,0-2.2,0.3l0.7,0.2c1.2,0.3,1.9,1.4,1.6,2.5l0,0c-0.3,1.1-1.4,1.8-2.6,1.5L1106.7,288.2z"/>
						<path class="st24" d="M1097.7,286.1l9,2.1l0.7,0.2c1.2,0.3,2.3-0.4,2.6-1.5l0,0c0.3-1.1-0.5-2.2-1.6-2.5l-0.7-0.2l-9-2.1
							c-1.2-0.3-2.3,0.4-2.6,1.5l0,0C1095.8,284.7,1096.5,285.8,1097.7,286.1z"/>
					</g>
					<g>
						<path class="st23" d="M1104.5,297.5c0.4,0.6,1.1,1.1,1.9,1.3c1.6,0.4,3.2-0.6,3.6-2.1c0.4-1.5-0.7-3.1-2.3-3.5
							c-0.8-0.2-1.6,0-2.2,0.3l0.7,0.2c1.2,0.3,1.9,1.4,1.6,2.5l0,0c-0.3,1.1-1.4,1.8-2.6,1.5L1104.5,297.5z"/>
						<path class="st24" d="M1095.5,295.4l9,2.1l0.7,0.2c1.2,0.3,2.3-0.4,2.6-1.5l0,0c0.3-1.1-0.5-2.2-1.6-2.5l-0.7-0.2l-9-2.1
							c-1.2-0.3-2.3,0.4-2.6,1.5l0,0C1093.6,294,1094.3,295.1,1095.5,295.4z"/>
					</g>
					<g>
						<path class="st23" d="M1102.2,306.7c0.4,0.6,1.1,1.1,1.9,1.3c1.6,0.4,3.2-0.6,3.6-2.1c0.4-1.5-0.7-3.1-2.3-3.5
							c-0.8-0.2-1.6,0-2.2,0.3l0.7,0.2c1.2,0.3,1.9,1.4,1.6,2.5l0,0c-0.3,1.1-1.4,1.8-2.6,1.5L1102.2,306.7z"/>
						<path class="st24" d="M1093.2,304.6l9,2.1l0.7,0.2c1.2,0.3,2.3-0.4,2.6-1.5l0,0c0.3-1.1-0.5-2.2-1.6-2.5l-0.7-0.2l-9-2.1
							c-1.2-0.3-2.3,0.4-2.6,1.5l0,0C1091.3,303.2,1092.1,304.4,1093.2,304.6z"/>
					</g>
					<g>
						<path class="st23" d="M1103.2,311.7c-0.8-0.2-1.6,0-2.2,0.3l0.7,0.2c1.2,0.3,1.9,1.4,1.6,2.5c-0.3,1.1-1.4,1.8-2.6,1.5
							l-0.7-0.2c0.4,0.6,1.1,1.1,1.9,1.3c1.6,0.4,3.2-0.6,3.6-2.1C1105.8,313.6,1104.8,312,1103.2,311.7z"/>
						<path class="st24" d="M1103.3,314.6c0.3-1.1-0.5-2.2-1.6-2.5l-0.7-0.2l-9-2.1c-1.2-0.3-2.3,0.4-2.6,1.5
							c-0.3,1.1,0.5,2.2,1.6,2.5l9,2.1l0.7,0.2C1101.9,316.4,1103.1,315.7,1103.3,314.6z"/>
					</g>
				</g>
				<g class="st25">
					<line class="st26" x1="1130.2" y1="255.1" x2="1214.6" y2="274.7"/>
					<line class="st26" x1="1127" y1="269.4" x2="1211.4" y2="289"/>
					<line class="st26" x1="1123.7" y1="283.7" x2="1208.1" y2="303.4"/>
					<line class="st26" x1="1120.4" y1="298.1" x2="1204.8" y2="317.7"/>
					<line class="st26" x1="1117.2" y1="312.4" x2="1201.6" y2="332.1"/>
					<line class="st26" x1="1113.9" y1="326.8" x2="1198.3" y2="346.4"/>
					<line class="st26" x1="1110.7" y1="341.1" x2="1195.1" y2="360.8"/>
					<line class="st26" x1="1107.4" y1="355.5" x2="1191.8" y2="375.1"/>
					<line class="st26" x1="1104.1" y1="369.8" x2="1188.5" y2="389.5"/>
					<line class="st26" x1="1100.9" y1="384.2" x2="1185.3" y2="403.8"/>
					<line class="st26" x1="1097.6" y1="398.6" x2="1182" y2="418.2"/>
					<line class="st26" x1="1094.3" y1="412.9" x2="1178.7" y2="432.5"/>
					<line class="st26" x1="1091.1" y1="427.3" x2="1175.5" y2="446.9"/>
					<line class="st26" x1="1087.8" y1="441.6" x2="1172.2" y2="461.2"/>
				</g>
			</g>
			<g>
				<g>
					<path class="st27" d="M941.9,427l106.8,25c4.6,1.1,9.3-1.8,10.4-6.4l47.5-202.5c1.1-4.6-1.8-9.3-6.4-10.4l-106.8-25
						c-4.6-1.1-9.3,1.8-10.4,6.4l-47.5,202.5C934.3,421.2,937.2,425.9,941.9,427z"/>
					<g>
						<g>
							<path class="st22" d="M1078.6,319.3c-0.3,1.1,0.5,2.2,1.6,2.5l7.4,1.7l0.9-4l-7.4-1.7C1080,317.5,1078.8,318.2,1078.6,319.3z
								"/>
						</g>
						<path class="st22" d="M1076.5,328.6c-0.3,1.1,0.5,2.2,1.6,2.5l7.3,1.7l0.9-4l-7.3-1.7c-0.6-0.1-1.2,0-1.6,0.2
							C1077,327.6,1076.6,328,1076.5,328.6z"/>
						<path class="st22" d="M1074.4,337.9c-0.3,1.1,0.5,2.2,1.6,2.5l7.2,1.7l0.9-4l-7.2-1.7c-0.6-0.1-1.2,0-1.6,0.2
							C1074.9,336.9,1074.5,337.3,1074.4,337.9z"/>
						<path class="st22" d="M1081.1,351.4l-7.1-1.7c-1.2-0.3-1.9-1.4-1.6-2.5c0.1-0.5,0.5-1,1-1.3s1-0.4,1.6-0.2l7.1,1.7
							L1081.1,351.4z"/>
						<path class="st22" d="M1078.9,360.6l-7.1-1.7c-1.2-0.3-1.9-1.4-1.6-2.5c0.1-0.5,0.5-1,0.9-1.3c0.5-0.3,1-0.4,1.6-0.2l7.1,1.7
							L1078.9,360.6z"/>
						<path class="st22" d="M1068.1,365.8c-0.3,1.1,0.5,2.2,1.6,2.5l7,1.6l0.9-4l-7-1.6c-0.6-0.1-1.2,0-1.6,0.2
							C1068.6,364.8,1068.3,365.2,1068.1,365.8z"/>
						<path class="st22" d="M1066,375.1c-0.3,1.1,0.5,2.2,1.6,2.5l6.9,1.6l0.9-4l-6.9-1.6c-0.6-0.1-1.2,0-1.6,0.2
							C1066.5,374.1,1066.2,374.5,1066,375.1z"/>
						<path class="st22" d="M1064,384.4c-0.3,1.1,0.5,2.2,1.6,2.5l6.8,1.6l0.9-4l-6.8-1.6c-0.6-0.1-1.2,0-1.6,0.2
							C1064.4,383.4,1064.1,383.8,1064,384.4z"/>
						<path class="st22" d="M1070.2,397.7l-6.7-1.6c-1.2-0.3-1.9-1.4-1.6-2.5c0.1-0.5,0.5-1,1-1.3c0.5-0.3,1-0.4,1.6-0.2l6.7,1.6
							L1070.2,397.7z"/>
						<path class="st22" d="M1059.8,403c-0.3,1.1,0.5,2.2,1.6,2.5l6.7,1.6l0.9-4l-6.7-1.6c-0.6-0.1-1.2,0-1.6,0.2
							C1060.3,402,1059.9,402.4,1059.8,403z"/>
						<path class="st22" d="M1057.7,412.3c-0.3,1.1,0.5,2.2,1.6,2.5l6.6,1.5l0.9-4l-6.6-1.5c-0.6-0.1-1.2,0-1.6,0.2
							C1058.2,411.3,1057.8,411.7,1057.7,412.3z"/>
						<path class="st22" d="M1055.6,421.6c-0.3,1.1,0.5,2.2,1.6,2.5l6.5,1.5l0.9-4l-6.5-1.5c-0.6-0.1-1.2,0-1.6,0.2
							C1056.1,420.6,1055.7,421,1055.6,421.6z"/>
						<path class="st22" d="M1053.5,430.9c-0.3,1.1,0.5,2.2,1.6,2.5l6.4,1.5l0.9-4l-6.4-1.5c-0.6-0.1-1.2,0-1.6,0.2
							C1054,429.9,1053.6,430.3,1053.5,430.9z"/>
						<g>
							<path class="st22" d="M1051.4,440.2c-0.3,1.1,0.5,2.2,1.6,2.5l6.3,1.5l0.9-4l-6.3-1.5
								C1052.8,438.4,1051.7,439.1,1051.4,440.2z"/>
						</g>
					</g>
					<g>
						<g>
							<path class="st23" d="M1080.3,315.7c0.8,0.2,1.5,0.7,1.9,1.3l-0.7-0.2c-1.2-0.3-2.3,0.4-2.6,1.5l0,0
								c-0.3,1.1,0.5,2.2,1.6,2.5l0.7,0.2c-0.6,0.4-1.4,0.5-2.2,0.3c-1.6-0.4-2.7-1.9-2.3-3.5C1077,316.3,1078.6,315.4,1080.3,315.7
								z"/>
							<path class="st24" d="M1078.8,318.3L1078.8,318.3c0.3-1.1,1.4-1.8,2.6-1.5l0.7,0.2l9,2.1c1.2,0.3,1.9,1.4,1.6,2.5l0,0
								c-0.3,1.1-1.4,1.8-2.6,1.5l-9-2.1l-0.7-0.2C1079.3,320.6,1078.6,319.4,1078.8,318.3z"/>
						</g>
						<g>
							<path class="st23" d="M1078.2,325c0.8,0.2,1.5,0.7,1.9,1.3l-0.7-0.2c-1.2-0.3-2.3,0.4-2.6,1.5l0,0c-0.3,1.1,0.5,2.2,1.6,2.5
								l0.7,0.2c-0.6,0.4-1.4,0.5-2.2,0.3c-1.6-0.4-2.7-1.9-2.3-3.5C1074.9,325.6,1076.5,324.7,1078.2,325z"/>
							<path class="st24" d="M1076.7,327.6L1076.7,327.6c0.3-1.1,1.4-1.8,2.6-1.5l0.7,0.2l9,2.1c1.2,0.3,1.9,1.4,1.6,2.5l0,0
								c-0.3,1.1-1.4,1.8-2.6,1.5l-9-2.1l-0.7-0.2C1077.2,329.9,1076.5,328.7,1076.7,327.6z"/>
						</g>
						<g>
							<path class="st23" d="M1076.1,334.3c0.8,0.2,1.5,0.7,1.9,1.3l-0.7-0.2c-1.2-0.3-2.3,0.4-2.6,1.5l0,0
								c-0.3,1.1,0.5,2.2,1.6,2.5l0.7,0.2c-0.6,0.4-1.4,0.5-2.2,0.3c-1.6-0.4-2.7-1.9-2.3-3.5C1072.8,334.9,1074.4,334,1076.1,334.3
								z"/>
							<path class="st24" d="M1074.6,336.9L1074.6,336.9c0.3-1.1,1.4-1.8,2.6-1.5l0.7,0.2l9,2.1c1.2,0.3,1.9,1.4,1.6,2.5l0,0
								c-0.3,1.1-1.4,1.8-2.6,1.5l-9-2.1l-0.7-0.2C1075.1,339.2,1074.4,338,1074.6,336.9z"/>
						</g>
						<g>
							<path class="st23" d="M1074,343.6c0.8,0.2,1.5,0.7,1.9,1.3l-0.7-0.2c-1.2-0.3-2.3,0.4-2.6,1.5l0,0c-0.3,1.1,0.5,2.2,1.6,2.5
								l0.7,0.2c-0.6,0.4-1.4,0.5-2.2,0.3c-1.6-0.4-2.7-1.9-2.3-3.5C1070.7,344.2,1072.4,343.3,1074,343.6z"/>
							<path class="st24" d="M1072.5,346.2L1072.5,346.2c0.3-1.1,1.4-1.8,2.6-1.5l0.7,0.2l9,2.1c1.2,0.3,1.9,1.4,1.6,2.5l0,0
								c-0.3,1.1-1.4,1.8-2.6,1.5l-9-2.1l-0.7-0.2C1073,348.5,1072.3,347.3,1072.5,346.2z"/>
						</g>
						<g>
							<path class="st23" d="M1071.9,352.9c0.8,0.2,1.5,0.7,1.9,1.3l-0.7-0.2c-1.2-0.3-2.3,0.4-2.6,1.5l0,0
								c-0.3,1.1,0.5,2.2,1.6,2.5l0.7,0.2c-0.6,0.4-1.4,0.5-2.2,0.3c-1.6-0.4-2.7-1.9-2.3-3.5
								C1068.7,353.5,1070.3,352.5,1071.9,352.9z"/>
							<path class="st24" d="M1070.4,355.5L1070.4,355.5c0.3-1.1,1.4-1.8,2.6-1.5l0.7,0.2l9,2.1c1.2,0.3,1.9,1.4,1.6,2.5l0,0
								c-0.3,1.1-1.4,1.8-2.6,1.5l-9-2.1l-0.7-0.2C1070.9,357.8,1070.2,356.6,1070.4,355.5z"/>
						</g>
						<g>
							<path class="st23" d="M1069.8,362.2c0.8,0.2,1.5,0.7,1.9,1.3l-0.7-0.2c-1.2-0.3-2.3,0.4-2.6,1.5l0,0
								c-0.3,1.1,0.5,2.2,1.6,2.5l0.7,0.2c-0.6,0.4-1.4,0.5-2.2,0.3c-1.6-0.4-2.7-1.9-2.3-3.5
								C1066.6,362.8,1068.2,361.8,1069.8,362.2z"/>
							<path class="st24" d="M1068.4,364.8L1068.4,364.8c0.3-1.1,1.4-1.8,2.6-1.5l0.7,0.2l9,2.1c1.2,0.3,1.9,1.4,1.6,2.5l0,0
								c-0.3,1.1-1.4,1.8-2.6,1.5l-9-2.1l-0.7-0.2C1068.8,367.1,1068.1,365.9,1068.4,364.8z"/>
						</g>
						<g>
							<path class="st23" d="M1067.7,371.5c0.8,0.2,1.5,0.7,1.9,1.3l-0.7-0.2c-1.2-0.3-2.3,0.4-2.6,1.5l0,0
								c-0.3,1.1,0.5,2.2,1.6,2.5l0.7,0.2c-0.6,0.4-1.4,0.5-2.2,0.3c-1.6-0.4-2.7-1.9-2.3-3.5
								C1064.5,372.1,1066.1,371.1,1067.7,371.5z"/>
							<path class="st24" d="M1066.3,374.1L1066.3,374.1c0.3-1.1,1.4-1.8,2.6-1.5l0.7,0.2l9,2.1c1.2,0.3,1.9,1.4,1.6,2.5l0,0
								c-0.3,1.1-1.4,1.8-2.6,1.5l-9-2.1l-0.7-0.2C1066.7,376.4,1066,375.2,1066.3,374.1z"/>
						</g>
						<g>
							<path class="st23" d="M1065.6,380.8c0.8,0.2,1.5,0.7,1.9,1.3l-0.7-0.2c-1.2-0.3-2.3,0.4-2.6,1.5l0,0
								c-0.3,1.1,0.5,2.2,1.6,2.5l0.7,0.2c-0.6,0.4-1.4,0.5-2.2,0.3c-1.6-0.4-2.7-1.9-2.3-3.5C1062.4,381.3,1064,380.4,1065.6,380.8
								z"/>
							<path class="st24" d="M1064.2,383.4L1064.2,383.4c0.3-1.1,1.4-1.8,2.6-1.5l0.7,0.2l9,2.1c1.2,0.3,1.9,1.4,1.6,2.5l0,0
								c-0.3,1.1-1.4,1.8-2.6,1.5l-9-2.1l-0.7-0.2C1064.7,385.7,1063.9,384.5,1064.2,383.4z"/>
						</g>
						<g>
							<path class="st23" d="M1063.5,390.1c0.8,0.2,1.5,0.7,1.9,1.3l-0.7-0.2c-1.2-0.3-2.3,0.4-2.6,1.5l0,0
								c-0.3,1.1,0.5,2.2,1.6,2.5l0.7,0.2c-0.6,0.4-1.4,0.5-2.2,0.3c-1.6-0.4-2.7-1.9-2.3-3.5
								C1060.3,390.7,1061.9,389.7,1063.5,390.1z"/>
							<path class="st24" d="M1062.1,392.7L1062.1,392.7c0.3-1.1,1.4-1.8,2.6-1.5l0.7,0.2l9,2.1c1.2,0.3,1.9,1.4,1.6,2.5l0,0
								c-0.3,1.1-1.4,1.8-2.6,1.5l-9-2.1l-0.7-0.2C1062.6,395,1061.8,393.8,1062.1,392.7z"/>
						</g>
						<g>
							<path class="st23" d="M1061.4,399.4c0.8,0.2,1.5,0.7,1.9,1.3l-0.7-0.2c-1.2-0.3-2.3,0.4-2.6,1.5l0,0
								c-0.3,1.1,0.5,2.2,1.6,2.5l0.7,0.2c-0.6,0.4-1.4,0.5-2.2,0.3c-1.6-0.4-2.7-1.9-2.3-3.5C1058.2,400,1059.8,399,1061.4,399.4z"
								/>
							<path class="st24" d="M1060,402L1060,402c0.3-1.1,1.4-1.8,2.6-1.5l0.7,0.2l9,2.1c1.2,0.3,1.9,1.4,1.6,2.5l0,0
								c-0.3,1.1-1.4,1.8-2.6,1.5l-9-2.1l-0.7-0.2C1060.5,404.2,1059.7,403.1,1060,402z"/>
						</g>
						<g>
							<path class="st23" d="M1059.3,408.7c0.8,0.2,1.5,0.7,1.9,1.3l-0.7-0.2c-1.2-0.3-2.3,0.4-2.6,1.5l0,0
								c-0.3,1.1,0.5,2.2,1.6,2.5l0.7,0.2c-0.6,0.4-1.4,0.5-2.2,0.3c-1.6-0.4-2.7-1.9-2.3-3.5
								C1056.1,409.3,1057.7,408.3,1059.3,408.7z"/>
							<path class="st24" d="M1057.9,411.3L1057.9,411.3c0.3-1.1,1.4-1.8,2.6-1.5l0.7,0.2l9,2.1c1.2,0.3,1.9,1.4,1.6,2.5l0,0
								c-0.3,1.1-1.4,1.8-2.6,1.5l-9-2.1l-0.7-0.2C1058.4,413.5,1057.6,412.4,1057.9,411.3z"/>
						</g>
						<g>
							<path class="st23" d="M1057.3,418c0.8,0.2,1.5,0.7,1.9,1.3l-0.7-0.2c-1.2-0.3-2.3,0.4-2.6,1.5l0,0c-0.3,1.1,0.5,2.2,1.6,2.5
								l0.7,0.2c-0.6,0.4-1.4,0.5-2.2,0.3c-1.6-0.4-2.7-1.9-2.3-3.5C1054,418.6,1055.6,417.6,1057.3,418z"/>
							<path class="st24" d="M1055.8,420.6L1055.8,420.6c0.3-1.1,1.4-1.8,2.6-1.5l0.7,0.2l9,2.1c1.2,0.3,1.9,1.4,1.6,2.5l0,0
								c-0.3,1.1-1.4,1.8-2.6,1.5l-9-2.1l-0.7-0.2C1056.3,422.8,1055.5,421.7,1055.8,420.6z"/>
						</g>
						<g>
							<path class="st23" d="M1055.2,427.3c0.8,0.2,1.5,0.7,1.9,1.3l-0.7-0.2c-1.2-0.3-2.3,0.4-2.6,1.5l0,0
								c-0.3,1.1,0.5,2.2,1.6,2.5l0.7,0.2c-0.6,0.4-1.4,0.5-2.2,0.3c-1.6-0.4-2.7-1.9-2.3-3.5
								C1051.9,427.9,1053.5,426.9,1055.2,427.3z"/>
							<path class="st24" d="M1053.7,429.9L1053.7,429.9c0.3-1.1,1.4-1.8,2.6-1.5l0.7,0.2l9,2.1c1.2,0.3,1.9,1.4,1.6,2.5l0,0
								c-0.3,1.1-1.4,1.8-2.6,1.5l-9-2.1l-0.7-0.2C1054.2,432.1,1053.5,431,1053.7,429.9z"/>
						</g>
						<g>
							<path class="st23" d="M1053.1,436.6c0.8,0.2,1.5,0.7,1.9,1.3l-0.7-0.2c-1.2-0.3-2.3,0.4-2.6,1.5c-0.3,1.1,0.5,2.2,1.6,2.5
								l0.7,0.2c-0.6,0.4-1.4,0.5-2.2,0.3c-1.6-0.4-2.7-1.9-2.3-3.5C1049.8,437.2,1051.4,436.2,1053.1,436.6z"/>
							<path class="st24" d="M1051.6,439.2c0.3-1.1,1.4-1.8,2.6-1.5l0.7,0.2l9,2.1c1.2,0.3,1.9,1.4,1.6,2.5
								c-0.3,1.1-1.4,1.8-2.6,1.5l-9-2.1l-0.7-0.2C1052.1,441.4,1051.4,440.3,1051.6,439.2z"/>
						</g>
					</g>
					<g>
						<path class="st22" d="M1095,245c-0.3,1.1,0.5,2.2,1.6,2.5l6.9,1.6l0.9-4l-6.9-1.6c-0.6-0.1-1.2,0-1.6,0.2
							C1095.4,244,1095.1,244.4,1095,245z"/>
						<path class="st22" d="M1092.9,254.3c-0.3,1.1,0.5,2.2,1.6,2.5l6.8,1.6l0.9-4l-6.8-1.6c-0.6-0.1-1.2,0-1.6,0.2
							C1093.3,253.3,1093,253.7,1092.9,254.3z"/>
						<path class="st22" d="M1099.1,267.6l-6.7-1.6c-1.2-0.3-1.9-1.4-1.6-2.5c0.1-0.5,0.5-1,1-1.3c0.5-0.3,1-0.4,1.6-0.2l6.7,1.6
							L1099.1,267.6z"/>
						<path class="st22" d="M1088.7,272.9c-0.3,1.1,0.5,2.2,1.6,2.5l6.7,1.6l0.9-4l-6.7-1.6c-0.6-0.1-1.2,0-1.6,0.2
							C1089.2,271.9,1088.8,272.3,1088.7,272.9z"/>
						<path class="st22" d="M1086.6,282.2c-0.3,1.1,0.5,2.2,1.6,2.5l6.6,1.5l0.9-4l-6.6-1.5c-0.6-0.1-1.2,0-1.6,0.2
							C1087.1,281.2,1086.7,281.6,1086.6,282.2z"/>
						<path class="st22" d="M1084.5,291.5c-0.3,1.1,0.5,2.2,1.6,2.5l6.5,1.5l0.9-4l-6.5-1.5c-0.6-0.1-1.2,0-1.6,0.2
							C1085,290.5,1084.6,290.9,1084.5,291.5z"/>
						<path class="st22" d="M1082.4,300.8c-0.3,1.1,0.5,2.2,1.6,2.5l6.4,1.5l0.9-4l-6.4-1.5c-0.6-0.1-1.2,0-1.6,0.2
							C1082.9,299.8,1082.5,300.2,1082.4,300.8z"/>
						<g>
							<path class="st22" d="M1080.3,310.1c-0.3,1.1,0.5,2.2,1.6,2.5l6.3,1.5l0.9-4l-6.3-1.5C1081.7,308.3,1080.6,309,1080.3,310.1z
								"/>
						</g>
					</g>
					<g>
						<g>
							<path class="st23" d="M1097.6,246.7c-0.6,0.4-1.4,0.5-2.2,0.3c-1.6-0.4-2.7-1.9-2.3-3.5c0.4-1.5,2-2.5,3.6-2.1
								c0.8,0.2,1.5,0.7,1.9,1.3l-0.7-0.2c-1.2-0.3-2.3,0.4-2.6,1.5l0,0c-0.3,1.1,0.5,2.2,1.6,2.5L1097.6,246.7z"/>
							<path class="st24" d="M1106.6,248.8l-9-2.1l-0.7-0.2c-1.2-0.3-1.9-1.4-1.6-2.5l0,0c0.3-1.1,1.4-1.8,2.6-1.5l0.7,0.2l9,2.1
								c1.2,0.3,1.9,1.4,1.6,2.5l0,0C1108.9,248.4,1107.7,249.1,1106.6,248.8z"/>
						</g>
						<g>
							<path class="st23" d="M1095.5,256c-0.6,0.4-1.4,0.5-2.2,0.3c-1.6-0.4-2.7-1.9-2.3-3.5c0.4-1.5,2-2.5,3.6-2.1
								c0.8,0.2,1.5,0.7,1.9,1.3l-0.7-0.2c-1.2-0.3-2.3,0.4-2.6,1.5l0,0c-0.3,1.1,0.5,2.2,1.6,2.5L1095.5,256z"/>
							<path class="st24" d="M1104.5,258.1l-9-2.1l-0.7-0.2c-1.2-0.3-1.9-1.4-1.6-2.5l0,0c0.3-1.1,1.4-1.8,2.6-1.5l0.7,0.2l9,2.1
								c1.2,0.3,1.9,1.4,1.6,2.5l0,0C1106.8,257.7,1105.6,258.4,1104.5,258.1z"/>
						</g>
						<g>
							<path class="st23" d="M1093.4,265.3c-0.6,0.4-1.4,0.5-2.2,0.3c-1.6-0.4-2.7-1.9-2.3-3.5c0.4-1.6,2-2.5,3.6-2.1
								c0.8,0.2,1.5,0.7,1.9,1.3l-0.7-0.2c-1.2-0.3-2.3,0.4-2.6,1.5l0,0c-0.3,1.1,0.5,2.2,1.6,2.5L1093.4,265.3z"/>
							<path class="st24" d="M1102.4,267.4l-9-2.1l-0.7-0.2c-1.2-0.3-1.9-1.4-1.6-2.5l0,0c0.3-1.1,1.4-1.8,2.6-1.5l0.7,0.2l9,2.1
								c1.2,0.3,1.9,1.4,1.6,2.5l0,0C1104.7,267,1103.5,267.7,1102.4,267.4z"/>
						</g>
						<g>
							<path class="st23" d="M1091.3,274.6c-0.6,0.4-1.4,0.5-2.2,0.3c-1.6-0.4-2.7-1.9-2.3-3.5c0.4-1.5,2-2.5,3.6-2.1
								c0.8,0.2,1.5,0.7,1.9,1.3l-0.7-0.2c-1.2-0.3-2.3,0.4-2.6,1.5l0,0c-0.3,1.1,0.5,2.2,1.6,2.5L1091.3,274.6z"/>
							<path class="st24" d="M1100.3,276.7l-9-2.1l-0.7-0.2c-1.2-0.3-1.9-1.4-1.6-2.5l0,0c0.3-1.1,1.4-1.8,2.6-1.5l0.7,0.2l9,2.1
								c1.2,0.3,1.9,1.4,1.6,2.5l0,0C1102.6,276.3,1101.5,277,1100.3,276.7z"/>
						</g>
						<g>
							<path class="st23" d="M1089.2,283.9c-0.6,0.4-1.4,0.5-2.2,0.3c-1.6-0.4-2.7-1.9-2.3-3.5c0.4-1.5,2-2.5,3.6-2.1
								c0.8,0.2,1.5,0.7,1.9,1.3l-0.7-0.2c-1.2-0.3-2.3,0.4-2.6,1.5l0,0c-0.3,1.1,0.5,2.2,1.6,2.5L1089.2,283.9z"/>
							<path class="st24" d="M1098.2,286l-9-2.1l-0.7-0.2c-1.2-0.3-1.9-1.4-1.6-2.5l0,0c0.3-1.1,1.4-1.8,2.6-1.5l0.7,0.2l9,2.1
								c1.2,0.3,1.9,1.4,1.6,2.5l0,0C1100.5,285.6,1099.4,286.3,1098.2,286z"/>
						</g>
						<g>
							<path class="st23" d="M1087.1,293.2c-0.6,0.4-1.4,0.5-2.2,0.3c-1.6-0.4-2.7-1.9-2.3-3.5c0.4-1.5,2-2.5,3.6-2.1
								c0.8,0.2,1.5,0.7,1.9,1.3l-0.7-0.2c-1.2-0.3-2.3,0.4-2.6,1.5l0,0c-0.3,1.1,0.5,2.2,1.6,2.5L1087.1,293.2z"/>
							<path class="st24" d="M1096.1,295.3l-9-2.1l-0.7-0.2c-1.2-0.3-1.9-1.4-1.6-2.5l0,0c0.3-1.1,1.4-1.8,2.6-1.5l0.7,0.2l9,2.1
								c1.2,0.3,1.9,1.4,1.6,2.5l0,0C1098.4,294.9,1097.3,295.6,1096.1,295.3z"/>
						</g>
						<g>
							<path class="st23" d="M1085,302.5c-0.6,0.4-1.4,0.5-2.2,0.3c-1.6-0.4-2.7-1.9-2.3-3.5c0.4-1.6,2-2.5,3.6-2.1
								c0.8,0.2,1.5,0.7,1.9,1.3l-0.7-0.2c-1.2-0.3-2.3,0.4-2.6,1.5l0,0c-0.3,1.1,0.5,2.2,1.6,2.5L1085,302.5z"/>
							<path class="st24" d="M1094,304.6l-9-2.1l-0.7-0.2c-1.2-0.3-1.9-1.4-1.6-2.5l0,0c0.3-1.1,1.4-1.8,2.6-1.5l0.7,0.2l9,2.1
								c1.2,0.3,1.9,1.4,1.6,2.5l0,0C1096.3,304.2,1095.2,304.9,1094,304.6z"/>
						</g>
						<g>
							<path class="st23" d="M1082,306.5c0.8,0.2,1.5,0.7,1.9,1.3l-0.7-0.2c-1.2-0.3-2.3,0.4-2.6,1.5s0.5,2.2,1.6,2.5l0.7,0.2
								c-0.6,0.4-1.4,0.5-2.2,0.3c-1.6-0.4-2.7-1.9-2.3-3.5C1078.7,307.1,1080.4,306.1,1082,306.5z"/>
							<path class="st24" d="M1080.5,309.1c0.3-1.1,1.4-1.8,2.6-1.5l0.7,0.2l9,2.1c1.2,0.3,1.9,1.4,1.6,2.5
								c-0.3,1.1-1.4,1.8-2.6,1.5l-9-2.1l-0.7-0.2C1081,311.3,1080.3,310.2,1080.5,309.1z"/>
						</g>
					</g>
					<g class="st25">
						<line class="st26" x1="1082.7" y1="243.8" x2="998.4" y2="224"/>
						<line class="st26" x1="1079.3" y1="258.1" x2="994.9" y2="238.3"/>
						<line class="st26" x1="1075.9" y1="272.4" x2="991.5" y2="252.6"/>
						<line class="st26" x1="1072.5" y1="286.7" x2="988.1" y2="267"/>
						<line class="st26" x1="1069" y1="301" x2="984.7" y2="281.3"/>
						<line class="st26" x1="1065.6" y1="315.3" x2="981.3" y2="295.6"/>
						<line class="st26" x1="1062.2" y1="329.7" x2="977.9" y2="309.9"/>
						<line class="st26" x1="1058.8" y1="344" x2="974.5" y2="324.2"/>
						<line class="st26" x1="1055.4" y1="358.3" x2="971.1" y2="338.5"/>
						<line class="st26" x1="1052" y1="372.6" x2="967.6" y2="352.9"/>
						<line class="st26" x1="1048.6" y1="386.9" x2="964.2" y2="367.2"/>
						<line class="st26" x1="1045.2" y1="401.3" x2="960.8" y2="381.5"/>
						<line class="st26" x1="1041.8" y1="415.6" x2="957.4" y2="395.8"/>
						<line class="st26" x1="1038.4" y1="429.9" x2="954" y2="410.1"/>
					</g>
				</g>
			</g>
			<path class="st28" d="M1218.9,260.5l-32.6-7.6l2.9-12.7c0.5-2.3,2.8-3.7,5.1-3.2l24.2,5.6c2.3,0.5,3.7,2.8,3.2,5.1L1218.9,260.5z
				"/>
			<path class="st29" d="M1092,230.9l-32.6-7.6l2.9-12.7c0.5-2.3,2.8-3.7,5.1-3.2l24.2,5.6c2.3,0.5,3.7,2.8,3.2,5.1L1092,230.9z"/>
			<path class="st30" d="M1036.3,218l-32.6-7.6l2.2-9.7c0.5-2.3,2.8-3.7,5.1-3.2l24.2,5.6c2.3,0.5,3.7,2.8,3.2,5.1L1036.3,218z"/>
			<path class="st31" d="M1184.3,252.5l-32.6-7.6l2.2-9.7c0.5-2.3,2.8-3.7,5.1-3.2l24.2,5.6c2.3,0.5,3.7,2.8,3.2,5.1L1184.3,252.5z"
				/>
		</g>
	</g>
</g>
<g>
	<g>
		<path class="st32" d="M1333,218l-3.1,4l-9.3,12.2l0,0L1265.9,362c-0.4,0.2-0.8,0.6-1,1.1l-3.2,7.4c-0.3,0.7-0.2,1.5,0.2,2.1
			l-2,4.8c-1.1,2.7,0.1,5.7,2.6,6.8l0.9,0.4c2.6,1.1,5.6-0.2,6.8-2.8l2-4.8c0.7-0.1,1.3-0.6,1.6-1.3l3.2-7.4c0.2-0.5,0.2-1,0.1-1.4
			l54.7-127.8l0,0l2.5-15.7c0,0,0.1,0,0.1-0.1l0.7-4.4c0.1-0.6-0.3-1.1-0.7-1.3C1334,217.4,1333.4,217.5,1333,218z"/>
		<g>
			<path class="st33" d="M1268.2,372.5l-4.4,10.3c-1,2.4-3.8,3.5-6.2,2.5l-1.7-0.7c-2.4-1-3.5-3.8-2.5-6.2l4.4-10.3
				c1-2.4,3.8-3.5,6.2-2.5l1.7,0.7C1268.1,367.3,1269.2,370.1,1268.2,372.5z"/>
			
				<rect x="1219.8" y="297.1" transform="matrix(0.393 -0.9195 0.9195 0.393 505.1792 1371.7603)" class="st34" width="143.6" height="12.2"/>
			<path class="st35" d="M1326.7,218.6l-3.1,4l-9.3,12.2l11.3,4.8l2.5-15.8l0.7-4.4C1328.9,218.2,1327.4,217.6,1326.7,218.6z"/>
			<path class="st36" d="M1326.8,218.6l-3.1,4l4.5,1.2l0.7-4.4C1329,218.3,1327.5,217.6,1326.8,218.6z"/>
			<path class="st37" d="M1270.8,368.8l-3.2,7.4c-0.5,1.1-1.7,1.6-2.8,1.2c-3.3-1.4-5.1-2.2-8.3-3.5c-1.1-0.5-1.6-1.7-1.1-2.8
				l3.2-7.4c0.5-1.1,0.8-2,1.5-1.7c3.3,1.4,8,3.4,10.8,4.6C1271.3,366.4,1271.3,367.7,1270.8,368.8z"/>
			<line class="st38" x1="1263.6" y1="361.3" x2="1315.5" y2="239.8"/>
			<line class="st39" x1="1255.9" y1="379.4" x2="1256.2" y2="378.6"/>
		</g>
		
			<rect x="1261.2" y="359.8" transform="matrix(0.393 -0.9195 0.9195 0.393 431.2946 1385.1812)" class="st40" width="7.3" height="12.2"/>
	</g>
	<path class="st41" d="M1270.8,368.8l-3.2,7.4c-0.5,1.1-1.7,1.6-2.8,1.2l-8.3-3.5c-1.1-0.5-1.6-1.7-1.1-2.8l3.2-7.4
		c0.5-1.1,0.8-2,1.5-1.7l10.8,4.6C1271.3,366.4,1271.3,367.7,1270.8,368.8z"/>
	<path class="st42" d="M1263.9,364.4c0.2,0.2,0.1,1.3-0.3,2.2l-2.5,5.8c-0.5,1.1-1.7,1.6-2.8,1.2l-0.4-0.2c-1.1-0.5-1.6-1.7-1.1-2.8
		l2.5-5.8c0.5-1.1,0.8-2,1.5-1.7l2.9,1.3C1263.8,364.3,1263.9,364.4,1263.9,364.4z"/>
</g>
<g>
	<path class="st43" d="M320.2,295.1l6.7-14.7l-2.2-8.7l5.9-8.3l-11.2-0.5c-2.2,1.4-3.9,0.1-5-2.2c-0.8-1.9-0.7-4.9-3.1-6.2
		c-4.6-2.5-6-1.4-9.9,1.6c-2.2,2.7-4.3,0.6-3.6,0c0-0.3-1.5-0.3-1.7-0.7c-0.6-2.2-1.1-4.5-3.6-5.9c-4-2.3-5.7-2-9.1,0.6
		c-2.1,1.8-2.4-1-2.4-1s-2.9,2.1-3.4,1.5c-0.6-1,0.1-3.3-1.1-4.1c-1.2-0.6-2.3-1-3.1-1.1c-1.3-0.2-2.5,0-3.7,0.5
		c-0.5,0.2-0.9,0.4-1.4,0.8c-0.5,0.3,0.1-0.2-0.5,0.3l-22.9,45.3c-3.1,8.5-2.4,13.3,0,19.1c-5.1,7.9-9.1,15.7-14.5,23.5
		c-1.7,2.4-6.4,4.1-8.1,6.5c-10.3,14.6-14,32.5-25.3,46.8l30.9,7.2l40.9-31.1l6.9-14.8l12.3-19c2.7,1,9.6-0.4,14.4-3l27.2-16.8
		L320.2,295.1z"/>
	<path class="st44" d="M360.2,230.7c-22.3,15.5-31.6,29.9-43.4,51.1"/>
	<path class="st44" d="M325.2,217.3c-26.2,12.5-45.1,51.2-39.9,56"/>
	<path class="st45" d="M298.2,220.2c-6.1,3.5-12.7,8.4-17,14.3c-7.6,10.2-8.5,22.2-13.3,36"/>
	<path class="st44" d="M348.2,219.3c-22.2,12.7-36.9,31.9-48.5,55.5"/>
	<polyline class="st46" points="315.1,308.8 344.4,293.6 356.5,274.5 	"/>
	<polygon class="st47" points="270.1,359.3 229.1,338.3 237.9,323.3 279.1,344.3 	"/>
	<g>
		<polygon class="st48" points="160.4,456 214.7,483.4 225.4,488.9 291.8,357.9 280.9,352.4 226.7,325 		"/>
		<polygon class="st5" points="160.4,456 214.7,483.4 280.9,352.4 224.1,323.7 		"/>
		<polygon class="st49" points="282.4,382.5 205.6,532 116.9,531.9 212.7,347.3 228.6,355.3 264.1,373.3 		"/>
		<polygon class="st50" points="264.1,373.3 181.5,532 117.1,531.9 212.7,347.3 228.6,355.3 		"/>
	</g>
</g>
<g>
	<path class="st6" d="M813.5,143.3l-58.7-27.5c-4.9-2.3-8.1,0.2-9.7,3.1l-0.8,1.6c-0.1,0.1-0.1,0.3-0.2,0.4l-53,104.6l-2.7,5.5
		c-0.1,0.3-0.2,0.6-0.3,0.8c-0.3,1.5-0.2,2.8,0.2,3.8c0.3,1,1,1.8,1.9,2.3l62.3,29.2c2.5,1,4.6-0.1,6.5-3.4l-0.5,1.1
		c0.3-0.3,0.5-0.7,0.6-1l2.6-5.2l52.7-103.9c0.1-0.3,0.2-0.4,0.2-0.5l1-2C817.1,148.9,818.3,145.5,813.5,143.3z"/>
	<g>
		<path class="st51" d="M685.9,217.3c-1,3.7-0.4,6.1,1.8,7.2l62.3,29.2c2.4,1,4.5-0.1,6.4-3.3l-2.6,5.2c-0.2,0.3-0.4,0.7-0.6,1
			l0.5-1.1c-1.9,3.3-4,4.4-6.5,3.4l-62.3-29.2c-1-0.5-1.6-1.3-1.9-2.3c-0.4-1-0.5-2.2-0.2-3.8c0.1-0.3,0.2-0.5,0.3-0.8L685.9,217.3z
			"/>
		<path class="st52" d="M725.3,225.6c0.1,0,0.1,0.1,0.2,0.1l0.5,0.2c1.4,0.7,2.3,1.7,2.9,2.9c0.7,1.3,0.7,2.6,0.1,3.8
			c-0.6,1.3-1.7,2.1-3.2,2.4c-1.3,0.3-2.7,0.2-4.1-0.4l-0.5-0.2c-0.1,0-0.1-0.1-0.2-0.1c-1.1-0.7-1.9-1.5-2.4-2.6
			c-0.6-1.3-0.6-2.6,0.1-3.9c0.5-1,1.2-1.6,2.1-2.1c0.2-0.1,0.5-0.2,0.9-0.3C722.9,225.2,724.1,225.2,725.3,225.6z"/>
		<path class="st53" d="M744.9,119.3l55.8,26.1l-44.8,88.1l-55.8-26.1L744.9,119.3z"/>
		<path class="st54" d="M776.5,127.5c0.3,0.3,0.4,0.4,0.5,0.5c-0.3-0.2-0.6-0.3-0.9-0.4C776.2,127.5,776.3,127.5,776.5,127.5z
			 M787.7,132.1l2.9,1.4"/>
		<line class="st55" x1="784.9" y1="130.8" x2="764.8" y2="121.4"/>
		<path class="st56" d="M756.4,250.4c-1.9,3.3-4.1,4.4-6.4,3.3l-62.3-29.2c-2.2-1.1-2.8-3.5-1.8-7.2l53-104.6
			c0.1-0.1,0.1-0.3,0.2-0.4l0.8-1.6c1.6-3,4.7-5.4,9.7-3.1l58.7,27.5c4.8,2.2,3.6,5.6,2.2,8.9l-1,2c0,0.1-0.1,0.2-0.2,0.5
			L756.4,250.4z M776.5,127.5c0.3,0.3,0.4,0.4,0.5,0.5c-0.3-0.2-0.6-0.3-0.9-0.4C776.2,127.5,776.3,127.5,776.5,127.5
			c-0.2-0.1-0.3-0.1-0.4,0c0.3,0.1,0.6,0.3,0.9,0.4C776.9,128,776.8,127.8,776.5,127.5z M787.7,132.1l2.9,1.4L787.7,132.1z
			 M744.9,119.3l-44.8,88.1l55.8,26.1l44.8-88.1L744.9,119.3z M784.9,130.8l-20.1-9.4L784.9,130.8z M725.3,225.6
			c-1.2-0.4-2.4-0.5-3.6-0.2c-0.4,0.1-0.7,0.2-0.9,0.3c-0.9,0.4-1.7,1.1-2.1,2.1c-0.6,1.3-0.7,2.6-0.1,3.9c0.5,1.1,1.3,2,2.4,2.6
			c0.1,0,0.1,0.1,0.2,0.1l0.5,0.2c1.4,0.6,2.8,0.7,4.1,0.4c1.5-0.3,2.5-1.1,3.2-2.4c0.6-1.2,0.6-2.5-0.1-3.8
			c-0.6-1.2-1.5-2.2-2.9-2.9l-0.5-0.2C725.4,225.7,725.3,225.7,725.3,225.6z"/>
		<path class="st57" d="M800.6,163.3l-8.1,16.3l-107.6,41.6l7.3-14.8L800.6,163.3z M696,198.8l24.2-48.8l60.7-27.6l26.7,12.5
			c3.2,1.2,4.7,3.2,3.9,6.6l-7,14.7L696,198.8z"/>
	</g>
</g>
<g>
	<polygon class="st6" points="62.6,168.2 59.1,167.3 58.5,169.6 55,168.8 6.1,367.5 96.8,389.8 145.7,191.1 143.4,190.6 
		158.2,130.1 157,129.8 78,110.3 76.8,110.1 	"/>
	
		<rect x="66.8" y="107.1" transform="matrix(0.2389 -0.971 0.971 0.2389 -65.4602 213.2153)" class="st58" width="73" height="82.6"/>
	
		<rect x="63.9" y="104.6" transform="matrix(0.2389 -0.971 0.971 0.2389 -66.9642 209.8624)" class="st5" width="73" height="86.2"/>
	<path class="st59" d="M63.2,158.8l69.7,17.1L63.2,158.8z"/>
	<path class="st59" d="M66,147.2l69.7,17.1L66,147.2z"/>
	<path class="st59" d="M68.9,135.5l69.7,17.1L68.9,135.5z"/>
	<path class="st59" d="M71.4,125.1l69.7,17.1L71.4,125.1z"/>
	
		<rect x="-32.5" y="225.3" transform="matrix(0.2389 -0.971 0.971 0.2389 -210.9555 274.7673)" class="st35" width="204.6" height="93.3"/>
	<polygon class="st60" points="69.8,271.9 48.9,161.4 0,360.2 	"/>
	<polygon class="st60" points="69.8,271.9 139.6,183.7 90.7,382.4 	"/>
	
		<rect x="93.3" y="128.3" transform="matrix(0.2389 -0.971 0.971 0.2389 -94.513 222.2462)" class="st61" width="2.4" height="86.2"/>
</g>
<g>
	<g>
		<path class="st6" d="M157.3,336.6l0.3,0.7c-0.4,1.3,0.8,3.6,3.8,7.9l12.6,19.7c0.1,0.2,0.3,0.3,0.4,0.4l2.1,5.3
			c0.3,0.9,1.3,1.3,2.2,1s1.3-1.3,1-2.2l-2.1-5.3c0.1-0.2,0.1-0.4,0.1-0.6l-4.2-23c-0.8-5.6-1.5-8.2-3-8.5c0.2-0.8,0.2-1.7-0.1-2.5
			l-57.9-147.5l3.4-1.3l14.1,36l-0.4,0.2c-0.5,0.2-0.7,0.8-0.5,1.2l1.2,3.2c0.2,0.5,0.8,0.7,1.2,0.5l0.4-0.2l1.5-0.6l1.1-0.4
			c0.6-0.2,0.9-0.9,0.6-1.4l-16.8-42.7l-1.9-4.7l-4.6-11.7c-0.6-1.5-2.4-2.3-3.9-1.7l-4.3,1.7l-0.7-1.7c-0.6-1.5-1.9-2.4-3.4-2.5
			l-3.1-7.9c-1.1-2.7-4.2-4.1-6.9-3c-2.7,1.1-4.1,4.2-3,6.9l3.1,7.9c-1,1.1-1.3,2.7-0.8,4.2l67.4,171
			C156.4,335.6,156.8,336.1,157.3,336.6z"/>
		<g>
			<path class="st62" d="M95.3,180.2l-9-22.9L95.3,180.2z"/>
			<path class="st63" d="M96.7,168.2l6.8-2.7c1.1-0.4,2.3,0.1,2.8,1.2l7.1,18.1c0.4,1.1-0.1,2.3-1.2,2.8l-6.8,2.7
				c-1.1,0.4-2.3-0.1-2.8-1.2L95.5,171C95.1,169.9,95.6,168.7,96.7,168.2z"/>
			<path class="st63" d="M107.9,179.4l2.2-0.9c0.4-0.2,0.9,0,1,0.4l18.9,48c0.2,0.4,0,0.9-0.4,1l-2.9,1.1l-19.2-48.7
				C107.3,180,107.5,179.6,107.9,179.4z"/>
			<path class="st63" d="M124.1,224.5l2.4-1c0.4-0.1,0.8,0,0.9,0.4l1.4,3.7c0.1,0.4,0,0.8-0.4,0.9l-2.4,1c-0.4,0.1-0.8,0-0.9-0.4
				l-1.4-3.7C123.5,225,123.7,224.6,124.1,224.5z"/>
			<path class="st64" d="M84.9,166.5l8.7-3.4c1.5-0.6,3.2,0.2,3.7,1.6l68.1,173.5c0.6,1.5-0.2,3.2-1.6,3.7l-8.7,3.4
				c-1.5,0.6-3.2-0.2-3.7-1.6L83.3,170.2C82.7,168.8,83.4,167.1,84.9,166.5z"/>
			<line class="st65" x1="90.3" y1="174" x2="152.7" y2="334.6"/>
			<line class="st66" x1="86.1" y1="164.1" x2="83.3" y2="157"/>
		</g>
	</g>
	<path class="st67" d="M162.8,342.4l-6.6,2.6c-2.1,0.8-4.4-0.2-5.2-2.3l-1.2-3.1c0.3,0.7,1.1,1.1,1.8,0.8l11.5-4.5
		c0.7-0.3,1.1-1.1,0.8-1.8l1.2,3.1C165.9,339.3,164.9,341.6,162.8,342.4z"/>
	<line class="st68" x1="168.2" y1="366" x2="172.4" y2="376.5"/>
	<path class="st64" d="M153,342.9l10.7-4.2c2.2-0.8,3,1.5,4,8.3l4.2,23c0.1,0.5-0.2,1-0.6,1.1l-1.9,0.8c-0.4,0.2-0.9,0-1.2-0.4
		l-12.6-19.7C151.8,346.1,150.8,343.8,153,342.9z"/>
	<line class="st69" x1="154.9" y1="345.2" x2="169.6" y2="369.5"/>
</g>
<g>
	<g>
		<polyline class="st70" points="773,410.9 782.7,360.9 875,271.4 		"/>
		<polyline class="st70" points="909.7,290.8 858.2,294.5 757.5,374.8 		"/>
		
			<ellipse transform="matrix(0.7648 -0.6443 0.6443 0.7648 -49.3012 592.7012)" class="st71" cx="787.1" cy="363.9" rx="35.2" ry="27"/>
		
			<ellipse transform="matrix(0.7648 -0.6443 0.6443 0.7648 9.2253 624.6328)" class="st71" cx="860.1" cy="299.7" rx="35.2" ry="27"/>
		
			<ellipse transform="matrix(0.7648 -0.6443 0.6443 0.7648 -49.3012 592.7012)" class="st72" cx="787.1" cy="363.9" rx="35.2" ry="27"/>
		
			<ellipse transform="matrix(0.7648 -0.6443 0.6443 0.7648 9.2253 624.6328)" class="st72" cx="860.1" cy="299.7" rx="35.2" ry="27"/>
		<path class="st73" d="M837.7,323.5c-16.1-2.7-24.6,3.8-24.1,21.2l-14-13.6c10.4-4.5,20.3-13.3,26.1-22.9L837.7,323.5z"/>
	</g>
	<g>
		<polyline class="st74" points="766.5,400.2 776.2,350.2 868.6,260.7 		"/>
		<polyline class="st74" points="903.2,280.1 851.7,283.8 751,364.1 		"/>
		
			<ellipse transform="matrix(0.7648 -0.6443 0.6443 0.7648 -43.9378 586.001)" class="st75" cx="780.6" cy="353.2" rx="35.2" ry="27"/>
		
			<ellipse transform="matrix(0.7648 -0.6443 0.6443 0.7648 14.5869 617.9338)" class="st75" cx="853.6" cy="289" rx="35.2" ry="27"/>
		
			<ellipse transform="matrix(0.7648 -0.6443 0.6443 0.7648 -43.9378 586.001)" class="st76" cx="780.6" cy="353.2" rx="35.2" ry="27"/>
		<path class="st76" d="M871.7,309.1c-1.7,1.5-3.4,2.8-5.2,3.9c-6.5,4.3-13.6,6.5-20.3,6.7c-7.5,0.2-14.4-2.2-19.1-7.4
			c-10-11.1-6.3-30.4,8.3-43.3c3.4-3,7.1-5.3,10.8-7.1c6.8-3.2,14-4.3,20.3-3.2c5.3,0.9,10,3.2,13.5,7.1
			C890.1,276.9,886.3,296.3,871.7,309.1z"/>
		<path class="st77" d="M831.2,312.8c-16.1-2.7-24.6,3.8-24.1,21.2l-14-13.6c10.4-4.5,20.3-13.3,26.1-22.9L831.2,312.8z"/>
	</g>
	<path class="st78" d="M866.5,255l0,62.1c-6.5,4.8-13.6,6.2-20.3,6.3l0-64.8C853.1,255,860.2,253.8,866.5,255z"/>
</g>
<g>
	<ellipse class="st79" cx="307.8" cy="86.8" rx="41" ry="17.5"/>
	<path class="st80" d="M307.8,86.8l13.8,16.5c-4.4,0.7-9.1,1-13.8,1c-22.5,0-41-7.9-41-17.5c0-9.6,18.5-17.5,41-17.5
		c22.5,0,40.9,7.9,40.9,17.5c0,4.9-4.8,9.5-13.2,12.9L307.8,86.8z"/>
	<path class="st81" d="M307.8,86.8l13.8,16.5c-4.4,0.7-9.1,1-13.8,1c-22.5,0-41-7.9-41-17.5c0-9.6,18.5-17.5,41-17.5
		c6.9,0,13.8,0.8,19.8,2.2L307.8,86.8z"/>
	<path class="st82" d="M307.8,86.8l13.8,16.5c-4.4,0.7-9.1,1-13.8,1c-22.5,0-41-7.9-41-17.5c0-1.6,0.5-3.1,1.5-4.7L307.8,86.8z"/>
	<path class="st83" d="M307.8,86.8l13.8,16.5c-4.4,0.7-9.1,1-13.8,1c-7.1,0-14.2-0.8-20.4-2.3L307.8,86.8z"/>
</g>
<path class="st6" d="M524.2,275.7c-0.2,0.6-1,1.2-2.1,0.5c-8.6-12.2-18-22-28.4-29.7C506.1,251.5,517.5,265,524.2,275.7z M537,266.9
	c-0.1,0.7-0.5,1.5-1.7,0.6c-4.9-7.6-11.5-15.9-19.1-22.6c4.9,2.6,10.7,6,14.1,10.3C533.1,258.6,535.2,262.6,537,266.9z M612.3,356.9
	L612.3,356.9l-5.3-8l-9.2-13.9l-10.1,7l-3.6-5l-0.2,0.2c-2.7-4.1-5.4-8.2-8.3-12.3c1.2-6.1,1.1-11-2.6-19.2l-22.9-39.2
	c-2.6-6.8-5.5-13.2-10.2-19c-5.1-6.2-12.8-10.7-18.9-13.9c-3-1.6-6.7-0.4-8.3,2.6c-1,2-0.9,4.2,0.2,6c-5.3-4.2-11-7.6-16.9-9.4
	c-3.6-1.1-7.5,0.9-8.7,4.5c-0.6,1.8-0.4,3.7,0.5,5.3c-2.7-1.7-5.4-3.3-8.2-4.7c-3.4-1.7-6.8-1.7-8.6,1.7c-1.7,3.4-1.1,8.8,2.3,10.6
	c14,7.2,26.2,18.2,37.1,33.4c-0.5,0.9-1.2,1.4-2.1,1.3c-9.1-12.9-19.1-23.8-35.3-34.1c-3.2-2.1-7.5-1.1-9.5,2.1
	c-2,3.2-1.1,7.5,2.1,9.5c18.1,11.5,27.4,23.6,38,40.1l0,0.4l7.6,14.1l-0.3,0.9l-14.3-6.6l-11.3-16c-2.7-3.8-8-4.8-11.8-2
	c-3.8,2.7-4.8,8-2,11.8l12.6,17.9c0.9,1.2,2,2.2,3.4,2.8l21.6,9.9l21.4,12c4.3,2,10.2,2.7,12.3,1.4l10.2,14.2l1.3,2l-8.5,5.9
	l-10,6.9l14.9,21.6l-2.2,1.5L640,532.2l95.5,0L612.3,356.9z"/>
<g>
	<path class="st43" d="M502.5,317.3l29.2,13c5.1,1.9,12.1,2.4,14.6,1l14.7,17.2l8.8,13.8l44.7,25.3l29.6-11.3
		c-13.1-12.6-19.3-29.9-31.4-43c-2-2.1-6.9-3.2-8.9-5.4c-6.4-7-11.4-14.2-17.5-21.3c1.7-6,1.7-10.9-2.5-18.9l-28.7-41.8
		c-0.7-0.4,0,0-0.5-0.2c-0.5-0.3-1-0.5-1.5-0.6c-1.3-0.3-2.5-0.3-3.8,0c-0.8,0.3-1.8,0.8-2.9,1.5c-1.1,0.9-0.1,3.1-0.6,4.2
		c-0.4,0.6-3.5-1-3.5-1s0,2.8-2.2,1.3c-3.7-2.1-5.5-2.2-9.1,0.6c-2.2,1.7-2.5,4.1-2.7,6.3c-0.1,0.4-1.6,0.5-1.6,0.9
		c0.8,0.5-1,2.9-3.6,0.5c-4.3-2.4-5.8-3.3-10-0.2c-2.1,1.6-1.7,4.6-2.2,6.6c-0.7,2.4-2.3,3.9-4.7,2.9l-11,2l7,7.4l-1,8.9l8.6,13.7
		L502.5,317.3z"/>
	<path class="st44" d="M461.5,242.1c24.1,12.3,35.3,25.4,49.9,44.8"/>
	<path class="st44" d="M494.4,224.1c27.7,8.9,51.6,44.7,47.1,50.1"/>
	<path class="st45" d="M521.6,223.4c6.5,2.7,13.7,6.6,18.8,11.8c8.9,9.1,11.4,20.9,18,33.8"/>
	<path class="st44" d="M471.9,229.2c23.7,9.6,40.9,26.7,55.6,48.4"/>
	<polyline class="st46" points="516.5,313.4 485.4,302.3 470.9,285 	"/>
	<polygon class="st47" points="567.9,357.4 605.7,331.1 595,317.4 557,343.8 	"/>
	<g>
		<polygon class="st48" points="689.6,438.6 639.6,473 629.5,479.9 546.3,358.9 556.3,352 606.4,317.6 		"/>
		<polygon class="st5" points="689.6,438.6 639.6,473 556.3,352 608.7,315.9 		"/>
		<polygon class="st49" points="754.3,524.4 754.1,525 751.6,532.2 663.3,532.2 558.9,382 575.8,370.4 607,348.9 623.2,337.8 		"/>
		<polygon class="st50" points="759.1,532.2 688.7,532.2 575.8,370.4 607,348.9 623.2,337.8 754.1,525 		"/>
	</g>
</g>
<g>
	<g class="st84">
		<path class="st1" d="M1475.3,373.5c3.8-2.3,5.1-7.3,2.8-11.1c-2.3-3.8-7.3-5-11.1-2.7l-9.4,5.6c-0.7-4.4-1.9-8.7-3.6-12.8
			l13.3-11.8c0.2-0.2,0.4-0.3,0.7-0.5l3.5-3.1l2.8-2.5c3.3-2.9,3.7-8,0.7-11.4c-2.9-3.3-8-3.7-11.4-0.7l-2.8,2.5l-3.5,3.1
			c-0.2,0.2-0.5,0.4-0.7,0.7l-8.9,8l-2.3,2c-0.8-1-1.7-1.9-2.6-2.8l6.2-9.4c0.3-0.3,0.6-0.7,0.9-1.1c2.4-3.7,1.4-8.7-2.3-11.2
			c-3.7-2.4-8.7-1.4-11.2,2.3c-0.1,0.1-0.1,0.2-0.1,0.2l-0.1-0.1l-6.2,9.4l2.8-9.8c0.1-0.3,0.2-0.6,0.3-0.9l1.3-4.5l1-3.6
			c1.2-4.3-1.3-8.7-5.6-10c-4.3-1.2-8.7,1.3-10,5.6l-1,3.6l-1.3,4.5l-2.9,10.1c-3.8-0.7-7.7-0.9-11.4-0.7l-1.4-24.1
			c0-0.3,0-0.6,0-0.9c-0.3-4.4-4.1-7.8-8.5-7.6c-4.4,0.3-7.8,4.1-7.6,8.5l1.6,27.3c-5.1,1.9-9.9,4.6-14.2,8l-2.4-6.1
			c-0.1-0.3-0.2-0.6-0.3-0.8c-1.6-4.2-6.2-6.3-10.4-4.7c-3.9,1.5-6,5.6-4.9,9.6l0,0l0.3,0.8l0,0c0,0,0,0,0,0.1l5.6,14.6
			c-2.6,4.1-4.6,8.6-6,13.5c-0.6,2.3-1.1,4.5-1.4,6.8c-0.9,2.1-1.7,4.3-2.3,6.5c-7.8,27.9,8.4,56.9,36.3,64.7
			c27.9,7.9,56.9-8.4,64.7-36.3c0.6-2.3,1.1-4.5,1.4-6.8c0.9-2.1,1.7-4.3,2.3-6.5c0.2-0.9,0.5-1.8,0.7-2.7l17.6-10.5
			C1474.7,373.8,1475,373.7,1475.3,373.5z"/>
	</g>
	<g>
		
			<ellipse transform="matrix(0.9875 -0.1577 0.1577 0.9875 -44.1413 226.0678)" class="st85" cx="1402.5" cy="391.2" rx="54.5" ry="54.5"/>
		
			<ellipse transform="matrix(0.7074 -0.7068 0.7068 0.7074 136.4683 1103.7062)" class="st86" cx="1401.3" cy="387" rx="52.5" ry="52.5"/>
		<g>
			<path class="st87" d="M1449.1,373.2c0,4.6-0.7,9.1-1.9,13.3c-5.8,20-24.2,34.6-46,34.6c-21.8,0-40.2-14.7-46-34.6
				c-1.2-4.2-1.9-8.7-1.9-13.3c0-26.4,21.5-47.9,47.9-47.9C1427.6,325.3,1449.1,346.8,1449.1,373.2z"/>
			<ellipse class="st88" cx="1401.3" cy="386.5" rx="46" ry="34.6"/>
			<path class="st89" d="M1381.7,386.4l1.9-18.2l9.1,2.6l8.8,11.3l24.4-5.8l-6.4,18.7l19.6,4.4l8.1-26.9l-8.3-26.5
				c0,0-26.7-22.9-27.5-23.6c-0.8-0.8-36.7,13.8-36.1,13.5c0.6-0.4-14.6,12.1-14,12.3c0.6,0.2-7.5,26.3-7.5,26.3l3.5,7.3l1.7,6.3
				L1381.7,386.4z"/>
			<path class="st90" d="M1401.3,320.7c-28,0-50.9,21.9-52.4,49.5c-0.1,1-0.1,2-0.1,3c0,29,23.5,52.5,52.5,52.5
				c25.4,0,46.6-18.1,51.4-42.1c0.7-3.4,1-6.8,1-10.4C1453.7,344.2,1430.3,320.7,1401.3,320.7z M1401.3,416.5
				c-23.8,0-43.3-19.4-43.3-43.2c0-23.9,19.4-43.3,43.3-43.3c23.9,0,43.3,19.4,43.3,43.3c0,3.8-0.5,7.5-1.4,11.1
				C1438.2,402.8,1421.3,416.5,1401.3,416.5z"/>
			<path class="st91" d="M1453.7,373.2c0,3.6-0.3,7-1,10.4l-0.5,0.7l-9,0l-0.2,0c0.9-3.5,1.4-7.2,1.4-11.1
				c0-23.9-19.4-43.3-43.3-43.3s-43.3,19.4-43.3,43.3l-9.1-3c1.5-27.6,24.4-49.5,52.4-49.5C1430.3,320.7,1453.7,344.2,1453.7,373.2z
				"/>
		</g>
		<g>
			<rect x="1396" y="305.8" class="st92" width="16.1" height="43.4"/>
			<path class="st5" d="M1412.2,310.5c0,4.5-3.6,8.1-8.1,8.1s-8.1-3.6-8.1-8.1l0-4.7l16.1,0L1412.2,310.5L1412.2,310.5z"/>
			<path class="st93" d="M1412.2,305.8c0,4.5-3.6,8.1-8.1,8.1s-8.1-3.6-8.1-8.1l0-3.7l16.1,0L1412.2,305.8L1412.2,305.8z"/>
			<path class="st94" d="M1412.2,350.7c0,4.5-8.1,13.3-8.1,13.3s-8.1-8.9-8.1-13.3c0-4.5,3.6-8.1,8.1-8.1
				C1408.5,342.6,1412.2,346.2,1412.2,350.7z"/>
			<circle class="st92" cx="1404.1" cy="349" r="8.1"/>
			<circle class="st95" cx="1404.1" cy="302" r="8.1"/>
			<path class="st89" d="M1400.5,359.6c0,0,11.4-46.7,11.5-52.1l0,22.9L1400.5,359.6z"/>
		</g>
		<g>
			<polygon class="st92" points="1454.9,320.9 1423.5,369.6 1423.5,369.5 1417.6,365.7 1410.2,360.9 1410.1,360.8 1432,327 
				1441.4,312.1 			"/>
			<path class="st5" d="M1452.4,324.9c-2.4,3.7-7.4,4.8-11.2,2.4c-3.7-2.4-4.8-7.4-2.4-11.2l2.6-3.9l13.5,8.8L1452.4,324.9z"/>
			<path class="st93" d="M1455,320.9c-2.4,3.7-7.4,4.8-11.2,2.4c-3.7-2.4-4.8-7.4-2.4-11.2l2-3.1l13.5,8.8L1455,320.9z"/>
			<path class="st94" d="M1423.5,369.5c-0.2,0.5-0.4,0.9-0.7,1.3c-2.4,3.7-14,6.8-14,6.8l0-0.1c-0.2-1.2-1.8-12,0.5-15.5
				c0.3-0.4,0.6-0.8,0.9-1.2c2.4-2.6,6.3-3.3,9.5-1.6c0.2,0.1,0.5,0.2,0.7,0.4C1423.7,361.9,1424.9,366,1423.5,369.5z"/>
			
				<ellipse transform="matrix(0.2264 -0.974 0.974 0.2264 740.509 1662.663)" class="st92" cx="1417" cy="365.1" rx="8.1" ry="8.1"/>
			<path class="st95" d="M1457,317.8c-2.4,3.7-7.4,4.8-11.2,2.4c-3.7-2.4-4.8-7.4-2.4-11.2c2.4-3.7,7.4-4.8,11.2-2.4
				C1458.3,309,1459.4,314,1457,317.8z"/>
		</g>
		<path class="st89" d="M1432,327c-3.8,6.9-8.7,21.5-12.3,32.3c-0.8,2.4-1.5,4.5-2.1,6.4c-1.3,3.8-2.2,6.4-2.5,6.9
			c-1.3,1.9-6.3,5-6.3,5l0-0.1c-0.2-1.2-1.8-12,0.5-15.5c0.3-0.4,0.6-0.8,0.9-1.2l-0.1-0.1L1432,327z"/>
		<g>
			<polygon class="st96" points="1413.6,370.3 1398.3,365.5 1415.5,310.8 1430.8,315.7 			"/>
			<path class="st94" d="M1413.2,371.8c-1.3,4.2-11.7,10.3-11.7,10.3s-5-10.9-3.7-15.2c1.3-4.2,5.9-6.6,10.1-5.3
				C1412.2,363,1414.5,367.5,1413.2,371.8z"/>
			
				<ellipse transform="matrix(0.7471 -0.6647 0.6647 0.7471 111.1362 1027.5518)" class="st96" cx="1405.9" cy="367.7" rx="8.1" ry="8.1"/>
			<path class="st97" d="M1431,315.5c-1.3,4.2-5.9,6.6-10.1,5.3c-4.2-1.3-6.6-5.9-5.3-10.1c1.3-4.2,5.9-6.6,10.1-5.3
				C1430,306.7,1432.4,311.2,1431,315.5z"/>
		</g>
		<g>
			
				<rect x="1370.4" y="300.7" transform="matrix(0.9457 -0.3251 0.3251 0.9457 -32.2485 466.0674)" class="st98" width="16.1" height="57.6"/>
			<path class="st94" d="M1396,355.5c1.5,4.2-3.3,15.2-3.3,15.2s-10.5-5.8-12-10s0.8-8.8,5-10.3
				C1389.9,349.1,1394.5,351.3,1396,355.5z"/>
			<path class="st98" d="M1395.4,354c1.5,4.2-0.8,8.8-5,10.3s-8.8-0.8-10.3-5s0.8-8.8,5-10.3C1389.4,347.5,1394,349.8,1395.4,354z"
				/>
			<path class="st97" d="M1376.7,299.6c1.5,4.2-0.8,8.8-5,10.3c-4.2,1.5-8.8-0.8-10.3-5c-1.5-4.2,0.8-8.8,5-10.3
				C1370.7,293.2,1375.3,295.4,1376.7,299.6z"/>
		</g>
		<g>
			<polygon class="st92" points="1435.5,389.7 1423.8,378.6 1456.7,343.9 1468.4,354.9 			"/>
			<path class="st94" d="M1434.5,390.8c-3.1,3.2-15,4.2-15,4.2s0.2-12,3.3-15.3c3.1-3.2,8.2-3.4,11.4-0.4
				C1437.4,382.4,1437.6,387.5,1434.5,390.8z"/>
			<path class="st92" d="M1435.7,389.6c-3.1,3.2-8.2,3.4-11.4,0.4c-3.2-3.1-3.4-8.2-0.3-11.4c3.1-3.2,8.2-3.4,11.4-0.4
				C1438.6,381.2,1438.7,386.3,1435.7,389.6z"/>
			<path class="st97" d="M1468.5,355c-3.1,3.2-8.2,3.4-11.4,0.4c-3.2-3.1-3.4-8.2-0.3-11.4c3.1-3.2,8.2-3.4,11.4-0.4
				C1471.4,346.6,1471.5,351.7,1468.5,355z"/>
		</g>
		<g>
			<polygon class="st34" points="1379.3,369.7 1366.4,379.2 1340.9,345.2 1353.8,335.6 			"/>
			<path class="st94" d="M1380.2,370.9c2.7,3.6,1.5,15.5,1.5,15.5s-11.8-2.3-14.4-5.9c-2.7-3.6-1.9-8.6,1.7-11.3
				C1372.5,366.4,1377.5,367.3,1380.2,370.9z"/>
			<path class="st34" d="M1379.2,369.5c2.7,3.6,1.9,8.6-1.7,11.3c-3.6,2.7-8.6,1.9-11.3-1.7c-2.7-3.6-1.9-8.6,1.7-11.3
				C1371.5,365.1,1376.5,365.9,1379.2,369.5z"/>
			<path class="st97" d="M1354.4,336.3c2.7,3.6,1.9,8.6-1.7,11.3s-8.6,1.9-11.3-1.7c-2.7-3.6-1.9-8.6,1.7-11.3
				S1351.8,332.7,1354.4,336.3z"/>
		</g>
		<path class="st34" d="M1349.8,339.7c0.8,1,0.6,2.5-0.5,3.3c-1,0.8-2.5,0.6-3.3-0.5c-0.8-1-0.6-2.5,0.5-3.3
			C1347.6,338.4,1349.1,338.6,1349.8,339.7z"/>
		<path class="st98" d="M1371,300.8c0.8,1,0.6,2.5-0.5,3.3c-1,0.8-2.5,0.6-3.3-0.5c-0.8-1-0.6-2.5,0.5-3.3
			C1368.8,299.5,1370.2,299.8,1371,300.8z"/>
		<path class="st96" d="M1425.2,311.6c0.8,1,0.6,2.5-0.5,3.3c-1,0.8-2.5,0.6-3.3-0.5c-0.8-1-0.6-2.5,0.5-3.3
			C1423,310.4,1424.4,310.6,1425.2,311.6z"/>
		<path class="st99" d="M1464.5,348c0.8,1,0.6,2.5-0.5,3.3c-1,0.8-2.5,0.6-3.3-0.5c-0.8-1.1-0.6-2.5,0.5-3.3
			C1462.2,346.8,1463.7,347,1464.5,348z"/>
	</g>
</g>
</svg>
