<?xml version="1.0" encoding="utf-8"?>
<!-- Generator: Adobe Illustrator 21.1.0, SVG Export Plug-In . SVG Version: 6.00 Build 0)  -->
<svg version="1.1" id="Layer_1" xmlns="http://www.w3.org/2000/svg" xmlns:xlink="http://www.w3.org/1999/xlink" x="0px" y="0px"
	 width="1145.9px" height="557.1px" viewBox="0 0 1145.9 557.1" style="enable-background:new 0 0 1145.9 557.1;"
	 xml:space="preserve">
<style type="text/css">
	.st0{clip-path:url(#SVGID_2_);}
	.st1{fill:#07113D;}
	.st2{fill:#B95241;}
	.st3{fill:#F4A891;}
	.st4{fill:#FFC7B0;}
	.st5{fill:#FFFFFF;}
	.st6{fill:#E48867;}
	.st7{fill:#EAECEE;}
	.st8{fill:none;stroke:#5077F6;stroke-width:6;stroke-linecap:round;stroke-linejoin:round;stroke-miterlimit:10;}
	.st9{clip-path:url(#SVGID_4_);fill:#591239;}
	.st10{clip-path:url(#SVGID_6_);fill:#FFC050;}
	.st11{clip-path:url(#SVGID_8_);fill:#F4A891;}
	.st12{clip-path:url(#SVGID_10_);}
	.st13{clip-path:url(#SVGID_12_);}
	.st14{fill:none;stroke:#591239;stroke-width:2.5582;stroke-linecap:round;stroke-miterlimit:10;}
	.st15{clip-path:url(#SVGID_14_);fill:#FFFFFF;}
	.st16{clip-path:url(#SVGID_16_);fill:#07113D;}
	.st17{clip-path:url(#SVGID_18_);}
	.st18{opacity:0.1;}
	.st19{fill:#D93838;}
	.st20{clip-path:url(#SVGID_20_);fill:#07113D;}
	.st21{clip-path:url(#SVGID_22_);}
	.st22{fill:#591239;}
	.st23{clip-path:url(#SVGID_24_);fill:none;stroke:#E48867;stroke-width:1.3558;stroke-linecap:round;stroke-miterlimit:10;}
	.st24{clip-path:url(#SVGID_26_);fill:#591239;}
	.st25{clip-path:url(#SVGID_28_);fill:#591239;}
	.st26{clip-path:url(#SVGID_30_);fill:#1F1331;}
	.st27{clip-path:url(#SVGID_32_);fill:#4D6199;}
	.st28{clip-path:url(#SVGID_34_);fill:#F4A891;}
	.st29{clip-path:url(#SVGID_36_);}
	.st30{clip-path:url(#SVGID_38_);}
	.st31{fill:none;stroke:#2B1B40;stroke-width:2.5582;stroke-linecap:round;stroke-miterlimit:10;}
	.st32{clip-path:url(#SVGID_40_);fill:#FFFFFF;}
	.st33{clip-path:url(#SVGID_42_);fill:#07113D;}
	.st34{clip-path:url(#SVGID_44_);}
	.st35{clip-path:url(#SVGID_46_);fill:#07113D;}
	.st36{clip-path:url(#SVGID_48_);}
	.st37{clip-path:url(#SVGID_50_);}
	.st38{fill:#2B1B40;}
	.st39{clip-path:url(#SVGID_52_);fill:#D93838;}
	.st40{clip-path:url(#SVGID_54_);fill:#D93838;}
	.st41{clip-path:url(#SVGID_56_);}
	.st42{clip-path:url(#SVGID_58_);}
	.st43{fill:#4D6199;}
	.st44{fill:#EAA64F;}
	.st45{fill:#FBFCFC;}
	.st46{fill:none;stroke:#E48867;stroke-width:1.3558;stroke-miterlimit:10;}
	.st47{opacity:0.45;fill:#FFFFFF;enable-background:new    ;}
	.st48{fill:none;stroke:#07113D;stroke-width:1.427;stroke-miterlimit:10;}
	.st49{fill:none;stroke:#07113D;stroke-width:1.4837;stroke-miterlimit:10;}
	.st50{opacity:0.6;fill:#405162;enable-background:new    ;}
	.st51{fill:#DB734C;}
	.st52{fill:none;stroke:#DB734C;stroke-width:3.6508;stroke-linecap:round;stroke-miterlimit:10;}
	.st53{opacity:0.18;}
	.st54{fill:#FFC050;}
	.st55{opacity:0.56;fill:none;stroke:#FFFFFF;stroke-width:1.746;stroke-miterlimit:10;enable-background:new    ;}
	.st56{fill:#8E3E33;}
	.st57{fill:#435568;}
	.st58{fill:#6A8593;}
	.st59{fill:#638896;}
	.st60{opacity:0.63;}
	.st61{fill:#FFE0D2;}
	.st62{fill:#FFD7C5;}
	.st63{opacity:0.66;fill:#3A3A3A;enable-background:new    ;}
	.st64{fill:#9DBFC1;}
	.st65{opacity:0.3;fill:#5D5D5D;enable-background:new    ;}
	.st66{fill:#C1E5E5;}
</style>
<g>
	<g>
		<g>
			<g>
				<g>
					<g>
						<defs>
							<rect id="SVGID_1_" x="33.3" y="129.2" width="141" height="188.9"/>
						</defs>
						<clipPath id="SVGID_2_">
							<use xlink:href="#SVGID_1_"  style="overflow:visible;"/>
						</clipPath>
						<g class="st0">
							<path class="st1" d="M10.5,350.7c1.1-2.5,44.6-73.2,60.7-81.3c16.1-8,59.1-3.7,67.2,2.5c8,6.2,53.4,69.2,58.8,82.3
								c6.3,15.2,0,34.8-7.1,34.8s-167.9,0-167.9,0S-2.9,381.1,10.5,350.7z"/>
							<path class="st1" d="M154.5,305.9l-3,128.9l-97.6,0.9l-2.6-129.8c0-21.8,15.7-39.9,36.5-43.5c2.5-0.4,5-0.7,7.7-0.7h14.9
								C134.7,261.7,154.5,281.5,154.5,305.9z"/>
							<g>
								<path class="st2" d="M116.6,241.2H96.2c-17.4,0-31.5-14.1-31.5-31.5v-24c0-21.9,17.7-39.6,39.6-39.6h4.2
									c21.9,0,39.6,17.7,39.6,39.6v24C148.1,227.1,134,241.2,116.6,241.2z"/>
								<path class="st3" d="M75.8,195.6l-0.6,9.7l-0.4,6.6l-2.9-0.1c-0.2,0-0.4,0-0.6-0.1c-4.9-0.5-8.6-4.4-8.3-8.8
									c0.1-2.2,1.3-4.1,3.1-5.5c1.6-1.3,3.7-1.9,6-2l0,0c0.3,0,0.5,0,0.8,0L75.8,195.6z"/>
								<path class="st3" d="M139.7,195.8l0.6,9.7l0.4,6.6l2.9-0.1c0.2,0,0.4,0,0.6-0.1c4.9-0.5,8.6-4.4,8.3-8.8
									c-0.1-2.2-1.3-4.1-3.1-5.5c-1.6-1.3-3.7-1.9-6-2l0,0c-0.3,0-0.5,0-0.8,0L139.7,195.8z"/>
								<path class="st3" d="M108.9,277.7H103c-6.3,0-11.5-5.2-11.5-11.5v-34.5c0-6.3,5.2-11.5,11.5-11.5h5.9
									c6.3,0,11.5,5.2,11.5,11.5v34.5C120.4,272.5,115.2,277.7,108.9,277.7z"/>
								<path class="st4" d="M145.4,194.2l-0.9,17.8l-0.1,2.7c-0.1,1.8-0.3,3.5-0.6,5.2c-2.7,14.1-13.6,25.3-27.4,28.9
									c-1.5,0.4-3.1,0.7-4.7,0.9c-0.5,0.1-1,0.1-1.5,0.1c-1,0.1-2,0.2-3.1,0.2c-0.7,0-1.5,0-2.2-0.1c-1.7-0.1-3.3-0.3-4.9-0.6
									c-0.7-0.1-1.3-0.3-2-0.4c-2.5-0.6-4.9-1.4-7.2-2.5l0,0c-10.9-5.1-18.8-15.2-20.9-27.1v-0.1c-0.2-1.3-0.4-2.6-0.5-3.9
									c0-0.4-0.1-0.8-0.1-1.2s0-0.8,0-1.3s0-1,0-1.5V211l0.1-1.2l0.2-3.2l0.3-5.4v-0.1l0.3-5.5v-0.1l0,0l0.1-2l0.1-1.6l0.1-1.4
									v-0.4c0.1-2.5,0.7-5,1.4-7.3c0.5-1.6,1.1-3.2,1.8-4.8c0.1-0.3,0.2-0.5,0.3-0.7c0.6-1.3,1.2-2.5,1.9-3.7l0,0
									c2.7-4.5,6.3-8.4,10.6-11.4c0.9-0.6,1.7-1.2,2.6-1.7c6.3-3.7,13.6-5.6,21.3-5.2c10.4,0.5,19.6,5.2,26.1,12.3
									c1.9,2.1,3.5,4.4,4.7,6.8c1.1,2,1.9,4.1,2.7,6.3c0.5,1.4,0.8,2.8,1.1,4.3l0,0c0.1,0.5,0.1,1,0.2,1.5
									c0.1,0.9,0.2,1.8,0.2,2.7C145.5,190.7,145.4,192.5,145.4,194.2z"/>
								<g>
									<path class="st1" d="M121.5,205.7L121.5,205.7c-0.9,0-1.7-0.8-1.7-1.7v-5.4c0-0.9,0.8-1.7,1.7-1.7l0,0
										c0.9,0,1.7,0.8,1.7,1.7v5.4C123.1,204.9,122.4,205.7,121.5,205.7z"/>
									<path class="st1" d="M92.2,205.6L92.2,205.6c-0.9,0-1.7-0.8-1.7-1.7v-5.4c0-0.9,0.8-1.7,1.7-1.7l0,0c0.9,0,1.7,0.8,1.7,1.7
										v5.4C93.9,204.8,93.1,205.6,92.2,205.6z"/>
									<path class="st2" d="M127.5,192.2H115c-1,0-1.8-0.8-1.8-1.8l0,0c0-1,0.8-1.8,1.8-1.8h12.5c1,0,1.8,0.8,1.8,1.8l0,0
										C129.3,191.4,128.5,192.2,127.5,192.2z"/>
									<path class="st2" d="M98.7,192.2H86.2c-1,0-1.8-0.8-1.8-1.8l0,0c0-1,0.8-1.8,1.8-1.8h12.5c1,0,1.8,0.8,1.8,1.8l0,0
										C100.5,191.4,99.7,192.2,98.7,192.2z"/>
									<path class="st5" d="M116.8,222.1c-3.4,5-6.6,8.4-11.3,7.6c-3.9-0.6-7.1-3.6-9.1-7.9L116.8,222.1z"/>
									<path class="st6" d="M102.7,211.2h8C110.7,211.2,106.9,216.5,102.7,211.2z"/>
								</g>
								<path class="st3" d="M145.4,194.2l-0.9,17.8l-0.1,2.7c-0.1,1.8-0.3,3.5-0.6,5.2c-2.7,14.1-13.6,25.3-27.4,28.9
									c-1.5,0.4-3.1,0.7-4.7,0.9c-0.5,0.1-1,0.1-1.5,0.1c-1,0.1-2,0.2-3.1,0.2c-0.7,0-1.5,0-2.2-0.1c-1.9-0.1-3.8-0.3-5.6-0.6
									c-0.4-0.1-0.7-0.1-1.1-0.2c-2.5-0.6-4.9-1.4-7.2-2.5l0,0c-10.9-5.2-18.9-15.3-21-27.3v-0.1c-0.2-1.3-0.4-2.6-0.5-3.9
									c0-0.4-0.1-0.8-0.1-1.2s0-0.8,0-1.3s0-1,0-1.5V211l0.1-1.2l0.2-3.2l0.3-5.4c1.7,19.9,8.7,45.1,33.6,46.1
									c34.4,1.4,41.5-36.4,42-58.2C145.5,190.7,145.4,192.5,145.4,194.2z"/>
							</g>
							<g>
								<polygon class="st5" points="125.1,436.2 86.2,436.2 86.3,258.7 96,258.4 105.2,275.8 115.3,259 125.6,259.2 								"/>
							</g>
						</g>
					</g>
				</g>
			</g>
		</g>
		<polygon class="st7" points="96.2,258.2 90.5,267.9 83,263.8 85.6,258.2 		"/>
		<polygon class="st7" points="115.3,258.9 121.4,267.9 128.9,265.3 126.6,258.9 		"/>
		<ellipse class="st2" cx="136.7" cy="170.6" rx="13.2" ry="13.2"/>
		<path class="st2" d="M125.8,175c0,5.6-4.5,10.2-10.2,10.2c-5.6,0-10.2-4.6-10.2-10.2c0-5.6,4.5-10.2,10.2-10.2
			S125.8,169.4,125.8,175z"/>
		<ellipse class="st2" cx="99.7" cy="175.7" rx="9.5" ry="9.5"/>
		<path class="st2" d="M91.2,173.2c0,5-4,9-9,9s-9-4-9-9s4-9,9-9S91.2,168.2,91.2,173.2z"/>
		<path class="st2" d="M94.1,154.2c0,0,19-5.4,29.2,1.7c10.2,7.1,15.6,16.9,15.6,16.9l-39,3.4l-23.4-3.7l9-17.1L94.1,154.2z"/>
		<path class="st2" d="M77.2,175.7l-4.3,28.7c-0.2,1.3-1.7,2-2.8,1.3l0,0c-0.5-0.3-0.8-0.9-0.9-1.5l-1.3-20.9
			C67.9,183.3,74.8,166,77.2,175.7z"/>
		<path class="st2" d="M136.8,179.4l4.3,28.7c0.2,1.3,1.7,2,2.8,1.3l0,0c0.5-0.3,0.8-0.9,0.9-1.5l1.3-26.7
			C146.2,181.3,139.2,169.8,136.8,179.4z"/>
		<path class="st2" d="M73.1,203c-0.5,6.9,3.2,38.8,32,39.5s34.6-30.2,35.1-36.6c0.5-6.4,4.7-5.8,4.7-4.4l-0.2,16.6
			c0,19.5-15.8,35.2-35.2,35.2h-4.1c-19.5,0-36.6-14.8-36.6-34.2l0.2-15.9C69.1,203.2,73.2,202.4,73.1,203z"/>
	</g>
	<rect x="33.9" y="125.6" class="st8" width="142.7" height="192.2"/>
</g>
<g>
	<g>
		<g>
			<g>
				<g>
					<defs>
						<rect id="SVGID_3_" x="231.4" y="125.9" width="147.8" height="192.2"/>
					</defs>
					<clipPath id="SVGID_4_">
						<use xlink:href="#SVGID_3_"  style="overflow:visible;"/>
					</clipPath>
					<path class="st9" d="M347.7,279.7h-79.5v-93.8c0-22,17.8-39.8,39.8-39.8l0,0c22,0,39.8,17.8,39.8,39.8L347.7,279.7L347.7,279.7
						z"/>
				</g>
			</g>
		</g>
		<g>
			<g>
				<g>
					<defs>
						<rect id="SVGID_5_" x="231.4" y="125.9" width="147.8" height="192.2"/>
					</defs>
					<clipPath id="SVGID_6_">
						<use xlink:href="#SVGID_5_"  style="overflow:visible;"/>
					</clipPath>
					<path class="st10" d="M355.5,367.6h-91.7v-69.4c0-25.3,20.5-45.9,45.9-45.9l0,0c25.3,0,45.9,20.5,45.9,45.9L355.5,367.6
						L355.5,367.6z"/>
				</g>
			</g>
		</g>
		<g>
			<g>
				<g>
					<defs>
						<rect id="SVGID_7_" x="231.4" y="125.9" width="147.8" height="192.2"/>
					</defs>
					<clipPath id="SVGID_8_">
						<use xlink:href="#SVGID_7_"  style="overflow:visible;"/>
					</clipPath>
					<rect x="294.9" y="232.5" class="st11" width="28" height="38.4"/>
				</g>
			</g>
		</g>
		<g>
			<g>
				<g>
					<defs>
						<rect id="SVGID_9_" x="231.4" y="125.9" width="147.8" height="192.2"/>
					</defs>
					<clipPath id="SVGID_10_">
						<use xlink:href="#SVGID_9_"  style="overflow:visible;"/>
					</clipPath>
					<g class="st12">
						<path class="st3" d="M350.7,199.8c0,3.4-2.4,6.3-5.6,7c-0.3,0.1-0.6,0.1-0.9,0.1c-0.1,0-0.3,0-0.5,0h-2.2v-4.6v-1l-0.1-8.3
							h2.2c0.2,0,0.4,0,0.6,0l0,0c0.3,0,0.6,0,0.8,0.1l0,0c1.4,0.2,2.6,0.8,3.6,1.8C349.9,196.3,350.7,197.9,350.7,199.8z"/>
						<path class="st3" d="M265.9,199.8c0,3.4,2.4,6.3,5.6,7c0.3,0.1,0.6,0.1,0.9,0.1c0.1,0,0.3,0,0.5,0h2.2v-4.6v-1l0.1-8.3H273
							c-0.2,0-0.4,0-0.6,0l0,0c-0.3,0-0.6,0-0.8,0.1l0,0c-1.4,0.2-2.6,0.8-3.6,1.8C266.7,196.3,265.9,197.9,265.9,199.8z"/>
						<path class="st4" d="M343.7,205.5v1.2v0.2c0,0.5,0,1,0,1.5c0,0.4,0,0.8-0.1,1.2c0,0.1,0,0.2,0,0.4c-0.4,5.1-2,9.9-4.4,14.1
							c-0.1,0.2-0.2,0.4-0.4,0.6c-3.9,6.6-9.9,11.9-17.1,14.9l0,0c-2.8,1.2-5.7,2-8.8,2.4c-1.1,0.2-2.3,0.3-3.4,0.3
							c-0.5,0-0.9,0-1.4,0c-1.7,0-3.3-0.1-5-0.3c-0.5-0.1-0.9-0.1-1.4-0.2c-15.2-2.6-27.1-14.6-29.4-29.7c-0.2-1.6-0.4-3.3-0.4-5
							v-2.5l-0.1-11.3v-5.7c0-0.9,0-1.7,0-2.6c0.1-1.7,0.2-3.3,0.5-4.9c0.3-1.9,0.8-3.7,1.5-5.5c0.8-2.1,1.7-4.1,2.8-6
							c1.3-2.3,2.9-4.4,4.8-6.3c6.5-6.5,15.5-10.5,25.4-10.6c7.4-0.1,14.3,2.1,20.1,5.9c0.8,0.6,1.7,1.1,2.5,1.7
							c3.3,2.6,6.2,5.7,8.4,9.3c0.4,0.7,0.8,1.4,1.2,2.1l0,0c0.6,1.2,1.2,2.4,1.7,3.6c0.1,0.2,0.2,0.4,0.3,0.7
							c0.6,1.5,1.1,3,1.5,4.6c0.6,2.3,1,4.6,1,7v0.4v1.4v1.5v1.9l0,0v0.1v0.3v0.9v8.3v0.9L343.7,205.5z"/>
					</g>
				</g>
			</g>
		</g>
		<g>
			<g>
				<g>
					<defs>
						<rect id="SVGID_11_" x="231.4" y="125.9" width="147.8" height="192.2"/>
					</defs>
					<clipPath id="SVGID_12_">
						<use xlink:href="#SVGID_11_"  style="overflow:visible;"/>
					</clipPath>
					<g class="st13">
						<path class="st3" d="M302.5,211.1c0,0,0.5,2.6,4.1,2.4c3.2-0.2,3.5-2.4,3.5-2.4H302.5z"/>
						<g>
							<path class="st14" d="M287.7,190.9c0,0,5.7-3.1,11.4,0.3"/>
						</g>
					</g>
				</g>
			</g>
		</g>
		<g>
			<g>
				<g>
					<defs>
						<rect id="SVGID_13_" x="231.4" y="125.9" width="147.8" height="192.2"/>
					</defs>
					<clipPath id="SVGID_14_">
						<use xlink:href="#SVGID_13_"  style="overflow:visible;"/>
					</clipPath>
					<path class="st15" d="M292.2,257.1c3.7,20.1,17.6,92.4,17.6,92.4l15.6-92c0.6-3.3-2.1-6.4-5.4-6.3l0,0c-2.1,0.1-4,1.4-4.9,3.4
						l0,0c-2.5,6.2-11.2,6.6-14.2,0.6l-0.5-0.9c-0.8-1.5-2.4-2.5-4.1-2.4l0,0C293.7,252,291.7,254.5,292.2,257.1z"/>
				</g>
			</g>
		</g>
		<g>
			<g>
				<g>
					<defs>
						<rect id="SVGID_15_" x="231.4" y="125.9" width="147.8" height="192.2"/>
					</defs>
					<clipPath id="SVGID_16_">
						<use xlink:href="#SVGID_15_"  style="overflow:visible;"/>
					</clipPath>
					<path class="st16" d="M291.5,200.3v-4.4c0-0.8,0.6-1.4,1.4-1.4h0.2c0.8,0,1.4,0.6,1.4,1.4v4.4c0,0.8-0.6,1.4-1.4,1.4h-0.2
						C292.2,201.7,291.5,201.1,291.5,200.3z"/>
				</g>
			</g>
		</g>
		<g>
			<g>
				<g>
					<defs>
						<rect id="SVGID_17_" x="231.4" y="125.9" width="147.8" height="192.2"/>
					</defs>
					<clipPath id="SVGID_18_">
						<use xlink:href="#SVGID_17_"  style="overflow:visible;"/>
					</clipPath>
					<g class="st17">
						<g>
							<path class="st14" d="M316,190.9c0,0,5.7-3.1,11.4,0.3"/>
						</g>
						<g class="st18">
							<path class="st19" d="M336,211.6c-0.1,3.6-3.3,6.4-7.2,6.3c-3.9-0.1-7-3-7-6.5c0.1-3.6,3.3-6.4,7.2-6.3
								C333,205.1,336.1,208.1,336,211.6z"/>
						</g>
						<g class="st18">
							<path class="st19" d="M292.3,211.6c-0.1,3.6-3.3,6.4-7.2,6.3c-3.9-0.1-7-3-7-6.5c0.1-3.6,3.3-6.4,7.2-6.3
								C289.2,205.1,292.3,208.1,292.3,211.6z"/>
						</g>
					</g>
				</g>
			</g>
		</g>
		<g>
			<g>
				<g>
					<defs>
						<rect id="SVGID_19_" x="231.4" y="125.9" width="147.8" height="192.2"/>
					</defs>
					<clipPath id="SVGID_20_">
						<use xlink:href="#SVGID_19_"  style="overflow:visible;"/>
					</clipPath>
					<path class="st20" d="M319.8,200.3v-4.4c0-0.8,0.6-1.4,1.4-1.4h0.2c0.8,0,1.4,0.6,1.4,1.4v4.4c0,0.8-0.6,1.4-1.4,1.4h-0.2
						C320.5,201.7,319.8,201.1,319.8,200.3z"/>
				</g>
			</g>
		</g>
		<g>
			<g>
				<g>
					<defs>
						<rect id="SVGID_21_" x="231.4" y="125.9" width="147.8" height="192.2"/>
					</defs>
					<clipPath id="SVGID_22_">
						<use xlink:href="#SVGID_21_"  style="overflow:visible;"/>
					</clipPath>
					<g class="st21">
						<path class="st22" d="M345.3,190.6C345.2,190.6,345.2,190.6,345.3,190.6c-0.1,1.4-0.2,2.3-0.3,2.5c0,0.1-1.3,0-1.3,0
							c-2-13-33-24.4-52.3-23.4c-2.2,0.1-4.1,0.6-5.8,1.4c-13.7,6.2-13.9,30.4-14.1,29.5C260,148.1,305.4,147,305.4,147
							c12.7,0.5,21.4,4.1,27.4,9.1C345.5,166.8,345.7,184,345.3,190.6z"/>
					</g>
				</g>
			</g>
		</g>
		<g>
			<g>
				<g>
					<defs>
						<rect id="SVGID_23_" x="231.4" y="125.9" width="147.8" height="192.2"/>
					</defs>
					<clipPath id="SVGID_24_">
						<use xlink:href="#SVGID_23_"  style="overflow:visible;"/>
					</clipPath>
					<path class="st23" d="M297.2,217.1c1.3,1.8,4.2,4.3,9.9,4c5.2-0.2,7.7-2.1,8.8-3.7"/>
				</g>
			</g>
		</g>
		<g>
			<g>
				<g>
					<defs>
						<rect id="SVGID_25_" x="231.4" y="125.9" width="147.8" height="192.2"/>
					</defs>
					<clipPath id="SVGID_26_">
						<use xlink:href="#SVGID_25_"  style="overflow:visible;"/>
					</clipPath>
					<path class="st24" d="M279.9,170.4c0,0,7.8,11.5,27.8,12.5s29.8,0.2,35.4,19.3c1.5,5.2,1.2-20.5,1.2-20.5
						S301.6,147,279.9,170.4z"/>
				</g>
			</g>
		</g>
		<g>
			<g>
				<g>
					<defs>
						<rect id="SVGID_27_" x="231.4" y="125.9" width="147.8" height="192.2"/>
					</defs>
					<clipPath id="SVGID_28_">
						<use xlink:href="#SVGID_27_"  style="overflow:visible;"/>
					</clipPath>
					<path class="st25" d="M285,169.7c0,0-8.8,18.6-12.2,30.8C269.4,212.8,265.7,164.8,285,169.7z"/>
				</g>
			</g>
		</g>
	</g>
	<rect x="235.9" y="125.6" class="st8" width="142.7" height="192.2"/>
</g>
<g>
	<g>
		<g>
			<g>
				<g>
					<defs>
						
							<rect id="SVGID_29_" x="858.3" y="21.9" transform="matrix(0.7071 -0.7071 0.7071 0.7071 211.78 702.9498)" width="192.2" height="147.8"/>
					</defs>
					<clipPath id="SVGID_30_">
						<use xlink:href="#SVGID_29_"  style="overflow:visible;"/>
					</clipPath>
					
						<ellipse transform="matrix(0.7071 -0.7071 0.7071 0.7071 159.2404 680.1931)" class="st26" cx="900.7" cy="147.9" rx="15.4" ry="15.4"/>
				</g>
			</g>
		</g>
		<g>
			<g>
				<g>
					<defs>
						<rect id="SVGID_31_" x="825.6" y="126.7" width="147.8" height="192.2"/>
					</defs>
					<clipPath id="SVGID_32_">
						<use xlink:href="#SVGID_31_"  style="overflow:visible;"/>
					</clipPath>
					<path class="st27" d="M954,378.5h-98.3v-74.3c0-27.1,22-49.1,49.1-49.1l0,0c27.1,0,49.1,22,49.1,49.1v74.3H954z"/>
				</g>
			</g>
		</g>
		<g>
			<g>
				<g>
					<defs>
						<rect id="SVGID_33_" x="825.6" y="126.7" width="147.8" height="192.2"/>
					</defs>
					<clipPath id="SVGID_34_">
						<use xlink:href="#SVGID_33_"  style="overflow:visible;"/>
					</clipPath>
					<rect x="889.1" y="233.3" class="st28" width="28" height="38.4"/>
				</g>
			</g>
		</g>
		<g>
			<g>
				<g>
					<defs>
						<rect id="SVGID_35_" x="825.6" y="126.7" width="147.8" height="192.2"/>
					</defs>
					<clipPath id="SVGID_36_">
						<use xlink:href="#SVGID_35_"  style="overflow:visible;"/>
					</clipPath>
					<g class="st29">
						<path class="st3" d="M944.9,200.6c0,3.4-2.4,6.3-5.6,7c-0.3,0.1-0.6,0.1-0.9,0.1c-0.1,0-0.3,0-0.5,0h-2.2v-4.6v-1l-0.1-8.3
							h2.2c0.2,0,0.4,0,0.6,0l0,0c0.3,0,0.6,0,0.8,0.1l0,0c1.4,0.2,2.6,0.8,3.6,1.8C944.1,197.1,944.9,198.7,944.9,200.6z"/>
						<path class="st3" d="M860.1,200.6c0,3.4,2.4,6.3,5.6,7c0.3,0.1,0.6,0.1,0.9,0.1c0.1,0,0.3,0,0.5,0h2.2v-4.6v-1l0.1-8.3h-2.2
							c-0.2,0-0.4,0-0.6,0l0,0c-0.3,0-0.6,0-0.8,0.1l0,0c-1.4,0.2-2.6,0.8-3.6,1.8C860.9,197.1,860.1,198.7,860.1,200.6z"/>
						<path class="st4" d="M937.9,206.3v1.2v0.2c0,0.5,0,1,0,1.5c0,0.4,0,0.8-0.1,1.2c0,0.1,0,0.2,0,0.4c-0.4,5.1-2,9.9-4.4,14.1
							c-0.1,0.2-0.2,0.4-0.4,0.6c-3.9,6.6-9.9,11.9-17.1,14.9l0,0c-2.8,1.2-5.7,2-8.8,2.4c-1.1,0.2-2.3,0.3-3.4,0.3
							c-0.5,0-0.9,0-1.4,0c-1.7,0-3.3-0.1-5-0.3c-0.5-0.1-0.9-0.1-1.4-0.2c-15.2-2.6-27.1-14.6-29.4-29.7c-0.2-1.6-0.4-3.3-0.4-5
							v-2.5l-0.1-11.3v-5.7c0-0.9,0-1.7,0-2.6c0.1-1.7,0.2-3.3,0.5-4.9c0.3-1.9,0.8-3.7,1.5-5.5c0.8-2.1,1.7-4.1,2.8-6
							c1.3-2.3,2.9-4.4,4.8-6.3c6.5-6.5,15.5-10.5,25.4-10.6c7.4-0.1,14.3,2.1,20.1,5.9c0.8,0.6,1.7,1.1,2.5,1.7
							c3.3,2.6,6.2,5.7,8.4,9.3c0.4,0.7,0.8,1.4,1.2,2.1l0,0c0.6,1.2,1.2,2.4,1.7,3.6c0.1,0.2,0.2,0.4,0.3,0.7
							c0.6,1.5,1.1,3,1.5,4.6c0.6,2.3,1,4.6,1,7v0.4v1.4v1.5v1.9l0,0v0.1v0.3v0.9v8.3v0.9L937.9,206.3z"/>
					</g>
				</g>
			</g>
		</g>
		<g>
			<g>
				<g>
					<defs>
						<rect id="SVGID_37_" x="825.6" y="126.7" width="147.8" height="192.2"/>
					</defs>
					<clipPath id="SVGID_38_">
						<use xlink:href="#SVGID_37_"  style="overflow:visible;"/>
					</clipPath>
					<g class="st30">
						<path class="st3" d="M896.7,211.9c0,0,0.5,2.6,4.1,2.4c3.2-0.2,3.5-2.4,3.5-2.4H896.7z"/>
						<g>
							<path class="st31" d="M882,191.7c0,0,5.7-3.1,11.4,0.3"/>
						</g>
					</g>
				</g>
			</g>
		</g>
		<g>
			<g>
				<g>
					<defs>
						<rect id="SVGID_39_" x="825.6" y="126.7" width="147.8" height="192.2"/>
					</defs>
					<clipPath id="SVGID_40_">
						<use xlink:href="#SVGID_39_"  style="overflow:visible;"/>
					</clipPath>
					<path class="st32" d="M885.5,252.8c0,1.3,18.5,97.5,18.5,97.5l16.7-98.4l-10.1,0.2l-7.8,19.3l-9.5-18.8L885.5,252.8z"/>
				</g>
			</g>
		</g>
		<g>
			<g>
				<g>
					<defs>
						<rect id="SVGID_41_" x="825.6" y="126.7" width="147.8" height="192.2"/>
					</defs>
					<clipPath id="SVGID_42_">
						<use xlink:href="#SVGID_41_"  style="overflow:visible;"/>
					</clipPath>
					<path class="st33" d="M885.7,201.1v-4.4c0-0.8,0.6-1.4,1.4-1.4h0.2c0.8,0,1.4,0.6,1.4,1.4v4.4c0,0.8-0.6,1.4-1.4,1.4h-0.2
						C886.4,202.5,885.7,201.9,885.7,201.1z"/>
				</g>
			</g>
		</g>
		<g>
			<g>
				<g>
					<defs>
						<rect id="SVGID_43_" x="825.6" y="126.7" width="147.8" height="192.2"/>
					</defs>
					<clipPath id="SVGID_44_">
						<use xlink:href="#SVGID_43_"  style="overflow:visible;"/>
					</clipPath>
					<g class="st34">
						<g>
							<path class="st31" d="M910.3,191.7c0,0,5.7-3.1,11.4,0.3"/>
						</g>
						<g class="st18">
							
								<ellipse transform="matrix(1.612960e-02 -0.9999 0.9999 1.612960e-02 696.1217 1131.9071)" class="st19" cx="923.2" cy="212.2" rx="6.4" ry="7.1"/>
						</g>
						<g class="st18">
							<path class="st19" d="M886.5,212.4c-0.1,3.6-3.3,6.4-7.2,6.3c-3.9-0.1-7-3-7-6.5c0.1-3.6,3.3-6.4,7.2-6.3
								C883.5,205.9,886.6,208.9,886.5,212.4z"/>
						</g>
					</g>
				</g>
			</g>
		</g>
		<g>
			<g>
				<g>
					<defs>
						<rect id="SVGID_45_" x="825.6" y="126.7" width="147.8" height="192.2"/>
					</defs>
					<clipPath id="SVGID_46_">
						<use xlink:href="#SVGID_45_"  style="overflow:visible;"/>
					</clipPath>
					<path class="st35" d="M914,201.1v-4.4c0-0.8,0.6-1.4,1.4-1.4h0.2c0.8,0,1.4,0.6,1.4,1.4v4.4c0,0.8-0.6,1.4-1.4,1.4h-0.2
						C914.7,202.5,914,201.9,914,201.1z"/>
				</g>
			</g>
		</g>
		<g>
			<g>
				<g>
					<defs>
						<rect id="SVGID_47_" x="825.6" y="126.7" width="147.8" height="192.2"/>
					</defs>
					<clipPath id="SVGID_48_">
						<use xlink:href="#SVGID_47_"  style="overflow:visible;"/>
					</clipPath>
					<g class="st36">
						<path class="st3" d="M937.8,193.5l0.1,3.1c-2-13-33-24.4-52.3-23.4c-2.2,0.1-4.1,0.6-5.8,1.4c-13.7,6.2-14,30.4-14.1,29.5
							c-6.8-51.5,33.9-53.6,33.9-53.6c12.7,0.5,21.4,4.1,27.4,9.1C939.7,170.3,938.3,187,937.8,193.5z"/>
						<ellipse class="st3" cx="889.7" cy="176.8" rx="9.6" ry="9.2"/>
						<ellipse class="st3" cx="907.6" cy="176.8" rx="9.6" ry="9.2"/>
						<ellipse class="st3" cx="921.6" cy="178.2" rx="9.6" ry="9.2"/>
					</g>
				</g>
			</g>
		</g>
		<g>
			<g>
				<g>
					<defs>
						<rect id="SVGID_49_" x="825.6" y="126.7" width="147.8" height="192.2"/>
					</defs>
					<clipPath id="SVGID_50_">
						<use xlink:href="#SVGID_49_"  style="overflow:visible;"/>
					</clipPath>
					<g class="st37">
						<path class="st38" d="M939.5,191.4L939.5,191.4c-0.1,1.4-0.2,2.3-0.3,2.5c0,0.1-1.3,0-1.3,0c-2-13-33-24.4-52.3-23.4
							c-2.2,0.1-4.1,0.6-5.8,1.4c-13.7,6.2-13.9,30.4-14.1,29.5c-11.5-52.5,33.9-53.6,33.9-53.6c12.7,0.5,21.4,4.1,27.4,9.1
							C939.7,167.6,939.9,184.8,939.5,191.4z"/>
						<ellipse class="st38" cx="889.7" cy="174.1" rx="9.6" ry="9.2"/>
						<ellipse class="st38" cx="907.6" cy="174.1" rx="9.6" ry="9.2"/>
						<ellipse class="st38" cx="921.6" cy="175.5" rx="9.6" ry="9.2"/>
						<path class="st38" d="M934,181.4c0-0.9,0,16.4,0,22.8c0,1.3,1,2.3,2.3,2.3l0,0c1.3,0,2.3-1,2.3-2.3v-21.1
							C938.6,183.1,934,181.9,934,181.4z"/>
						<path class="st38" d="M865,181.4c0-0.9,0,16.1,0,22.3c0,1.2,1,2.2,2.2,2.2l0,0c1.2,0,2.2-1,2.2-2.2V183
							C869.4,183,865,181.9,865,181.4z"/>
					</g>
				</g>
			</g>
		</g>
		<g>
			<g>
				<g>
					<defs>
						<rect id="SVGID_51_" x="825.6" y="126.7" width="147.8" height="192.2"/>
					</defs>
					<clipPath id="SVGID_52_">
						<use xlink:href="#SVGID_51_"  style="overflow:visible;"/>
					</clipPath>
					<path class="st39" d="M904.5,221H897c-0.7,0-1.4-0.6-1.4-1.4l0,0c0-0.7,0.6-1.4,1.4-1.4h7.5c0.7,0,1.4,0.6,1.4,1.4l0,0
						C905.9,220.4,905.3,221,904.5,221z"/>
				</g>
			</g>
		</g>
		<g>
			<g>
				<g>
					<defs>
						<rect id="SVGID_53_" x="825.6" y="126.7" width="147.8" height="192.2"/>
					</defs>
					<clipPath id="SVGID_54_">
						<use xlink:href="#SVGID_53_"  style="overflow:visible;"/>
					</clipPath>
					<path class="st40" d="M903.9,223.4H898c-0.7,0-1.2-0.6-1.2-1.2V222c0-0.7,0.6-1.2,1.2-1.2h5.9c0.7,0,1.2,0.6,1.2,1.2v0.2
						C905.1,222.9,904.6,223.4,903.9,223.4z"/>
				</g>
			</g>
		</g>
	</g>
	<rect x="832.9" y="125.6" class="st8" width="142.7" height="192.2"/>
</g>
<g>
	<g>
		<g>
			<g>
				<g>
					<g>
						<defs>
							<rect id="SVGID_55_" x="1024" y="128.9" width="141" height="188.9"/>
						</defs>
						<clipPath id="SVGID_56_">
							<use xlink:href="#SVGID_55_"  style="overflow:visible;"/>
						</clipPath>
						<g class="st41">
							<path class="st19" d="M999.8,350.8c1.1-2.5,44.6-73.2,60.7-81.3c16.1-8,59.8-4.5,67.9,1.8c8,6.3,52.7,70,58,83
								c6.3,15.2,0,34.8-7.1,34.8s-167.9,0-167.9,0S986.4,381.1,999.8,350.8z"/>
							<g>
								<path class="st1" d="M1107.3,240.9h-20.4c-17.4,0-31.5-14.1-31.5-31.5v-24c0-21.9,17.7-39.6,39.6-39.6h4.2
									c21.9,0,39.6,17.7,39.6,39.6v24C1138.8,226.8,1124.7,240.9,1107.3,240.9z"/>
								<path class="st3" d="M1066.5,195.3l-0.6,9.7l-0.4,6.6l-2.9-0.1c-0.2,0-0.4,0-0.6-0.1c-4.9-0.5-8.6-4.4-8.3-8.8
									c0.1-2.2,1.3-4.1,3.1-5.5c1.6-1.3,3.7-1.9,6-2l0,0c0.3,0,0.5,0,0.8,0L1066.5,195.3z"/>
								<path class="st3" d="M1130.4,195.5l0.6,9.7l0.4,6.6l2.9-0.1c0.2,0,0.4,0,0.6-0.1c4.9-0.5,8.6-4.4,8.3-8.8
									c-0.1-2.2-1.3-4.1-3.1-5.5c-1.6-1.3-3.7-1.9-6-2l0,0c-0.3,0-0.5,0-0.8,0L1130.4,195.5z"/>
								<path class="st3" d="M1100,273.5h-6.7c-6.1,0-11.1-5-11.1-11.1v-31.3c0-6.1,5-11.1,11.1-11.1h6.7c6.1,0,11.1,5,11.1,11.1
									v31.3C1111.1,268.5,1106.1,273.5,1100,273.5z"/>
								<path class="st4" d="M1134.2,194.4l-0.9,16.9l-0.1,2.5c-0.1,1.7-0.3,3.3-0.6,4.9c-2.6,13.5-12.9,24.1-26,27.5
									c-1.5,0.4-3,0.7-4.5,0.9c-0.5,0.1-0.9,0.1-1.4,0.1c-1,0.1-1.9,0.2-2.9,0.2c-0.7,0-1.4,0-2.1-0.1c-1.6-0.1-3.2-0.3-4.7-0.6
									c-0.6-0.1-1.3-0.3-1.9-0.4c-2.4-0.6-4.7-1.4-6.8-2.4l0,0c-10.3-4.9-17.8-14.5-19.9-25.8V218c-0.2-1.2-0.4-2.5-0.4-3.7
									c0-0.4-0.1-0.8-0.1-1.2s0-0.8,0-1.2c0-0.5,0-1,0-1.4v-0.3l0.1-1.2l0.2-3l0.3-5.2v-0.1l0.3-5.2v-0.1l0,0l0.1-1.9l0.1-1.5
									l0.1-1.4v-0.4c0.1-2.4,0.6-4.7,1.3-6.9c0.5-1.6,1.1-3.1,1.7-4.5c0.1-0.2,0.2-0.4,0.3-0.7c0.5-1.2,1.2-2.4,1.8-3.5l0,0
									c2.6-4.3,6-8,10.1-10.9c0.8-0.6,1.7-1.1,2.5-1.6c6-3.5,12.9-5.4,20.3-5c9.8,0.5,18.7,4.9,24.8,11.7c1.8,2,3.3,4.2,4.5,6.5
									c1,1.9,1.8,3.9,2.5,6c0.5,1.3,0.8,2.7,1,4.1l0,0c0.1,0.5,0.1,0.9,0.2,1.4c0.1,0.8,0.2,1.7,0.2,2.5
									C1134.3,191.1,1134.3,192.7,1134.2,194.4z"/>
								<g>
									<path class="st1" d="M1112.2,205.4L1112.2,205.4c-0.9,0-1.7-0.8-1.7-1.7v-5.4c0-0.9,0.8-1.7,1.7-1.7l0,0
										c0.9,0,1.7,0.8,1.7,1.7v5.4C1113.8,204.7,1113.1,205.4,1112.2,205.4z"/>
									<path class="st1" d="M1082.9,205.3L1082.9,205.3c-0.9,0-1.7-0.8-1.7-1.7v-5.4c0-0.9,0.8-1.7,1.7-1.7l0,0
										c0.9,0,1.7,0.8,1.7,1.7v5.4C1084.6,204.6,1083.8,205.3,1082.9,205.3z"/>
									<path class="st1" d="M1117.9,191.9h-11.8c-1.2,0-2.1-1-2.1-2.1l0,0c0-1.2,1-2.1,2.1-2.1h11.8c1.2,0,2.1,1,2.1,2.1l0,0
										C1120,190.9,1119.1,191.9,1117.9,191.9z"/>
									<path class="st1" d="M1089.1,191.9h-11.8c-1.2,0-2.1-1-2.1-2.1l0,0c0-1.2,1-2.1,2.1-2.1h11.8c1.2,0,2.1,1,2.1,2.1l0,0
										C1091.2,190.9,1090.3,191.9,1089.1,191.9z"/>
									<path class="st5" d="M1107.5,221.9c-3.4,5-6.6,8.4-11.3,7.6c-3.9-0.6-7.1-3.6-9.1-7.9L1107.5,221.9z"/>
									<path class="st6" d="M1093.4,210.9h8C1101.4,210.9,1097.6,216.3,1093.4,210.9z"/>
								</g>
								<path class="st1" d="M1087.2,172.9l20.3,6.3c3.2,1,6.1-2.1,5-5.3l-0.1-0.3l2.4,1.3c7.2,3.8,13,9.8,16.6,17l4.6,9.2
									c0,0,10.9-46.9-40.4-48c-41-0.9-35.8,40.2-35.8,40.2S1068.8,170.3,1087.2,172.9z"/>
							</g>
							<g>
								<path class="st19" d="M1143.2,305.2l-3,128.9l-97.6,0.9l-2.6-129.8c0-21.8,15.8-39.8,36.5-43.5c2.5-0.4,5-0.7,7.7-0.7h14.9
									C1123.4,261.1,1143.2,280.9,1143.2,305.2z"/>
								<g>
									<polygon class="st5" points="1115.7,436 1076.8,436 1076.9,258.4 1116.5,258.4 									"/>
								</g>
								<path class="st1" d="M1086.9,260c0.7,1,10.7,15.4,10.7,15.4l12.1-14.7l-5.7-5l-11,1.3L1086.9,260z"/>
								<polygon class="st5" points="1116.9,268.5 1098.4,257.6 1076.7,268.5 1076.7,255.1 1116.9,255.1 								"/>
								<polygon class="st1" points="1104.6,317.3 1090.6,317.3 1093.6,266.4 1102.6,266.4 								"/>
							</g>
							<path class="st1" d="M1066.3,170l-1.2,30.9c-0.1,1.5-1.4,2.5-2.8,2.3l0,0c-1.1-0.2-2-1.2-2-2.3l-0.5-26.1L1066.3,170z"/>
							<path class="st1" d="M1130.6,171.8l1.2,30.9c0.1,1.5,1.4,2.5,2.8,2.3l0,0c1.1-0.2,2-1.2,2-2.3l0.5-26.1L1130.6,171.8z"/>
						</g>
					</g>
				</g>
			</g>
		</g>
	</g>
	<rect x="1020.9" y="125.6" class="st8" width="142.7" height="192.2"/>
</g>
<g>
	<g>
		<g>
			<g>
				<g>
					<g>
						<defs>
							<rect id="SVGID_57_" x="429" y="130" width="141" height="188.9"/>
						</defs>
						<clipPath id="SVGID_58_">
							<use xlink:href="#SVGID_57_"  style="overflow:visible;"/>
						</clipPath>
						<g class="st42">
							<path class="st43" d="M406.2,351.5c1.1-2.5,44.6-73.2,60.7-81.3c16.1-8,59.1-3.7,67.2,2.5c8,6.3,53.4,69.2,58.7,82.3
								c6.3,15.2,0,34.8-7.1,34.8s-167.9,0-167.9,0S392.8,381.8,406.2,351.5z"/>
							<path class="st43" d="M550.2,306.7l-3,128.9l-97.6,0.9L447,306.7c0-21.8,15.8-39.8,36.5-43.5c2.5-0.4,5-0.7,7.7-0.7H506
								C530.4,262.5,550.2,282.3,550.2,306.7z"/>
							<g>
								<path class="st44" d="M512.3,242h-20.4c-17.4,0-31.5-14.1-31.5-31.5v-24c0-21.9,17.7-39.6,39.6-39.6h4.2
									c21.9,0,39.6,17.7,39.6,39.6v24C543.8,227.9,529.7,242,512.3,242z"/>
								<path class="st3" d="M471.5,196.4l-0.6,9.7l-0.4,6.6l-2.9-0.1c-0.2,0-0.4,0-0.6-0.1c-4.9-0.5-8.6-4.4-8.3-8.8
									c0.1-2.2,1.3-4.1,3.1-5.5c1.6-1.3,3.7-1.9,6-2l0,0c0.3,0,0.5,0,0.8,0L471.5,196.4z"/>
								<path class="st3" d="M535.4,196.6l0.6,9.7l0.4,6.6l2.9-0.1c0.2,0,0.4,0,0.6-0.1c4.9-0.5,8.6-4.4,8.3-8.8
									c-0.1-2.2-1.3-4.1-3.1-5.5c-1.6-1.3-3.7-1.9-6-2l0,0c-0.3,0-0.5,0-0.8,0L535.4,196.6z"/>
								<path class="st3" d="M504.6,278.5h-5.9c-6.3,0-11.5-5.2-11.5-11.5v-34.5c0-6.3,5.2-11.5,11.5-11.5h5.9
									c6.3,0,11.5,5.2,11.5,11.5V267C516.1,273.3,510.9,278.5,504.6,278.5z"/>
								<path class="st4" d="M539.2,195.5l-0.9,16.9l-0.1,2.5c-0.1,1.7-0.3,3.3-0.6,4.9c-2.6,13.4-12.9,24.1-26,27.4
									c-1.5,0.4-3,0.7-4.5,0.9c-0.5,0.1-0.9,0.1-1.4,0.1c-1,0.1-1.9,0.2-2.9,0.2c-0.7,0-1.4,0-2.1-0.1c-1.6-0.1-3.2-0.3-4.7-0.6
									c-0.6-0.1-1.3-0.3-1.9-0.4c-2.4-0.6-4.6-1.4-6.8-2.4l0,0c-10.3-4.9-17.8-14.5-19.9-25.8V219c-0.2-1.2-0.4-2.5-0.4-3.7
									c0-0.4-0.1-0.8-0.1-1.2s0-0.8,0-1.2c0-0.5,0-1,0-1.4v-0.3l0.1-1.2l0.2-3l0.3-5.2v-0.1l0.3-5.2v-0.1l0,0l0.1-1.9l0.1-1.5
									l0.1-1.4v-0.4c0.1-2.4,0.6-4.7,1.3-6.9c0.5-1.6,1.1-3.1,1.7-4.5c0.1-0.2,0.2-0.4,0.3-0.7c0.5-1.2,1.2-2.4,1.8-3.5l0,0
									c2.6-4.3,6-8,10.1-10.8c0.8-0.6,1.7-1.1,2.5-1.6c5.9-3.5,12.9-5.4,20.3-5c9.8,0.5,18.7,4.9,24.8,11.7c1.8,2,3.3,4.1,4.5,6.5
									c1,1.9,1.8,3.9,2.5,6c0.5,1.3,0.8,2.7,1,4.1l0,0c0.1,0.5,0.1,0.9,0.2,1.4c0.1,0.8,0.2,1.7,0.2,2.5
									C539.3,192.1,539.2,193.8,539.2,195.5z"/>
								<g>
									<path class="st1" d="M517.2,206.5L517.2,206.5c-0.9,0-1.7-0.8-1.7-1.7v-5.4c0-0.9,0.8-1.7,1.7-1.7l0,0
										c0.9,0,1.7,0.8,1.7,1.7v5.4C518.8,205.7,518.1,206.5,517.2,206.5z"/>
									<path class="st1" d="M487.9,206.4L487.9,206.4c-0.9,0-1.7-0.8-1.7-1.7v-5.4c0-0.9,0.8-1.7,1.7-1.7l0,0
										c0.9,0,1.7,0.8,1.7,1.7v5.4C489.6,205.6,488.8,206.4,487.9,206.4z"/>
									<path class="st44" d="M523.2,193h-12.5c-1,0-1.8-0.8-1.8-1.8l0,0c0-1,0.8-1.8,1.8-1.8h12.5c1,0,1.8,0.8,1.8,1.8l0,0
										C525,192.2,524.2,193,523.2,193z"/>
									<path class="st44" d="M494.4,193h-12.5c-1,0-1.8-0.8-1.8-1.8l0,0c0-1,0.8-1.8,1.8-1.8h12.5c1,0,1.8,0.8,1.8,1.8l0,0
										C496.2,192.2,495.4,193,494.4,193z"/>
									<path class="st6" d="M498.4,212h8C506.4,212,502.6,217.3,498.4,212z"/>
								</g>
							</g>
						</g>
					</g>
				</g>
			</g>
		</g>
		<path class="st44" d="M472.9,176.5l-4.3,28.7c-0.2,1.3-1.7,2-2.8,1.3l0,0c-0.5-0.3-0.8-0.9-0.9-1.5l-1.3-20.9
			C463.6,184.1,470.5,166.8,472.9,176.5z"/>
		<path class="st44" d="M532.5,180.2l4.3,28.7c0.2,1.3,1.7,2,2.8,1.3l0,0c0.5-0.3,0.8-0.9,0.9-1.5l1.3-26.7
			C541.9,182.1,534.9,170.6,532.5,180.2z"/>
		<path class="st44" d="M467.8,196.3l8-9.7c1.9-2.3,3.5-4.8,4.9-7.4l4.9-9.4c0,0,42.9,2.7,50.2,26.7l5.9-16.3
			c0,0-13.1-36.2-46.5-27.6C461.5,161.1,467.8,196.3,467.8,196.3z"/>
		<path class="st44" d="M518.9,150.7c0,0,31.2,16.3,31.2,17.6c0,1.4-9.9,9.5-20.3,4.5C519.4,167.9,518.9,150.7,518.9,150.7z"/>
		<path class="st44" d="M518,158.9c0,0,31.2,16.3,31.2,17.6c0,1.4-9.9,9.5-20.3,4.5C518.5,176,518,158.9,518,158.9z"/>
		<path class="st45" d="M487,261.2c0,0,1,13.7,13.6,13.9c12.5,0.2,15.8-14.2,15.8-14.2l2.2,3.6c0,0-0.3,15.3-17.6,14.9
			c-16.1-0.3-16.6-14.4-16.8-16.3L487,261.2z"/>
		<path class="st46" d="M511.1,223c-2,2.1-5.1,3.3-8.5,3.1c-2.9-0.1-5.4-1.2-7.2-2.9"/>
		<g>
			<polygon class="st47" points="515.9,196.2 522.5,209.1 527.5,208.6 520.7,196.2 			"/>
			<path class="st48" d="M524.2,209.8h-14.9c-1.7,0-3-1.4-3-3v-8.2c0-1.7,1.4-3,3-3h14.9c1.7,0,3,1.4,3,3v8.2
				C527.2,208.5,525.8,209.8,524.2,209.8z"/>
			<polygon class="st47" points="487.9,196.2 494.5,209.1 499.5,208.6 492.6,196.2 			"/>
			<path class="st48" d="M496.1,209.8h-14.9c-1.7,0-3-1.4-3-3v-8.2c0-1.7,1.4-3,3-3h14.9c1.7,0,3,1.4,3,3v8.2
				C499.2,208.5,497.8,209.8,496.1,209.8z"/>
			<line class="st49" x1="498.5" y1="202.8" x2="507" y2="203.1"/>
		</g>
	</g>
	<rect x="426.9" y="125.6" class="st8" width="142.7" height="192.2"/>
</g>
<path class="st50" d="M1005.4,422.4v1.3l0,0l-0.2,7.2l-25.7-0.8l-0.3,9.9c-21.5-5.7-70.2-18.4-83.9-21.1c-1.6-0.3-3.1-0.6-4.7-0.8
	l-89.3-24.9l-14.9-27.4l1.5-0.8c3.8-2.1,5.2-6.8,3.2-10.6l-6.5-11.9c-2.1-3.8-6.8-5.2-10.6-3.2l-1,0.5c-0.2,0.1-0.3,0.1-0.5,0.2
	l-6.4-11.9c44.2-36.3,57.3-100.2,27.9-151.6c-32.5-57.3-105.4-77.4-162.9-44.7c-57.3,32.5-77.4,105.4-44.7,162.8
	c30.1,53,94.6,74.2,149.5,51.5l5.7,10.5l-2.7,1.5c-4,2.2-5.5,7.2-3.3,11.1l6.1,11.3c2.2,4,7.2,5.5,11.1,3.3l2.7-1.5l30.2,55.7
	l-30.3,6.9c-6.8,1.6-11.5,7.5-11.8,14.2v0.1c0,1.3,0.1,2.6,0.4,3.9c1.9,8.2,10.1,13.3,18.2,11.5l36-8.2c0.9-0.2,1.7-0.5,2.5-0.8
	l0.2,0.3l-18.4,4.2c-6.9,1.6-11.7,7.7-11.9,14.4v0.1c0,1.3,0.1,2.6,0.4,3.9c1.9,8.2,10.1,13.4,18.4,11.5l10.7-2.4
	c-4.5,2.3-7.4,6.9-7.6,11.9c0,0.9,0,1.8,0.2,2.7c0.1,0.3,0.1,0.5,0.2,0.8c1.7,7.4,9.1,12,16.4,10.3l8.1-1.8
	c-4.3,2.3-6.9,7.1-6.1,12.2l0.3,1.7c0,0.3,0.1,0.5,0.1,0.8c1.3,6.1,7.1,10.3,13.4,9.4l11.6-1.7c1.6-0.1,3.8-0.3,6.3-0.6l12,22.2
	c4.6,8.5,15.3,11.7,23.8,7.1c2.2-1.2,4-2.7,5.4-4.5c4.2-5.3,5.1-12.9,1.7-19.3l-5-9.3h0.1l0.1,0.1l3-0.5c25.6-3,55.7-7.1,77.1-12.1
	l15.5-2.4l-0.3,10.3l25.7,0.8l-0.3,10.5l144.5,5.1v-11.4V428.8v-1.4L1005.4,422.4z M772.1,189.1c25.8,45.2,9.8,102.9-35.5,128.7
	c-26.1,14.8-56.3,15.8-82.2,5.2c-18.9-7.7-35.4-21.5-46.2-40.6c-25.6-45.4-9.9-103.1,35.5-128.7C688.8,128,746.3,143.8,772.1,189.1z
	"/>
<g>
	<g>
		<path class="st5" d="M749.6,283.6c-0.7,0.4-1.3,0.8-2,1.2c-29.1,16.5-63.1,16.6-91.3,3.1c-6.1-2.9-12-6.5-17.5-10.7
			c-10.1-7.7-18.8-17.5-25.4-29.2c-26.7-47.4-10.4-107.7,37.1-134.4c35.4-20.1,77.9-15.9,108.4,7.3c10.2,7.8,19.1,17.7,25.8,29.6
			C811.1,197,795.3,256.2,749.6,283.6z"/>
		<path class="st19" d="M749.6,283.6c-0.7,0.4-1.3,0.8-2,1.2c-29.1,16.5-63.1,16.6-91.3,3.1c6.5-7.2,14.5-13,23.6-16.8
			c7.8-3.2,16.2-5,25.2-5c8.2,0,16,1.5,23.2,4.2C736.2,273.4,743.4,277.9,749.6,283.6z"/>
		<g>
			<g>
				<g>
					<path class="st2" d="M732.8,259.2h-62.1c-12.6,0-22.9-10.3-22.9-22.9v-66.7c0-12.6,10.3-22.9,22.9-22.9h62.1
						c12.6,0,22.9,10.3,22.9,22.9v66.7C755.7,248.9,745.3,259.2,732.8,259.2z"/>
					<rect x="684" y="237.7" class="st3" width="40" height="62.6"/>
					<g>
						<path class="st3" d="M763.6,191.1c0,4.8-3.4,9.1-8.1,10c-0.4,0.1-0.9,0.2-1.3,0.2c-0.2,0-0.4,0-0.7,0h-3.1l-0.1-6.5v-1.5
							l-0.1-11.8h3.1c0.3,0,0.5,0,0.8,0l0,0c0.4,0,0.8,0.1,1.2,0.1l0,0c2,0.3,3.8,1.2,5.1,2.5C762.5,186.1,763.6,188.4,763.6,191.1z
							"/>
						<path class="st3" d="M642.6,191.1c0,4.8,3.4,9.1,8.1,10c0.4,0.1,0.9,0.2,1.3,0.2c0.2,0,0.4,0,0.7,0h3.1l0.1-6.5v-1.5l0.1-11.8
							h-3.1c-0.3,0-0.5,0-0.8,0l0,0c-0.4,0-0.8,0.1-1.2,0.1l0,0c-2,0.3-3.8,1.2-5.1,2.5C643.8,186.1,642.6,188.4,642.6,191.1z"/>
						<path class="st4" d="M753.7,199.2v1.6v0.3c0,0.7,0,1.4-0.1,2.1c0,0.6-0.1,1.1-0.1,1.7c0,0.2,0,0.3-0.1,0.5
							c-0.6,7.2-2.8,14.1-6.2,20.1c-0.2,0.3-0.3,0.6-0.5,0.9c-5.6,9.4-14.1,17-24.4,21.3l0,0c-4,1.7-8.2,2.9-12.6,3.5
							c-1.6,0.2-3.2,0.4-4.9,0.5c-0.7,0-1.3,0-2,0c-2.4,0-4.8-0.1-7.1-0.4c-0.7-0.1-1.3-0.2-2-0.3c-21.7-3.7-38.7-20.9-41.9-42.5
							c-0.3-2.3-0.5-4.7-0.5-7.1v-3.6l-0.1-16.2l-0.1-8.1c0-1.2,0-2.5,0.1-3.7c0.1-2.4,0.3-4.7,0.7-6.9c0.4-2.7,1.1-5.3,2.1-7.8
							c1.2-3,2.5-5.8,4-8.5c1.9-3.3,4.1-6.2,6.8-9c9.2-9.3,22.2-15.1,36.3-15.2c10.6-0.1,20.5,3,28.7,8.4c1.2,0.8,2.4,1.6,3.5,2.5
							c4.7,3.7,8.8,8.1,12,13.2c0.6,0.9,1.2,1.9,1.7,2.9l0,0c0.9,1.6,1.7,3.4,2.4,5.1c0.1,0.3,0.3,0.6,0.4,1
							c0.8,2.1,1.6,4.3,2.2,6.6c0.9,3.2,1.4,6.6,1.5,10v0.5v2v2.2v2.7l0,0v0.2v0.5v1.3l0.1,11.8v1.3L753.7,199.2z"/>
					</g>
					<path class="st51" d="M755.9,177.9c0,0.1,0,0.1,0,0.1c-0.2,1.3-0.3,2.5-0.3,3.5c0,0.1,0,0.2,0,0.2c-0.2,2-1.7,3.6-3.7,3.9h-0.1
						c-1.7,0.2-3.3-0.6-4.2-2l-5.9-9.7c-8-15.3-58.9-16.8-58.9-16.8c-3.5,0.2-6.8-1.1-9.3-3.4c-1.2-1-2.1-2.3-2.8-3.7
						c-1.2-2.2-1.7-4.9-1.3-7.6c0.9-6.3,6.4-10.9,12.7-11.2l55.8-2.6C756.2,144,756.5,168.6,755.9,177.9z"/>
					<g>
						<path class="st3" d="M694.8,205.3c0,0,0.7,3.7,5.9,3.4c4.6-0.2,5-3.4,5-3.4H694.8z"/>
						<g>
							<path class="st52" d="M673.8,176.5c0,0,8.1-4.4,16.3,0.4"/>
						</g>
						<g class="st53">
							<path class="st19" d="M690.1,200.6c0,2.1-4.4,3.7-9.8,3.6c-5.4-0.1-9.7-1.8-9.7-3.9c0-2.1,4.4-3.7,9.8-3.6
								C685.8,196.8,690.1,198.5,690.1,200.6z"/>
						</g>
					</g>
					<path class="st54" d="M728.7,267.2l-0.5,3.1l-8.3,47.1h-31.1c-3.9-20.5-7.4-37.5-9-46.3c-0.6-3.3-0.9-5.2-0.9-5.4L728.7,267.2z
						"/>
					<line class="st55" x1="703.2" y1="266.6" x2="704" y2="303.4"/>
					<g>
						<path class="st5" d="M710.9,290c0,1.2-0.6,2.2-1.4,2.2c-0.8,0-1.6-0.9-1.6-2.1s0.6-2.2,1.4-2.2
							C710.2,287.8,710.9,288.8,710.9,290z"/>
						<path class="st5" d="M711.4,302.6c0,1.2-0.6,2.2-1.4,2.2c-0.8,0-1.6-0.9-1.6-2.1s0.6-2.2,1.4-2.2
							C710.6,300.4,711.3,301.4,711.4,302.6z"/>
						<path class="st5" d="M711.8,315.2c0,1.2-0.6,2.2-1.4,2.2c-0.8,0-1.6-0.9-1.6-2.1s0.6-2.2,1.4-2.2
							C711,313,711.7,314,711.8,315.2z"/>
					</g>
					<path class="st5" d="M735.7,274l-21.5,1.6c-6.3-0.1-11.3-4.1-11.2-10.1l0,0l29.5-0.7c2.5,0,4.3,2.1,4,4.5L735.7,274z"/>
					<path class="st5" d="M671.4,275l21.5,1.6c6.3-0.1,11.4-5,11.3-11.1l-1.8-0.1l-27.7,0.4c-2.5,0-4.3,2.1-4,4.5L671.4,275z"/>
					<path class="st3" d="M753.7,191.5v9.3v0.3c0,0.7,0,1.4-0.1,2.1c0,0.6-0.1,1.1-0.1,1.7c0,0.2,0,0.3-0.1,0.5
						c-0.6,7.2-2.8,14.1-6.2,20.1c-0.2,0.3-0.3,0.6-0.5,0.9c-5.6,9.4-14.1,17-24.4,21.3l0,0c-4,1.7-8.2,2.9-12.6,3.5
						c-1.6,0.2-3.2,0.4-4.9,0.5c-0.7,0-1.3,0-2,0c-2.4,0-4.8-0.1-7.1-0.4c-0.7-0.1-1.3-0.2-2-0.3c-21.7-3.7-38.7-20.9-41.9-42.5
						c-0.3-2.3-0.5-4.7-0.5-7.1v-3.6l-0.1-16.2v-9.3l0.1,16.2v3.6c0,2.4,0.2,4.8,0.5,7.1c3.2,21.6,20.3,38.8,41.9,42.5
						c0.6,0.1,1.3,0.2,2,0.3c2.3,0.3,4.7,0.5,7.1,0.4c0.7,0,1.3,0,2,0c1.6-0.1,3.3-0.3,4.9-0.5c4.4-0.6,8.6-1.8,12.6-3.5l0,0
						c10.3-4.3,18.8-11.8,24.4-21.3c0.2-0.3,0.3-0.6,0.5-0.9c3.4-6.1,5.6-12.9,6.2-20.1c0-0.2,0.1-0.4,0.1-0.5
						c0-0.6,0.1-1.2,0.1-1.7c0-0.1,0-0.3,0-0.4c0-0.6,0-1.1,0-1.7L753.7,191.5z"/>
					<path class="st51" d="M755.9,177.9c0,0.1,0,0.1,0,0.1c-0.1,1.9-0.3,3.1-0.3,3.5c0,0.1,0,0.2,0,0.2
						c-2.9-18.6-48.9-35.1-76.5-33.6c-3.1,0.2-5.9,0.9-8.3,2c-19.6,8.8-20.9,43.3-21.2,42c-16.4-75,49.3-76.4,49.3-76.4
						c18.1,0.7,30.5,5.8,39,13C756.2,144,756.5,168.6,755.9,177.9z"/>
					<path class="st1" d="M679.2,189.9v-6.2c0-1.1,0.9-2,2-2h0.3c1.1,0,2,0.9,2,2v6.2c0,1.1-0.9,2-2,2h-0.3
						C680.1,191.9,679.2,191,679.2,189.9z"/>
					<g>
						<g>
							<path class="st52" d="M714.2,176.5c0,0,8.1-4.4,16.3,0.4"/>
						</g>
						<g class="st53">
							<path class="st19" d="M730.5,200.6c0,2.1-4.4,3.7-9.8,3.6c-5.4-0.1-9.7-1.8-9.7-3.9c0-2.1,4.4-3.7,9.8-3.6
								C726.2,196.8,730.5,198.5,730.5,200.6z"/>
						</g>
					</g>
					<path class="st1" d="M719.6,189.9v-6.2c0-1.1,0.9-2,2-2h0.3c1.1,0,2,0.9,2,2v6.2c0,1.1-0.9,2-2,2h-0.3
						C720.5,191.9,719.6,191,719.6,189.9z"/>
					<path class="st5" d="M685,212.1l31.3-0.2c0,0-3.9,10.4-15,11C689.3,223.6,685,212.1,685,212.1z"/>
				</g>
			</g>
		</g>
	</g>
	<path class="st4" d="M819.9,396.3c25.9-10.9,54.5-18.9,82.1-13.5c17.7,3.5,94.2,19.5,94.2,19.5s-2.4,70.7-0.8,74.2
		c8.1,18.3-155.9,31.5-155.9,31.5S804.9,402.6,819.9,396.3z"/>
	<path class="st3" d="M896.8,501.8c0,0-27-91.5-29.5-92.1c-2.6-0.5-57.2-18.4-57.2-18.4s57.4,112.2,59.3,112.3
		C871.2,503.7,896.8,501.8,896.8,501.8z"/>
	<path class="st56" d="M861.5,529.3L733.3,293.1l10.9-5.9l20-10.8l128.3,236.3c3.5,6.4,2.6,14-1.7,19.3c-1.4,1.8-3.2,3.4-5.4,4.5
		C876.8,541,866.2,537.9,861.5,529.3z"/>
	<path class="st2" d="M872.2,523l-91.8-169.9l16-17.5l96.1,177c3.5,6.4,2.6,14-1.7,19.3C883.5,533.2,875.9,529.8,872.2,523z"/>
	<polygon class="st56" points="813.2,420.7 837.6,411.8 828.4,394.3 791.9,375.8 786.1,385.8 	"/>
	<path class="st57" d="M759.5,347.9l33-17.9c4-2.2,5.5-7.2,3.3-11.1l-6.1-11.3c-2.2-4-7.2-5.5-11.1-3.3l-33,17.9
		c-4,2.2-5.5,7.2-3.3,11.1l6.1,11.3C750.5,348.5,755.5,350,759.5,347.9z"/>
	<path class="st58" d="M794.6,328.9l-22.3,11.7c-3.8,2.1-8.6,0.6-10.6-3.2l-6.5-11.9c-2.1-3.8-0.6-8.6,3.1-10.6l1.2-0.6l11.2-5.9
		l9.9-5.2c0.1-0.1,0.2-0.1,0.3-0.1l0,0c3.7-1.9,8.3-0.4,10.4,3.3l6.5,11.9C799.9,322.1,798.4,326.8,794.6,328.9z"/>
	<g>
		<path class="st59" d="M802.7,139.5c-8.1-14.4-18.8-26.4-31.2-35.8c-36.9-28.2-88.6-33.4-131.7-8.9
			c-57.3,32.5-77.4,105.4-44.8,162.9c8.1,14.3,18.7,26.2,30.9,35.7c37,28.5,88.9,33.8,132.1,9.2
			C815.4,269.7,835.5,196.8,802.7,139.5z M747.5,284.3c-35.4,20.1-78.2,15.8-108.8-7.6c-10.1-7.7-18.8-17.5-25.4-29.2
			C586.6,200,602.9,139.7,650.4,113c35.4-20.1,77.9-15.9,108.4,7.3c10.2,7.8,19.1,17.7,25.8,29.6
			C811.5,197.1,794.8,257.4,747.5,284.3z"/>
	</g>
	<path class="st3" d="M750.3,423.2v0.1c0,1.3,0.1,2.6,0.4,3.9c1.9,8.2,10.1,13.3,18.2,11.5l36-8.2c6.9-1.6,11.6-7.6,11.8-14.4
		c0-1.3-0.1-2.6-0.4-3.9c0,0,0,0,0-0.1c-1.9-8.1-10.1-13.2-18.2-11.4l-36,8.2C755.3,410.6,750.6,416.5,750.3,423.2z"/>
	<path class="st4" d="M750.3,423.2c1.9,8.1,10.1,13.2,18.2,11.3l36-8.2c6.8-1.5,11.5-7.5,11.8-14.2c-1.9-8.1-10.1-13.2-18.2-11.4
		l-36,8.2C755.3,410.6,750.6,416.5,750.3,423.2z"/>
	<path class="st3" d="M777.3,448.5L777.3,448.5c0,1.3,0.1,2.6,0.4,3.9c1.9,8.2,10.1,13.4,18.4,11.5l40.2-9.2
		c6.9-1.6,11.7-7.7,11.9-14.5c0-1.3-0.1-2.6-0.4-3.9c-0.1-0.3-0.1-0.6-0.2-0.9c-2.2-7.7-10.2-12.5-18.1-10.7l-40.2,9.2
		C782.3,435.7,777.5,441.8,777.3,448.5z"/>
	<path class="st4" d="M777.3,448.5c2.3,7.7,10.2,12.4,18.1,10.6l40.2-9.2c6.9-1.6,11.7-7.6,11.9-14.4c-2.2-7.7-10.2-12.5-18.1-10.7
		l-40.2,9.2C782.3,435.7,777.5,441.8,777.3,448.5z"/>
	<path class="st3" d="M799.1,473.4c0,0.9,0,1.8,0.2,2.7c0.1,0.3,0.1,0.5,0.2,0.8c1.7,7.4,9.1,12,16.4,10.3l34.3-7.8
		c6.2-1.4,10.5-6.9,10.7-13c0-1.1-0.1-2.3-0.3-3.5c-0.2-0.8-0.5-1.6-0.8-2.4c-2.6-5.9-9.1-9.4-15.7-7.9l-34.3,7.8
		C803.6,461.8,799.3,467.3,799.1,473.4z"/>
	<path class="st4" d="M799.1,473.4c0,0.9,0,1.8,0.2,2.7c2.6,6,9.1,9.5,15.7,8l34.3-7.8c6.2-1.4,10.5-6.9,10.7-13
		c0-0.9,0-1.8-0.2-2.8c-2.6-5.9-9.1-9.4-15.7-7.9l-34.3,7.8C803.6,461.8,799.3,467.3,799.1,473.4z"/>
	<path class="st3" d="M817.8,497.6l0.3,1.7c0,0.3,0.1,0.5,0.1,0.8c1.3,6.1,7.1,10.3,13.4,9.4l34.1-4.9c6.5-0.9,11.1-7,10.2-13.5
		l-0.3-1.7c-0.2-1.6-0.8-3.1-1.6-4.4c-2.4-4-7-6.4-12-5.7l-34,4.7C821.5,485,816.9,491,817.8,497.6z"/>
	<path class="st4" d="M817.8,497.6l0.3,1.7c0,0.3,0.1,0.5,0.1,0.8c2.4,4,7,6.4,12,5.7l34.1-4.9c6.5-0.9,11.1-7,10.2-13.5l-0.3-1.7
		c0-0.3-0.1-0.5-0.1-0.8c-2.4-4-7-6.4-12-5.7L828,484C821.5,485,816.9,491,817.8,497.6z"/>
	<path class="st4" d="M929,425.2l-83.5-22.9l-36.8-12.4c-12.2-3.4-18.8-11.2-19.6-23.9c0-0.4,0-0.7,0-1.1c0-1.5,0.4-3,1.1-4.2
		c1.3-2.6,4.2-3.2,7.4-2.9c1.9,0.1,3.8,0.6,5.6,1.1l12.7,4.3l21.3,7.3l69.5,13.2L929,425.2z"/>
	<g class="st60">
		<path class="st61" d="M793.1,407.2l6-1.6c0.7-0.2,1.4-0.3,2.2-0.3c3.9,0,7.2,2.6,8.1,6.4c1,4.4-1.7,8.9-6.1,9.9l-6.5,1.6
			L793.1,407.2z"/>
	</g>
	<g class="st60">
		<path class="st61" d="M825.2,431.9l5.9-1.6c0.7-0.2,1.4-0.3,2.1-0.3c3.8,0,7,2.5,7.9,6.2c1,4.3-1.7,8.6-6,9.6l-6.3,1.5
			L825.2,431.9z"/>
	</g>
	<g class="st60">
		<path class="st61" d="M840.8,459.1l5.6-1.4c0.7-0.2,1.3-0.3,2-0.3c3.6,0,6.7,2.3,7.5,5.6c0.5,1.8,0.2,3.7-0.8,5.3
			c-1.1,1.7-2.8,2.9-4.8,3.4l-6,1.4L840.8,459.1z"/>
	</g>
	<g class="st60">
		<path class="st61" d="M856.8,484.9l5.3-1c0.4-0.1,0.9-0.1,1.3-0.1c3.6,0,6.6,2.6,7.2,6.1c0.6,3.9-2.1,7.5-6,8.1l-5.7,0.9
			L856.8,484.9z"/>
	</g>
	<g>
		<path class="st62" d="M815.7,363.2c0,0.1,0,0.2-0.1,0.3l-2.7,7.2c-0.2,0.4-0.6,0.7-1.1,0.7c-0.1,0-0.2,0-0.3-0.1
			c-3.5-1-11.8-4-14.2-8.8c-0.7-1.5-0.8-3-0.1-4.7c0-0.1,0.1-0.2,0.1-0.2c0.5-1,3.5,0.2,5.6,1.1L815.7,363.2z"/>
	</g>
	<path class="st3" d="M787.8,365.8c0,0.1,0,0.2,0,0.3c0.9,12.5,6.7,20,23.1,26.7l56.2,23.3c0.2,0,12.7-7.2,12.8-7.2
		c0-1.3-70.6-21.6-81.8-29.2c-15-10.4-6.2-22.6-6.5-20.8C788.7,359.6,788,363.7,787.8,365.8z"/>
	<path class="st3" d="M888.5,428.5l-20.6-17.4l20.3,94.3l111.7-16l-3.8-90.9h-15l-4.6,43.9C976.5,442.4,933.9,465.7,888.5,428.5z"/>
	
		<rect x="948.2" y="430.6" transform="matrix(3.210938e-02 -0.9995 0.9995 3.210938e-02 521.9755 1432.6136)" class="st5" width="104.9" height="32.4"/>
	<polygon class="st1" points="1008.2,516.5 1145.9,521.4 1145.9,398.9 1012.2,393.9 	"/>
	<polygon class="st63" points="1008.6,506.5 1145.9,511.5 1145.9,398.9 1012.2,394 	"/>
</g>
<path class="st64" d="M771.5,103.7l-8.6,11.3l0,0c-25.7-19.6-59.5-26.6-91.3-17.9c-8.4,2.3-16.6,5.6-24.5,10.1
	c-0.7,0.4-1.5,0.8-2.2,1.3c-3.4,2-6.6,4.2-9.7,6.5c-3.2,2.4-6.3,5.1-9.2,7.8c-34,32.5-42.8,85.2-18.6,128.1
	c7.1,12.5,16.4,23,27.2,31.2l0,0l-8.6,11.3c-12.2-9.4-22.8-21.4-30.9-35.7c-27.6-48.5-17.5-108.1,20.8-145c2.9-2.8,5.9-5.4,9.1-7.9
	c3.8-3,7.8-5.7,12-8.3c1-0.6,1.9-1.2,2.9-1.7c7.8-4.4,15.8-7.9,24-10.4C701.1,72.9,741.3,80.6,771.5,103.7z"/>
<path class="st64" d="M787.9,323.1l-1.8,0.9c-2.8,1.5-6.4,0.5-7.9-2.3l-7.4-13.2l9.9-5.2c0.1-0.1,0.2-0.1,0.3-0.1l7.6,13.5
	C789.7,318.7,789.4,321.3,787.9,323.1z"/>
<path class="st65" d="M636.3,125.4c51-29,115.8-11.2,144.8,39.8c10,17.6,14.4,36.8,13.8,55.6c5.4-23.3,2.4-48.5-10.3-70.9
	c-6.7-11.9-15.6-21.8-25.8-29.6c-30.5-23.2-73-27.5-108.4-7.3c-8.8,4.9-16.5,11-23,18C630.2,129,633.2,127.1,636.3,125.4z"/>
<path class="st66" d="M635.3,114.9c-3.2,2.4-6.3,5.1-9.2,7.8c-1.3-1.3-2.7-2.7-4-4c-2.1-2-4.1-4.1-6.2-6c2.9-2.8,5.9-5.4,9.1-7.9
	c1.5,1.4,3,2.8,4.4,4.3C631.3,111,633.3,112.9,635.3,114.9z"/>
<path class="st66" d="M671.6,97c-8.4,2.3-16.6,5.6-24.5,10.1c-0.7,0.4-1.5,0.8-2.2,1.3c-2.7-4-5.4-7.9-8-11.9c1-0.6,1.9-1.2,2.9-1.7
	c7.8-4.4,15.8-7.9,24-10.4C666.6,88.5,669.2,92.7,671.6,97z"/>
<path class="st1" d="M1034.6,492.9c-0.1,2.9,2.2,5.3,5.1,5.4s5.3-2.2,5.4-5.1s-2.2-5.3-5.1-5.4
	C1037.1,487.7,1034.7,490,1034.6,492.9z"/>
</svg>
