<?xml version="1.0" encoding="utf-8"?>
<!-- Generator: Adobe Illustrator 21.1.0, SVG Export Plug-In . SVG Version: 6.00 Build 0)  -->
<svg version="1.1" id="Слой_1" xmlns="http://www.w3.org/2000/svg" xmlns:xlink="http://www.w3.org/1999/xlink" x="0px" y="0px"
	 width="1135.4px" height="470px" viewBox="0 0 1135.4 470" style="enable-background:new 0 0 1135.4 470;" xml:space="preserve">
<style type="text/css">
	.st0{fill:#F5F5F5;}
	.st1{fill:#FFFFFF;}
	.st2{fill:#424242;}
	.st3{fill:#FFE0B2;}
	.st4{fill:#F9CD93;}
	.st5{fill:#58A5BF;}
	.st6{fill:#FFF3E0;}
	.st7{fill:#FFEED9;}
	.st8{fill:#38516D;}
	.st9{fill:#2A465E;}
	.st10{fill:#E0E0E0;}
	.st11{fill:#BDBDBD;}
	.st12{fill:#313233;}
	.st13{fill:#5077F6;}
	.st14{fill:#4DD6CF;}
	.st15{fill:#5862DD;}
	.st16{fill:#EA2828;}
	.st17{fill:#EEEEEE;}
	.st18{fill:#B2EBF2;}
	.st19{fill:#E0F7FA;}
</style>
<g id="OBJECTS">
	<g>
		<g>
			
				<rect x="891.4" y="32.9" transform="matrix(0.9765 -0.2153 0.2153 0.9765 -12.6702 216.1724)" class="st0" width="189.1" height="266.7"/>
			<g>
				
					<rect x="868.9" y="23.9" transform="matrix(0.9425 -0.3341 0.3341 0.9425 2.8259 330.922)" class="st1" width="189.1" height="266.7"/>
				<g>
					<g>
						<path class="st2" d="M856.9,100.2c24.3-9.1,48.2-19,72.8-27.3s49.7-14.8,74.5-22.5c0.8-0.2,0.5-1.4-0.3-1.2
							c-25.7,5.3-51.1,13.7-75.9,22.1c-24.1,8.2-48.6,16.7-71.7,27.5C855.5,99.2,856.1,100.6,856.9,100.2L856.9,100.2z"/>
					</g>
					<g>
						<path class="st2" d="M873.1,137c25.5-7.6,50.4-17,75.6-25.3c25.3-8.3,50.6-16.3,76.1-24c1.6-0.5,0.9-3.1-0.7-2.6
							c-25.4,7.8-50.8,15.8-76.1,24.1c-25.2,8.3-50.8,16.1-75.3,26.3C871.8,135.9,872.1,137.3,873.1,137L873.1,137z"/>
					</g>
					<g>
						<path class="st2" d="M886.6,173.9c23.4-9.7,46.3-20.3,70-29.3s47.9-16.2,71.8-24.7c0.6-0.2,0.4-1.1-0.3-1
							c-24.9,6-49.3,15.1-73.2,24.2c-23.2,8.8-46.8,18-68.8,29.5C885.3,173,885.9,174.3,886.6,173.9L886.6,173.9z"/>
					</g>
					<g>
						<path class="st2" d="M896.4,205.3c18.3-4.7,36.2-12.5,54.3-18.1c18.2-5.6,36.7-10.6,55.2-15.3c1-0.2,0.6-1.7-0.4-1.5
							c-19.1,4.3-37.9,9.3-56.6,15c-17.6,5.3-36.6,10.2-53,18.5C895.1,204.3,895.6,205.5,896.4,205.3L896.4,205.3z"/>
					</g>
					<g>
						<path class="st2" d="M906.5,245.2c25.4-10.2,50.1-21.7,75.9-30.9c12.7-4.5,25.5-8.7,38.3-12.7c13.1-4,26.5-8.7,40.1-11.3
							c1.3-0.2,0.7-2.3-0.5-1.9c-13.2,4.2-26.9,7-40.1,11c-13.3,4-26.4,8.4-39.5,13.1c-25.1,9.1-51.1,18.5-74.7,31.3
							C905.2,244.2,905.7,245.5,906.5,245.2L906.5,245.2z"/>
					</g>
				</g>
			</g>
		</g>
		<g>
			<path class="st3" d="M1043.7,123.3l40.9,43.1c3.3,3.4,5,8.1,4.9,12.8l-0.3,11.6l12,12.6l-3.8,3.6l-33.7,32l-6.5,6.2l-13.1-13.8
				l-50.9-9.4c-6.5-1.2-11.9-5.8-14.2-12l-3.6-9.9l0,0l-8.3-23l-1.1-10.7c0,0-47-31.4-40.2-41.4s53.7,22.3,53.7,22.3
				s4.1-14.7,16.6-14.9c0,0,10.1-13.2,18.4-11.1c0,0,0.1-0.1,0.3-0.2C1023.6,114.2,1036.1,115.3,1043.7,123.3z"/>
			<polygon class="st4" points="966,166.3 973.4,171 980.2,181.6 966.7,172.7 			"/>
			<polygon class="st4" points="1005.1,191.4 1017.5,199.5 1009.3,197.9 			"/>
			<path class="st4" d="M1000.4,216.1c18,1.6,46.8,7.5,46.8,7.5l16.5,15.4l-6.5,6.2l-13.1-13.8l-50.9-9.4c-6.5-1.2-11.9-5.8-14.2-12
				l-3.6-9.9C975.8,200.8,983,214.6,1000.4,216.1z"/>
			<g>
				<polygon class="st5" points="1043.3,251.1 1028.9,228.6 1005.1,191.4 973.4,171 1007.7,224.7 1029.6,259 				"/>
				<path class="st5" d="M948,102l26.9,42.1c-6.4-4.2-18.6-11.8-29.3-16.7l-10.8-17L948,102z"/>
				<polygon class="st6" points="948,102 934.7,110.5 931.7,98.4 928.7,86.4 938.3,94.2 				"/>
				<polygon class="st2" points="938.3,94.2 931.7,98.4 928.7,86.4 				"/>
			</g>
			<path class="st7" d="M1043.7,123.3l40.9,43.1c3.3,3.4,5,8.1,4.9,12.8l-0.3,11.6l12,12.6l-3.6,3.7l-0.1-0.2l-13-15l-0.2-3.8
				c-0.4-7.6-3.3-14.8-8.3-20.4l-24.4-27.7c-11.3-17.6-37.1-18.9-37.1-18.9s0.1-0.1,0.3-0.2C1023.6,114.2,1036.1,115.3,1043.7,123.3
				z"/>
			<polygon class="st8" points="1135.4,221.1 1135.4,348 1057.2,245.2 1063.6,239 1063.7,239 1097.3,206.8 1101,203.2 1111.1,193.6 
							"/>
			<polygon class="st9" points="1135.4,324.4 1135.4,348 1057.2,245.2 1063.6,239 1063.7,239 			"/>
		</g>
	</g>
	<g>
		<g>
			<g>
				<g>
					<g>
						<path class="st0" d="M744.7,358l8.4-19.9c1.6-3.9-0.1-8.3-3.9-9.9l-10.6-4.6c-4.4-1.9-4.3-8.2,0.1-9.9l10.7-4.4
							c3.8-1.5,5.7-6,4.2-9.8l-7.9-20.1c-1.5-3.9-5.9-5.8-9.7-4.3l-10.7,4.4c-4.4,1.8-8.7-2.7-6.9-7.1l4.5-10.7
							c1.6-3.9-0.1-8.3-3.9-9.9l-19.6-8.5c-3.8-1.6-8.2,0.1-9.8,4l-4.5,10.7c-1.9,4.5-8.1,4.4-9.8-0.1l-4.4-11
							c-1.5-4-5.9-5.8-9.7-4.3l-19.8,8c-3.8,1.5-5.7,6-4.2,9.8l4.3,10.9c1.8,4.5-2.7,8.8-7,7l-10.6-4.6c-3.8-1.6-8.2,0.1-9.8,4
							l-8.4,19.9c-1.6,3.9,0.1,8.3,3.9,9.9l10.6,4.6c4.4,1.9,4.3,8.2-0.1,9.9l-10.7,4.4c-3.8,1.5-5.7,6-4.2,9.8l7.9,20.1
							c1.5,3.9,5.9,5.8,9.7,4.3l10.7-4.4c4.4-1.8,8.7,2.7,6.9,7.1l-4.5,10.7c-1.6,3.9,0.1,8.3,3.9,9.9l19.6,8.5
							c3.8,1.6,8.2-0.1,9.8-4l4.5-10.7c1.9-4.5,8.1-4.4,9.8,0.1l4.3,10.9c1.5,3.9,5.9,5.8,9.7,4.3l19.8-8c3.8-1.5,5.7-6,4.2-9.8
							l-4.3-10.9c-1.8-4.5,2.7-8.8,7-7l10.6,4.6C738.7,363.6,743.1,361.8,744.7,358z M667.6,345.8c-15.2-6.6-22.3-24.4-15.8-39.9
							c6.5-15.4,24.1-22.6,39.3-15.9c15.2,6.6,22.3,24.4,15.7,39.9C700.4,345.2,682.8,352.4,667.6,345.8z"/>
					</g>
				</g>
			</g>
			<g>
				<path class="st10" d="M723.2,315c-1.8-24.7-23-43.3-47.4-41.6c-24.4,1.8-42.7,23.3-41,48.1c1.8,24.7,23,43.3,47.4,41.6
					C706.6,361.2,725,339.7,723.2,315z M650.5,324.1c-3.3-16.2,7.1-32.1,23.2-35.4c16-3.2,31.7,7.2,34.9,23.5
					c3.2,16.2-7.1,32.1-23.1,35.4C669.4,350.9,653.7,340.4,650.5,324.1z"/>
				<path class="st11" d="M720.5,317.8c0.6,8.6-0.8,16.9-3.9,24.3c4.8-7.8,7.4-17.2,6.6-27.1c-1.2-17.3-12-31.6-26.7-38
					C709.9,285.7,719.3,300.5,720.5,317.8z"/>
				<path class="st11" d="M637.5,318.7c-0.6-8.6,0.8-16.9,3.9-24.3c-4.8,7.8-7.4,17.2-6.6,27.1c1.2,17.3,12,31.6,26.7,38
					C648.1,350.8,638.8,335.9,637.5,318.7z"/>
			</g>
		</g>
		<g>
			<path class="st3" d="M885.8,346.1l-56.9,20.4l-9.5,3.3l0,0l-1.8-5.1c-2.5-7.2-9.2-12-16.6-12c-0.5,0-0.9,0-1.4,0.1
				c-2.4,0.2-4.9-0.1-7.2-0.8l-29.2-9.5c-8.1-2.6-15.1-8-19.9-15.2l-7.6-11.5c-1.6-2.4-2.9-4.7-4.1-6.8c-8.8-15.9-5.1-20.8,3.4-24.5
				c9.5-4.3,23.3,23.9,23.3,23.9l19,5.7c1.2,0.4,2.4,0.5,3.6,0.5c3.8,0,7.5-1.7,9.9-4.8c3.2-4.1,3.7-9.6,1.3-14.2l-2.8-5.4
				c-2.4-4.6-5.7-8.4-9.7-11.6l-16.2-12.4c-2.4-1.8-5.6-2.4-8.5-1.7c-11,2.9-38.5,9.1-43.3-1.2c-2-4.2-1.7-7.6-0.5-10.2
				c2.5-5.6,9.4-8,9.4-8l36.3-8.2c4.6-1,9.5-0.1,13.4,2.5h0.1c0.4,0.3,0.8,0.6,1.2,0.9l24.7,19.9l-19.5-34.5
				c0,0-40.1-40.3-27.7-50.7c0.7-0.6,1.4-0.9,2.2-1.2c13.7-4.6,44.9,33.3,45.6,34.3v-0.1c-0.2-0.7-1.3-3.8-2.3-7.7
				c-2-7.8-3.7-19.2,1.8-21.9c8.7-4.4,20.9,19.2,20.9,19.2l-0.3-0.5c-0.2-1-0.2-2,0.1-2.9c1-3.9,5.3-6.3,9.3-4.5
				c15.7,7.4,29.1,41.7,40.9,71.4c8.5,21.3,10.2,40.3,10.3,51c0.1,6.9,1.3,13.7,3.6,20.2L885.8,346.1z"/>
			<polygon class="st1" points="806.4,374.6 896.7,342.1 906.1,368.8 815.7,401.3 			"/>
			<polygon class="st2" points="863.8,469.5 864,470 833.6,469.5 833.6,469.5 810.4,403.2 815.8,401.2 819.4,399.9 827.7,397 
				885.4,376.2 906.1,368.8 915.6,365.4 952,469.5 			"/>
			<polygon class="st0" points="815.8,401.2 900.2,351.8 906.1,368.8 			"/>
			<polygon class="st12" points="864,470 833.6,469.5 833.6,469.5 810.4,403.2 815.8,401.2 819.4,399.9 827.7,397 827.7,397 
				863.8,469.5 			"/>
			<path class="st7" d="M796.1,260.3l-17.6-8.4c-9.9-4.8-21-6.3-31.9-4.6l-35.6,5.9c2.5-5.6,9.4-8,9.4-8l36.3-8.2
				c5.1-1.1,10.5,0.1,14.6,3.4L796.1,260.3z"/>
			<path class="st4" d="M824.9,260.3l-20.8-43.2l-7.3-8.9v-0.1c-0.2-0.7-1.3-3.8-2.3-7.7l6.2,6.7c3.7,4,6.7,8.7,8.7,13.8
				L824.9,260.3z"/>
			<path class="st4" d="M846.5,267.7L817,197.8l-0.1-0.7c-0.2-1-0.2-2,0.1-2.9C826.6,211.5,845.3,264.3,846.5,267.7z"/>
			<path class="st4" d="M819.4,369.9L819.4,369.9l-1.8-5.1c-2.5-7.2-9.2-12-16.6-12c-0.5,0-0.9,0-1.4,0.1c-2.4,0.2-4.9-0.1-7.2-0.8
				l-29.2-9.5c-8.1-2.6-15.1-8-19.9-15.2l-7.6-11.5c-1.6-2.4-2.9-4.7-4.1-6.8c0,0,17.1,21.5,45,26.2c5.4,0.9,10.2,1.7,14.5,2.5
				c15.9,2.9,29.6,13.2,37.2,27.7l0.5,1L819.4,369.9z"/>
			<path class="st4" d="M771.4,240.5l24.7,19.9l-25.9-20.7C770.6,239.9,771,240.2,771.4,240.5z"/>
			<path class="st4" d="M777.2,218.7l18.9,41.7l-19.5-34.5c0,0-40.1-40.3-27.7-50.7c0.7-0.6,1.4-0.9,2.2-1.2
				C753.6,185.3,760.4,205.8,777.2,218.7z"/>
		</g>
	</g>
	<g>
		<g>
			<path class="st2" d="M430.2,244.7c0.3,0,0.3-0.5,0-0.5S429.9,244.7,430.2,244.7L430.2,244.7z"/>
		</g>
	</g>
	<g>
		<path class="st13" d="M314.8,285.7l67.5-38.8c1.6-0.9,3.6-0.4,4.5,1.2l13.4,23.3c0.7,1.3-0.3,2.9-1.8,2.8
			c-2.8-0.2-5.8,0.6-8.3,2.4c-4.7,3.4-6.4,9.8-4.1,15.2c3.1,7,11.4,9.6,17.9,5.9c2.2-1.3,3.9-3.1,5-5.3c0.7-1.3,2.5-1.4,3.3-0.1
			l13.4,23.3c0.9,1.6,0.4,3.6-1.2,4.5l-22.8,13.1c-1.1,0.7-1.2,2.3-0.1,3c2.2,1.4,4.1,3.4,5.1,6.1c2.1,5.3,0.3,11.4-4.3,14.8
			c-6.2,4.5-14.7,2.6-18.4-3.9c-1.1-1.9-1.6-4-1.7-6c0-1.3-1.5-2.1-2.6-1.4l-22.7,13.1c-1.6,0.9-3.6,0.4-4.5-1.2l-38.8-67.5
			C312.7,288.6,313.3,286.6,314.8,285.7z"/>
		<path class="st14" d="M238.9,293.1l58,51.9c1.4,1.2,1.5,3.3,0.3,4.7l-17.9,20c-1,1.1-2.8,0.6-3.2-0.8c-0.7-2.7-2.4-5.3-4.9-7.1
			c-4.7-3.4-11.3-3-15.7,0.9c-5.7,5.1-5.6,13.9,0,18.8c1.9,1.7,4.2,2.7,6.6,3.1c1.5,0.2,2.2,1.9,1.2,3.1l-17.9,20
			c-1.2,1.4-3.3,1.5-4.7,0.3l-19.8-17.6c-1-0.9-2.5-0.4-2.8,0.9c-0.6,2.5-2,4.9-4.2,6.8c-4.3,3.7-10.8,3.9-15.4,0.6
			c-6.2-4.5-7-13.2-2.1-18.7c1.5-1.6,3.3-2.8,5.2-3.5c1.2-0.4,1.5-2,0.5-2.9l-19.6-17.5c-1.4-1.2-1.5-3.3-0.3-4.7l51.9-58
			C235.5,292,237.6,291.9,238.9,293.1z"/>
		<path class="st15" d="M375.8,229.3l18.6-75.6c0.4-1.8,2.2-2.9,4-2.4l26.1,6.4c1.5,0.4,1.9,2.2,0.8,3.2c-2.1,1.9-3.6,4.6-4,7.7
			c-0.8,5.8,2.7,11.4,8.1,13.5c7.2,2.6,14.9-1.6,16.6-8.8c0.6-2.5,0.4-5-0.4-7.3c-0.5-1.4,0.7-2.8,2.2-2.5l26.1,6.4
			c1.8,0.4,2.9,2.2,2.4,4l-6.3,25.5c-0.3,1.3,0.8,2.4,2.1,2.1c2.5-0.7,5.3-0.6,8,0.5c5.3,2.1,8.5,7.7,7.7,13.3
			c-1,7.6-8.3,12.4-15.5,10.6c-2.1-0.5-4-1.6-5.5-3c-1-0.9-2.5-0.4-2.8,0.9l-6.3,25.5c-0.4,1.8-2.2,2.9-4,2.4l-75.6-18.6
			C376.4,232.9,375.3,231.1,375.8,229.3z"/>
		<path class="st15" d="M1.7,114.1l18.6-75.6c0.4-1.8,2.2-2.9,4-2.4l26.1,6.4c1.5,0.4,1.9,2.2,0.8,3.2c-2.1,1.9-3.6,4.6-4,7.7
			c-0.7,5.7,2.7,11.4,8.1,13.4c7.2,2.6,14.9-1.6,16.6-8.8c0.6-2.5,0.4-5-0.4-7.3c-0.5-1.4,0.7-2.8,2.2-2.5l26.2,6.5
			c1.8,0.4,2.9,2.2,2.4,4L96,84.2c-0.3,1.3,0.8,2.4,2.1,2.1c2.5-0.7,5.3-0.6,8,0.5c5.3,2.1,8.5,7.7,7.7,13.3
			c-1,7.6-8.3,12.4-15.5,10.6c-2.1-0.5-4-1.6-5.5-3c-1-0.9-2.5-0.4-2.8,0.9l-6.3,25.5c-0.4,1.8-2.2,2.9-4,2.4L4.1,117.9
			C2.3,117.6,1.2,115.8,1.7,114.1z"/>
		<path class="st16" d="M520.1,166.5c2.1,1.4,3.6,3.4,4.5,5.5c0.5,1.1,2,1.3,2.8,0.4l16.8-20c1.2-1.4,3.3-1.6,4.7-0.4l59.6,49.9
			c1.4,1.2,1.6,3.3,0.4,4.7L559,266.2c-1.2,1.4-3.3,1.6-4.7,0.4l-21.4-18c-0.6-0.5-0.4-1.5,0.3-1.8c2.5-0.8,4.8-2.5,6.4-4.9
			c3.5-5.1,2.7-12.1-1.8-16.3c-5.3-5-13.6-4.4-18.3,1.1c-1.6,1.9-2.5,4-2.8,6.3c-0.1,0.8-1,1.2-1.7,0.6l-20.4-17
			c-1.4-1.2-1.6-3.3-0.4-4.7l16.8-20c0.8-0.9,0.3-2.4-0.9-2.7c-1.9-0.4-3.7-1.3-5.3-2.6c-5.5-4.6-6.1-12.9-1.1-18.3
			C508,163.8,515,163,520.1,166.5z"/>
		<g>
			<g>
				<path class="st3" d="M522.2,210.5c-12.9,4.3-34.7,57.9-34.7,57.9s-12-10.5-22.1-0.9c0,0-9.1,0.1-17.3,1.9
					c-6.3,1.3-11.6,5.5-14.6,11.1l-19.6,37.1c-6,11.3-4.9,25,2.8,35.2c0.3,0.4,0.5,0.8,0.5,1.3c0.1,0.6,0,1.3-0.3,1.9l-7.7,14.5
					l-0.1,0.2l52.2,27.7l0,0l2.6-5c3.9-7.4,11.5-12.2,19.9-12.5c13.9-0.5,33.9-3,35.6-13.4c2.7-16.1,9.6-41.7,22-49.3
					c5.1-3.2,5.7-6.9,3.5-9.5c-3-3.6-11.4-5-19.8,0.8l6.7-8.2l41.3-50.8c0,0,1.1-1.3,2-3.2c1.4-2.9,2.3-7.2-1.3-10.6
					c-6.1-5.8-19.7,7.1-19.7,7.1l-43.7,40.5l0,0l-6.3,5.8c0,0,31-73.8,21.5-79.2C524.6,210.2,523.4,210.1,522.2,210.5z"/>
				<path class="st4" d="M525.2,309.3l-17.6,24.9c4.1-5.5,19-24.1,37.4-25.7C542,304.9,533.6,303.5,525.2,309.3z"/>
				<path class="st7" d="M522.2,210.5c5.7,19.7-25.5,86.9-25.5,86.9l7.4-7.5c0,0,31-73.8,21.5-79.2
					C524.6,210.2,523.4,210.1,522.2,210.5z"/>
				<path class="st4" d="M448.1,269.5c-6.3,1.3-11.6,5.5-14.6,11.1l-19.6,37.1c-6,11.3-4.9,25,2.8,35.2c0.3,0.4,0.5,0.8,0.5,1.3
					c0.1,0.6,0,1.3-0.3,1.9l-7.7,14.5l7.4,3.8l9.8-21c0,0-15.2-11.2-0.3-46.9c14.9-35.7,39.2-38.8,39.2-38.8
					S456.3,267.7,448.1,269.5z"/>
				<path class="st7" d="M554.2,243.6l-43.7,40.5c1-0.8,46-36.4,55.1-42.7c5.4-3.7,8.2,1.1,9.6,5.7c1.4-2.9,2.3-7.2-1.3-10.6
					C567.7,230.7,554.2,243.6,554.2,243.6z"/>
				<path class="st4" d="M461.3,398.3l2.6-5c3.9-7.4,11.5-12.2,19.9-12.5c13.9-0.5,33.9-3,35.6-13.4c0,0-23.7,11.1-37.2,6.7
					C469.1,369.7,461.5,397.5,461.3,398.3z"/>
			</g>
			<g>
				
					<rect x="414.6" y="352.7" transform="matrix(0.4683 -0.8836 0.8836 0.4683 -123.6278 591.3514)" class="st1" width="29.8" height="91.3"/>
				<polygon class="st8" points="466.5,434.8 447.9,470 333.5,470 377.2,387.5 382.2,390.2 414.6,407.3 462.9,432.9 				"/>
				<polygon class="st9" points="394.7,397 390.6,424.3 390.6,424.3 389.4,432.4 383.7,470 333.5,470 377.2,387.5 				"/>
				<path class="st17" d="M378.7,416.7c-5.7,1-9.4,6.4-8.4,12.1s6.4,9.4,12.1,8.4s9.4-6.4,8.4-12.1
					C389.8,419.4,384.3,415.6,378.7,416.7z"/>
				<polygon class="st17" points="414.6,407.3 409.3,370.5 396.2,363.8 382.2,390.1 				"/>
			</g>
		</g>
	</g>
	<g>
		<g>
			<g>
				<path class="st2" d="M328,242.1c34.4-14.3,50.7-53.8,36.5-88.2c-14.3-34.4-53.8-50.7-88.2-36.5c-30.1,12.5-46.3,44.2-40.4,75
					l-91.8,38.1l9.5,22.8l91.4-37.9C261.9,243,297,255,328,242.1z"/>
				<path class="st18" d="M321.8,227.3c-2.7,1.1-5.5,2-8.2,2.6c-21,4.9-43-4-54.7-22.1c-1.7-2.6-3.2-5.4-4.4-8.4
					c-7.7-18.6-3.7-39.1,8.5-53.4c5.1-5.9,11.6-10.7,19.3-13.9c26.3-10.9,56.4,1.5,67.3,27.8c3.4,8.1,4.5,16.6,3.7,24.7
					C351.6,203,340,219.8,321.8,227.3z"/>
				<path class="st19" d="M321.8,227.3c-2.7,1.1-5.5,2-8.2,2.6l-54.7-22c-1.7-2.6-3.2-5.4-4.4-8.4c-7.7-18.6-3.7-39.1,8.5-53.4
					l90.3,38.6C351.6,203,340,219.8,321.8,227.3z"/>
			</g>
			<path class="st3" d="M186.1,245.4c-3.4,1-6.8,1.9-9.8,2.6c-9.2,2.2-18,6-25.9,11.2c-0.6,0.4-1.1,0.7-1.7,1.1
				c-0.8,0.5-1.7,1-2.5,1.4c-34.3,17.8-65.9,15.1-81,12.2c-5.9-1.1-9.3-2.3-9.3-2.3l-3.3-42.3c0,0,2.2-1.3,5.7-3.4
				c11.7-6.9,37.8-22.4,46.2-26.7l8.3-4.2c17.5-8.1,39.9-16.6,59.6-15l0,0c5,0.4,9.9,1.4,14.5,3.3l40.7,12.7l-63,26.3
				c0,0,46.4-9.2,49.5,5C215.6,235,200.3,241.3,186.1,245.4z"/>
			<path class="st4" d="M164.4,222.2l-18,3.6c0,0,50.9-38,81-29.9L164.4,222.2z"/>
			<path class="st7" d="M57.7,235.7l0.4-9.9c11.7-6.9,37.8-22.4,46.2-26.7l8.3-4.2c17.5-8.1,39.9-16.6,59.6-15
				C171.4,179.9,144.4,182.7,57.7,235.7z"/>
			<path class="st4" d="M176.3,248c-9.2,2.2-18,6-25.9,11.2c-0.6,0.4-1.1,0.7-1.7,1.1c-0.8,0.5-1.7,1-2.5,1.4
				c-34.3,17.8-65.9,15.1-81,12.2c36.5,6.6,78.2-17.7,89.6-24.6c11.4-6.9,31.2-4.3,31.2-4.3l0.2,0.4
				C182.7,246.4,179.4,247.3,176.3,248z"/>
			<polygon class="st1" points="61.2,212.7 67.5,295.9 45.5,301.8 39.6,216.2 			"/>
			<polygon class="st2" points="46.1,308.9 0,321.3 0,219.8 39.2,210.9 39.6,216.2 39.6,216.2 39.6,216.8 45.6,301.8 			"/>
		</g>
		<polygon class="st12" points="46.1,308.9 0,321.3 0,285.8 43.4,271.5 43.4,272.2 45.6,301.8 45.6,301.8 		"/>
	</g>
</g>
<g id="DESIGNED_BY_FREEPIK">
</g>
</svg>
