<?xml version="1.0" encoding="utf-8"?>
<!-- Generator: Adobe Illustrator 21.1.0, SVG Export Plug-In . SVG Version: 6.00 Build 0)  -->
<svg version="1.1" id="Background" xmlns="http://www.w3.org/2000/svg" xmlns:xlink="http://www.w3.org/1999/xlink" x="0px" y="0px"
	 width="1740.2px" height="793.5px" viewBox="0 0 1740.2 793.5" style="enable-background:new 0 0 1740.2 793.5;"
	 xml:space="preserve">
<style type="text/css">
	.st0{opacity:0.48;}
	.st1{opacity:0.71;fill:#FFFFFF;enable-background:new    ;}
	.st2{fill:#C2E1DB;}
	.st3{fill:#99D2D9;}
	.st4{fill:#0F3754;}
	.st5{fill:#154F78;}
	.st6{fill:#FFCE34;}
	.st7{fill:none;}
	.st8{fill:#E0B858;}
	.st9{fill:#433E3B;}
	.st10{fill:#2D2A28;}
	.st11{fill:#121112;}
	.st12{fill:#272828;}
	.st13{fill:#FDD5B6;}
</style>
<g class="st0">
	<polygon class="st1" points="921.7,461.5 1039.3,314.3 1290.1,0 1073.6,0 1039.3,88.7 921.7,392.6 870.1,526.2 870.1,526.2 
		870.1,526.2 	"/>
	<polygon class="st1" points="870.1,0 870.1,0 870.1,0 666.6,0 870.1,526.2 870.1,526.2 870.1,263.1 	"/>
	<polygon class="st1" points="450.1,0 203.8,0 870.1,526.2 870.1,526.2 870.1,526.2 	"/>
	<polygon class="st1" points="921.7,498.1 1039.3,434.3 1740.2,53.4 1740.2,0 1536.4,0 1039.3,392.6 921.7,485.4 870.1,526.2 
		870.1,526.2 870.1,526.2 	"/>
	<polygon class="st1" points="0,456.3 0,526.2 870.1,526.2 870.1,526.2 870.1,526.2 	"/>
	<polygon class="st1" points="0,755.2 0,793.5 171.4,793.5 870.1,526.2 870.1,526.2 870.1,526.2 	"/>
	<polygon class="st1" points="921.7,512.6 1039.3,481.7 1740.2,297.2 1740.2,193.3 1039.3,461.5 921.7,506.4 870.1,526.2 
		870.1,526.2 870.1,526.2 	"/>
	<polygon class="st1" points="0,297.1 0,381.8 870.1,526.2 870.1,526.2 870.1,526.2 	"/>
	<polygon class="st1" points="0,53.4 0,193.3 870.1,526.2 870.1,526.2 870.1,526.2 	"/>
	<polygon class="st1" points="0,596.2 0,670.6 870.1,526.2 870.1,526.2 870.1,526.2 	"/>
	<polygon class="st1" points="656.7,793.5 766.7,793.5 870.1,526.3 870.1,526.2 870.1,526.2 	"/>
	<polygon class="st1" points="921.7,522.1 1039.3,512.6 1740.2,456.3 1740.2,381.8 1039.3,498.1 921.7,517.6 870.1,526.2 
		870.1,526.2 870.1,526.2 	"/>
	<polygon class="st1" points="378.1,793.5 531.6,793.5 870.1,526.2 870.1,526.2 870.1,526.2 	"/>
	<polygon class="st1" points="921.7,591 1039.3,738.2 1083.4,793.5 1208.5,793.5 1039.3,659.9 921.7,567 870.1,526.2 870.1,526.2 
		870.1,526.2 	"/>
	<polygon class="st1" points="870,793.5 870.1,793.5 870.1,793.5 921.7,793.5 973.4,793.5 921.7,659.9 870.1,526.2 870.1,526.2 
		870.1,657 	"/>
	<polygon class="st1" points="921.7,530.4 1039.3,539.8 1740.2,596.2 1740.2,526.2 1039.3,526.2 921.7,526.2 870.1,526.2 
		870.1,526.2 870.1,526.2 	"/>
	<polygon class="st1" points="921.7,554.3 1039.3,618.2 1361.9,793.5 1568.6,793.5 1039.3,591 921.7,546 870.1,526.2 870.1,526.2 
		870.1,526.2 	"/>
	<polygon class="st1" points="921.7,539.8 1039.3,570.8 1740.2,755.3 1740.2,670.6 1039.3,554.3 921.7,534.8 870.1,526.2 
		870.1,526.2 870.1,526.2 	"/>
</g>
<g>
	<path class="st2" d="M762.3,492.7l0.1-49.5c0-5.2-4.2-9.4-9.4-9.5l-37.6-0.1c-5.2,0-9.4,4.2-9.5,9.4l-0.1,49.5h12.8L762.3,492.7z"
		/>
	<path class="st3" d="M762.2,542.2l0.1-49.5l-43.7-0.1h-12.8l-0.1,49.5c0,5.2,4.2,9.4,9.4,9.5l37.6,0.1
		C758,551.6,762.2,547.4,762.2,542.2z"/>
</g>
<g>
	<path class="st4" d="M0,557.8l712.6,0.6c9.7,0,17.7-4.1,17.7-9.1l0.3-57.2L0,491.5V557.8L0,557.8z"/>
	<path class="st5" d="M713.3,425.6L0,425v66.4l730.6,0.6l0.3-57.2C730.9,429.7,723,425.6,713.3,425.6z"/>
</g>
<path class="st6" d="M844.9,557.4v14.4l-73.4,28.3v23.6l94,0.2l0.1-68.5c-4.5,0.6-9.1,1.1-13.6,1.5
	C849.6,557.1,847.3,557.2,844.9,557.4z"/>
<path class="st2" d="M699.9,551.5c-5.1,0-9.1-4.1-9.1-9.2c0-5.1,4.1-9.1,9.2-9.1c5.1,0,9.1,4.1,9.1,9.2
	C709.1,547.4,705,551.5,699.9,551.5z"/>
<path class="st2" d="M675,551.5c-5.1,0-9.1-4.1-9.1-9.2c0-5.1,4.1-9.2,9.2-9.1c5.1,0,9.1,4.1,9.1,9.2
	C684.2,547.4,680.1,551.5,675,551.5z"/>
<g>
	<g>
		<path class="st7" d="M1008.5,161.9c-4.8,36.3-14,73.8-26.6,108.1c64.7-31,66.5-85.2,64-108L1008.5,161.9z"/>
		<path class="st7" d="M686.7,161.3c-2.6,22.8-1,77,63.6,108.2c-12.4-34.3-21.5-71.8-26.2-108.2H686.7z"/>
		<path class="st8" d="M1072.8,145.2l-2.7-10.4l-58.7-0.1c0.7-9.1,1-18.1,1-26.9c0-1.9,0-3.7-0.1-5.5L866.4,102l-1,522l94,0.2v-22.1
			l-73.3-29.3l0.3-175.1c31.1-11.1,59-46.5,80.7-92.3C1102.1,262.9,1073.2,146.4,1072.8,145.2z M981.9,270
			c12.6-34.3,21.8-71.8,26.6-108.1l37.4,0.1C1048.4,184.8,1046.6,239,981.9,270z"/>
	</g>
	<g>
		
			<rect x="768.7" y="620.4" transform="matrix(1.913021e-03 -1 1 1.913021e-03 135.8101 1484.5447)" class="st9" width="85.7" height="107.7"/>
		
			<rect x="876.3" y="620.8" transform="matrix(1.929587e-03 -1 1 1.929587e-03 242.9868 1592.2778)" class="st10" width="85.7" height="107.3"/>
		<path class="st11" d="M973.1,609.8l-107.4-0.2v15.6v6.2l107.3,0.2h0.1c6.5,0,11.8-4.9,11.8-10.9
			C984.9,614.8,979.6,609.9,973.1,609.8z"/>
		<path class="st12" d="M757.9,609.4c-6.5,0-11.8,4.9-11.8,10.9s5.3,10.9,11.8,10.9h0.1l107.7,0.2v-6.2v-15.6L757.9,609.4z"/>
		<path class="st11" d="M972.9,717.3L972.9,717.3l-107.4-0.2v9v12.8l107.4,0.2c6.5,0,11.8-4.9,11.8-10.9
			C984.6,722.2,979.4,717.3,972.9,717.3z"/>
		<path class="st12" d="M757.7,716.9L757.7,716.9c-6.6,0-11.9,4.9-11.9,10.9s5.3,10.9,11.8,10.9l107.8,0.2v-12.8v-9L757.7,716.9z"/>
	</g>
	<g>
		<path class="st8" d="M910.1,649.4l-44-0.1l-0.1,44.8l44,0.1c13.4,0,24.2-10,24.3-22.3C934.3,659.5,923.5,649.4,910.1,649.4z"/>
		<path class="st6" d="M820,649.2c-13.4,0-24.2,10-24.3,22.3c0,12.4,10.8,22.4,24.2,22.4L866,694l0.1-44.8H820z"/>
	</g>
</g>
<path class="st7" d="M844.7,404.9h0.5v-0.3C844.9,404.8,844.7,404.9,844.7,404.9z"/>
<path class="st7" d="M686.7,161.3c-2.6,22.8-1,77,63.6,108.2c-12.4-34.3-21.5-71.8-26.2-108.2H686.7z"/>
<path class="st6" d="M720.5,101.7c0,1.8-0.1,3.7-0.1,5.5c0,8.8,0.3,17.8,1,26.9l-58.7-0.1l-2.8,10.4c-0.3,1.2-29.8,117.6,105,160.5
	c14.2,30.4,31.3,56.2,50.2,73.5c9.6,8.8,19.7,15.3,30.2,19.1v7.1v0.3l10.1-0.1l10.5-1.1l0.6-301.7L720.5,101.7z M686.7,161.3
	l37.4,0.1c4.7,36.3,13.8,73.8,26.2,108.2C685.8,238.3,684.2,184.1,686.7,161.3z"/>
<path class="st13" d="M946.5,527.3c-0.8-8-5.4-14.4-11.2-16.5l5.9-0.6c9.2-0.9,15.9-10.1,14.9-20.5c-0.9-8.9-7.2-15.5-14.8-16.7
	l2.4-0.2c10.4-1,18-10.3,16.9-20.7c-1-10.4-10.3-18-20.7-16.9l-28.2,2.8l-0.1-0.8l22.3-2.2c9.1-0.9,15.6-10.1,14.6-20.5
	s-9.2-18.1-18.4-17.2l-30.8,3.1l-33.4,3.3l-10.5,1.1l-10.1,0.1h-0.5c0,0,0.2-0.1,0.5-0.3v-7.1c-10.5-3.8-20.6-10.3-30.2-19.1
	c-10.9,6.3-25.4,17-35.8,33.5c-2.7,4.3-5.2,9-7.2,14.2c-1.4,2.8-2.7,5.3-3.8,7.4c-0.2,0.5-0.5,0.9-0.7,1.3c-1.5,3-2.4,4.8-2.4,4.8
	c0,1.4-9.2-1.1-9.2,3.6l-0.2,98c0,1.4,0.8,3.3,3,3.3c5.8,0.9,11.6,2.8,18.4,5c12.6,3.9,28.7,8.5,54.1,8.6c4.3,0,8.9-0.2,13.7-0.5
	c2.3-0.1,4.7-0.3,7-0.5c4.5-0.4,9.1-0.9,13.6-1.5c7.4-0.9,14.7-2,21.6-3.1l4.7-0.5l41.9-4.2C941.9,546.8,947.6,537.7,946.5,527.3z"
	/>
</svg>
