<?xml version="1.0" encoding="utf-8"?>
<!-- Generator: Adobe Illustrator 21.1.0, SVG Export Plug-In . SVG Version: 6.00 Build 0)  -->
<svg version="1.1" id="Capa_1" xmlns="http://www.w3.org/2000/svg" xmlns:xlink="http://www.w3.org/1999/xlink" x="0px" y="0px"
	 width="1007px" height="479.8px" viewBox="0 0 1007 479.8" enable-background="new 0 0 1007 479.8" xml:space="preserve">
<g>
	<g>
		<path fill="#FFFFFF" d="M152.6,0c-32,0-58,26-58,58c0,6.6,5.4,12,12,12s12-5.4,12-12c0-18.8,15.3-34,34-34s34,15.3,34,34v21.2H55
			c-6.6,0-12,5.4-12,12V272c0,6.6,5.4,12,12,12s12-5.4,12-12V103.3h27.5v272.3c0,6.6,5.4,12,12,12h6.8v37c0,6.6,5.4,12,12,12h15.3
			v31.2l0,0c0,0.4,0,0.8,0.1,1.2c0.5,5.3,4.5,9.5,9.6,10.6c0.8,0.2,1.6,0.2,2.4,0.2c0.8,0,1.6-0.1,2.4-0.2c2-0.4,3.7-1.3,5.2-2.5
			l0,0c0.2-0.1,0.3-0.3,0.5-0.4c0.1-0.1,0.3-0.2,0.4-0.4c0.1-0.1,0.2-0.3,0.4-0.4c0.1-0.2,0.3-0.3,0.4-0.5l0,0
			c1.7-2.1,2.7-4.7,2.7-7.6v-31.2H180c6.6,0,12-5.4,12-12v-37h6.8c6.6,0,12-5.4,12-12V58.1C210.6,26.1,184.6,0,152.6,0z
			 M167.9,412.5h-30.5v-25h30.5V412.5z M186.6,363.6h-68.1V103.3h68.1V363.6z"/>
		<path fill="#FFFFFF" d="M379.4,455.7c-6.6,0-12,5.4-12,12s5.4,12,12,12s12-5.4,12-12S386,455.7,379.4,455.7z"/>
		<path fill="#FFFFFF" d="M334,455.7c-6.6,0-12,5.4-12,12s5.4,12,12,12s12-5.4,12-12S340.6,455.7,334,455.7z"/>
		<path fill="#FFFFFF" d="M197.9,455.7c-6.6,0-12,5.4-12,12s5.4,12,12,12s12-5.4,12-12S204.6,455.7,197.9,455.7z"/>
		<path fill="#FFFFFF" d="M288.6,455.7c-6.6,0-12,5.4-12,12s5.4,12,12,12s12-5.4,12-12S295.2,455.7,288.6,455.7z"/>
		<path fill="#FFFFFF" d="M243.2,455.7c-6.6,0-12,5.4-12,12s5.4,12,12,12s12-5.4,12-12S249.9,455.7,243.2,455.7z"/>
		<path fill="#FFFFFF" d="M433.2,459.3c-2.2-2.2-5.3-3.5-8.5-3.5s-6.3,1.3-8.5,3.5s-3.5,5.3-3.5,8.5s1.3,6.3,3.5,8.5
			s5.3,3.5,8.5,3.5s6.3-1.3,8.5-3.5s3.5-5.3,3.5-8.5S435.5,461.5,433.2,459.3z"/>
	</g>
</g>
<g>
	<path fill="#FFFFFF" d="M324.7,191.2c-3.2,5.8-7.7,10.2-13.4,13.4c-5.8,3.2-12.3,4.8-19.7,4.8c-2.3,0-4.3-0.8-5.8-2.3
		s-2.2-3.5-2.2-5.8s0.7-4.3,2.2-5.8s3.4-2.3,5.8-2.3c6.3,0,11.5-2,15.5-6c4.1-4,6.1-9.1,6.1-15.4v-79c0-2.5,0.8-4.4,2.3-5.9
		s3.5-2.2,5.8-2.2c2.5,0,4.4,0.7,5.9,2.2s2.2,3.5,2.2,5.9v79C329.5,178.9,327.9,185.4,324.7,191.2z M328.8,52.2
		c2.1,2.1,3.1,4.6,3.1,7.4c0,2.9-1,5.4-3.1,7.4s-4.6,3.1-7.4,3.1s-5.4-1-7.4-3.1s-3.1-4.6-3.1-7.4c0-2.9,1-5.4,3.1-7.4
		c2.1-2.1,4.6-3.1,7.4-3.1S326.7,50.2,328.8,52.2z"/>
	<path fill="#FFFFFF" d="M438,86.6c1.5,1.5,2.2,3.5,2.2,5.9v71.4c0,2.3-0.7,4.3-2.2,5.8s-3.5,2.3-5.9,2.3c-2.3,0-4.3-0.8-5.8-2.3
		s-2.3-3.5-2.3-5.8v-1.8c-3.4,3.4-7.5,6.1-12.2,7.9c-4.7,1.9-9.7,2.8-15,2.8c-7.4,0-14-1.6-19.8-4.8c-5.9-3.2-10.5-7.9-13.8-14
		s-5-13.5-5-22.2V92.4c0-2.3,0.8-4.3,2.3-5.8s3.5-2.3,5.8-2.3s4.3,0.8,5.8,2.3s2.3,3.5,2.3,5.8v39.4c0,8.6,2.3,15.2,7,19.6
		c4.6,4.4,10.8,6.6,18.5,6.6c4.5,0,8.6-0.9,12.2-2.7c3.7-1.8,6.6-4.3,8.6-7.4c2.1-3.1,3.1-6.6,3.1-10.4V92.4c0-2.5,0.8-4.4,2.3-5.9
		s3.5-2.2,5.8-2.2C434.6,84.3,436.5,85.1,438,86.6z"/>
	<path fill="#FFFFFF" d="M518.4,87.2c5.5,2.2,9.8,5.3,13,9.3c1.4,1.7,2.1,3.4,2.1,5.1c0,1.8-0.9,3.5-2.7,5c-1.2,0.9-2.7,1.3-4.5,1.3
		c-2.8,0-5.3-1-7.5-3c-2.7-2.5-5.5-4.2-8.5-5.2c-3-1-6.6-1.5-10.9-1.5c-4.9,0-8.9,0.8-12.1,2.5c-3.1,1.7-4.7,4-4.7,7
		c0,2.1,0.5,3.9,1.6,5.4c1.1,1.4,3.1,2.8,6.1,4s7.3,2.4,13,3.6c11.6,2.3,19.9,5.6,24.7,9.8c4.9,4.2,7.3,9.5,7.3,16.2
		c0,4.9-1.3,9.4-4,13.4s-6.6,7.1-11.8,9.4c-5.2,2.3-11.4,3.4-18.6,3.4c-7.3,0-14.1-1.1-20.5-3.4c-6.4-2.2-11.4-5.2-15-8.8
		c-1.4-1.4-2.1-3-2.1-5c0-2.6,1.1-4.6,3.2-6.2c2-1.5,3.9-2.2,5.6-2.2c2.1,0,4.2,1,6.1,2.9c2,2.2,5.1,4.2,9.1,5.8
		c4.1,1.7,8.4,2.5,13,2.5c6.1,0,10.8-1,14.2-3c3.4-2,5-4.7,5-8.2c0-3.3-1.7-6.1-5-8.2c-3.3-2.2-8.9-4-16.8-5.5
		c-20.5-3.9-30.7-12.4-30.7-25.3c0-5.2,1.5-9.7,4.6-13.3c3.1-3.6,7.1-6.3,12.2-8.2c5-1.8,10.3-2.7,16-2.7
		C506.7,83.8,512.9,85,518.4,87.2z"/>
	<path fill="#FFFFFF" d="M598.1,158.2c1.3,1.5,2,3.4,2,5.8c0,2.3-0.9,4.3-2.6,5.8c-1.8,1.5-4,2.2-6.8,2.2h-2.9
		c-5.2,0-10-1.4-14.3-4.1c-4.3-2.7-7.7-6.4-10.2-11.1c-2.5-4.7-3.7-10-3.7-15.8v-39.5h-7.4c-2.2,0-4.1-0.6-5.4-1.9
		c-1.4-1.3-2.1-2.9-2.1-4.8c0-2.1,0.7-3.8,2.1-5.1c1.4-1.3,3.2-1.9,5.4-1.9h7.4v-23c0-2.3,0.7-4.3,2.2-5.8s3.4-2.2,5.8-2.2
		c2.3,0,4.3,0.7,5.8,2.2s2.2,3.4,2.2,5.8v23h13.6c2.2,0,4.1,0.6,5.4,1.9c1.4,1.3,2.1,3,2.1,5.1c0,1.9-0.7,3.5-2.1,4.8
		c-1.4,1.3-3.2,1.9-5.4,1.9h-13.6V141c0,4.3,1.2,7.8,3.5,10.7s5.2,4.3,8.6,4.3h5.4C595.1,156,596.8,156.7,598.1,158.2z"/>
	<path fill="#FFFFFF" d="M628.3,47c2.3,0,4.3,0.7,5.8,2.2s2.3,3.5,2.3,5.9v43.2c3.7-4.6,8.3-8.2,13.6-10.7
		c5.3-2.6,11.1-3.8,17.3-3.8c7.7,0,14.6,1.9,20.9,5.8c6.2,3.8,11.1,9.1,14.7,15.9c3.6,6.8,5.4,14.3,5.4,22.6s-1.9,15.9-5.8,22.6
		c-3.8,6.8-9.1,12.1-15.9,16c-6.8,3.9-14.3,5.8-22.5,5.8s-15.7-1.9-22.3-5.8c-6.7-3.9-11.9-9.2-15.8-16c-3.9-6.8-5.8-14.3-5.8-22.6
		v-73c0-2.5,0.7-4.4,2.2-5.9C623.8,47.8,625.8,47,628.3,47z M664.1,158.2c5.3,0,10.2-1.3,14.5-3.9c4.3-2.6,7.7-6.2,10.2-10.8
		s3.8-9.7,3.8-15.4s-1.3-10.7-3.8-15.3c-2.5-4.5-5.9-8.1-10.2-10.7s-9.1-3.9-14.5-3.9c-5.3,0-10.2,1.3-14.5,3.9s-7.7,6.2-10.2,10.7
		s-3.7,9.6-3.7,15.3s1.2,10.8,3.7,15.4c2.5,4.6,5.8,8.2,10.2,10.8C653.9,156.9,658.8,158.2,664.1,158.2z"/>
	<path fill="#FFFFFF" d="M810.7,86.6c1.5,1.5,2.2,3.5,2.2,5.9v71.4c0,2.3-0.7,4.3-2.2,5.8s-3.5,2.3-5.9,2.3c-2.3,0-4.3-0.8-5.8-2.3
		s-2.3-3.5-2.3-5.8v-1.8c-3.4,3.4-7.5,6.1-12.2,7.9c-4.7,1.9-9.7,2.8-15,2.8c-7.4,0-14-1.6-19.8-4.8c-5.9-3.2-10.5-7.9-13.8-14
		s-5-13.5-5-22.2V92.4c0-2.3,0.8-4.3,2.3-5.8s3.5-2.3,5.8-2.3s4.3,0.8,5.8,2.3s2.3,3.5,2.3,5.8v39.4c0,8.6,2.3,15.2,7,19.6
		c4.6,4.4,10.8,6.6,18.5,6.6c4.5,0,8.6-0.9,12.2-2.7c3.7-1.8,6.6-4.3,8.6-7.4c2.1-3.1,3.1-6.6,3.1-10.4V92.4c0-2.5,0.8-4.4,2.3-5.9
		s3.5-2.2,5.8-2.2C807.2,84.3,809.2,85.1,810.7,86.6z"/>
	<path fill="#FFFFFF" d="M913.5,91.5c0,1.1-0.3,2.3-1,3.8l-49,110.1c-1.3,3.3-3.4,5-6.2,5c-1.1,0-2.3-0.3-3.8-1
		c-3.2-1.4-4.8-3.5-4.8-6.2c0-1.3,0.3-2.6,1-3.8l16-36l-36-68.3c-0.5-1-0.8-2.1-0.8-3.4c0-1.4,0.4-2.7,1.3-3.8
		c0.9-1.2,2-2.1,3.4-2.7c1-0.4,2-0.6,3.2-0.6c3,0,5.2,1.5,6.7,4.5l29.3,58.2l25.8-58.1c1.4-3.1,3.5-4.6,6.2-4.6
		c1.4,0,2.7,0.3,3.8,0.8C911.9,86.6,913.5,88.6,913.5,91.5z"/>
</g>
<g>
	<path fill="#FFFFFF" d="M392.1,372.1c1.9,1.5,2.8,3.6,2.8,6c0,2.6-1,4.7-2.8,6.3c-1.9,1.6-4.4,2.4-7.4,2.4H294
		c-3,0-5.4-0.8-7.4-2.7c-2-1.8-3.1-4-3.1-6.6V257.4c0-2.7,1-4.9,3.1-6.7c2-1.7,4.5-2.5,7.4-2.5h90.6c3.1,0,5.5,0.8,7.4,2.4
		c1.9,1.6,2.8,3.7,2.8,6.3c0,2.5-1,4.5-2.8,6c-1.9,1.5-4.4,2.3-7.4,2.3h-80.2v43.1H362c3,0,5.3,0.8,7.4,2.4c1.9,1.6,2.9,3.6,2.9,6.1
		c0,2.5-1,4.6-2.9,6.1c-1.9,1.6-4.4,2.4-7.4,2.4h-57.6v44.4h80.2C387.8,369.8,390.3,370.6,392.1,372.1z"/>
	<path fill="#FFFFFF" d="M505.6,252.8c7.9,4.1,14.6,10.1,20.1,17.8c1.6,2.3,2.4,4.4,2.4,6.4c0,2.6-1.3,4.7-4,6.4
		c-1.4,0.8-3.2,1.3-5.3,1.3s-3.9-0.4-5.6-1.4c-1.7-0.8-3.1-2.1-4-3.6c-3.6-5.3-8.1-9.4-13.6-12.2c-5.4-2.8-12.2-4.1-20.5-4.1
		c-10.1,0-18.4,1.8-24.6,5.2c-6.3,3.5-9.5,8.5-9.5,15.2c0,6.2,2.8,11.3,8.4,15.5c5.6,4.1,15.7,6.8,30.1,8.2
		c16,1.4,28.5,5.7,37.3,12.9c8.8,7.2,13.3,16.6,13.3,28.3c0,8.5-2.6,15.8-7.8,21.9c-5.3,6.1-12.1,10.7-20.7,13.7
		c-8.6,3-17.9,4.6-27.8,4.6c-13,0-24.7-2.6-35.4-7.8c-10.6-5.2-18-12-22-20.5c-0.7-1.4-1-2.6-1-3.6c0-1.8,0.8-3.4,2.2-4.7
		c1.4-1.4,3.4-2.3,6-2.8c0.4-0.1,1.1-0.2,2-0.2c2.1,0,4.2,0.6,6.1,1.7s3.3,2.6,4.3,4.6c2.4,4.6,7.2,8.5,14.2,11.8
		c7.1,3.2,14.9,4.8,23.5,4.8c10,0,18.5-2,25.5-6.1c7-4.1,10.4-9.6,10.4-16.7c0-6.8-3-12.5-8.8-17.3c-5.9-4.8-14.8-7.7-26.8-8.8
		c-16.6-1.4-29.6-5.7-39.2-12.9c-9.5-7.2-14.2-16.1-14.2-26.9c0-7.6,2.5-14.1,7.4-19.6c4.9-5.5,11.6-9.7,20.1-12.6
		c8.5-2.9,18-4.3,28.6-4.3C488,246.6,497.7,248.7,505.6,252.8z"/>
	<path fill="#FFFFFF" d="M643.6,252.8c7.9,4.1,14.6,10.1,20.1,17.8c1.6,2.3,2.4,4.4,2.4,6.4c0,2.6-1.3,4.7-4,6.4
		c-1.4,0.8-3.2,1.3-5.3,1.3c-2,0-3.9-0.4-5.6-1.4c-1.7-0.8-3.1-2.1-4-3.6c-3.6-5.3-8.1-9.4-13.6-12.2c-5.4-2.8-12.2-4.1-20.5-4.1
		c-10.1,0-18.4,1.8-24.6,5.2c-6.3,3.5-9.5,8.5-9.5,15.2c0,6.2,2.8,11.3,8.4,15.5c5.6,4.1,15.7,6.8,30.1,8.2
		c16,1.4,28.5,5.7,37.3,12.9c8.8,7.2,13.3,16.6,13.3,28.3c0,8.5-2.6,15.8-7.8,21.9c-5.3,6.1-12.1,10.7-20.7,13.7
		c-8.6,3-17.9,4.6-27.8,4.6c-13,0-24.7-2.6-35.4-7.8c-10.6-5.2-18-12-22-20.5c-0.7-1.4-1-2.6-1-3.6c0-1.8,0.8-3.4,2.2-4.7
		s3.4-2.3,6-2.8c0.4-0.1,1.1-0.2,2-0.2c2.1,0,4.2,0.6,6.1,1.7s3.3,2.6,4.3,4.6c2.4,4.6,7.2,8.5,14.2,11.8s14.9,4.8,23.5,4.8
		c10,0,18.5-2,25.5-6.1c7-4.1,10.4-9.6,10.4-16.7c0-6.8-3-12.5-8.8-17.3c-5.9-4.8-14.8-7.7-26.8-8.8c-16.6-1.4-29.6-5.7-39.2-12.9
		c-9.5-7.2-14.2-16.1-14.2-26.9c0-7.6,2.5-14.1,7.4-19.6c4.9-5.5,11.6-9.7,20.1-12.6c8.5-2.9,18-4.3,28.6-4.3
		C626,246.6,635.7,248.7,643.6,252.8z"/>
	<path fill="#FFFFFF" d="M818.1,377.8c0,2.5-1.1,4.6-3.1,6.4s-4.5,2.7-7.4,2.7c-2,0-3.9-0.5-5.7-1.5s-3.2-2.4-3.9-4.1l-11.3-24.9
		h-72l-11.5,24.9c-1,1.8-2.3,3.1-4,4.1c-1.7,1-3.6,1.5-5.6,1.5c-3,0-5.3-0.9-7.4-2.8c-1.9-1.9-2.9-4-2.9-6.5c0-1.2,0.3-2.5,1-4.1
		l56.3-119.1c2-4.1,5.3-6.2,9.8-6.2c4.8,0,8.1,2.1,9.8,6.2l56.5,119.5C817.7,375.4,818.1,376.7,818.1,377.8z M779.8,341l-28.6-63.2
		L721.8,341H779.8z"/>
	<path fill="#FFFFFF" d="M935.6,250.7c1.6,1.7,2.5,3.6,2.5,6c0,2-0.7,4-2,5.8l-54,73.7v41.3c0,2.6-1,4.8-3,6.6
		c-2,1.8-4.5,2.7-7.4,2.7c-2.8,0-5.3-0.8-7.3-2.7c-2-1.8-3.1-4-3.1-6.6v-41.3l-53.4-73.6c-1.4-2-2.2-3.9-2.2-5.7
		c0-2.5,1.1-4.6,3.2-6.2c2.1-1.7,4.5-2.5,7.4-2.5c2.1,0,3.9,0.4,5.3,1.3s2.7,2.1,4,3.9l46.9,65.9l47.7-66.6c2.1-3,5.3-4.4,9.3-4.4
		C931.9,248.2,934,249,935.6,250.7z"/>
</g>
</svg>
