<?xml version="1.0" encoding="utf-8"?><svg width="94" height="90" viewBox="0 0 94 90" xmlns="http://www.w3.org/2000/svg" xmlns:xlink="http://www.w3.org/1999/xlink"><svg height="32" viewBox="0 0 48 48" width="32" id="arrow_down" xmlns="http://www.w3.org/2000/svg">
    <path d="M14.83 16.42L24 25.59l9.17-9.17L36 19.25l-12 12-12-12z"/>
    <path d="M0-.75h48v48H0z" fill="none"/>
</svg><svg height="32" viewBox="0 0 48 48" width="32" id="arrow_down_blue" x="32" xmlns="http://www.w3.org/2000/svg">
    <g fill="#409de4">
        <path d="M14.83 16.42L24 25.59l9.17-9.17L36 19.25l-12 12-12-12z"/>
        <path d="M0-.75h48v48H0z" fill="none"/>
    </g>
</svg><svg width="20" height="19" viewBox="0 0 20 19" id="calendar-icon" x="62" y="58" xmlns="http://www.w3.org/2000/svg">
    <defs>
        <path id="ca" d="M932 1302v15h-17v-15h3v-1h3v1h5v-1h3v1zm-1 5h-15v9h15zm0-1v-3h-15v3zm-13 2h3v3h-3zm4 0h3v3h-3zm4 0h3v3h-3zm-8 4h3v3h-3zm4 0h3v3h-3zm4 0h3v3h-3z"/>
    </defs>
    <use fill="#409de4" xlink:href="#ca" transform="translate(-913 -1299)"/>
</svg><svg width="32" height="26" viewBox="0 0 160.7 131.5" id="checkpoint" y="32" xmlns="http://www.w3.org/2000/svg">
    <path fill="#82CB87" d="M136.5 0L46.2 90.3l-22.1-22L0 92.4l34.1 34.1c3.3 3.3 7.7 5 12.1 5s8.7-1.7 12.1-5L160.7 24.1 136.5 0z"/>
</svg><svg width="30" height="32" viewBox="0 0 34 36" id="contact-img" x="64" xmlns="http://www.w3.org/2000/svg">
    <defs>
        <path id="ea" d="M929 60c0 4.27-1.66 8.3-4.69 11.31A15.9 15.9 0 0 1 913 76a15.9 15.9 0 0 1-11.31-4.69A15.9 15.9 0 0 1 897 60c0-4.27 1.66-8.3 4.69-11.31a15.9 15.9 0 0 1 12.5-4.65l-.14 1.98A14.04 14.04 0 0 0 898.98 60c0 7.73 6.29 14.02 14.02 14.02a14.04 14.04 0 0 0 6.73-26.32v5.51h-1.98v-8.06h8.02v1.98h-3.27A16.04 16.04 0 0 1 929 60zm-21.06-1.35c0 .62-.48 1.32-1.13 2.02l-1.6 1.7h3v.94h-4.38v-.76l2.28-2.44c.44-.46.74-.96.74-1.31 0-.5-.38-.8-1.03-.8-.53 0-1.16.3-1.68.78l-.41-.8a3.6 3.6 0 0 1 2.24-.88c1.17 0 1.97.6 1.97 1.55zm3.88 2.22V59.4h.96v1.46h.9v.92h-.9v1.52h-.96v-1.52h-2.94v-.77l2.1-3.88h1l-2 3.73zm1.88 3.47l2.79-8.22h.86l-2.79 8.22zm5.45-1.03h-1.1l2.4-5.23h-2.4l-.01.86h-.92v-1.8h4.48v.8z"/>
    </defs>
    <use fill="#fff" xlink:href="#ea" transform="translate(-896 -42)"/>
</svg><svg width="30" height="32" viewBox="0 0 34 36" id="contact-img-dark" y="58" xmlns="http://www.w3.org/2000/svg">
    <defs>
        <path id="fa" d="M929 45c0 4.27-1.66 8.3-4.69 11.31A15.9 15.9 0 0 1 913 61a15.9 15.9 0 0 1-11.31-4.69A15.9 15.9 0 0 1 897 45c0-4.27 1.66-8.3 4.69-11.31a15.9 15.9 0 0 1 12.5-4.65l-.14 1.98A14.04 14.04 0 0 0 898.98 45c0 7.73 6.29 14.02 14.02 14.02a14.04 14.04 0 0 0 6.73-26.32v5.51h-1.98v-8.06h8.02v1.98h-3.27A16.04 16.04 0 0 1 929 45zm-21.06-1.35c0 .62-.48 1.32-1.13 2.02l-1.6 1.7h3v.94h-4.38v-.76l2.28-2.44c.44-.46.74-.96.74-1.31 0-.5-.38-.8-1.03-.8-.53 0-1.16.3-1.68.78l-.41-.8a3.6 3.6 0 0 1 2.24-.88c1.17 0 1.97.6 1.97 1.55zm3.88 2.22V44.4h.96v1.46h.9v.92h-.9v1.52h-.96v-1.52h-2.94v-.77l2.1-3.88h1l-2 3.73zm1.88 3.47l2.79-8.22h.86l-2.79 8.22zm5.45-1.03h-1.1l2.4-5.23h-2.4l-.01.86h-.92v-1.8h4.48v.8z"/>
    </defs>
    <use fill="#363a43" xlink:href="#fa" transform="translate(-896 -27)"/>
</svg><svg width="22" height="22" viewBox="0 0 22 22" id="gear" x="32" y="32" xmlns="http://www.w3.org/2000/svg">
    <title/>
    <circle fill="none" stroke="#4e75f3" stroke-width="2" stroke-linecap="round" stroke-linejoin="round" cx="11" cy="11" r="7"/>
    <path fill="#4e75f3" d="M9 4V1c0-.6.4-1 1-1h2c.6 0 1 .4 1 1v3"/>
    <path fill="#4e75f3" d="M13 18v3c0 .6-.4 1-1 1h-2c-.6 0-1-.4-1-1v-3"/>
    <path fill="#4e75f3" d="M4.6 7.5L2.5 5.3c-.4-.4-.4-1 0-1.4l1.4-1.4c.4-.4 1-.4 1.4 0l2.1 2.1"/>
    <path fill="#4e75f3" d="M17.4 14.5l2.1 2.1c.4.4.4 1 0 1.4l-1.4 1.4c-.4.4-1 .4-1.4 0l-2.1-2.1"/>
    <path fill="#4e75f3" d="M4 13H1c-.6 0-1-.4-1-1v-2c0-.6.4-1 1-1h3"/>
    <path fill="#4e75f3" d="M18 9h3c.6 0 1 .4 1 1v2c0 .6-.4 1-1 1h-3"/>
    <path fill="#4e75f3" d="M7.5 17.4l-2.1 2.1c-.4.4-1 .4-1.4 0l-1.4-1.4c-.4-.4-.4-1 0-1.4l2.1-2.1"/>
    <path fill="#4e75f3" d="M14.5 4.6l2.1-2.1c.4-.4 1-.4 1.4 0l1.4 1.4c.4.4.4 1 0 1.4l-2.1 2.1"/>
    <path fill="none" stroke="#4e75f3" stroke-miterlimit="10" d="M15.5 6v10"/>
</svg><svg height="32" viewBox="0 0 64 64" width="32" id="mouse" x="30" y="58" xmlns="http://www.w3.org/2000/svg">
    <g fill="none" stroke="#4D4D4D" stroke-miterlimit="10">
        <path d="M32 29.1H15.1v15c0 8.3 6.7 15 15 15h3.8c8.3 0 15-6.7 15-15v-15H32z" stroke-width="2"/>
        <path d="M45.9 43.1c0 6.6-5.4 12-12 12" stroke-linecap="round"/>
        <path d="M33.9 10.9H32v2.8c1.3 0 2.4 1.1 2.4 2.4v5.5c0 1.3-1.1 2.4-2.4 2.4v5h16.9v-3.2c0-8.2-6.7-14.9-15-14.9zm-4.3 10.8v-5.5c0-1.3 1.1-2.4 2.4-2.4V11h-1.9c-8.3 0-15 6.7-15 15v3.2H32v-5c-1.3-.1-2.4-1.2-2.4-2.5z" stroke-width="2"/>
        <path stroke-linecap="round" d="M32 10.9v-6"/>
    </g>
</svg><svg baseProfile="tiny" height="24" version="1.2" viewBox="0 0 24 24" width="24" id="plus" x="64" y="32" xmlns="http://www.w3.org/2000/svg">
    <path d="M18 10h-4V6a2 2 0 0 0-4 0l.071 4H6a2 2 0 0 0 0 4l4.071-.071L10 18a2 2 0 0 0 4 0v-4.071L18 14a2 2 0 0 0 0-4z" fill="#82CB87"/>
</svg></svg>