<svg width="0" height="0" style="position:absolute"><symbol viewBox="0 0 512.009 512.009" id="init_draft" xmlns="http://www.w3.org/2000/svg">
    <path d="M170.667 384.005c-17.673 0-32 14.327-32 32 0 17.673 14.327 32 32 32 17.673 0 32-14.327 32-32 0-17.673-14.327-32-32-32zm0 42.666c-5.891 0-10.667-4.776-10.667-10.667s4.776-10.667 10.667-10.667 10.667 4.776 10.667 10.667c-.001 5.892-4.776 10.667-10.667 10.667z"/>
    <path d="M99.121 472.457l53.329-53.33 15.084 15.085-53.328 53.33z"/>
    <path d="M243.733 373.114l-30.176-30.176a10.665 10.665 0 0 0-9.184-2.997l-78.016 12.192a10.666 10.666 0 0 0-8.256 6.581L75.435 465.381a10.669 10.669 0 0 0 2.357 11.499l32 32c2 2.001 4.713 3.125 7.541 3.125a10.738 10.738 0 0 0 3.968-.757l106.667-42.667a10.667 10.667 0 0 0 6.571-8.267l12.192-78.005a10.669 10.669 0 0 0-2.998-9.195zm-29.322 77.909l-94.507 37.792-22.048-22.048 37.792-94.496 66.667-10.411 22.507 22.507-10.411 66.656z"/>
    <path d="M503.659 86.328c-12.31-14.129-33.743-15.604-47.872-3.294-51.808 45.355-222.389 194.848-242.208 214.656a56.693 56.693 0 0 0-17.653 56.171l20.267-6.592a36.202 36.202 0 0 1 12.459-34.496c15.371-15.371 134.656-120.459 241.152-213.675a12.596 12.596 0 0 1 16.593-.005c5.237 4.58 5.769 12.539 1.188 17.776-32.117 36.736-193.632 221.12-213.653 241.216a36.184 36.184 0 0 1-34.496 12.459l-6.592 20.267a43.36 43.36 0 0 0 12.8 1.728 60.53 60.53 0 0 0 43.349-19.424c20-20.043 169.344-190.443 214.667-242.208 11.129-12.776 11.129-31.804-.001-44.579z"/>
    <path d="M74.667 298.673v-.002C33.451 298.724.053 332.123 0 373.338v64c.053 41.215 33.451 74.614 74.667 74.667v-21.333c-29.441-.035-53.298-23.893-53.333-53.333v-64c.035-29.441 23.893-53.298 53.333-53.333h106.667v-21.333H74.667z"/>
    <path d="M256 74.671V.005h-21.333v74.667c.059 52.995 43.005 95.941 96 96v-21.333c-41.216-.054-74.614-33.452-74.667-74.668z"/>
    <path d="M487.616 174.938l-15.232 14.933a64.002 64.002 0 0 1 18.295 44.812c-.007 35.346-28.666 63.995-64.012 63.988h-53.333v21.333h53.333a85.336 85.336 0 0 0 59.742-24.393c33.657-32.989 34.197-87.017 1.207-120.673z"/>
    <path d="M74.667 256.006a116.366 116.366 0 0 0-70.4 23.466l12.8 17.067a95.082 95.082 0 0 1 57.6-19.2h10.667v-21.333H74.667z"/>
    <path d="M106.67 256h21.333v21.333H106.67z"/>
    <path d="M149.33 256h21.333v21.333H149.33z"/>
    <path d="M494.933 322.138a95.11 95.11 0 0 1-57.6 19.2H384v21.333h53.333a116.351 116.351 0 0 0 70.4-23.467l-12.8-17.066z"/>
    <path d="M341.33 341.34h21.333v21.333H341.33z"/>
    <path d="M213.333 74.671H192c.088 76.547 62.12 138.578 138.667 138.667v-21.333c-64.77-.077-117.257-52.564-117.334-117.334z"/>
    <path d="M192 32.01h21.333v21.333H192z"/>
    <path d="M277.33.005h21.333v21.333H277.33z"/>
    <path d="M277.33 42.671h21.333v21.333H277.33z"/>
</symbol><symbol viewBox="0 0 405.3 512" id="one_page_sum" xmlns="http://www.w3.org/2000/svg">
    <path d="M64 64h106.7v21.3H64z"/>
    <path d="M64 106.7h21.3V128H64z"/>
    <path d="M106.7 106.7H128V128h-21.3z"/>
    <path d="M402.2 88.5L316.9 3.1c-2-2-4.7-3.1-7.5-3.1H32C14.3 0 0 14.3 0 32v448c0 17.7 14.3 32 32 32h341.3c17.7 0 32-14.3 32-32V96c0-2.8-1.1-5.5-3.1-7.5zM384 480c0 5.9-4.8 10.7-10.7 10.7H32c-5.9 0-10.7-4.8-10.7-10.7V32c0-5.9 4.8-10.7 10.7-10.7h272.9l79.1 79.1V480z"/>
    <path d="M330.7 85.3c-5.9 0-10.7-4.8-10.7-10.7v-64h-21.3v64c0 17.7 14.3 32 32 32H352V85.3h-21.3z"/>
    <path d="M288 234.7h42.7V256H288z"/>
    <path d="M330.7 181.3H288c-5.9 0-10.7 4.8-10.7 10.7v213.3c0 2.8 1.1 5.5 3.1 7.5l21.3 21.3c2 2 4.7 3.1 7.5 3.1s5.5-1.1 7.5-3.1l21.3-21.3c2-2 3.1-4.7 3.1-7.5V192c.2-5.9-4.5-10.7-10.4-10.7zM320 400.9l-10.7 10.7-10.7-10.7V202.7H320v198.2z"/>
    <path d="M245.3 202.7v-21.3H74.7c-5.9 0-10.7 4.8-10.7 10.7v64c0 17.7 14.3 32 32 32h149.3v-21.3H96c-5.9 0-10.7-4.8-10.7-10.7v-53.3l160-.1z"/>
    <path d="M138.7 320h106.7v21.3H138.7z"/>
    <path d="M64 362.7h181.3V384H64z"/>
    <path d="M224 405.3h21.3v21.3H224z"/>
    <path d="M181.3 405.3h21.3v21.3h-21.3z"/>
</symbol><symbol viewBox="0 0 512 512" id="plag_report" xmlns="http://www.w3.org/2000/svg">
    <path d="M223.999 0H74.665c-.57 0-1.133.058-1.689.147-.122.019-.245.031-.366.055-.162.032-.32.078-.479.117-.18.044-.361.082-.539.136-.116.035-.228.081-.343.12-.216.073-.433.144-.645.231-.087.036-.169.08-.255.118-.233.103-.465.206-.691.327-.081.043-.157.095-.237.14-.222.126-.445.252-.659.395-.117.078-.226.167-.339.249-.169.123-.341.24-.505.374-.275.225-.54.464-.793.717l-64 64c-2 2-3.125 4.713-3.125 7.541v256c0 17.673 14.327 32 32 32h96v-21.333H31.998c-5.891 0-10.667-4.776-10.667-10.667V79.083l42.667-42.667V64H42.665v21.333h32c5.891 0 10.667-4.776 10.667-10.667V21.334h138.666c5.891 0 10.667 4.776 10.667 10.667v117.333h21.333V32c.001-17.673-14.326-32-31.999-32z"/>
    <path d="M415.999 0c-53.019 0-96 42.981-96 96s42.981 96 96 96a95.394 95.394 0 0 0 67.883-28.117A96 96 0 0 0 512 96c-.001-53.02-42.982-96-96.001-96zm73.924 85.334c.509 3.529.766 7.094.768 10.667h-59.609l-4.416-4.416v-6.251h63.257zm-63.258-63.243A74.679 74.679 0 0 1 454.476 32h-27.811v-9.909zm0 31.243h50.634a74.152 74.152 0 0 1 6.186 10.667h-56.82V53.334zm.091 116.545c-40.811 5.916-78.69-22.372-84.606-63.182s22.372-78.69 63.182-84.606V96a10.67 10.67 0 0 0 3.125 7.541l52.267 52.267a74.666 74.666 0 0 1-33.968 14.071zM483.49 128h-20.408l-10.667-10.667h35.177A74.15 74.15 0 0 1 483.49 128z"/>
    <path d="M466.194 248.445c-4.167-4.149-10.909-4.146-15.069.014l-42.667 42.667 15.083 15.083 24.458-24.459v129.835l-32 32-29.792-29.792c-4.165-4.164-10.917-4.164-15.083 0l-44.875 44.875h-27.584V404.29a10.667 10.667 0 0 1 6.4-9.685 117.337 117.337 0 0 0 57.515-57.515c27.099-58.863 1.349-128.549-57.515-155.648-58.863-27.099-128.549-1.349-155.648 57.515s-1.349 128.549 57.515 155.648a10.666 10.666 0 0 1 6.4 9.664v54.4h-53.333c-29.441-.035-53.298-23.893-53.333-53.333V384H85.332v21.333c.053 41.216 33.452 74.615 74.667 74.667h53.333c0 17.673 14.327 32 32 32h21.333c17.673 0 32-14.327 32-32h32a10.67 10.67 0 0 0 7.541-3.125l40.459-40.459 29.792 29.792c4.165 4.164 10.917 4.164 15.083 0l42.667-42.667c2.001-2 3.125-4.713 3.125-7.541V281.753l24.445 24.445 15.085-15.085-42.668-42.668zM266.665 490.667h-21.333c-5.891 0-10.667-4.776-10.667-10.667h42.667c0 5.891-4.775 10.667-10.667 10.667zm10.668-32h-42.667V448h42.667v10.667zm18.793-83.456a32.16 32.16 0 0 0-18.795 29.056v22.4h-10.667V309.334h21.335c17.673 0 32-14.327 32-32v-10.667h-21.333v10.667c0 5.891-4.776 10.667-10.667 10.667h-64c-5.891 0-10.667-4.776-10.667-10.667v-10.667h-21.333v10.667c0 17.673 14.327 32 32 32h21.333v117.333h-10.667v-22.4a32.118 32.118 0 0 0-18.773-29.024 95.993 95.993 0 0 1-23.802-15.605c-39.541-35.321-42.962-96.009-7.641-135.549 35.321-39.541 96.009-42.962 135.549-7.641a95.992 95.992 0 0 1 23.208 31.423c22.162 48.165 1.084 105.177-47.08 127.34z"/>
    <path d="M42.665 298.67h21.333v21.333H42.665z"/>
    <path d="M85.329 298.67h21.333v21.333H85.329z"/>
    <path d="M42.665 256h21.333v21.333H42.665z"/>
    <path d="M42.665 106.67h42.667v21.333H42.665z"/>
    <path d="M42.665 149.33h85.33v21.333h-85.33z"/>
</symbol><symbol viewBox="0 0 512 512" id="sms_notification" xmlns="http://www.w3.org/2000/svg">
    <path d="M480 117.333h-53.333v21.333H480c5.891 0 10.667 4.776 10.667 10.667v256c0 5.891-4.776 10.667-10.667 10.667H330.667a10.67 10.67 0 0 0-7.541 3.125l-24.459 24.459v-16.917c0-5.891-4.776-10.667-10.667-10.667H138.667c-5.891 0-10.667-4.776-10.667-10.667v-32h-21.333v32c0 17.673 14.327 32 32 32h138.667v32c0 5.891 4.776 10.667 10.667 10.667a10.67 10.67 0 0 0 7.541-3.125l39.541-39.541H480c17.673 0 32-14.327 32-32v-256c0-17.674-14.327-32.001-32-32.001z"/>
    <path d="M373.333 32H32C14.327 32 0 46.327 0 64v256c0 17.673 14.327 32 32 32h149.333v32c0 5.891 4.776 10.667 10.667 10.667a10.67 10.67 0 0 0 7.541-3.125L239.083 352h134.251c17.673 0 32-14.327 32-32V64c-.001-17.673-14.328-32-32.001-32zM384 320c0 5.891-4.776 10.667-10.667 10.667H234.667a10.67 10.67 0 0 0-7.541 3.125l-24.459 24.459v-16.917c0-5.891-4.776-10.667-10.667-10.667H32c-5.891 0-10.667-4.776-10.667-10.667V64c0-5.891 4.776-10.667 10.667-10.667h341.333C379.224 53.333 384 58.109 384 64v256z"/>
    <path d="M53.333 117.333h117.333v21.333H53.333z"/>
    <path d="M53.333 181.333H352v21.333H53.333z"/>
    <path d="M53.333 245.333H352v21.333H53.333z"/>
    <path d="M330.667 117.333H352v21.333h-21.333z"/>
    <path d="M288 117.333h21.333v21.333H288z"/>
</symbol><symbol viewBox="0 0 511.999 511.999" id="top_writer" xmlns="http://www.w3.org/2000/svg">
    <path d="M75.241 303.631H41.448c-5.769 0-10.447 4.677-10.447 10.447s4.678 10.447 10.447 10.447h33.793c5.769 0 10.447-4.677 10.447-10.447s-4.678-10.447-10.447-10.447z"/>
    <path d="M75.241 329.489H41.448c-5.769 0-10.447 4.677-10.447 10.447s4.678 10.447 10.447 10.447h33.793c5.769 0 10.447-4.677 10.447-10.447s-4.678-10.447-10.447-10.447z"/>
    <path d="M75.241 355.347H41.448c-5.769 0-10.447 4.677-10.447 10.447s4.678 10.447 10.447 10.447h33.793c5.769 0 10.447-4.677 10.447-10.447 0-5.769-4.678-10.447-10.447-10.447z"/>
    <path d="M156.239 303.631h-11.402c-5.769 0-10.447 4.677-10.447 10.447s4.678 10.447 10.447 10.447h11.402c5.769 0 10.447-4.677 10.447-10.447s-4.678-10.447-10.447-10.447z"/>
    <path d="M145.617 329.489h-.78c-5.769 0-10.447 4.677-10.447 10.447s4.678 10.447 10.447 10.447h.78c5.769 0 10.447-4.677 10.447-10.447s-4.678-10.447-10.447-10.447z"/>
    <path d="M10.584 478.781h-.137C4.678 478.781 0 483.459 0 489.229c0 5.77 4.678 10.447 10.447 10.447h.137c5.769 0 10.447-4.677 10.447-10.447s-4.678-10.448-10.447-10.448z"/>
    <path d="M501.471 478.773h-.137c-5.769 0-10.447 4.677-10.447 10.447s4.678 10.447 10.447 10.447h.137c5.769 0 10.447-4.677 10.447-10.447.001-5.77-4.678-10.447-10.447-10.447z"/>
    <path d="M266.212 249.052h-20.418c-5.769 0-10.447 4.677-10.447 10.447 0 11.39 9.267 20.656 20.656 20.656 11.39 0 20.655-9.266 20.656-20.656.001-5.77-4.678-10.447-10.447-10.447z"/>
    <path d="M284 433.85h-.137c-5.769 0-10.447 4.677-10.447 10.447s4.678 10.447 10.447 10.447H284c5.769 0 10.447-4.677 10.447-10.447S289.769 433.85 284 433.85z"/>
    <path d="M217.859 199.83c-6.439 0-11.677 5.238-11.677 11.678 0 6.439 5.238 11.677 11.677 11.677s11.678-5.238 11.678-11.677c0-6.44-5.239-11.678-11.678-11.678z"/>
    <path d="M294.061 199.83c-6.439 0-11.678 5.238-11.678 11.678 0 6.439 5.239 11.677 11.678 11.677 6.439 0 11.677-5.238 11.677-11.677 0-6.44-5.239-11.678-11.677-11.678z"/>
    <path d="M500.971 284.652c13.298-30.146 14.615-63.466 3.708-93.825a10.449 10.449 0 0 0-13.852-6.111c-29.776 12.414-53.498 35.852-66.796 65.998-12.802 29.021-14.494 60.984-4.871 90.415-3.458 13.021-6.294 26.987-8.075 41.715h-8.075c-5.407-9.95-13.679-17.731-23.325-21.75l-67.237-28.014a6.38 6.38 0 0 1-3.936-5.904v-16.269l27.309-15.658c.19-.109.377-.225.56-.346 13.673-9.031 22.652-25.089 24.017-42.958.021-.264.03-9.469.03-9.469 13.567-4.413 23.401-17.18 23.401-32.2s-9.834-27.787-23.401-32.2v-3.404c.746.019 1.492.039 2.242.039 9.381 0 19.01-1.44 28.466-4.371a10.448 10.448 0 0 0 .148-19.912c-25.136-8.202-29.14-13.933-32.248-29.733 6.921-6.577 20.602-10.146 37.835-3.824a10.447 10.447 0 0 0 12.889-14.587c-14.553-28.298-37.487-36.026-54.164-37.527-6.815-.612-13.127-.232-18.333.474.507-2.762 1.454-5.491 3.125-7.524.821-.999 3.318-4.036 11.056-4.16a10.447 10.447 0 0 0 6.185-18.739c-15.605-11.955-41.173-15.597-60.791-8.666-7.941 2.806-14.478 7.175-19.316 12.794-13.048-14.029-28.115-22.592-44.951-25.516-33.858-5.877-61.98 13.714-63.159 14.552a10.443 10.443 0 0 0-3.96 11.507 10.443 10.443 0 0 0 4.618 5.959c-15.479 4.523-27.809 11.991-36.855 22.356-12.458 14.276-13.594 28.663-13.683 30.256a10.448 10.448 0 0 0 14.912 10.016c5.434-2.58 16.395-6.337 25.799-6.8-8.875 12.237-26.121 22.043-48.039 20.666a10.448 10.448 0 0 0-9.506 15.987c10.23 16.275 27.615 26.182 48.784 28.49v11.665c-13.567 4.413-23.401 17.18-23.401 32.2 0 15.02 9.834 27.787 23.401 32.2 0 0 .01 9.205.03 9.469 1.372 17.942 10.287 34.001 23.849 42.958.187.123.377.24.573.352l27.465 15.701v16.219a6.38 6.38 0 0 1-3.936 5.904l-67.237 28.016a43.582 43.582 0 0 0-8.991 5.104V294.98h15.293c5.769 0 10.447-4.677 10.447-10.447s-4.678-10.447-10.447-10.447H10.499c-5.769 0-10.447 4.677-10.447 10.447v136.461c0 5.77 4.678 10.447 10.447 10.447h91.846v47.333H44.383c-5.77 0-10.447 4.678-10.447 10.447 0 5.769 4.678 10.447 10.447 10.447h415.299c14.996 0 27.197-12.2 27.197-27.198v-32.453c0-14.315-11.116-26.082-25.17-27.122v-19.603c0-5.77-4.678-10.447-10.447-10.447h-19.109c1.573-11.987 3.91-23.457 6.724-34.278 27.567-12.852 49.505-35.374 62.094-63.915zM102.345 410.547H20.946v-4.919h64.425c5.769 0 10.447-4.677 10.447-10.447s-4.678-10.447-10.447-10.447H20.946V294.981h81.399v115.566zm33.565-269.87c25.994-6.346 44.034-24.948 49.777-44.141a10.445 10.445 0 0 0-5.418-12.379c-9.701-4.746-21.32-4.416-31.384-2.51 8.737-9.997 26.406-20.498 62.078-20.498a10.446 10.446 0 0 0 8.695-16.237c-2.991-4.493-7.167-7.916-11.77-10.525a65.045 65.045 0 0 1 4.871-.757c22.632-2.637 42.15 7.511 57.988 30.161a10.448 10.448 0 0 0 18.715-3.526c1.644-6.787 6.469-11.637 14.339-14.417 6.275-2.217 13.729-2.796 20.896-1.935-.153.178-.302.354-.446.53-11.263 13.7-8.103 33.427-7.705 35.631a10.443 10.443 0 0 0 5.048 7.188 10.456 10.456 0 0 0 8.749.796c.103-.038 10.607-3.635 23.383-2.484 7.998.72 15.063 3.132 21.153 7.21-16.31 1.243-28.874 9.156-35.642 19.121a10.45 10.45 0 0 0-1.648 7.674c2.56 14.614 6.026 25.086 14.539 33.461-8.395-1.326-16.176-4.274-22.734-8.779-9.982-6.857-15.871-16.509-16.582-27.18a10.446 10.446 0 0 0-10.431-9.754c-4.462 0-8.5 2.86-9.92 7.193-3.762 11.473-15.358 27.198-34.19 34.096 7.55-20.944 4.927-42.552 4.769-43.769a10.448 10.448 0 0 0-17.831-5.971c-11.172 11.416-45.616 41.94-70.5 46.03-17.704 2.908-30.182.158-38.799-4.229zm162.287 28.719c-20.59 0-37.86 14.436-42.252 33.715-4.391-19.278-21.661-33.715-42.251-33.715-13.197 0-25.027 5.936-32.983 15.269l-8.33-4.212v-14.148c1.89-.21 3.797-.467 5.721-.784 22.23-3.654 46.917-21.243 63.361-34.986-1.476 8.619-4.598 18-10.952 24.967a10.449 10.449 0 0 0 7.718 17.487c26.399 0 48.185-12.988 61.709-29.696 4.301 6.945 10.238 13.112 17.626 18.187 6.595 4.53 14.031 7.911 21.973 10.125v8.898l-8.274 4.259c-7.956-9.39-19.823-15.366-33.066-15.366zm22.447 43.341c0 12.378-10.07 22.448-22.447 22.448-12.377 0-22.448-10.07-22.448-22.448s10.071-22.447 22.448-22.447 22.447 10.07 22.447 22.447zm-84.503 0c0 12.378-10.07 22.448-22.447 22.448s-22.448-10.07-22.448-22.448 10.071-22.447 22.448-22.447 22.447 10.07 22.447 22.447zm-49.516 64.559c-7.984-5.405-13.283-15.291-14.244-26.568v-17.051c0-5.77-4.678-10.447-10.447-10.447-7.143 0-12.954-5.812-12.954-12.954 0-6.42 4.699-11.749 10.836-12.766l11.568 5.85a43.246 43.246 0 0 0-1.033 9.375c0 23.899 19.443 43.343 43.343 43.343 20.59 0 37.86-14.436 42.251-33.715 4.392 19.279 21.663 33.715 42.252 33.715 23.899 0 43.342-19.443 43.342-43.343 0-3.174-.352-6.265-1.003-9.247l11.604-5.973c6.119 1.031 10.8 6.352 10.8 12.759 0 7.143-5.812 12.954-12.954 12.954-5.769 0-10.447 4.677-10.447 10.447v17.049c-.949 11.047-6.442 21.172-14.417 26.573 0 0-56.47 32.387-56.653 32.508-7.833 5.172-17.183 5.172-25.016 0-.187-.12-56.828-32.509-56.828-32.509zm100.996 45.593v41.815c0 17.378-14.18 31.516-31.61 31.516-17.486 0-31.712-14.138-31.712-31.516v-41.803l7.939 4.538c7.333 4.763 15.528 7.144 23.724 7.144 8.198 0 16.395-2.383 23.73-7.148l7.929-4.546zm30.177 131.855h31.888v17.726c0 2.17.263 4.278.745 6.303H123.24v-70.641c0-11.775 7.32-23.706 17.028-27.751l63.136-26.306v10.628c0 28.899 23.599 52.411 52.606 52.411 28.952 0 52.505-23.512 52.505-52.411v-10.628l63.136 26.306c2.577 1.074 4.994 2.692 7.162 4.738a10.418 10.418 0 0 0-3.95 8.173v19.603c-11.973.884-21.809 9.556-24.464 20.954h-32.601c-5.769 0-10.447 4.677-10.447 10.447s4.678 10.448 10.447 10.448zm123.016-51.005v19.528c0 5.77 4.678 10.447 10.447 10.447h8.419a6.31 6.31 0 0 1 6.303 6.303v32.453a6.31 6.31 0 0 1-6.303 6.303H376.884a6.31 6.31 0 0 1-6.303-6.303v-32.453a6.31 6.31 0 0 1 6.303-6.303H410.629c5.769 0 10.447-4.677 10.447-10.447s-4.678-10.447-10.447-10.447h-14.873v-9.081h45.058zm47.523-194.621c9.62 41.002-6.854 84.591-40.03 109.533 14.762-39.827 33.124-65.4 33.538-65.971 3.409-4.653 2.401-11.189-2.251-14.6-4.652-3.411-11.191-2.405-14.603 2.249-1.102 1.503-16.526 22.837-30.9 57.102 1.779-36.046 21.965-70.28 54.246-88.313z"/>
    <path d="M173.562 408.784h-.137c-5.769 0-10.447 4.677-10.447 10.447s4.678 10.447 10.447 10.447h.137c5.769 0 10.447-4.677 10.447-10.447s-4.678-10.447-10.447-10.447z"/>
    <path d="M191.548 443.252h-.137c-5.769 0-10.447 4.677-10.447 10.447s4.678 10.447 10.447 10.447h.137c5.769 0 10.447-4.677 10.447-10.447.001-5.77-4.678-10.447-10.447-10.447z"/>
</symbol></svg>