<svg width="0" height="0" style="position:absolute"><symbol viewBox="0 0 1870 797" id="hero_bg_1" xmlns="http://www.w3.org/2000/svg">
    <path fill="#5077F6" d="M-286.6 716.9l2074.7-396.3L407.4-1277.9l-694 1994.8z"/>
</symbol><symbol viewBox="0 0 1174 1139" id="hero_bg_2" xmlns="http://www.w3.org/2000/svg">
    <path fill="#5077F6" d="M1316.2 1058.1L42.8 307.2l1287-727.3-13.6 1478.2z"/>
</symbol><symbol viewBox="0 0 1968 439" id="hero_how_bg_1" xmlns="http://www.w3.org/2000/svg">
    <path fill="#5077F6" d="M1968 0L0 24.4 289 439 1968 0z"/>
</symbol><symbol viewBox="0 0 661.9 449.2" id="hero_how_bg_2" xmlns="http://www.w3.org/2000/svg">
    <path fill="#5077F6" d="M661.9 0L0 228.7l655.4 220.5L661.9 0z"/>
</symbol><symbol viewBox="0 0 1920 512" id="hero_how_bg_3" xmlns="http://www.w3.org/2000/svg">
    <path fill="#5077F6" d="M1927 36L-41 58l289 374L1927 36z"/>
</symbol><symbol viewBox="0 0 1920 329" id="hero_price_bg_1" xmlns="http://www.w3.org/2000/svg">
    <path fill="#5077F6" d="M1974 68L-111 43l217 206L1974 68z"/>
</symbol><symbol viewBox="0 0 1922.6 414.2" id="hero_price_bg_2" xmlns="http://www.w3.org/2000/svg">
    <path fill="#5077F6" d="M1967.6-54L45 190.8l1920 202.3 2.6-447.1z"/>
</symbol><symbol viewBox="0 0 661.9 449.2" id="hero_price_bg_mob" xmlns="http://www.w3.org/2000/svg">
    <path fill="#5077F6" d="M661.9 0L0 228.7l655.4 220.5L661.9 0z"/>
</symbol></svg>