<?xml version="1.0" encoding="utf-8"?>
<!-- Generator: Adobe Illustrator 22.1.0, SVG Export Plug-In . SVG Version: 6.00 Build 0)  -->
<svg version="1.1" id="OBJECTS" xmlns="http://www.w3.org/2000/svg" xmlns:xlink="http://www.w3.org/1999/xlink" x="0px" y="0px"
	 viewBox="0 0 681.6 616.2" style="enable-background:new 0 0 681.6 616.2;" xml:space="preserve">
<style type="text/css">
	.st0{fill:#5077F6;}
	.st1{fill:#C3D2FC;}
	.st2{fill:#9EF2EF;}
	.st3{fill:#6C8DF7;}
	.st4{fill:#C17F3E;}
	.st5{fill:#C9321F;}
	.st6{opacity:0.3;fill:#C17F3E;}
	.st7{fill:#EACBB7;}
	.st8{fill:#EDBFA9;}
	.st9{opacity:0.2;fill:#E0B297;}
	.st10{fill:#F4C9C3;}
	.st11{fill:#DF543B;}
	.st12{fill:none;stroke:#262424;stroke-width:1.0323;stroke-miterlimit:10;}
	.st13{fill:#DE533A;}
	.st14{fill:#EF6856;}
	.st15{fill:#E0B297;}
	.st16{fill:#B88B7B;}
	.st17{fill:#C58B56;}
	.st18{fill:#BC6B33;}
	.st19{fill:#D8A890;}
	.st20{fill:#AF3A31;}
	.st21{fill:#49261B;}
	.st22{fill:#C86244;}
	.st23{fill:#664940;}
	.st24{fill:#364866;}
	.st25{fill:#82CB87;}
	.st26{fill:#FFFFFF;}
	.st27{fill:#F28279;}
	.st28{fill:#FFC088;}
	.st29{fill:#E4705B;}
	.st30{fill:#D3B789;}
	.st31{fill:#EFD7AB;}
	.st32{fill:#FCE7BE;}
	.st33{fill:#F4D487;}
	.st34{fill:#F4E9D7;}
	.st35{fill:#DAC39C;}
	.st36{fill:#E8FFFD;}
</style>
<g>
	<g>
		<g>
			<g>
				<path class="st0" d="M195.1,242.5c-4.3,10.9-4.1,25-2.7,36.3c3.4,27.4,14.3,49.4,6.5,77.7c-6.5,23.7-19.6,45.3-25,69.2
					c-2.3,10.2-2.9,20-1.6,29.2c-26.8,1.1-59.9-10.5-76.5-20.7c-26.5-16.2-47.5-40.8-59.6-69.3C0,280.3,59.8,178.7,139.3,165.6
					c34-5.6,71.1-0.7,101.7,16.3C226.7,186.9,206.7,201.4,195.1,242.5z"/>
				<path class="st1" d="M74.5,418.5c7.6-7.4,14.2-15.7,18.8-24.9c4.8-9.6,7.5-20.7,2.5-30.8c-4.3-8.8-12.3-15.6-16-24.8
					c-1.8-4.5-2.4-9.1-1.6-13.9c0.5-3.1,2.3-6.1,2.7-9.2c0.5-3.7-6.9-9-9.5-10.7c-3.6-2.4-7.8-3.8-10.9-6.9
					c-6.9-6.7-4.1-16.2-1.5-24c2.4-7.1-3.6-14.3-9.7-17.3c-3.7-1.9-7.5-3-11.5-3.8c-14.8,34.9-17.5,75.4-1.6,112.8
					C44.8,385.3,58,403.7,74.5,418.5z"/>
				<path class="st1" d="M199.8,325.6c-7.2-19.5-31.3,8.2-38.3,15.1c-3.6,3.6-7.5,7-11.1,10.6c-2.3,2.4-6.5,5.8-6.6,9.4
					c-0.4,9.9,11.6,12.1,18.2,16.8c0.7,0.5,0.8,1.5,0.3,2.2c-3.4,4-7.7,8.9-8.1,14.5c-0.3,4.2,1.5,8,3.8,11.5
					c5.2,7.6,10.8,14.8,15.4,22.8c0.2-0.9,0.3-1.8,0.6-2.7c5.5-23.9,18.5-45.6,25-69.2c2.9-10.6,3.2-20.4,2.2-29.9
					C200.6,326.6,200.1,326.3,199.8,325.6z"/>
				<path class="st1" d="M161.8,163.5c-11.7,2.6-23.4,8-32.9,14.9c-10.8,7.8-22,20.5-15.6,34.6c3.8,8.2,9.8,10.5,18.1,12.8
					c4.4,1.3,11.3,2.5,13.8,6.9c2.6,4.7-1.7,7.2-5.2,9.6c-2.8,1.9-7.8,5-6.1,9.1c1.9,4.5,5.9,8,10.1,10.3c1.1,0.6,1.2,1.8,0.3,2.7
					c-3.2,3-6.8,7.6-2.4,11.2c3.6,3,8.2,4.5,12.6,5.9c7.8,2.3,17.5,3,24.5,7.1c7.3,4.3,13.6,10.8,18.6,18.2
					c-1.9-9-4.1-18.1-5.3-27.9c-1.4-11.3-1.6-25.4,2.7-36.3c11.6-41,31.6-55.5,46-60.6C217.1,168.6,189.2,162.7,161.8,163.5z"/>
				<g>
					<g>
						<g>
							<path class="st2" d="M181.3,303c-0.1,0.1-0.8-0.7-2-2c-1.3-1.3-3.2-3.1-5.8-4.8c-2.7-1.7-6.1-3.4-10.1-4.7
								c-4-1.3-8.6-2.3-13.5-3.3c-1.2-0.3-2.4-0.5-3.6-0.8c-1.2-0.3-2.4-0.6-3.5-0.9c-2.3-0.6-4.5-1.4-6.5-2.3
								c-2-0.9-3.9-2.1-5.2-3.8c-1.3-1.7-1.8-3.8-1.4-5.6c0.3-1.8,0.9-3.2,1.6-4.3c0.7-1.1,1.4-2.1,1.9-2.8c1.2-1.4,2-2.1,2.1-2
								c0.1,0.1-0.5,0.9-1.4,2.4c-0.5,0.8-1,1.7-1.6,2.8c-0.5,1.1-1.1,2.5-1.2,4c-0.2,1.5,0.2,3.1,1.3,4.4c1.1,1.3,2.8,2.4,4.7,3.2
								c1.9,0.8,4,1.5,6.2,2.1c1.1,0.3,2.3,0.6,3.4,0.8c1.2,0.2,2.4,0.5,3.6,0.7c4.9,1,9.5,2.1,13.6,3.5c4.1,1.4,7.7,3.3,10.4,5.2
								c2.7,2,4.5,4,5.6,5.4C180.9,302.1,181.4,303,181.3,303z"/>
						</g>
					</g>
				</g>
				<g>
					<g>
						<g>
							<path class="st2" d="M129.7,258.3c-0.1,0.1-0.4,0.1-1-0.2c-0.6-0.2-1.4-0.7-2.3-1.4c-0.4-0.4-0.9-0.8-1.3-1.4
								c-0.2-0.3-0.4-0.6-0.6-0.9c-0.2-0.3-0.4-0.7-0.5-1c-0.7-1.4-1.1-3.2-1-5c0.1-1.8,0.7-3.5,1.5-4.8c0.7-1.4,1.8-2.4,2.7-3.1
								c0.9-0.7,1.7-1.2,2.4-1.3c0.6-0.2,1-0.3,1-0.2c0.1,0.1-0.2,0.4-0.6,0.8c-0.5,0.4-1.1,1-1.8,1.7c-1.4,1.5-2.9,4-3.1,7
								c-0.1,1.5,0.2,2.9,0.7,4.2c0.1,0.3,0.3,0.6,0.4,0.9c0.1,0.3,0.3,0.5,0.5,0.8c0.3,0.5,0.7,0.9,1,1.3c0.7,0.8,1.3,1.4,1.8,1.7
								C129.5,257.9,129.8,258.2,129.7,258.3z"/>
						</g>
					</g>
				</g>
				<g>
					<g>
						<g>
							<path class="st2" d="M113.2,183.3c0.2,0.3-2.6,2.2-5.2,6.8c-1.3,2.3-2.6,5.2-3.5,8.5c-0.9,3.3-1.5,7.2-1.4,11.1
								c0.1,2,0.3,3.9,0.7,5.7c0.4,1.8,1,3.5,1.8,5c0.8,1.5,1.7,2.8,2.7,4c0.5,0.5,1,1.1,1.6,1.5c0.3,0.2,0.5,0.4,0.8,0.6
								c0.3,0.2,0.6,0.4,0.8,0.5c2.2,1.4,4.2,2,5.7,2.4c1.4,0.3,2.3,0.5,2.3,0.6c0,0.1-0.8,0.2-2.4,0.1c-1.5-0.2-3.8-0.6-6.2-1.9
								c-0.3-0.2-0.6-0.3-0.9-0.5c-0.3-0.2-0.6-0.4-0.9-0.7c-0.7-0.4-1.2-1-1.8-1.6c-1.1-1.2-2.2-2.6-3.1-4.3
								c-0.9-1.6-1.6-3.5-2-5.4c-0.5-2-0.7-4-0.8-6.1c-0.1-4.2,0.5-8.2,1.6-11.7c1.1-3.5,2.5-6.4,4.1-8.7c1.5-2.3,3.1-3.9,4.4-4.8
								C112.3,183.5,113.1,183.2,113.2,183.3z"/>
						</g>
					</g>
				</g>
				<g>
					<g>
						<g>
							<path class="st2" d="M149,376c-0.1,0.1-0.9-0.1-2.3-0.7c-1.4-0.6-3.4-1.6-5.6-3.3c-0.3-0.2-0.6-0.4-0.8-0.6
								c-0.3-0.2-0.5-0.5-0.8-0.7c-0.3-0.3-0.6-0.5-0.8-0.8c-0.3-0.3-0.5-0.6-0.8-0.9c-1-1.3-2.1-2.8-2.6-4.7
								c-0.5-1.9-0.6-3.9-0.1-6c0.4-2,1.3-4,2.4-5.8c2.2-3.6,5-6.5,7.5-9c2.6-2.5,5.1-4.6,7.2-6.3c4.2-3.4,6.9-5.3,7.1-5.1
								c0.2,0.2-2.2,2.6-6.2,6.2c-2,1.8-4.3,4-6.8,6.5c-2.4,2.5-5.1,5.4-7.1,8.8c-1,1.7-1.8,3.4-2.2,5.2c-0.4,1.8-0.4,3.5,0,5.1
								c0.8,3.2,3.1,5.5,5,7.2c2,1.7,3.8,2.9,5.1,3.7C148.3,375.4,149,375.9,149,376z"/>
						</g>
					</g>
				</g>
				<g>
					<g>
						<g>
							<path class="st2" d="M165.5,427.6c-0.2,0.2-2-1.9-4.9-5.1c-1.4-1.6-3.2-3.6-5-5.8c-1.8-2.3-3.8-4.8-5.5-7.7
								c-1.8-2.9-3.1-6-3.7-8.9c-0.3-1.5-0.4-2.9-0.4-4.3c0.1-1.3,0.2-2.6,0.5-3.7c0.5-2.2,1.4-3.9,2-4.9c0.7-1,1.1-1.6,1.3-1.5
								c0.3,0.2-1.2,2.5-1.9,6.7c-0.2,1-0.2,2.2-0.2,3.4c0.1,1.2,0.2,2.5,0.6,3.9c0.7,2.7,1.9,5.5,3.6,8.3c1.7,2.8,3.5,5.3,5.3,7.6
								c1.8,2.3,3.3,4.3,4.7,6.1C164.3,425.1,165.7,427.5,165.5,427.6z"/>
						</g>
					</g>
				</g>
				<g>
					<g>
						<g>
							<path class="st2" d="M100.8,352.6c0.2-0.1,2.3,3.3,3.8,9.5c1.4,6.2,2.2,15,0.6,24.6c-0.4,2.4-1,4.7-1.6,6.9
								c-0.7,2.2-1.5,4.3-2.4,6.2c-1.8,3.8-4,7-6.2,9.3c-2.2,2.3-4.4,3.8-6,4.6c-1.6,0.8-2.6,1-2.6,0.9c-0.1-0.1,0.8-0.6,2.2-1.6
								c1.4-1,3.4-2.5,5.4-4.8c2-2.3,4-5.4,5.6-9.1c0.8-1.9,1.5-3.9,2.2-6c0.6-2.1,1.1-4.4,1.5-6.7c1.6-9.3,1.1-17.9,0-24
								C102.2,356.2,100.5,352.7,100.8,352.6z"/>
						</g>
					</g>
				</g>
				<g>
					<g>
						<g>
							<path class="st2" d="M93.9,340.2c-0.1,0.1-0.6-0.2-1.6-0.8c-0.9-0.7-2.1-1.8-3.1-3.6c-1-1.8-1.8-4.1-2.1-6.8
								c-0.3-2.6-0.3-5.5-0.1-8.5c0.1-3,0.2-5.7-0.2-8.2c-0.2-1.2-0.5-2.3-0.9-3.3c-0.5-0.9-0.9-1.8-1.6-2.5
								c-1.2-1.4-2.5-2.1-3.4-2.7c-0.9-0.5-1.5-0.8-1.4-0.9c0-0.1,0.6,0,1.7,0.2c1,0.4,2.6,1,4.1,2.4c0.8,0.7,1.5,1.6,2,2.7
								c0.6,1.1,1,2.4,1.2,3.7c0.5,2.7,0.5,5.6,0.3,8.5c-0.1,3-0.2,5.7,0,8.2c0.2,2.5,0.8,4.6,1.6,6.3
								C92.1,338.5,94.1,339.9,93.9,340.2z"/>
						</g>
					</g>
				</g>
				<g>
					<g>
						<g>
							<path class="st2" d="M64.3,288.6c-0.1,0.1-0.6-0.5-1.4-1.6c-0.7-1.2-1.6-3.1-1.7-5.7c-0.1-2.6,0.9-5.5,2-8.5
								c0.5-1.5,1-3.1,1.3-4.7c0.1-0.4,0.1-0.8,0.2-1.2c0-0.4,0-0.9,0.1-1.3c0-0.5,0.1-0.9,0.1-1.4c0-0.4,0.1-0.9,0-1.3
								c0-3.5-1.5-6.6-3.6-8.8c-2.1-2.2-4.5-3.8-6.6-5c-4.2-2.3-7-3.6-6.8-3.8c0.1-0.2,3,0.5,7.5,2.6c2.2,1.1,4.8,2.5,7.2,4.9
								c1.2,1.2,2.3,2.6,3,4.4c0.7,1.7,1.2,3.7,1.2,5.6c0,0.5,0,1-0.1,1.5l-0.1,0.7l0,0.6c0,0.5-0.1,0.9-0.1,1.4
								c-0.1,0.5-0.1,0.9-0.2,1.4c-0.3,1.8-0.9,3.5-1.5,5c-1.2,3-2.2,5.6-2.3,7.9c-0.1,2.3,0.5,4.1,1,5.3
								C64.1,287.8,64.4,288.5,64.3,288.6z"/>
						</g>
					</g>
				</g>
			</g>
			<g>
				<g>
					<g>
						<path class="st2" d="M173.7,306.5c-0.4,0.4-2.7-1.3-5.7-3.2c-1.5-0.9-2.8-1.8-3.9-2.3c-1-0.6-1.6-1.1-1.5-1.4
							c0.1-0.3,0.8-0.2,2,0.1c1.2,0.2,2.7,1,4.4,1.9C172.3,303.6,174.1,306.1,173.7,306.5z"/>
					</g>
				</g>
			</g>
		</g>
		<g>
			<g>
				<g>
					<path class="st3" d="M174.3,476.9c-0.1-0.5,0.8-1.2,2-1.4c1.2-0.2,2.2,0,2.3,0.5c0.1,0.5-0.8,1.1-2,1.4
						C175.4,477.6,174.4,477.4,174.3,476.9z"/>
				</g>
				<g>
					<path class="st3" d="M156.6,478.5c0-0.5,2-1.1,4.4-1.2c2.4-0.1,4.4,0.2,4.5,0.8c0.1,0.5-1.9,1.1-4.4,1.2
						C158.6,479.4,156.6,479.1,156.6,478.5z"/>
				</g>
				<g>
					<path class="st3" d="M138.8,477.3c0.1-0.5,2.1-0.8,4.5-0.5c2.4,0.3,4.4,0.9,4.3,1.4c0,0.5-2.1,0.8-4.5,0.5
						C140.7,478.5,138.7,477.9,138.8,477.3z"/>
				</g>
				<g>
					<path class="st3" d="M121.4,473.7c0.1-0.5,2.2-0.5,4.6,0.1c2.4,0.6,4.2,1.5,4.1,2c-0.1,0.5-2.1,0.5-4.6-0.1
						C123.1,475.1,121.2,474.2,121.4,473.7z"/>
				</g>
				<g>
					<path class="st3" d="M104.5,467.9c0.2-0.5,2.2-0.2,4.5,0.7c2.3,0.9,4,2,3.8,2.5c-0.2,0.5-2.2,0.2-4.5-0.7
						C106,469.5,104.3,468.4,104.5,467.9z"/>
				</g>
				<g>
					<path class="st3" d="M88.4,460.3c0.3-0.5,2.2,0,4.4,1.1c2.2,1.1,3.8,2.4,3.5,2.9c-0.2,0.5-2.2,0-4.4-1.1
						C89.7,462.1,88.2,460.8,88.4,460.3z"/>
				</g>
				<g>
					<path class="st3" d="M73.2,451c0.3-0.4,2.2,0.3,4.3,1.6c2.1,1.3,3.5,2.8,3.2,3.2c-0.3,0.5-2.2-0.3-4.3-1.6
						C74.4,452.9,72.9,451.5,73.2,451z"/>
				</g>
				<g>
					<path class="st3" d="M59,440.2c0.3-0.4,2.2,0.5,4.1,2c1.9,1.5,3.2,3.1,2.9,3.5c-0.3,0.4-2.2-0.5-4.1-2
						C60,442.2,58.7,440.7,59,440.2z"/>
				</g>
				<g>
					<path class="st3" d="M46,428.1c0.4-0.4,2.1,0.7,3.9,2.4c1.7,1.7,2.9,3.4,2.5,3.8c-0.4,0.4-2.1-0.7-3.9-2.4
						C46.8,430.2,45.6,428.4,46,428.1z"/>
				</g>
				<g>
					<path class="st3" d="M34.3,414.6c0.4-0.3,2,0.9,3.6,2.8c1.6,1.9,2.5,3.7,2.1,4.1c-0.4,0.4-2-0.9-3.6-2.8
						C34.8,416.8,33.9,415,34.3,414.6z"/>
				</g>
				<g>
					<path class="st3" d="M24.1,400c0.5-0.3,1.9,1.1,3.3,3.2c1.3,2,2.1,4,1.6,4.3c-0.4,0.3-1.9-1.1-3.3-3.2
						C24.4,402.2,23.7,400.3,24.1,400z"/>
				</g>
				<g>
					<path class="st3" d="M15.7,384.3c0.5-0.2,1.8,1.4,2.9,3.5c1.1,2.2,1.6,4.2,1.1,4.4c-0.5,0.3-1.8-1.3-2.9-3.5
						C15.7,386.5,15.2,384.6,15.7,384.3z"/>
				</g>
				<g>
					<path class="st3" d="M9.1,367.8c0.5-0.2,1.6,1.6,2.4,3.9c0.8,2.3,1.1,4.3,0.6,4.5c-0.5,0.2-1.6-1.5-2.4-3.9
						C8.9,370,8.6,367.9,9.1,367.8z"/>
				</g>
				<g>
					<path class="st3" d="M4.7,350.5c0.5-0.1,1.4,1.7,1.9,4.1c0.5,2.4,0.6,4.4,0.1,4.6c-0.5,0.1-1.4-1.7-2-4.1
						C4.2,352.7,4.1,350.6,4.7,350.5z"/>
				</g>
				<g>
					<path class="st3" d="M1.9,332.9c0.5-0.1,1.2,1.9,1.6,4.3c0.3,2.4,0.1,4.5-0.4,4.5c-0.5,0.1-1.2-1.8-1.6-4.3
						C1.2,335,1.4,333,1.9,332.9z"/>
				</g>
				<g>
					<path class="st3" d="M0.8,315.1c0.5,0,1.1,2,1.1,4.4c0.1,2.4-0.3,4.5-0.8,4.5c-0.5,0-1.1-1.9-1.1-4.4
						C-0.1,317.2,0.3,315.1,0.8,315.1z"/>
				</g>
				<g>
					<path class="st3" d="M1.3,297.3c0.5,0,0.9,2.1,0.8,4.5c-0.1,2.4-0.7,4.4-1.2,4.4c-0.5,0-0.9-2-0.8-4.5
						C0.2,299.3,0.8,297.3,1.3,297.3z"/>
				</g>
				<g>
					<path class="st3" d="M3.4,279.6c0.5,0.1,0.7,2.1,0.4,4.5c-0.3,2.4-1,4.3-1.6,4.3c-0.5-0.1-0.7-2.1-0.4-4.5
						C2.1,281.5,2.9,279.5,3.4,279.6z"/>
				</g>
				<g>
					<path class="st3" d="M7,262.2c0.5,0.1,0.5,2.2-0.1,4.6c-0.6,2.4-1.4,4.2-2,4.1c-0.5-0.1-0.5-2.1,0.1-4.6
						C5.6,263.9,6.5,262,7,262.2z"/>
				</g>
				<g>
					<path class="st3" d="M12.2,245.1c0.5,0.2,0.3,2.2-0.5,4.5c-0.8,2.3-1.8,4.1-2.3,3.9c-0.5-0.2-0.3-2.2,0.5-4.5
						C10.7,246.7,11.7,245,12.2,245.1z"/>
				</g>
				<g>
					<path class="st3" d="M19.1,228.7c0.5,0.2,0.1,2.2-0.9,4.5c-1,2.2-2.2,3.9-2.7,3.7c-0.5-0.2-0.1-2.2,0.9-4.5
						C17.4,230.1,18.6,228.5,19.1,228.7z"/>
				</g>
				<g>
					<path class="st3" d="M27.6,213c0.5,0.3-0.2,2.2-1.4,4.3c-1.2,2.1-2.6,3.6-3.1,3.4c-0.5-0.3,0.1-2.2,1.4-4.3
						C25.7,214.3,27.1,212.7,27.6,213z"/>
				</g>
				<g>
					<path class="st3" d="M37.8,198.4c0.4,0.3-0.4,2.2-1.9,4.2c-1.5,2-3,3.3-3.4,3c-0.4-0.3,0.4-2.2,1.9-4.2
						C35.8,199.4,37.4,198.1,37.8,198.4z"/>
				</g>
				<g>
					<path class="st3" d="M49.7,185.2c0.4,0.4-0.7,2.1-2.4,3.9c-1.7,1.8-3.4,2.9-3.8,2.5c-0.4-0.4,0.7-2.1,2.4-3.9
						C47.6,185.9,49.3,184.8,49.7,185.2z"/>
				</g>
				<g>
					<path class="st3" d="M63.2,173.6c0.3,0.4-1,2-2.9,3.5c-1.9,1.5-3.7,2.4-4.1,2c-0.4-0.4,0.9-2,2.9-3.5
						C61.1,174.1,62.9,173.2,63.2,173.6z"/>
				</g>
				<g>
					<path class="st3" d="M78.3,164.1c0.3,0.5-1.2,1.9-3.3,3.1c-2.1,1.2-4,1.9-4.3,1.4c-0.3-0.5,1.2-1.8,3.4-3.1
						C76.1,164.2,78,163.6,78.3,164.1z"/>
				</g>
				<g>
					<path class="st3" d="M94.3,156.4c0.2,0.5-1.4,1.7-3.7,2.7c-2.2,1-4.2,1.4-4.5,0.9c-0.2-0.5,1.4-1.7,3.7-2.7
						C92.1,156.3,94.1,155.9,94.3,156.4z"/>
				</g>
				<g>
					<path class="st3" d="M111,150.1c0.2,0.5-1.6,1.6-3.9,2.4c-2.3,0.8-4.3,1.1-4.5,0.6c-0.2-0.5,1.5-1.6,3.9-2.4
						C108.8,149.8,110.8,149.6,111,150.1z"/>
				</g>
				<g>
					<path class="st3" d="M128.2,145.3c0.1,0.5-1.7,1.4-4.1,2.1c-2.4,0.6-4.4,0.7-4.6,0.2c-0.1-0.5,1.7-1.4,4.1-2.1
						C126,144.8,128,144.8,128.2,145.3z"/>
				</g>
				<g>
					<path class="st3" d="M145.7,142c0.1,0.5-1.8,1.3-4.2,1.7c-2.4,0.4-4.5,0.3-4.6-0.2c-0.1-0.5,1.8-1.3,4.2-1.7
						C143.6,141.4,145.6,141.5,145.7,142z"/>
				</g>
				<g>
					<path class="st3" d="M163.4,140.5c0,0.5-1.9,1.1-4.4,1.2c-2.4,0.1-4.5-0.2-4.5-0.7c0-0.5,1.9-1.1,4.4-1.2
						C161.4,139.6,163.4,139.9,163.4,140.5z"/>
				</g>
				<g>
					<path class="st3" d="M181.2,140.9c-0.1,0.5-2.1,0.9-4.5,0.7c-2.4-0.1-4.4-0.7-4.4-1.2c0-0.5,2-0.9,4.5-0.7
						C179.3,139.8,181.3,140.4,181.2,140.9z"/>
				</g>
				<g>
					<path class="st3" d="M198.8,143.7c-0.1,0.5-2.2,0.6-4.6,0.1c-2.4-0.5-4.3-1.3-4.2-1.8c0.1-0.5,2.1-0.6,4.6-0.1
						C197.1,142.4,198.9,143.2,198.8,143.7z"/>
				</g>
				<g>
					<path class="st3" d="M211.6,147.5c-0.2,0.5-1.3,0.6-2.4,0.2c-1.1-0.4-1.9-1.1-1.8-1.6c0.2-0.5,1.2-0.6,2.4-0.2
						C211,146.3,211.8,147,211.6,147.5z"/>
				</g>
			</g>
		</g>
		<path class="st0" d="M215.6,140.4c0,0-3.2,3.4-4.1,7.4c-0.9,3.8-0.8,7.1-0.8,7.1s8.1,1.5,15.2-3.3
			C225.8,151.6,223.4,143.3,215.6,140.4z"/>
	</g>
	<g>
		<path class="st4" d="M418.9,458.4c-1.2,7.9-3.4,15.8-7.2,22.7c-2.1-4.6-4.1-8.3-6-11.2c0-0.8,0-1.2,0-1.2c-1.3-1.4-2.6-2.7-3.9-4
			c-7.6-7.4-17-22.5-28.5-26.3c1.3-0.3,2.9-1.3-1.1-4.5c-3.9-3.2-7.5-9.2-11.4-13c-6.9-6.7-22.4-19.3-33.1-14.3
			c-2.4-5.6-4.7-14-5.1-26c16-6,45.6-21.1,49.6-52.5c0,0,0-59.9-7.1-78.5c0,0-47.5-10.3-87.9-54.7c0,0-14.1,39.2-57.3,69.2
			c0,0-5.2,82.6,26.6,103.2c0,0,15,10.2,33.1,15.5c0.2,7.4-0.6,16.3-3.9,25c-2.1-1-4.8-1.8-7.1-1.3c0,0-27.5,9.8-42.5,41.3
			c-0.4,0.7,3-0.2,3-0.2c1.5-0.6,2.8-1.2,4-1.7c-5.8,3.6-12.8,8.5-19.6,14.6c0,0,0,0,0,0c-1.7,1.5-3.3,3.1-5,4.7
			c-1.3,1.3-2.6,2.6-3.8,4c0,0,0,0.4,0,1.2c-3.6,5.6-7.7,14-11.2,26.4c-19.3-19.9-25.8-44-19.6-71.1c5.5-23.9,18.5-45.6,25-69.2
			c7.8-28.3-3.1-50.3-6.5-77.7c-1.4-11.3-1.6-25.4,2.7-36.3c19.6-69.2,63-63,63-63s7.2-19.8,34.8-19c0,0,95.7,3.5,100.5,97.1
			c0.7,13.4-4.6,26.2-4.8,39.5c-0.4,19.6,6.9,19.6,12.6,37.9c4.1,13.3,7.9,26.7,11.1,40.2C418.3,402.2,423.2,430.8,418.9,458.4z"/>
		<path class="st5" d="M425.2,600.3c0,0-11.8,7.4-26,2.8c0.8-0.3,1.2-0.4,1.2-0.4c4.5-28.2,5.3-83.1,5.3-113.1
			c0-9.8,0-16.9-0.1-19.6c1.9,2.9,4,6.5,6,11.2C420.3,500.4,428.8,536,425.2,600.3z"/>
		<g>
			<path class="st6" d="M206.6,415.3c-2.2-8.4-3.5-17.1-3.3-25.8c0.3-11.3,4-22,5.5-33.2c1.9-14.7,3.1-30.6-2.6-44.6
				c-3.2-7.9-7.7-15.1-12.1-22.4c4.3,22.8,11.6,42.6,4.8,67.2c-6.5,23.7-19.6,45.3-25,69.2c-6.2,27.1,0.2,51.3,19.6,71.1
				c3.5-12.4,7.6-20.8,11.2-26.4c0-0.8,0-1.2,0-1.2c1.2-1.4,2.5-2.7,3.8-4c1.6-1.6,3.3-3.2,5-4.7c0,0,0,0,0,0
				c4.2-3.8,8.5-7.1,12.5-9.9C216.2,441.4,209.9,428,206.6,415.3z"/>
			<path class="st6" d="M412.2,375.2c-3.1-13.5-6.9-26.9-11.1-40.2c-5.7-18.3-13-18.3-12.6-37.9c0.2-12.4,4.8-24.4,4.9-36.8
				c-17,16.2-14.1,42.5-10.2,63.7c3.4,18.2,7.5,36.3,8.5,54.9c0.9,17.6,0.1,36.7-7.8,52.8c-1.6,3.3-3.5,6.4-5.7,9.2
				c9.3,5.7,17.2,17.7,23.6,24c1.3,1.3,2.6,2.6,3.9,4c0,0,0,0.4,0,1.2c1.9,2.9,4,6.5,6,11.2c3.8-6.9,6-14.8,7.2-22.7
				C423.2,430.8,418.3,402.2,412.2,375.2z"/>
			<path class="st6" d="M229.1,447.7c0,0-0.7,0.2-1.4,0.3c0.3,0.3,0.6,0.6,0.9,0.9c1.6-1.1,3.1-2,4.5-2.9
				C231.9,446.5,230.6,447.1,229.1,447.7z"/>
			<path class="st7" d="M372.2,328.2c-4,31.4-33.6,46.6-49.6,52.5c-6.1,2.3-10.2,3.2-10.2,3.2c-10.4,3.4-22.2,2.1-32.9-1
				c-18.1-5.3-33.1-15.5-33.1-15.5c-31.8-20.6-26.6-103.2-26.6-103.2c43.3-29.9,57.3-69.2,57.3-69.2c40.5,44.4,87.9,54.7,87.9,54.7
				C372.2,268.3,372.2,328.2,372.2,328.2z"/>
			<path class="st8" d="M334,416.6c-11.4,29.8-30,89.5-30,89.5c-13.8-27.3-35.4-85.3-35.4-85.3c3.1-4.1,5.4-8.4,7.1-12.8
				c3.3-8.8,4.1-17.7,3.9-25c10.7,3.1,22.5,4.5,32.9,1c0,0,4.1-0.9,10.2-3.2c0.5,12,2.7,20.4,5.1,26
				C330.8,413.9,334,416.6,334,416.6z"/>
			<path class="st9" d="M313.4,441.6c-10.7-6.3-19.1-16.4-22.2-28.5c-2.4-9.2-2.7-18.7-2.7-28.1c-3-0.5-6-1.2-9-2.1
				c0.2,7.4-0.6,16.3-3.9,25c-1.7,4.4-4,8.7-7.1,12.8c0,0,21.7,58.1,35.4,85.3c0,0,9.9-31.7,19.6-60.4
				C320.2,444.9,316.8,443.6,313.4,441.6z"/>
			<path class="st10" d="M373.3,438.5c-0.6,0.1-1.1,0.1-1.1,0.1c-1.6-0.6-3.2-0.9-4.9-1h0c-3.9-0.2-7.8,0.7-11.6,2.3
				c-6,2.5-11.6,6.6-15.6,10c0,0-0.1,0.1-0.1,0.1c-3.7,3.1-6,5.7-6,5.7c-2.4,3-4.6,6.6-6.8,10.7c0,0.1-0.1,0.1-0.1,0.2
				c-4.2,8-8,17.6-11.1,27c-0.1,0.2-0.1,0.3-0.2,0.5c-4.9,14.8-8.2,29-9.7,35.5c-0.5,2.3-0.8,3.7-0.8,3.7c-0.2-0.6-0.3-1.1-0.5-1.7
				c-5.2-17.6-14.5-34.3-23.2-47.2c-1.6-2.4-3.1-4.6-4.6-6.7c-8.3-11.6-15-18.8-15-18.8c-0.8-1.1-1.7-2.2-2.7-3.3
				c-4-4.4-8.8-8.1-14.4-10.1c-5-1.8-8.2-1-12,0.6c-1.2,0.5-2.6,1.1-4,1.7c0,0-3.4,0.9-3,0.2c15-31.5,42.5-41.3,42.5-41.3
				c2.3-0.5,5,0.3,7.1,1.3c-1.7,4.4-4,8.7-7.1,12.8c0,0,21.7,58.1,35.4,85.3c0,0,18.6-59.7,30-89.5c0,0-3.2-2.7-6.3-9.9
				c10.7-5.1,26.2,7.6,33.1,14.3c3.9,3.8,7.5,9.8,11.4,13C376.2,437.2,374.6,438.2,373.3,438.5z"/>
			<g>
				<path class="st11" d="M305.5,533C305.6,533,305.6,533,305.5,533C305.6,533,305.6,533,305.5,533z"/>
				<path class="st11" d="M305.5,533.1C305.5,533,305.5,533,305.5,533.1C305.5,533,305.5,533.1,305.5,533.1z"/>
				<path class="st12" d="M305.6,532.9C305.6,532.6,305.6,532.8,305.6,532.9L305.6,532.9z"/>
				<path class="st13" d="M306.3,615.5h-0.5c-48,0.1-84.7-9.2-93-12c-0.8-0.3-1.2-0.4-1.2-0.4c-6.4-37.3-6.9-121.7-6.9-132.6
					c0-0.8,0-1.2,0-1.2c1.2-1.4,2.5-2.7,3.8-4c1.6-1.6,3.3-3.2,5-4.7c0,0,0,0,0,0c6.8-6.1,13.8-11,19.6-14.6c3.9-1.6,7.1-2.4,12-0.6
					c5.6,2.1,10.4,5.7,14.4,10.1l17.7,22c8.7,12.9,22.4,35.8,27.9,53.8c0.2,0.6,0.3,1.2,0.5,1.7l0.1,11L306.3,615.5z"/>
			</g>
			<path class="st5" d="M212.8,603.5c-14.1,4.7-26-2.5-26-2.5c-3.5-50.2,0.7-83,6.7-104.2c3.5-12.4,7.6-20.8,11.2-26.4
				c0,10.9,0.5,95.3,6.9,132.6C211.6,603.1,212,603.2,212.8,603.5z"/>
			<g>
				<path class="st14" d="M305.5,533C305.6,533,305.6,533,305.5,533C305.6,533,305.6,533,305.5,533z"/>
				<path class="st14" d="M305.5,533.1C305.5,533,305.5,533,305.5,533.1C305.5,533,305.5,533.1,305.5,533.1z"/>
				<path class="st14" d="M305.6,532.9C305.6,532.6,305.6,532.8,305.6,532.9L305.6,532.9z"/>
				<path class="st14" d="M306.1,597.5c-28.7-28.2-48.1-77.6-48.1-77.6c0.4-3.4,8.9-9.3,8.9-9.3c-10,1.4-15.3,0-15.3,0
					c-8.8-28.9-8.8-49.6-8.8-49.6c1.8-6.2,6.9-9.1,11.5-10.3c1.8,1.5,3.6,3.1,5.1,4.8l17.7,22c9,13.3,23.3,37.3,28.3,55.5
					L306.1,597.5z"/>
			</g>
			<g>
				<path class="st11" d="M305.6,533.7C305.6,533.7,305.6,533.7,305.6,533.7C305.6,533.7,305.6,533.7,305.6,533.7z"/>
				<path class="st11" d="M305.6,533.8C305.6,533.8,305.6,533.8,305.6,533.8C305.6,533.8,305.6,533.8,305.6,533.8z"/>
				<path class="st11" d="M305.6,533.7C305.5,533.4,305.5,533.5,305.6,533.7L305.6,533.7z"/>
				<path class="st13" d="M405.7,489.6c0,30-0.8,84.9-5.3,113.1c0,0-0.4,0.2-1.2,0.4c-8.4,2.9-45.1,12.7-93.4,13.1v-0.7l-0.2-71.4
					l0-10.2c3.7-17,5.3-23.4,10.4-39.9c0.1-0.2,0.1-0.3,0.2-0.5c3.5-11.4,7.2-20.2,11.1-27c0-0.1,0.1-0.1,0.1-0.2
					c3.9-6.9,8-11.9,12-15.6c0.3-0.2,0.5-0.5,0.8-0.7c0,0,0.1-0.1,0.1-0.1c5-4.5,9.9-7.9,15.6-10c3.5-1.3,7.3-2.1,11.6-2.3h0
					c2.1-0.1,4,0.2,6,0.9c11.5,3.8,20.9,19,28.5,26.3c1.3,1.3,2.6,2.6,3.9,4c0,0,0,0.4,0,1.2C405.7,472.7,405.8,479.8,405.7,489.6z"
					/>
			</g>
			<g>
				<path class="st11" d="M305.6,531.7C305.6,531.6,305.6,531.6,305.6,531.7C305.6,531.6,305.6,531.6,305.6,531.7z"/>
				<path class="st11" d="M305.6,531.8C305.6,531.7,305.6,531.7,305.6,531.8C305.6,531.7,305.6,531.8,305.6,531.8z"/>
				<path class="st11" d="M305.6,531.6C305.5,531.3,305.6,531.5,305.6,531.6L305.6,531.6z"/>
				<path class="st14" d="M305.8,596.1c28.3-28.5,47.1-78.2,47.1-78.2c-0.4-3.4-9.1-9.2-9.1-9.2c10,1.2,15.3-0.2,15.3-0.2
					c9.6-31,8.1-49.7,8.1-49.7c-1.8-6.2-9.9-14.6-18.4-15.5c-0.9,0.7-10.4,3.2-22,23.4c-8,13.9-16.5,46.7-21.4,64.9L305.8,596.1z"/>
			</g>
			<path class="st15" d="M293.9,257.1c0,0-3.9,0.5-5.1,8c-0.7,4.6-1.3,9.4-0.6,22.1c0.4,7.9,0.9,20.2,1.3,25.3
				c0.4,5.3,2.5,7.2,11,6.6c7.9-0.5,6.2-10.1,5.2-21.4c-1.2-13.5-1.8-20.6-3-28.9C302.7,268.8,301,254.9,293.9,257.1z"/>
			<g>
				<g>
					<g>
						<g>
							<path class="st16" d="M349.3,281.9c0.2,0.1,0.2,0.6-0.1,1.4c-0.3,0.8-0.9,2-2.1,3.1c-2.4,2.2-6.7,3.7-11.3,3.7
								c-4.7,0-8.8-1.3-11.5-3c-1.3-0.8-2.2-1.7-2.7-2.4c-0.5-0.7-0.6-1.2-0.5-1.3c0.3-0.3,1.6,1,4.1,2c2.5,1,6.3,1.9,10.5,1.9
								c4.2,0,7.9-1,10.1-2.4C348.1,283.5,348.9,281.8,349.3,281.9z"/>
						</g>
					</g>
				</g>
				<g>
					<g>
						<g>
							<path class="st17" d="M351.1,269.3c-0.2,0.2-0.7,0.1-1.4-0.1c-0.8-0.2-1.9-0.6-3.2-1c-2.7-0.8-6.6-1.7-10.9-2.2
								c-4.3-0.6-8.1-0.5-10.8,0c-2.7,0.4-4.3,1.3-4.6,0.8c-0.2-0.2,0-0.7,0.7-1.4c0.6-0.7,1.7-1.4,3.2-2.1c3-1.3,7.4-1.8,12.1-1.2
								c4.7,0.6,8.7,2,11.4,3.6c1.4,0.8,2.4,1.5,3,2.2C351.1,268.6,351.2,269.2,351.1,269.3z"/>
						</g>
					</g>
				</g>
				<g>
					<g>
						<g>
							<path class="st16" d="M322.5,290.3c-0.3-0.3,0.2-1.2,0.9-2c0.7-0.8,1.3-1.5,1.7-1.4c0.4,0.1,0.2,1.3-0.6,2.3
								C323.7,290.1,322.7,290.5,322.5,290.3z"/>
						</g>
					</g>
				</g>
				<g>
					<g>
						<g>
							<path class="st16" d="M329,292.4c-0.4,0-0.7-0.9-0.7-2c0-1.1,0.3-2,0.7-2s0.7,0.9,0.7,2C329.7,291.5,329.4,292.4,329,292.4z"
								/>
						</g>
					</g>
				</g>
				<g>
					<g>
						<g>
							<path class="st16" d="M335.6,292.6c-0.4,0.1-1-0.7-1.2-1.8c-0.3-1.1,0.1-2.2,0.4-2.1c0.4,0,0.7,0.8,0.9,1.8
								C336,291.6,335.9,292.5,335.6,292.6z"/>
						</g>
					</g>
				</g>
				<g>
					<g>
						<g>
							<path class="st16" d="M342.7,291.1c0,0.2-0.4,0.3-0.8,0.2c-0.4-0.1-0.9-0.4-1.3-0.8c-0.8-0.8-1-1.8-0.6-2
								c0.4-0.2,1,0.3,1.6,1C342.3,290.2,342.7,290.7,342.7,291.1z"/>
						</g>
					</g>
				</g>
				<g>
					<g>
						<g>
							<path class="st16" d="M347.9,288.7c-0.2,0.4-1,0.2-1.9-0.4c-0.8-0.7-1.2-1.5-0.9-1.7c0.3-0.3,1.1,0,1.8,0.6
								C347.6,287.7,348.1,288.3,347.9,288.7z"/>
						</g>
					</g>
				</g>
			</g>
			<g>
				<g>
					<g>
						<g>
							<path class="st16" d="M269.6,285c0.2,0.1,0.2,0.6-0.1,1.4c-0.3,0.8-0.9,2-2.1,3.1c-2.4,2.2-6.7,3.7-11.3,3.7
								c-4.7,0-8.8-1.3-11.5-3c-1.3-0.8-2.2-1.7-2.7-2.4c-0.5-0.7-0.6-1.2-0.5-1.3c0.3-0.3,1.6,1,4.1,2c2.5,1,6.3,1.9,10.5,1.9
								c4.2,0,7.9-1,10.1-2.4C268.4,286.5,269.1,284.8,269.6,285z"/>
						</g>
					</g>
				</g>
				<g>
					<g>
						<g>
							<g>
								<path class="st16" d="M243.5,293.2c-0.3-0.3,0.2-1.2,0.9-2c0.7-0.8,1.3-1.5,1.7-1.4c0.4,0.1,0.2,1.3-0.6,2.3
									C244.7,293,243.8,293.4,243.5,293.2z"/>
							</g>
						</g>
					</g>
					<g>
						<g>
							<g>
								<path class="st16" d="M250.1,295.2c-0.4,0-0.7-0.9-0.7-2c0-1.1,0.3-2,0.7-2c0.4,0,0.7,0.9,0.7,2
									C250.8,294.4,250.5,295.2,250.1,295.2z"/>
							</g>
						</g>
					</g>
					<g>
						<g>
							<g>
								<path class="st16" d="M256.6,295.5c-0.4,0.1-1-0.7-1.2-1.8c-0.3-1.1,0.1-2.2,0.4-2.1c0.4,0,0.7,0.8,0.9,1.8
									C257,294.5,257,295.4,256.6,295.5z"/>
							</g>
						</g>
					</g>
					<g>
						<g>
							<g>
								<path class="st16" d="M263.7,293.9c0,0.2-0.4,0.3-0.8,0.2c-0.4-0.1-0.9-0.4-1.3-0.8c-0.8-0.8-1-1.8-0.6-2
									c0.4-0.2,1,0.3,1.6,1C263.4,293,263.8,293.6,263.7,293.9z"/>
							</g>
						</g>
					</g>
					<g>
						<g>
							<g>
								<path class="st16" d="M269,291.6c-0.2,0.4-1,0.2-1.9-0.4c-0.8-0.7-1.2-1.5-0.9-1.7c0.3-0.3,1.1,0,1.8,0.6
									C268.6,290.5,269.1,291.2,269,291.6z"/>
							</g>
						</g>
					</g>
				</g>
				<g>
					<g>
						<g>
							<path class="st17" d="M241,273c-0.1,0-0.2-0.2-0.2-0.5c0.1-0.3,0.3-0.7,0.6-1c0.6-0.7,1.6-1.5,2.9-2.3
								c2.6-1.6,6.5-3.2,11.1-4.2c4.5-1,8.9-1.2,12.1-0.3c1.6,0.4,2.8,1.2,3.4,1.9c0.3,0.3,0.5,0.7,0.6,0.9c0.1,0.3,0.1,0.4,0,0.5
								c-0.1,0.1-0.3,0.1-0.5,0c-0.2-0.1-0.5-0.2-0.9-0.2c-0.7-0.2-1.7-0.4-3.1-0.4c-2.7-0.1-6.5,0.4-10.8,1.4
								c-4.2,1-8.1,2.1-10.8,2.9c-1.4,0.4-2.4,0.8-3.2,1C241.6,272.9,241.3,273,241,273z"/>
						</g>
					</g>
				</g>
			</g>
			<g>
				<g>
					<g>
						<path class="st18" d="M388.1,252.8c0,0.1-0.5,0.3-1.4,0.4c-0.5,0.1-1,0.2-1.7,0.3c-0.7,0.1-1.5,0.1-2.4,0.1
							c-3.5,0.1-8.7-0.1-15-1.3c-12.5-2.3-29.2-8.2-46-17.6c-16.9-9.4-30.7-20.4-39.2-29.9c-4.3-4.7-7.2-9-8.9-12.1
							c-0.4-0.8-0.8-1.5-1.1-2.1c-0.3-0.6-0.5-1.2-0.7-1.6c-0.3-0.9-0.5-1.4-0.3-1.4c0.1-0.1,0.5,0.3,1,1c0.3,0.4,0.6,0.8,1,1.4
							c0.4,0.5,0.9,1.2,1.4,1.9c2.1,2.8,5.2,6.7,9.7,11c8.8,8.7,22.5,19.2,39.1,28.4c16.5,9.2,32.7,15.4,44.7,18.3
							c6,1.5,11,2.2,14.4,2.5c0.9,0.1,1.6,0.2,2.3,0.2c0.7,0,1.2,0.1,1.7,0.1C387.6,252.6,388.1,252.7,388.1,252.8z"/>
					</g>
				</g>
			</g>
			<g>
				<g>
					<g>
						<path class="st18" d="M274.5,201.1c0.2,0.1,0,1.4-0.8,3.7c-0.2,0.6-0.4,1.2-0.6,1.9c-0.1,0.3-0.2,0.7-0.4,1.1
							c-0.2,0.4-0.3,0.7-0.5,1.1c-0.7,1.6-1.5,3.3-2.4,5.3c-3.9,7.7-10.8,17.5-19.8,26.9c-4.5,4.7-9.1,9-13.5,12.5
							c-2.2,1.8-4.3,3.4-6.4,4.9c-1,0.7-2,1.4-3,2.1c-1,0.7-1.9,1.3-2.8,1.8c-0.9,0.6-1.8,1.1-2.6,1.6c-0.8,0.5-1.7,0.9-2.4,1.3
							c-1.5,0.8-2.9,1.4-4,1.8c-1.1,0.5-2.1,0.6-2.7,0.8c-0.6,0.1-1,0.1-1,0c0-0.1,0.2-0.4,0.8-0.7c0.5-0.4,1.3-0.7,2.3-1.4
							c1-0.6,2.2-1.3,3.6-2.3c0.7-0.5,1.4-0.9,2.2-1.5c0.8-0.6,1.6-1.1,2.4-1.8c0.9-0.6,1.7-1.3,2.6-2c0.9-0.7,1.8-1.4,2.8-2.2
							c1.9-1.6,3.9-3.2,6-5.1c4.2-3.6,8.6-7.9,13-12.5c8.8-9.3,15.8-18.5,20.2-25.6c1.1-1.8,2-3.4,2.9-4.9c0.2-0.4,0.4-0.7,0.6-1
							c0.2-0.3,0.3-0.7,0.5-1c0.3-0.6,0.6-1.2,0.9-1.7C273.5,202.2,274.3,201.1,274.5,201.1z"/>
					</g>
				</g>
			</g>
			<g>
				<g>
					<g>
						<path class="st18" d="M336.5,227.3c0,0.1-0.2,0.2-0.7,0.2c-0.5,0.1-1.1,0-2,0c-1.7-0.2-4.1-0.8-6.9-1.8
							c-5.6-2.1-12.9-6-20.3-11.2c-7.4-5.2-13.6-10.7-17.5-15.2c-2-2.3-3.3-4.3-4.1-5.8c-0.7-1.6-0.8-2.5-0.6-2.6
							c0.2-0.1,0.6,0.7,1.6,2c1,1.3,2.5,3,4.6,5.1c4.1,4.1,10.4,9.2,17.7,14.3c7.3,5.1,14.2,9.2,19.5,11.7c2.6,1.2,4.8,2.1,6.3,2.6
							c0.8,0.2,1.4,0.4,1.8,0.5C336.3,227.1,336.5,227.2,336.5,227.3z"/>
					</g>
				</g>
			</g>
			<g>
				<g>
					<g>
						<path class="st18" d="M361.6,239c0,0.4-1.2,0.7-3.2,0.8c-2,0-4.8-0.3-7.7-1.4c-5.8-2.2-9.4-5.7-9-6.3c0.5-0.7,4.6,1.7,9.9,3.7
							c2.7,1,5.1,1.6,7,2C360.4,238.3,361.6,238.6,361.6,239z"/>
					</g>
				</g>
			</g>
			<g>
				<g>
					<g>
						<path class="st18" d="M249.4,216.3c0.3,0.1-0.4,3.9-2.9,9.5c-1.2,2.8-3,6.1-5.1,9.5c-2.2,3.4-5,7-8.2,10.4
							c-3.3,3.4-6.8,6.2-10.3,8.5c-0.9,0.5-1.7,1-2.6,1.5c-0.8,0.5-1.7,0.9-2.5,1.3c-0.8,0.4-1.6,0.8-2.4,1.1
							c-0.8,0.3-1.6,0.6-2.3,0.8c-1.4,0.6-2.8,0.8-4,1.1c-0.6,0.1-1.2,0.3-1.7,0.3c-0.5,0-1,0.1-1.4,0.1c-1.7,0.1-2.7,0.1-2.7-0.1
							c0-0.2,0.9-0.5,2.5-1c0.4-0.1,0.9-0.2,1.3-0.4c0.5-0.1,1-0.4,1.6-0.5c1.1-0.4,2.4-0.8,3.7-1.4c0.7-0.3,1.4-0.6,2.1-0.9
							c0.7-0.3,1.5-0.8,2.2-1.2c0.8-0.4,1.6-0.8,2.3-1.3c0.8-0.5,1.6-1,2.4-1.6c3.2-2.3,6.5-5,9.7-8.3c3.1-3.3,5.8-6.7,8.1-9.9
							c2.2-3.3,4.1-6.3,5.5-9C247.7,219.7,249,216.2,249.4,216.3z"/>
					</g>
				</g>
			</g>
			<g>
				<g>
					<g>
						<path class="st18" d="M267.3,184c-0.5,0.5-2.7-0.6-4.2-3.1c-0.8-1.2-1.1-2.6-1.2-3.5c0-1,0.2-1.6,0.6-1.7
							c0.4-0.1,0.8,0.4,1.3,1.1c0.5,0.7,1,1.6,1.7,2.7C266.8,181.6,267.9,183.4,267.3,184z"/>
					</g>
				</g>
			</g>
			<g>
				<g>
					<g>
						<path class="st18" d="M213.7,377.4c-0.4,0,0.1-6.6,1-17.2c0.4-5.3,1-11.6,1-18.5c0-7-0.4-14.6-2.3-22.4
							c-1.8-7.8-4.9-14.8-8.4-20.8c-0.9-1.5-1.7-3-2.6-4.5c-0.9-1.4-1.6-3-2.3-4.4c-0.4-0.7-0.6-1.4-0.9-2.2
							c-0.3-0.7-0.5-1.4-0.8-2.1c-0.5-1.4-0.9-2.8-1.3-4.1c-1.4-5.2-1.8-9.6-2.1-12.5c-0.2-3-0.2-4.6,0-4.7c0.2,0,0.6,1.6,1.1,4.5
							c0.6,2.9,1.3,7.1,2.9,12.1c0.4,1.2,0.9,2.5,1.4,3.9c0.3,0.7,0.6,1.3,0.9,2c0.3,0.7,0.6,1.4,0.9,2c0.7,1.4,1.4,2.8,2.3,4.2
							c0.9,1.4,1.8,2.9,2.7,4.4c3.7,6.1,7,13.4,8.9,21.4c2,8,2.3,16,2.1,23c-0.2,7.1-0.9,13.4-1.6,18.7
							C215.2,370.9,214,377.4,213.7,377.4z"/>
					</g>
				</g>
			</g>
			<g>
				<g>
					<g>
						<path class="st18" d="M224.7,426.9c-0.1,0.2-0.7-0.1-1.7-0.7c-0.5-0.3-1.1-0.7-1.7-1.2c-0.3-0.3-0.6-0.6-1-0.9
							c-0.2-0.2-0.4-0.3-0.5-0.5c-0.2-0.2-0.3-0.4-0.5-0.6c-0.7-0.8-1.5-1.6-2.1-2.7c-0.3-0.5-0.7-1-1-1.6c-0.3-0.6-0.6-1.2-0.9-1.8
							c-1.2-2.5-2.1-5.4-2.8-8.4c-1.2-6.2-1.2-11.8-1.3-15.8c0-4,0.1-6.5,0.5-6.5c0.4,0,1,2.4,1.5,6.4c0.5,4,0.9,9.5,2,15.3
							c0.6,2.9,1.4,5.6,2.4,7.9c0.3,0.6,0.5,1.1,0.8,1.7c0.2,0.6,0.6,1,0.8,1.5c0.5,1,1.2,1.8,1.7,2.6c0.1,0.2,0.3,0.4,0.4,0.6
							c0.1,0.2,0.3,0.3,0.4,0.5c0.3,0.3,0.5,0.7,0.8,1c0.5,0.6,1,1.1,1.3,1.5C224.4,426.2,224.8,426.8,224.7,426.9z"/>
					</g>
				</g>
			</g>
			<g>
				<g>
					<g>
						<path class="st18" d="M374.8,426.5c-0.4-0.2,1.6-4,3.5-10.6c0.3-0.8,0.5-1.7,0.7-2.6c0.2-0.9,0.5-1.8,0.7-2.8
							c0.4-2,0.9-4.1,1.2-6.3c0.8-4.5,1.3-9.4,1.6-14.6c0.6-10.5-0.4-19.9-1.6-26.7c-1.2-6.8-2.5-10.8-2.1-11
							c0.2-0.1,0.7,0.9,1.5,2.7c0.2,0.5,0.4,1,0.6,1.5c0.2,0.6,0.4,1.2,0.6,1.8c0.4,1.3,1,2.8,1.3,4.5c1.7,6.8,3,16.5,2.4,27.2
							c-0.3,5.3-0.9,10.4-1.8,15c-0.4,2.3-1,4.4-1.5,6.4c-0.3,1-0.6,1.9-0.9,2.9c-0.3,0.9-0.6,1.8-0.9,2.6
							C377.7,423.1,375,426.7,374.8,426.5z"/>
					</g>
				</g>
			</g>
			<g>
				<g>
					<g>
						<path class="st19" d="M356.4,359.8c0.1,0.1-2,2.3-6.3,5.9c-4.3,3.5-10.6,8.6-19.4,13.3c-4.4,2.3-9.5,4.5-15.4,5.8
							c-2.9,0.6-6.1,1-9.2,0.9c-1.6,0-3.1,0.1-4.7,0c-1.6,0-3.2,0-4.9-0.1c-6.6-0.3-13.5-1.1-20.5-2.7c-3.5-0.8-7-1.9-10.5-3.2
							c-3.5-1.4-7-2.9-10.3-5c-6.7-3.8-12.4-9-17-14.5c-4.7-5.6-8.1-11.8-10.7-17.9c-2.6-6.1-4.4-12.2-5.6-17.9
							c-1.2-5.7-2-11.2-2.4-16.1c-0.9-9.9-0.7-18-0.5-23.5c0.3-5.5,0.6-8.6,0.8-8.6c0.2,0,0.3,3.1,0.3,8.6
							c0.1,5.5,0.3,13.5,1.4,23.3c0.5,4.9,1.4,10.2,2.7,15.8c1.3,5.6,3.1,11.5,5.7,17.4c2.6,5.9,5.9,11.8,10.4,17.2
							c4.5,5.3,9.9,10.2,16.3,13.9c3.1,1.9,6.5,3.4,9.8,4.8c3.4,1.2,6.8,2.4,10.2,3.1c6.8,1.7,13.6,2.5,20,2.8
							c1.6,0.1,3.2,0.1,4.8,0.2c1.6,0.1,3.1,0,4.7,0c3.1,0.1,5.9-0.2,8.7-0.7c5.5-1.1,10.5-3.1,14.9-5.3c8.8-4.4,15.2-9.1,19.7-12.4
							C353.8,361.5,356.2,359.6,356.4,359.8z"/>
					</g>
				</g>
			</g>
			<g>
				<g>
					<path class="st20" d="M253.9,517.1c-10.3,9.3,36.7,80.5,45.7,83.5"/>
				</g>
				<g>
					<path class="st20" d="M244.1,451.5c-7.4,3.6-7.2,22.7-4.6,32.5c2.6,9.8,4.1,22.2,10.3,29.9"/>
				</g>
			</g>
			<g>
				<g>
					<path class="st20" d="M358.9,513c10.3,9.3-36.7,80.5-45.7,83.5"/>
				</g>
				<g>
					<path class="st20" d="M368.7,447.4c7.4,3.6,7.2,22.7,4.6,32.5c-2.6,9.8-4.1,22.2-10.3,29.9"/>
				</g>
			</g>
			<path class="st9" d="M258.2,301.8c-7.2-1.8-25.3,0.2-27.2,8.2c0,0,2.1,9.4,23.8,0.6C261.9,307.8,263.2,303,258.2,301.8z"/>
			<path class="st9" d="M336.5,297.4c6.7-2.7,24.1-3.2,26.8,4.7c0,0-1,9.7-22.6,3.8C333.7,304,332,299.3,336.5,297.4z"/>
			<g>
				<path class="st21" d="M277.1,334.1c0,0,18.7-12,44.9,0c0,0-3.1,21.7-22.7,21.7C299.3,355.7,280.7,353.2,277.1,334.1z"/>
				<g>
					<path class="st22" d="M284.5,348.3c6.6,6.3,14.7,7.5,14.7,7.5c9,0,13.8-4.5,17-8.3C304,339.6,292.8,341.6,284.5,348.3z"/>
				</g>
				<g>
					<g>
						<g>
							<path class="st19" d="M314.7,357.7c0.1,0.1-0.1,0.4-0.6,1c-0.1,0.1-0.3,0.3-0.4,0.5c-0.2,0.2-0.4,0.3-0.6,0.5
								c-0.4,0.3-0.9,0.8-1.5,1.1c-2.3,1.5-6.2,2.5-10.3,2.3c-2.1-0.1-4.1-0.4-5.8-0.9c-1.7-0.4-3.3-1.1-4.5-1.7
								c-1.2-0.7-2.1-1.3-2.6-1.9c-0.5-0.6-0.8-0.9-0.7-1c0.1-0.1,0.5,0.1,1.1,0.5c0.6,0.4,1.6,0.8,2.7,1.3c1.2,0.5,2.7,1,4.3,1.3
								c1.7,0.4,3.5,0.6,5.5,0.7c3.9,0.2,7.4-0.6,9.7-1.7C313.3,358.7,314.5,357.5,314.7,357.7z"/>
						</g>
					</g>
				</g>
				<g>
					<g>
						<g>
							<path class="st23" d="M333.6,335.3c0,0.1-0.2,0.1-0.7,0.2c-0.5,0.1-1.2,0.2-2.1,0.2c-1.8,0.1-4.4-0.3-7.5-1
								c-3.1-0.7-6.7-1.7-10.7-2.8c-2-0.5-4.1-1.1-6.3-1.5c-2.2-0.4-4.5-0.7-6.8-0.8c-0.6,0-1.2,0-1.7,0c-0.6,0.1-1.1,0.1-1.7,0.2
								c-0.6,0-1.1,0.2-1.7,0.3c-0.6,0.1-1.1,0.2-1.7,0.3c-2.2,0.5-4.3,1-6.3,1.5c-4,1-7.6,2-10.7,2.7c-3.1,0.7-5.7,1-7.5,1
								c-1.8-0.1-2.8-0.5-2.7-0.6c0-0.2,1,0,2.7-0.2c1.7-0.2,4.2-0.7,7.2-1.5c3-0.8,6.6-2,10.6-3.1c2-0.6,4.1-1.2,6.4-1.6
								c0.6-0.1,1.1-0.2,1.7-0.4c0.6-0.1,1.1-0.2,1.8-0.3c0.6-0.1,1.2-0.1,1.8-0.2c0.6,0,1.2,0,1.9,0c2.5,0.1,4.9,0.4,7.1,0.8
								c2.3,0.4,4.4,1,6.4,1.6c4,1.2,7.6,2.3,10.6,3.2c3,0.8,5.5,1.4,7.2,1.5c0.9,0.2,1.5,0.1,2,0.2
								C333.3,335.1,333.5,335.2,333.6,335.3z"/>
						</g>
					</g>
				</g>
			</g>
			<g>
				<path class="st24" d="M380.1,321.5c-0.1,1.2-0.2,1.8-0.2,1.8c-1.2,2.6-2.7,3.7-4.2,3.7c-4.8,0-4.8-6.4-4.8-6.4
					c0.9-10.4,0-37.8,0-37.8c-0.3-5.7,3.1-6.3,3.1-6.3c3.5-0.6,5.3,2.8,5.7,3.8c0.1,0.2,0.1,0.3,0.1,0.3
					C381.5,303.6,380.5,317,380.1,321.5z"/>
				<path class="st0" d="M388.7,319.8c-1.8,1-3.9,1.6-6.2,1.8c-0.8,0.1-1.6,0-2.5-0.1c0.5-4.6,1.4-17.9-0.2-40.9c0,0,0-0.1-0.1-0.3
					c3.6-0.1,6.9,0.3,10.1,2.6C402.7,292,400.2,313.5,388.7,319.8z"/>
				<path class="st24" d="M388.7,319.8c-1.8,12.3-11.3,41.3-61.3,40.9l0,0l0-3.8c24.6-0.9,50.3-7.8,55.1-35.3
					C384.8,321.5,386.9,320.8,388.7,319.8z"/>
				<path class="st0" d="M327.4,356.5v0.4l0,3.8l0,0h0c-8.2,8-17.8,3.1-17.8,3.1c-3.9-2.3-4.2-7.6-1.2-10.3c3.2-2.9,9.1-2.6,12.8-1
					C324.8,354,327.1,355.8,327.4,356.5z"/>
			</g>
		</g>
	</g>
</g>
<g>
	<g>
		<g>
			<path class="st25" d="M593.8,22.2c-35.9-15-86.3-7.1-117.9,16.3c-26.5,19.6-50.6,45.5-65.9,75c-18.6,36-9,70.2-9.9,108.3
				c0,0-5.1,8.9-17.5,17.6c0,0,12.8,3.9,34.4-7.8c2.6-1.4,15.2,5.2,17.6,6c15.1,5.1,30.6,8.7,46.6,9.9c40.3,3,90-3.8,121.5-32.1
				c26.4-23.7,50.5-57.2,53.4-93.5C659.2,82.1,631.1,37.8,593.8,22.2z"/>
			<g>
				<g>
					<g>
						<path class="st26" d="M651.9,88.3c0.2-0.1,0.7,1,1.4,3.2c0.4,1.1,0.9,2.4,1.3,4c0.4,1.6,0.8,3.5,1.4,5.6
							c0.4,2.2,0.8,4.6,1.1,7.2c0.1,1.3,0.2,2.7,0.3,4.2c0.1,0.7,0.1,1.5,0.2,2.2c0,0.8,0,1.5,0,2.3c0.2,6.2-0.5,13.4-2.1,21.1
							c-1.6,7.7-4.3,15.9-8.2,24.3c-3.9,8.4-9,16.9-15.1,25.2c-3.1,4.2-6.4,8.3-10,12.4c-3.6,4.1-7.4,8.1-11.5,11.9
							c-4.1,3.9-8.4,7.7-13,11.3c-4.6,3.6-9.4,7.1-14.7,10.1c-2.7,1.5-5.3,2.9-8,4.1c-2.7,1.3-5.4,2.4-8.1,3.4
							c-5.5,2.1-10.9,3.9-16.4,5.4c-5.4,1.5-10.8,2.7-16.2,3.7c-5.3,1-10.6,1.7-15.7,2.2c-10.3,1-20.2,1.1-29.4,0.6
							c-9.2-0.6-17.7-1.8-25.3-3.4c-7.6-1.6-14.4-3.6-20.3-5.5c-5.8-2.1-10.8-4-14.7-5.9c-2-0.9-3.7-1.8-5.2-2.5
							c-1.5-0.8-2.7-1.5-3.7-2c-2-1.1-3-1.8-2.9-2c0.1-0.2,1.2,0.2,3.4,1c1.1,0.4,2.4,0.9,3.9,1.6c1.6,0.6,3.3,1.3,5.4,2
							c4,1.5,9,3.2,14.8,4.9c5.9,1.6,12.6,3.3,20.1,4.7c7.5,1.3,15.9,2.3,24.8,2.6c9,0.3,18.6,0,28.6-1.1c5-0.6,10.1-1.4,15.3-2.4
							c5.2-1,10.4-2.3,15.7-3.8c5.3-1.5,10.6-3.3,15.8-5.3c5.3-2.1,10.5-4.4,15.5-7.2c4.9-2.8,9.6-6.2,14.1-9.6
							c4.5-3.5,8.7-7.1,12.7-10.9c4-3.7,7.8-7.6,11.3-11.5c3.6-3.9,6.8-7.9,9.9-11.9c6-8,11.2-16.2,15.1-24.2
							c3.9-8,6.7-15.9,8.5-23.2c1.8-7.4,2.7-14.2,2.8-20.2c0-0.8,0.1-1.5,0.1-2.2c0-0.7,0-1.4,0-2.1c0-1.4-0.1-2.8-0.1-4.1
							c-0.2-2.6-0.4-4.9-0.6-7.1c-0.3-2.1-0.6-4-0.8-5.6c-0.2-1.6-0.6-3-0.8-4.1C651.8,89.6,651.7,88.4,651.9,88.3z"/>
					</g>
				</g>
			</g>
			<g>
				<g>
					<g>
						<path class="st26" d="M398.3,163.8c-0.2,0-0.4-1.2-0.6-3.6c-0.1-1.2-0.2-2.7-0.3-4.4c0-1.8,0.1-3.8,0.1-6.1c0-0.6,0-1.2,0-1.8
							c0.1-0.6,0.1-1.2,0.2-1.8c0.1-1.3,0.3-2.6,0.4-4c0.1-0.7,0.1-1.4,0.2-2.1c0.1-0.7,0.3-1.4,0.4-2.2c0.3-1.5,0.5-3,0.8-4.6
							c1.5-6.3,3.4-13.5,6.6-21c3.2-7.5,7.3-15.5,12.6-23.6c5.4-8,11.8-16,19.4-23.8c7.6-7.7,16.2-15.2,25.8-21.9
							c9.6-6.8,20.2-12.9,31.7-17.9c11.5-5,23.2-8.7,34.8-10.9l2.2-0.4c0.7-0.1,1.5-0.2,2.2-0.3c1.5-0.2,2.9-0.4,4.3-0.6
							c0.7-0.1,1.4-0.2,2.2-0.2c0.7-0.1,1.4-0.1,2.2-0.2c1.4-0.1,2.9-0.2,4.3-0.4c2.9-0.1,5.7-0.2,8.5-0.2c1.4,0.1,2.8,0.1,4.2,0.2
							c1.4,0.1,2.8,0.1,4.1,0.3c10.9,1,21,3.5,30.1,6.7c9.1,3.3,17.2,7.5,23.9,12.3c6.7,4.7,12.2,10,16.3,15.1
							c4.1,5.1,6.9,10.1,8.8,14.2c1.9,4.2,2.9,7.6,3.4,9.9c0.5,2.4,0.7,3.6,0.5,3.6c-0.5,0.1-1.7-4.8-5.8-12.6
							c-2.1-3.9-5.1-8.5-9.2-13.2c-4.1-4.7-9.5-9.5-16.1-13.8c-6.6-4.3-14.4-8.2-23.2-11.2c-8.8-3-18.6-5.2-29-6
							c-1.3-0.2-2.6-0.2-3.9-0.2c-1.3,0-2.6-0.1-4-0.1c-2.7,0-5.4,0.2-8.1,0.2c-1.4,0.1-2.7,0.3-4.1,0.4c-0.7,0.1-1.4,0.1-2.1,0.2
							c-0.7,0.1-1.4,0.1-2.1,0.3c-1.4,0.2-2.8,0.4-4.2,0.6l-2.1,0.3l-2.1,0.4c-11.2,2.2-22.5,5.8-33.6,10.7
							c-11.1,4.8-21.4,10.8-30.8,17.3c-9.4,6.5-17.9,13.7-25.3,21.1c-7.5,7.4-13.9,15.1-19.2,22.8c-5.3,7.7-9.5,15.3-12.8,22.6
							c-3.4,7.2-5.5,14.1-7.2,20.2c-0.4,1.5-0.7,3-1,4.5c-0.2,0.7-0.3,1.4-0.5,2.1c-0.1,0.7-0.2,1.4-0.3,2c-0.2,1.3-0.4,2.6-0.6,3.8
							c-0.1,0.6-0.2,1.2-0.3,1.8c-0.1,0.6-0.1,1.2-0.2,1.7c-0.2,2.2-0.4,4.2-0.6,5.9c-0.1,1.7-0.1,3.2-0.2,4.4
							C398.7,162.5,398.5,163.8,398.3,163.8z"/>
					</g>
				</g>
			</g>
		</g>
		<g>
			<g>
				<path class="st27" d="M504.6,139.5l3.7,5.8c-16.3,36.7-50.2,36.6-50.2,36.6l-3.6-5c-2.7-3.8-1.9-6.6-0.8-8.1
					c1.5,1.9,3.2,3.8,5.2,5.5c0,0,34.2-6.9,41.7-32.6c0,0-1.1-2.8-3.4-6.1C502,134.9,504.6,139.5,504.6,139.5z"/>
				<path class="st11" d="M548.7,47.5c-19.4,6.7-27.2,9.2-44.3,21.5c0,0-11.1,8.2-11.1,8.2c-13.7,9.7-26.1,22.8-36.2,35.8
					c-12.2,15.7-16.4,39.2-3.4,55.7c1.5,1.9,3.2,3.8,5.2,5.5c0,0,34.2-6.9,41.7-32.6c0,0-1.1-2.8-3.4-6.1c-2.7-3.9-7.2-8.4-13.5-9.7
					c0,0-0.7-14.8,28.6-35.6c33.7-24,40.2-13.5,40.2-13.5c-0.9,6.4,2,12.1,4.8,16c2.3,3.2,4.7,5.2,4.7,5.2
					c26.7,1.3,44.3-28.9,44.3-28.9c-1-2.4-2.2-4.7-3.5-6.7C591.1,44.6,567.5,41,548.7,47.5z"/>
				<path class="st27" d="M558.4,101l4.3,5.3c40-3.6,50.9-35.7,50.9-35.7l-3.6-5c-2.7-3.8-5.6-3.9-7.4-3.4c1.3,2,2.5,4.3,3.5,6.7
					c0,0-17.6,30.2-44.3,28.9c0,0-2.3-2-4.7-5.2C554.8,97.1,558.4,101,558.4,101z"/>
			</g>
			<g>
				<g>
					<g>
						<path class="st28" d="M463,122.3c0.3,0.2-1.1,2.4-2.8,6.2c-0.5,0.9-0.8,2-1.3,3.1c-0.2,0.6-0.4,1.2-0.6,1.8
							c-0.1,0.3-0.2,0.6-0.3,0.9c-0.1,0.3-0.2,0.6-0.3,1c-0.7,2.6-1.2,5.6-1.3,8.7c-0.3,6.3,1.4,11.8,3.1,15.6
							c0.5,0.9,0.9,1.8,1.3,2.5c0.4,0.8,0.8,1.3,1,1.9c0.6,1,0.8,1.7,0.7,1.8c-0.1,0.1-0.6-0.3-1.4-1.2c-0.4-0.5-0.9-1-1.4-1.7
							c-0.5-0.7-1-1.5-1.6-2.4c-0.5-1-1.1-2-1.6-3.2c-0.2-0.6-0.5-1.2-0.7-1.9c-0.1-0.3-0.2-0.6-0.4-1c-0.1-0.3-0.2-0.7-0.3-1
							c-0.8-2.8-1.1-6-1-9.3c0.1-3.3,0.7-6.5,1.6-9.2c0.1-0.3,0.2-0.7,0.3-1c0.1-0.3,0.2-0.6,0.4-1c0.2-0.6,0.5-1.3,0.7-1.8
							c0.6-1.1,1-2.2,1.6-3.2C460.8,124,462.7,122.1,463,122.3z"/>
					</g>
				</g>
			</g>
			<g>
				<g>
					<g>
						<path class="st28" d="M595.4,68.6c-0.4,0-0.6-1.2-1.4-2.8c-0.4-0.8-0.9-1.8-1.6-2.7c-0.7-0.9-1.6-1.8-2.7-2.7
							c-2.2-1.7-4.6-2.8-6.3-3.6c-1.7-0.8-2.8-1.4-2.7-1.7c0.1-0.3,1.3-0.3,3.3,0.2c1.9,0.5,4.6,1.4,7.1,3.3c1.3,1,2.3,2.1,3,3.3
							c0.8,1.2,1.2,2.4,1.4,3.4c0.2,1,0.2,1.9,0.2,2.4C595.7,68.3,595.6,68.6,595.4,68.6z"/>
					</g>
				</g>
			</g>
		</g>
		<g>
			<g>
				<g>
					<path class="st29" d="M486,247.7c-0.1-0.1,0.7-0.9,2.2-2.5c0.7-0.8,1.6-1.8,2.3-3.2c0.7-1.4,1.2-3.1,1.4-5.2
						c0.1-0.5,0.1-1,0.1-1.6c0-0.5,0.1-1.1,0-1.6c-0.1-1.1-0.4-2.2-0.9-3.2c-1.2-2.1-3.4-3.7-6.1-4.6c-2.7-0.9-5.8-1.2-8.9-0.2
						c-1.5,0.5-2.9,1.3-4,2.5c-0.6,0.6-0.9,1.3-1.3,2.1c-0.1,0.4-0.3,0.8-0.4,1.2l-0.1,0.6c0,0.2,0,0.3,0,0.5
						c0.1,1.5,0.9,3.4,2.1,4.3c0.6,0.4,1.3,0.5,2,0.2c0.8-0.3,1.4-0.8,1.8-1.6c0.8-1.5,0.7-3.6,0.3-5.5c-0.4-1.9-1.2-3.9-2.3-5.6
						c-0.6-0.9-1.2-1.7-2-2.3c-0.4-0.3-0.7-0.5-1.2-0.6c-0.4-0.2-0.9-0.2-1.4-0.3c-2-0.1-4.2,0.4-6.3,1.1c-2.1,0.8-4.1,1.8-5.8,3.3
						c-0.8,0.7-1.5,1.5-1.8,2.4c-0.3,0.9-0.2,1.8,0.3,2.6c0.5,0.7,1.4,1.2,2.3,1.1c0.8-0.1,1.6-0.8,2-1.7c0.9-2,1.1-4.5,0.4-6.7
						c-0.7-2.2-2-4.3-3.9-5.8c-0.5-0.3-1-0.7-1.6-1.1l-1.6-1.1c-1.1-0.7-2.2-1.3-3.4-1.8c-2.3-1-4.8-1.4-7.3-1
						c-1.2,0.2-2.4,0.6-3.5,1.2c-1.1,0.6-2.2,1.3-2.9,2.2c-0.3,0.4-0.6,0.9-0.6,1.3c0,0.4,0.1,0.8,0.4,1.2c0.7,1,1.6,1.8,2.6,2
						c1,0.3,2.1-0.1,3.2-0.7c1-0.6,2-1.6,2.8-2.6c1.5-2,2.2-4.7,2.1-7.2c0-1.3-0.3-2.5-0.8-3.7c-0.5-1.2-1-2.4-1.7-3.5
						c-1.4-2.2-3.3-4-5.6-5c-1.1-0.5-2.3-0.9-3.6-1.1c-1.2-0.2-2.5-0.3-3.7-0.1c-1.2,0.1-2.2,0.6-2.6,1.3c-0.4,0.7-0.3,1.8,0.3,2.7
						c1.1,2,3.3,3.4,5.5,3.7c1.1,0.2,2.2,0.1,3.4-0.3c1.1-0.3,2.2-0.8,3.1-1.5c1.9-1.3,3.3-3.2,4.2-5.3c0.4-1.1,0.7-2.2,0.8-3.3
						c0.1-0.6,0-1.1,0.1-1.7c-0.1-0.5-0.1-1.1-0.2-1.6c-0.3-2.2-1.6-3.9-3.3-5.3c-1.7-1.3-3.7-2.3-5.7-2.9c-0.9-0.2-1.9-0.3-2.8,0
						c-0.9,0.2-1.7,0.7-1.8,1.3c-0.1,0.6,0.2,1.5,0.8,2.2c0.6,0.8,1.3,1.4,2.1,1.9c1.6,0.9,3.6,0.9,5.3,0.3c3.5-1.3,6.1-4.5,6.8-7.8
						c0.4-1.7,0.2-3.4-0.4-4.9c-0.6-1.5-1.6-2.8-2.8-3.8c-1.2-1-2.5-1.8-3.9-2.1c-1.4-0.3-2.9-0.1-3.8,0.7c-0.4,0.4-0.7,0.9-0.6,1.5
						c0,0.5,0.3,1.1,0.7,1.5c0.4,0.5,0.9,0.8,1.4,1.2c0.2,0.2,0.5,0.3,0.8,0.4c0.3,0.1,0.6,0.2,0.8,0.4c2.3,0.8,4.6,0.7,6.4,0
						c1.9-0.7,3.2-1.9,4.2-3.1c0.9-1.2,1.5-2.5,1.7-3.5c0.2-0.5,0.2-1,0.3-1.4c0.1-0.4,0.1-0.7,0.1-1c0-0.6,0-0.8,0.1-0.8
						s0.1,0.3,0.1,0.8c0,0.3,0.1,0.6,0,1.1c0,0.4,0,0.9-0.2,1.5c-0.2,1.1-0.7,2.4-1.6,3.8c-0.9,1.3-2.4,2.7-4.4,3.5
						c-2,0.8-4.6,1-7.1,0.2c-0.3-0.1-0.6-0.3-0.9-0.4c-0.3-0.1-0.6-0.3-0.9-0.5c-0.6-0.4-1.2-0.8-1.7-1.4c-0.5-0.6-0.9-1.3-1-2.2
						c0-0.4,0-0.9,0.2-1.3c0.2-0.4,0.4-0.8,0.8-1.1c1.3-1.2,3.2-1.4,4.8-1.1c1.7,0.3,3.2,1.2,4.6,2.3c1.3,1.1,2.6,2.6,3.3,4.3
						c0.7,1.8,0.9,3.8,0.5,5.7c-0.4,2-1.3,3.8-2.6,5.4c-1.3,1.6-3,2.9-5.1,3.7c-2,0.8-4.6,0.8-6.7-0.4c-1-0.6-1.9-1.4-2.6-2.3
						c-0.2-0.2-0.4-0.5-0.5-0.7c-0.1-0.3-0.3-0.6-0.4-0.8c-0.2-0.6-0.4-1.3-0.2-2.1c0.2-0.8,0.7-1.4,1.2-1.8
						c0.6-0.4,1.2-0.7,1.8-0.8c1.2-0.3,2.5-0.3,3.8,0c2.3,0.7,4.5,1.7,6.4,3.2c1,0.8,1.9,1.7,2.6,2.8c0.7,1.1,1.3,2.4,1.4,3.6
						c0.2,0.6,0.2,1.3,0.2,1.9c0,0.6,0,1.3-0.1,1.9c-0.1,1.3-0.4,2.6-0.9,3.8c-0.9,2.4-2.6,4.7-4.8,6.2c-1.1,0.8-2.4,1.4-3.7,1.8
						c-1.3,0.4-2.8,0.6-4.2,0.4c-2.8-0.4-5.5-2.1-7-4.7c-0.4-0.7-0.6-1.4-0.7-2.2c-0.1-0.8,0-1.7,0.5-2.5c0.4-0.8,1.2-1.4,1.9-1.7
						c0.7-0.4,1.5-0.5,2.2-0.6c2.9-0.3,5.8,0.2,8.4,1.4c2.6,1.3,4.8,3.4,6.4,5.8c0.8,1.2,1.4,2.5,2,3.9c0.5,1.4,0.9,2.9,0.9,4.4
						c0.1,3-0.7,6.1-2.6,8.6c-1,1.2-2,2.3-3.4,3.1c-0.7,0.4-1.4,0.8-2.2,1c-0.8,0.2-1.7,0.2-2.6,0c-0.8-0.2-1.7-0.6-2.3-1.1
						c-0.3-0.2-0.6-0.6-0.9-0.8c-0.3-0.3-0.5-0.6-0.7-0.9c-0.5-0.7-0.8-1.7-0.7-2.7c0.1-1,0.6-1.8,1.1-2.4c1-1.2,2.3-2.1,3.6-2.7
						c1.3-0.6,2.6-1.2,4.2-1.4c1.4-0.2,2.9-0.3,4.3,0c1.4,0.2,2.8,0.6,4.1,1.2c1.3,0.6,2.5,1.3,3.6,2l1.7,1.1
						c0.6,0.4,1.1,0.7,1.7,1.2c2.3,1.7,3.9,4.2,4.6,6.9c0.8,2.7,0.7,5.6-0.6,8.1c-0.3,0.7-0.7,1.3-1.4,1.8c-0.3,0.3-0.6,0.5-1,0.7
						c-0.4,0.2-0.8,0.3-1.2,0.3c-1.7,0.2-3.2-0.6-4.1-1.9c-0.9-1.3-1-3-0.5-4.4c0.5-1.4,1.5-2.4,2.4-3.2c1-0.8,2-1.5,3.1-2.1
						c1.1-0.6,2.2-1.1,3.3-1.5c2.3-0.8,4.6-1.4,7.1-1.2c0.6,0.1,1.2,0.1,1.9,0.4c0.3,0.1,0.6,0.2,0.9,0.4c0.3,0.2,0.6,0.4,0.8,0.6
						c1,0.8,1.7,1.7,2.3,2.7c1.2,1.9,2.1,4,2.5,6.2c0.2,1.1,0.4,2.2,0.3,3.3c0,1.1-0.2,2.3-0.8,3.3c-0.5,1.1-1.5,1.9-2.6,2.3
						c-0.3,0.1-0.6,0.2-0.9,0.3c-0.3,0-0.6,0.1-1,0c-0.6-0.1-1.2-0.3-1.7-0.7c-1-0.7-1.5-1.6-2-2.6c-0.4-1-0.7-1.9-0.7-3
						c0-0.3,0-0.6,0.1-0.8l0.2-0.7c0.1-0.5,0.3-0.9,0.5-1.4c0.4-0.9,0.9-1.7,1.6-2.4c1.3-1.4,3-2.3,4.7-2.8c3.4-1,6.8-0.6,9.7,0.4
						c2.9,1,5.3,2.9,6.6,5.3c0.6,1.2,0.9,2.5,1,3.7c0,0.6,0,1.2-0.1,1.7c0,0.6-0.1,1.1-0.2,1.6c-0.3,2.1-0.9,3.9-1.7,5.3
						c-0.8,1.4-1.7,2.5-2.5,3.2c-0.8,0.8-1.4,1.3-1.8,1.7C486.2,247.5,486,247.7,486,247.7z"/>
				</g>
			</g>
		</g>
	</g>
</g>
<g>
	<path class="st25" d="M431.2,309.8c0,0,18.6,6.6,28,0c14.1,22.4,27.8,40,51.3,53.4c6.2,3.5,13.3,6.2,20.2,7.8
		c35.9,8.4,81.8,3.6,112.4-19.1c62.3-46.3,43.2-139-16.2-171c-31.4-16.9-69.4-23.8-102.6-8.6c-24,11-43.7,26.2-55.2,50.9
		c-8.8,18.8-11.1,41-9.8,61.7C459.1,284.8,455.8,298.3,431.2,309.8z"/>
	<g>
		<g>
			<polygon class="st30" points="494.6,271.8 579,286.6 619.8,219.2 			"/>
			<path class="st31" d="M656.5,305.5L579,286.6l-36.5,68.9C550.2,352.8,613.2,330.4,656.5,305.5z"/>
		</g>
		<path class="st31" d="M619.8,219.2l-125.5,52.7c-2.7-33.6,39.4-88.5,39.4-88.5S600.4,194,619.8,219.2z"/>
		<path class="st32" d="M579,286.6l-36.5,68.9c-0.5,0.2-0.8,0.3-0.8,0.3l-47.3-83.9l0.2-0.1L579,286.6z"/>
		<path class="st32" d="M664.3,300.9c-2.5,1.5-5.1,3.1-7.8,4.6L579,286.6l40.9-67.4L664.3,300.9z"/>
		<path class="st33" d="M656.5,305.5"/>
		<path class="st33" d="M679.2,311.1"/>
		<polygon class="st34" points="610.7,234.5 585.4,191.3 490.1,233.2 513.4,275.1 579,286.6 		"/>
		<g>
			<g>
				<g>
					<path class="st35" d="M579,211.7c0.1,0.2-3.6,1.9-9.5,4.5c-6,2.6-14.3,6-23.5,9.8c-9.2,3.8-17.5,7.1-23.6,9.5
						c-6.1,2.3-9.9,3.7-10,3.5c-0.1-0.2,3.5-2,9.5-4.6c6-2.6,14.3-6.2,23.5-10c9.2-3.8,17.6-7,23.7-9.3
						C575.1,212.8,578.9,211.5,579,211.7z"/>
				</g>
			</g>
		</g>
		<g>
			<g>
				<g>
					<path class="st35" d="M583.7,217.3c0.2,0.4-8.7,4.4-19.9,8.9c-11.2,4.4-20.3,7.5-20.5,7.1c-0.2-0.4,8.7-4.3,19.9-8.7
						C574.4,220.1,583.5,216.8,583.7,217.3z"/>
				</g>
			</g>
		</g>
		<g>
			<g>
				<g>
					<path class="st35" d="M576.4,227.9c0.1,0.2-2.9,1.6-7.7,3.8c-4.8,2.1-11.6,4.9-19.1,8c-7.5,3.1-14.3,5.8-19.2,7.7
						c-5,1.9-8.1,2.9-8.2,2.7c-0.1-0.2,2.8-1.7,7.7-3.8c4.8-2.2,11.6-5.1,19-8.1c7.5-3.1,14.3-5.7,19.3-7.5
						C573.2,228.7,576.3,227.6,576.4,227.9z"/>
				</g>
			</g>
		</g>
		<g>
			<g>
				<g>
					<path class="st35" d="M596.9,227.9c0.1,0.2-3.6,1.9-9.5,4.5c-6,2.6-14.3,6-23.5,9.8c-9.2,3.8-17.5,7.1-23.6,9.5
						c-6.1,2.3-9.9,3.7-10,3.5c-0.1-0.2,3.5-2,9.5-4.6c6-2.6,14.3-6.2,23.5-10c9.2-3.8,17.6-7,23.7-9.3
						C592.9,229,596.8,227.6,596.9,227.9z"/>
				</g>
			</g>
		</g>
		<g>
			<g>
				<g>
					<path class="st35" d="M569.5,247.1c0.2,0.4-8.7,4.4-19.9,8.9c-11.2,4.4-20.3,7.5-20.5,7.1c-0.2-0.4,8.7-4.3,19.9-8.7
						C560.2,249.9,569.4,246.7,569.5,247.1z"/>
				</g>
			</g>
		</g>
		<g>
			<g>
				<g>
					<path class="st35" d="M596.9,244.6c0.1,0.2-3.6,1.9-9.5,4.5c-6,2.6-14.3,6-23.5,9.8c-9.2,3.8-17.5,7.1-23.6,9.5
						c-6.1,2.3-9.9,3.7-10,3.5c-0.1-0.2,3.5-2,9.5-4.6c6-2.6,14.3-6.2,23.5-10c9.2-3.8,17.6-7,23.7-9.3
						C592.9,245.7,596.8,244.4,596.9,244.6z"/>
				</g>
			</g>
		</g>
	</g>
	<g>
		<g>
			<g>
				<path class="st36" d="M599.5,169.4c-0.1,0.3-2.9-0.3-7.8-1.3c-5-0.8-12.3-1.9-21.4-1.8c-9,0.1-19.8,1.2-31.3,4.6
					c-5.7,1.7-11.6,3.9-17.5,6.6c-5.9,2.8-11.7,6.2-17.3,10.1c-5.7,3.9-10.8,8.3-15.4,12.8c-2.4,2.2-4.4,4.7-6.5,7
					c-1,1.2-2,2.4-2.9,3.6l-0.7,0.9l-0.7,0.9c-0.4,0.6-0.9,1.2-1.3,1.8c-0.9,1.2-1.7,2.4-2.5,3.6c-0.8,1.2-1.5,2.4-2.3,3.6
					c-1.3,2.5-2.8,4.8-3.9,7.2c-2.4,4.7-4,9.4-5.4,13.7c-2.6,8.7-3.3,16-3.5,21.1c0,0.6-0.1,1.2-0.1,1.8c0,0.6,0,1.1,0,1.6
					c0,1,0,1.8,0,2.5c0,1.3-0.1,2.1-0.2,2.1c-0.1,0-0.3-0.7-0.5-2c-0.1-0.7-0.2-1.5-0.3-2.5c0-0.5-0.1-1-0.2-1.6
					c0-0.6,0-1.2-0.1-1.8c-0.3-5.1,0.1-12.7,2.5-21.7c1.3-4.5,2.8-9.3,5.2-14.3c1.1-2.5,2.5-5,3.8-7.5c0.8-1.2,1.5-2.5,2.3-3.8
					c0.8-1.3,1.6-2.5,2.5-3.8c0.4-0.6,0.9-1.3,1.3-1.9l0.7-1l0.7-0.9c1-1.2,2-2.5,3-3.7c2.1-2.4,4.2-4.9,6.6-7.2
					c4.7-4.7,10-9.3,15.8-13.3c5.8-4,11.8-7.5,17.9-10.3c6.1-2.8,12.1-5,18-6.6c11.8-3.3,22.9-4.2,32.2-3.9c9.3,0.3,16.6,1.7,21.6,3
					C596.9,168.2,599.6,169.2,599.5,169.4z"/>
			</g>
		</g>
	</g>
	<g>
		<g>
			<g>
				<path class="st36" d="M678.6,250.5c0.1,0,0.4,1.1,0.8,3.1c0.4,2.1,1.1,5.2,1.5,9.2c0.1,1,0.2,2.1,0.4,3.2
					c0.1,1.1,0.1,2.3,0.2,3.5c0,1.2,0.1,2.5,0.1,3.9c0.1,1.3-0.1,2.7-0.1,4.2c-0.1,5.8-0.9,12.4-2.6,19.5
					c-1.7,7.1-4.5,14.7-8.6,22.2c-2.1,3.8-4.4,7.6-7.2,11.2c-0.7,0.9-1.4,1.8-2.1,2.8c-0.7,0.9-1.4,1.8-2.2,2.7l-1.1,1.4
					c-0.4,0.4-0.8,0.9-1.2,1.3c-0.8,0.9-1.6,1.8-2.4,2.7c-6.6,7-14.6,13.5-23.7,18.8c-9.1,5.3-19.3,9.4-30.1,12.1
					c-10.8,2.7-21.7,3.9-32.2,4.1c-2.6,0-5.2,0-7.8-0.1c-2.6-0.2-5.1-0.3-7.6-0.5c-2.5-0.3-5-0.6-7.4-0.8c-2.4-0.3-4.8-0.8-7.2-1.2
					c-9.5-1.7-18.4-4.4-26.1-8.2c-7.8-3.8-14.3-8.7-19.6-13.6c-5.4-4.9-9.7-9.9-13.3-14.4c-3.7-4.4-6.6-8.4-9.1-11.6
					c-2.4-3.2-4.3-5.7-5.5-7.5c-1.2-1.7-1.8-2.7-1.7-2.7c0.1-0.1,0.9,0.7,2.3,2.3c1.4,1.6,3.4,4,6,7.1c2.6,3.1,5.7,6.9,9.5,11.2
					c3.7,4.3,8.1,9.1,13.5,13.8c5.3,4.7,11.7,9.3,19.2,12.8c7.5,3.6,16.2,6.1,25.4,7.6c2.3,0.3,4.7,0.8,7.1,1.1
					c2.4,0.3,4.8,0.5,7.3,0.8c2.5,0.1,5,0.3,7.5,0.4c2.5,0.1,5.1,0,7.6,0.1c10.2-0.2,20.9-1.4,31.4-4c10.5-2.6,20.4-6.6,29.3-11.6
					c8.9-5.1,16.6-11.3,23.1-18c0.8-0.9,1.6-1.7,2.4-2.5c0.4-0.4,0.8-0.8,1.2-1.3l1.1-1.3c0.7-0.9,1.5-1.8,2.2-2.7
					c0.7-0.9,1.4-1.8,2.1-2.7c2.7-3.5,5-7.2,7.1-10.8c4.1-7.3,6.9-14.6,8.7-21.4c1.8-6.9,2.8-13.3,3-18.9c0.1-1.4,0.2-2.8,0.2-4.1
					c0-1.3,0-2.6,0-3.8c0-1.2,0-2.4,0-3.5c-0.1-1.1-0.1-2.2-0.2-3.2c-0.2-4-0.6-7.1-0.8-9.2C678.6,251.7,678.5,250.6,678.6,250.5z"
					/>
			</g>
		</g>
	</g>
	<g>
		<g>
			<g>
				<path class="st36" d="M526.8,354.1c-0.1,0.5-1.3,0.7-3.2,0.6c-1.9-0.2-4.6-0.7-7.2-2.2c-2.6-1.5-4.6-3.4-5.7-5
					c-1.1-1.6-1.5-2.8-1.1-3.1c0.4-0.3,1.4,0.3,2.8,1.4c1.5,1,3.4,2.4,5.6,3.7c2.3,1.3,4.5,2.1,6.1,2.9
					C525.8,353,526.9,353.6,526.8,354.1z"/>
			</g>
		</g>
	</g>
	<g>
		<g>
			<g>
				<path class="st36" d="M638.6,331.5c0.3,0.3-2.3,4-7.7,8.8c-0.7,0.6-1.4,1.2-2.1,1.9c-0.8,0.6-1.6,1.3-2.4,1.9
					c-1.7,1.4-3.6,2.6-5.5,4c-4,2.6-8.7,5.2-13.8,7.4c-5.1,2.2-10.3,3.7-15,4.6c-2.4,0.4-4.6,0.8-6.8,1c-1.1,0.1-2.1,0.2-3.1,0.2
					c-1,0-2,0-2.9,0c-1.8,0.1-3.5-0.2-4.9-0.3c-0.7-0.1-1.4-0.1-2-0.2c-0.6-0.1-1.2-0.2-1.7-0.4c-2-0.5-3.1-0.8-3-1
					c0-0.2,1.2-0.3,3.2-0.3c0.5,0,1,0,1.6,0.1c0.6,0,1.3,0,2-0.1c1.4-0.1,3,0,4.7-0.2c0.9-0.1,1.8-0.1,2.7-0.2c1-0.1,1.9-0.3,3-0.4
					c2-0.2,4.2-0.8,6.5-1.2c4.5-1.1,9.4-2.7,14.3-4.7c4.9-2.1,9.4-4.5,13.4-6.9c2-1.3,3.9-2.4,5.5-3.6c0.9-0.6,1.7-1.2,2.5-1.7
					c0.8-0.6,1.5-1.1,2.2-1.7C635,334.2,638.2,331.2,638.6,331.5z"/>
			</g>
		</g>
	</g>
</g>
<g>
	<g>
		<path class="st25" d="M329.5,184.2c0,0-0.7,7.3-7.3,14.4c0,0,18.1,4.3,28.5-13.2c0,0,116.8-42.6,70.3-138.8
			c-5-10.3-18.7-20.4-27.5-26.5C369.4,3.5,332.6-1.6,304,5.7c-48.8,12.5-89.4,68.5-60.5,125.7c8.3,16.3,21.9,28.6,38,37
			C285.9,170.7,329.2,186.9,329.5,184.2z"/>
		<g>
			<g>
				<g>
					<path class="st36" d="M409.8,32.7c0.2-0.2,2.1,1.8,5.3,5.5c2.9,3.9,7.3,9.6,11.1,17.7c0.5,1,0.9,2,1.4,3.1
						c0.4,1.1,0.9,2.2,1.4,3.3c0.5,1.1,0.8,2.3,1.2,3.5c0.4,1.2,0.8,2.4,1.2,3.7c0.3,1.3,0.6,2.6,0.9,3.9c0.1,0.7,0.3,1.3,0.5,2
						c0.1,0.7,0.2,1.4,0.3,2.1c0.2,1.4,0.4,2.8,0.6,4.2c0.1,1.4,0.2,2.9,0.3,4.4c0.2,5.9-0.2,12.1-1.6,18.5
						c-1.4,6.3-3.6,12.6-6.5,18.7c-3,6.1-6.5,11.8-10.4,16.8c-3.9,5.1-8.1,9.6-12.3,13.6c-8.5,8-17.3,14-25,18.3
						c-7.7,4.3-14.3,7-19,8.5c-2.3,0.8-4.2,1.3-5.4,1.6c-1.3,0.3-1.9,0.4-2,0.3c0-0.1,0.6-0.5,1.7-1c1.2-0.6,2.9-1.2,5.1-2.3
						c4.4-1.9,10.8-5,18.2-9.5c7.3-4.5,15.7-10.6,23.9-18.6c4.1-4,8-8.5,11.8-13.4c3.7-4.9,7.1-10.4,10-16.2
						c2.8-5.9,4.9-11.9,6.3-17.9c1.3-6,1.8-11.9,1.7-17.5c-0.1-1.4-0.1-2.8-0.2-4.2c-0.1-1.4-0.3-2.7-0.5-4c-0.1-0.7-0.2-1.3-0.2-2
						c-0.1-0.6-0.3-1.3-0.4-1.9c-0.3-1.3-0.5-2.5-0.8-3.8c-0.3-1.2-0.7-2.4-1-3.6c-0.4-1.2-0.6-2.3-1-3.4c-0.4-1.1-0.8-2.2-1.2-3.2
						c-0.4-1-0.7-2.1-1.2-3.1c-3.3-8-7.3-13.8-9.8-17.9C411,35.2,409.5,32.9,409.8,32.7z"/>
				</g>
			</g>
		</g>
		<g>
			<g>
				<g>
					<path class="st36" d="M264.2,155.4c-0.1,0.1-0.9-0.2-2.4-1c-0.7-0.4-1.6-1-2.6-1.7c-0.5-0.3-1-0.8-1.6-1.2
						c-0.6-0.4-1.2-0.9-1.8-1.4c-4.9-4.1-11.2-11.3-16-21.8c-2.4-5.2-4.5-11.2-5.9-17.8c-0.7-3.3-1.2-6.8-1.6-10.4
						c-0.3-3.6-0.4-7.3-0.3-11.1c0.2-3.8,0.5-7.7,1.2-11.7c0.7-3.9,1.7-7.9,3-11.9c1.4-3.9,3-7.9,5-11.7c2-3.8,4.5-7.4,7.1-11
						c10.3-14.2,23.3-25.4,36.8-32.5c13.5-7.1,27.3-9.9,38.7-10.3c5.7-0.2,10.9,0.1,15.4,0.6c4.5,0.6,8.3,1.3,11.4,2
						c1.5,0.4,2.9,0.7,4.1,1c1.2,0.4,2.2,0.7,3,0.9c1.6,0.5,2.4,0.9,2.4,1c0,0.1-0.9,0-2.6-0.2c-0.8-0.1-1.8-0.3-3-0.6
						c-1.2-0.2-2.6-0.4-4.1-0.7c-3.1-0.5-6.9-1-11.3-1.3c-4.4-0.3-9.5-0.4-15.1,0c-11.1,0.7-24.3,3.7-37.2,10.7
						c-12.9,6.9-25.3,17.9-35.3,31.6c-2.5,3.4-4.9,6.9-6.8,10.5c-1.9,3.6-3.5,7.3-4.8,11.1c-1.3,3.7-2.2,7.5-3,11.3
						c-0.7,3.8-1.1,7.5-1.3,11.1c-0.2,3.7-0.1,7.2,0.1,10.7c0.3,3.5,0.7,6.8,1.3,10c1.2,6.4,3.1,12.2,5.3,17.3
						c4.3,10.3,10,17.5,14.5,21.8C261.3,153.4,264.4,155.1,264.2,155.4z"/>
				</g>
			</g>
		</g>
		<g>
			<g>
				<g>
					<path class="st26" d="M391.5,140.6c-0.4-0.5,3-3.7,7-9.9c4-6.2,8.7-15.4,11.5-26.3c0.7-2.7,1.3-5.4,1.7-8
						c0.4-2.6,0.7-5.1,0.8-7.6c0.3-4.8-0.2-9.2-0.9-12.7c-0.7-3.6-1.9-6.3-2.8-8.2c-0.4-1-0.8-1.6-1-2.2c-0.2-0.5-0.3-0.8-0.2-0.9
						c0.1-0.1,0.4,0.1,0.8,0.4c0.4,0.4,1.1,1,1.7,1.8c1.3,1.7,3,4.5,4.1,8.3c1.2,3.7,1.9,8.4,1.8,13.6c0,2.6-0.2,5.3-0.6,8
						c-0.4,2.8-1,5.6-1.7,8.4c-3,11.4-8.3,20.9-13.1,26.9c-2.4,3-4.6,5.2-6.3,6.6C392.7,140.2,391.6,140.8,391.5,140.6z"/>
				</g>
			</g>
		</g>
		<g>
			<path class="st26" d="M357.7,163.9c5-0.3,10.6-4.2,14.1-9.7"/>
		</g>
	</g>
	<g>
		<path class="st26" d="M322.2,141.9c-23.2,0-34.9-21.3-34.9-63.9c0-11.7,1.1-20.2,3.3-25.5c2.7-6.5,6.4-11.2,11.2-14
			c6.4-3.8,14.5-5.7,24.4-5.8c13.9,0,24.6,5.1,31.8,15.1c7.2,9.9,10.8,23.7,10.8,41.4c0,4.9-0.3,8.4-0.9,10.3
			c-0.6,1.9-1.3,3.6-2,4.9c-0.7,1.3-1.6,2.4-2.6,3.2c-2.4,2-5.5,3-9.2,3c-2.8,0-5.7-2.2-8.7-6.7c-1.9,3.7-4.5,6.8-7.9,9.1
			c-3.3,2.4-6.8,3.5-10.5,3.5c-6.1,0-10.6-2-13.5-5.9c-3.8-5.2-5.7-14-5.7-26.4c0-6,0.2-10,0.6-11.9c0.4-1.9,0.8-3.7,1.3-5.3
			c0.4-1.6,1-2.9,1.6-4c0.6-1.1,1.5-2.2,2.5-3.4c1.1-1.2,2.2-2.1,3.4-2.8c3-1.6,6.1-2.4,9.4-2.4c3.3,0,6,0.5,8.2,1.5
			c2.2,1,4.1,2.2,5.6,3.7c1.5,1.5,2.9,3.4,4.1,5.7c1.2,2.3,2.2,4.6,2.9,6.8c0.7,2.2,1.3,4.8,1.9,7.7c0.6,2.9,1,5.5,1.3,7.6
			c0.3,2.2,0.6,4.6,0.9,7.4c0.3,2.8,0.6,4.9,0.8,6.3v0.5l2.4,2.7c1.2-0.5,2.2-1.9,2.9-4.2c1-3.2,1.5-6.7,1.5-10.4
			c0-3.7-0.1-7-0.3-9.8c-0.2-2.8-0.7-5.9-1.3-9.3c-0.6-3.4-1.5-6.5-2.5-9.4c-1-2.9-2.4-5.7-4.2-8.5c-1.7-2.8-3.8-5.1-6-7.1
			c-5-4.4-11.5-6.5-19.4-6.5c-10.5,0-17.8,2.9-22.1,8.5c-3.4,4.6-5.3,10.7-5.6,18.2c-0.1,1.8-0.2,4-0.2,6.6v7.1
			c0,31.7,5.9,50.2,17.8,55.6c2.2,1,5.2,1.5,8.7,1.5c3.6,0,7.3-0.4,11.1-1.1c3.8-0.7,6.9-1.6,9.3-2.7c2.4-1.1,4.5-2.1,6.3-3.1
			c4.4-2.5,7.2-3.8,8.5-3.8c1.3,0,1.9,0.4,1.9,1.2c0,1-0.8,2.2-2.5,3.8c-1.7,1.6-4,3.2-7,4.9c-3,1.7-7.2,3.1-12.4,4.3
			C334,141.3,328.3,141.9,322.2,141.9z M327.3,60.8c-3.2,0-5.8,2.5-7.7,7.5c-1.9,5-2.9,10.8-2.9,17.5c0,6.7,1,12.5,3,17.3
			c2,4.8,4.9,7.3,8.6,7.3c2.4,0,4.9-1.5,7.5-4.4c2.6-2.9,3.9-5.3,3.9-7.2v-9.1c0-4.8-0.6-9.7-1.8-14.6
			C334.2,66.9,330.7,62.1,327.3,60.8z"/>
	</g>
</g>
</svg>
