<?xml version="1.0" encoding="utf-8"?>
<!-- Generator: Adobe Illustrator 21.1.0, SVG Export Plug-In . SVG Version: 6.00 Build 0)  -->
<svg version="1.1" id="Capa_1" xmlns="http://www.w3.org/2000/svg" xmlns:xlink="http://www.w3.org/1999/xlink" x="0px" y="0px"
	 width="513.4px" height="513px" viewBox="0 0 513.4 513" enable-background="new 0 0 513.4 513" xml:space="preserve">
<g>
	<g>
		<path fill="#c6d4fd" d="M97.5,128c17.7,0.1,32-14.2,32.1-31.9s-14.2-32-31.9-32.1S65.7,78.3,65.7,96C65.6,113.6,79.9,128,97.5,128
			z M97.7,85.4c5.9,0,10.6,4.8,10.6,10.7s-4.8,10.6-10.7,10.6S86.9,101.9,87,96C87,90.2,91.8,85.4,97.7,85.4z"/>
	</g>
</g>
<g>
	<g>
		
			<rect x="49.8" y="21" transform="matrix(0.7095 -0.7047 0.7047 0.7095 -23.7747 59.6481)" fill="#c6d4fd" width="21.3" height="75.3"/>
	</g>
</g>
<g>
	<g>
		<g>
			<path fill="#c6d4fd" d="M2.7,46.4l42.3,106.7c1.4,3.5,4.6,6.1,8.4,6.6l74.5,10.9c3.3,0.5,6.7-0.6,9.1-3l32.1-31.9
				c2.4-2.4,3.5-5.7,3-9l-10.4-74.6c-0.5-3.8-3-7-6.6-8.4L48.6,0.8C47.4,0.3,46,0,44.7,0c-2.8,0-5.5,1.1-7.5,3.1L5.1,35
				C2,38,1.1,42.5,2.7,46.4z M47.2,23.2l94.2,38l8.8,63.2l-24.5,24.3l-63.2-9.2L25.1,45.1L47.2,23.2z"/>
			<path fill="#c6d4fd" d="M44.7,0L44.7,0L44.7,0z"/>
		</g>
	</g>
</g>
<g>
	<g>
		<path fill="#c6d4fd" d="M161,117.6l0.8,21.3c16.9,0.2,33,6.8,45.3,18.4c3.6,3.6,14.2,15.2,31.5,34.5l15.9-14.2
			c-17.8-19.8-28.4-31.4-32.2-35.3c-16.1-15.5-37.5-24.3-59.8-24.6l0,0C161.6,117.6,161.2,117.6,161,117.6z"/>
	</g>
</g>
<g>
	<g>
		<path fill="#c6d4fd" d="M470,488.4c-17.7-16.3-68.3-61.8-121.8-110L275,312.5l-14.3,15.8l73.1,65.9
			c53.4,48.1,104,93.7,121.6,109.9c12.8,11.8,32.5,11.9,45.4,0.1c13.7-12.5,14.7-33.7,2.2-47.4c-16.1-17.7-61.3-68.6-109-122.4
			L350,284.7l-15.9,14.1l44.1,49.7c47.8,53.9,93,104.7,109.2,122.6c4.8,4.8,4.8,12.6-0.1,17.4S474.7,493.2,470,488.4z"/>
	</g>
</g>
<g>
	<g>
		<g>
			<path fill="#c6d4fd" d="M153.9,231.3l14.5-15.6c-5-4.6-8.5-8-10.3-9.8c-11.5-12.3-17.9-28.5-18-45.4l-21.3-0.9
				c-0.2,22.8,8.5,44.8,24.2,61.3C144.8,222.9,148.6,226.4,153.9,231.3z"/>
			<path fill="#c6d4fd" d="M118.7,159.6L118.7,159.6L118.7,159.6z"/>
		</g>
	</g>
</g>
<g>
	<g>
		
			<rect x="395.4" y="257" transform="matrix(3.412395e-03 -1 1 3.412395e-03 137.041 672.7354)" fill="#c6d4fd" width="21.3" height="21.3"/>
	</g>
</g>
<g>
	<g>
		
			<rect x="438" y="257.1" transform="matrix(3.412395e-03 -1 1 3.412395e-03 179.3698 715.4998)" fill="#c6d4fd" width="21.3" height="21.3"/>
	</g>
</g>
<g>
	<g>
		
			<rect x="86.4" y="255.9" transform="matrix(3.412395e-03 -1 1 3.412395e-03 -169.848 362.6886)" fill="#c6d4fd" width="21.3" height="21.3"/>
	</g>
</g>
<g>
	<g>
		
			<rect x="43.8" y="255.8" transform="matrix(3.412395e-03 -1 1 3.412395e-03 -212.1768 319.9242)" fill="#c6d4fd" width="21.3" height="21.3"/>
	</g>
</g>
<g>
	<g>
		<path fill="#c6d4fd" d="M377.9,61.9l74.3,74.8c2.5,2.5,6,3.6,9.5,3c3.5-0.6,6.4-2.9,7.8-6.1l41.4-92.3c1.6-3.6,2.5-7.5,2.5-11.5
			c0-15.6-12.6-28.3-28.1-28.3c-4,0-7.9,0.8-11.5,2.4l-92.6,40.8c-1.2,0.5-2.3,1.3-3.2,2.2C373.8,51,373.7,57.8,377.9,61.9z
			 M482.4,23.4c0.8-0.3,1.6-0.5,2.5-0.5c3.9-0.1,7.1,3,7.2,6.9c0,1-0.2,1.9-0.6,2.8l-35.1,78.2L404,57.9L482.4,23.4z"/>
	</g>
</g>
<g>
	<g>
		
			<rect x="454.7" y="26.8" transform="matrix(0.7095 -0.7047 0.7047 0.7095 100.389 342.2949)" fill="#c6d4fd" width="21.3" height="45.2"/>
	</g>
</g>
<g>
	<g>
		
			<rect x="56.6" y="235.2" transform="matrix(0.7095 -0.7047 0.7047 0.7095 -95.5006 259.9809)" fill="#c6d4fd" width="421.9" height="21.3"/>
	</g>
</g>
<g>
	<g>
		<path fill="#c6d4fd" d="M78.5,359.3l74.3,74.8c4.1,4.2,10.9,4.2,15.1,0.1l299.4-297.3l-15-15.1L160.5,411.5l-59.3-59.7L393,62
			l-15-15.1L78.6,344.2C74.4,348.4,74.4,355.1,78.5,359.3z"/>
	</g>
</g>
<g>
	<g>
		<path fill="#c6d4fd" d="M18.9,493.8c25,24.6,65.1,24.2,89.7-0.7l59.3-58.9l-15-15.1L93.6,478c-0.1,0.1-0.3,0.3-0.4,0.4
			c-16.6,16.3-43.3,16-59.5-0.6c-16.3-16.6-16-43.3,0.6-59.5l59.3-58.9l-15-15.1l-59.3,58.9c-0.4,0.3-0.7,0.7-1,1
			C-6.4,429.1-6,469.3,18.9,493.8z"/>
	</g>
</g>
<g>
	<g>
		
			<rect x="69.8" y="378.9" transform="matrix(0.7095 -0.7047 0.7047 0.7095 -280.7997 182.1156)" fill="#c6d4fd" width="21.3" height="105.5"/>
	</g>
</g>
</svg>
