<svg id="Layer_1" data-name="Layer 1" xmlns="http://www.w3.org/2000/svg" width="154.73mm" height="139.03mm" viewBox="0 0 438.6 394.1"><title>service</title><path d="M313.9,370.3a644.85,644.85,0,0,1-102.7,8.3,643.26,643.26,0,0,1-102.7-8.3,639.53,639.53,0,0,1,205.4,0Z" fill="#d3d3d3"/><g id="OBJECTS"><polygon points="292.8 366.9 134.8 366.9 154.8 290.6 272.8 290.6 292.8 366.9" fill="#2054d3"/><polygon points="277.3 308 272.8 290.6 154.8 290.6 150.3 308 277.3 308" fill="#314b8d"/><rect x="134.8" y="366.3" width="158" height="5.4" fill="#345095"/><path d="M414.6,296.5H16.6A16.56,16.56,0,0,1,0,279.9V16.6A16.56,16.56,0,0,1,16.6,0h398a16.56,16.56,0,0,1,16.6,16.6V279.9A16.62,16.62,0,0,1,414.6,296.5Z" fill="#2054d3"/><rect x="24.5" y="30.3" width="380.5" height="236.1" fill="#82cb87"/><g opacity="0.8"><path d="M56.8,54.9a3.6,3.6,0,1,1-3.6-3.6A3.59,3.59,0,0,1,56.8,54.9Z" fill="#fff"/><circle cx="68.8" cy="54.9" r="3.6" fill="#fff"/><path d="M88.1,54.9a3.6,3.6,0,1,1-3.6-3.6A3.59,3.59,0,0,1,88.1,54.9Z" fill="#fff"/><path d="M103.7,54.9a3.6,3.6,0,1,1-3.6-3.6A3.59,3.59,0,0,1,103.7,54.9Z" fill="#fff"/><path d="M119.3,54.9a3.6,3.6,0,1,1-3.6-3.6A3.59,3.59,0,0,1,119.3,54.9Z" fill="#fff"/><path d="M135,54.9a3.6,3.6,0,1,1-3.6-3.6A3.59,3.59,0,0,1,135,54.9Z" fill="#fff"/></g><g opacity="0.8"><path d="M56.8,70.8a3.6,3.6,0,1,1-3.6-3.6A3.59,3.59,0,0,1,56.8,70.8Z" fill="#fff"/><path d="M72.4,70.8a3.6,3.6,0,1,1-3.6-3.6A3.59,3.59,0,0,1,72.4,70.8Z" fill="#fff"/><path d="M88.1,70.8a3.6,3.6,0,1,1-3.6-3.6A3.59,3.59,0,0,1,88.1,70.8Z" fill="#fff"/><path d="M103.7,70.8a3.6,3.6,0,1,1-3.6-3.6A3.59,3.59,0,0,1,103.7,70.8Z" fill="#fff"/><path d="M119.3,70.8a3.6,3.6,0,1,1-3.6-3.6A3.59,3.59,0,0,1,119.3,70.8Z" fill="#fff"/><path d="M135,70.8a3.6,3.6,0,1,1-3.6-3.6A3.59,3.59,0,0,1,135,70.8Z" fill="#fff"/></g><g opacity="0.8"><path d="M56.8,86.8a3.6,3.6,0,1,1-3.6-3.6A3.59,3.59,0,0,1,56.8,86.8Z" fill="#fff"/><path d="M72.4,86.8a3.6,3.6,0,1,1-3.6-3.6A3.59,3.59,0,0,1,72.4,86.8Z" fill="#fff"/><path d="M88.1,86.8a3.6,3.6,0,1,1-3.6-3.6A3.59,3.59,0,0,1,88.1,86.8Z" fill="#fff"/><path d="M103.7,86.8a3.6,3.6,0,1,1-3.6-3.6A3.59,3.59,0,0,1,103.7,86.8Z" fill="#fff"/><path d="M119.3,86.8a3.6,3.6,0,1,1-3.6-3.6A3.59,3.59,0,0,1,119.3,86.8Z" fill="#fff"/><path d="M135,86.8a3.6,3.6,0,1,1-3.6-3.6A3.59,3.59,0,0,1,135,86.8Z" fill="#fff"/></g><g opacity="0.8"><path d="M292.4,158.6a3.6,3.6,0,1,1-3.6-3.6A3.59,3.59,0,0,1,292.4,158.6Z" fill="#fff"/><path d="M308,158.6a3.6,3.6,0,1,1-3.6-3.6A3.59,3.59,0,0,1,308,158.6Z" fill="#fff"/><path d="M323.6,158.6A3.6,3.6,0,1,1,320,155,3.59,3.59,0,0,1,323.6,158.6Z" fill="#fff"/><path d="M339.3,158.6a3.6,3.6,0,1,1-3.6-3.6A3.59,3.59,0,0,1,339.3,158.6Z" fill="#fff"/><path d="M354.9,158.6a3.6,3.6,0,1,1-3.6-3.6A3.59,3.59,0,0,1,354.9,158.6Z" fill="#fff"/><path d="M370.5,158.6a3.6,3.6,0,1,1-3.6-3.6A3.59,3.59,0,0,1,370.5,158.6Z" fill="#fff"/></g><g opacity="0.8"><path d="M292.4,175.8a3.6,3.6,0,1,1-3.6-3.6A3.59,3.59,0,0,1,292.4,175.8Z" fill="#fff"/><path d="M308,175.8a3.6,3.6,0,1,1-3.6-3.6A3.59,3.59,0,0,1,308,175.8Z" fill="#fff"/><path d="M323.6,175.8a3.6,3.6,0,1,1-3.6-3.6A3.59,3.59,0,0,1,323.6,175.8Z" fill="#fff"/><path d="M339.3,175.8a3.6,3.6,0,1,1-3.6-3.6A3.59,3.59,0,0,1,339.3,175.8Z" fill="#fff"/><path d="M354.9,175.8a3.6,3.6,0,1,1-3.6-3.6A3.59,3.59,0,0,1,354.9,175.8Z" fill="#fff"/><path d="M370.5,175.8a3.6,3.6,0,1,1-3.6-3.6A3.59,3.59,0,0,1,370.5,175.8Z" fill="#fff"/></g><g opacity="0.8"><path d="M292.4,193a3.6,3.6,0,1,1-3.6-3.6A3.59,3.59,0,0,1,292.4,193Z" fill="#fff"/><path d="M308,193a3.6,3.6,0,1,1-3.6-3.6A3.59,3.59,0,0,1,308,193Z" fill="#fff"/><path d="M323.6,193a3.6,3.6,0,1,1-3.6-3.6A3.59,3.59,0,0,1,323.6,193Z" fill="#fff"/><path d="M339.3,193a3.6,3.6,0,1,1-3.6-3.6A3.59,3.59,0,0,1,339.3,193Z" fill="#fff"/><path d="M354.9,193a3.6,3.6,0,1,1-3.6-3.6A3.59,3.59,0,0,1,354.9,193Z" fill="#fff"/><path d="M370.5,193a3.6,3.6,0,1,1-3.6-3.6A3.59,3.59,0,0,1,370.5,193Z" fill="#fff"/></g><polygon points="261.8 266.4 335.8 30.3 389.7 30.3 313.6 266.4 261.8 266.4" fill="#fff" opacity="0.7" style="isolation:isolate"/><polygon points="307.2 30.3 231.1 266.4 251.7 266.4 327.9 30.3 307.2 30.3" fill="#fff" opacity="0.7" style="isolation:isolate"/><polygon points="105.9 266.4 100.3 207.4 68.6 205 81.4 266.4 105.9 266.4" fill="#3b4182"/><polygon points="91.6 266.4 98.3 204.4 62.4 199.1 65.1 266.4 91.6 266.4" fill="#444a97"/><path d="M57.4,220s12.4-51.9,11-66.2h0c-.8-4.4-1.6-8.7-2.1-12.6-1.8-14.4,11.7-25,11.7-25l14,5.3c1.9,5,17.1,19.5,17.6,29.9L104.8,162l-1.6,43.8C98.4,209.9,57.4,220,57.4,220Z" fill="#df543b"/><path d="M82.1,121.5l27.4,30.8v-.9c-.5-10.4-15.7-24.9-17.6-29.9Z" fill="#dddde9"/><path d="M92,101.4a21.41,21.41,0,0,0-1.2,6.4,20.83,20.83,0,0,0,0,2.5,63.59,63.59,0,0,0,1.3,11.2l-14-5.3c1-1.4,2.5-5.1,3.8-8.7.8-2.2,1.5-4.4,2-5.9.4-1.3.7-2.1.7-2.1Z" fill="#ffdfc4"/><path d="M90.8,107.8a20.83,20.83,0,0,0,0,2.5l-9-2.7c.8-2.2,1.5-4.4,2-5.9A88,88,0,0,0,90.8,107.8Z" fill="#ffc1a0"/><path d="M104.3,80.8s1.2,9.8,4.3,11.1-2.7,5.8-2.7,5.8,1.3,18.1-11.6,12.7c-12.1-8.7-11.9-10.9-11.9-10.9s-5,.5-5.9-2.9-.1-8.1,4.9-6c0,0,2.9-3.3,3.1-6.8s-1.3-10.2,4.1-10C93.8,74,104.3,80.8,104.3,80.8Z" fill="#ffdfc4"/><path d="M96,94a2.71,2.71,0,1,1-3.2-2.1A2.66,2.66,0,0,1,96,94Z" fill="#ffc1a0"/><path d="M78.1,95.9a2.14,2.14,0,0,1-.3-2.5,2.2,2.2,0,0,1,1.9-.9c-.6.5-1.2,1-1.2,1.8a4.51,4.51,0,0,0,.3,1.1,3.82,3.82,0,0,0,2.3,2A4.17,4.17,0,0,1,78.1,95.9Z" fill="#ffc1a0"/><path d="M104.3,80.8s-13-.6-16.4-3.4c0,0-3.1,11.9-4.7,15.1,0,0-6.2-5-7.1,1.2s6.3,5.9,6.3,5.9l1.4,2.1-3.6,9.9L59.6,104s6.5-5.4,8.2-8.3-5.4-23.8,8.1-29.3S108.1,67.5,104.3,80.8Z" fill="#242143"/><path d="M88,68.3s-.4-.1-1-.2a11.85,11.85,0,0,0-2.8-.1,15.65,15.65,0,0,0-8.4,3,15.13,15.13,0,0,0-5.2,7.2,15.4,15.4,0,0,0-.7,2.7,8.66,8.66,0,0,0-.1,1.1,5,5,0,0,1-.1-1.1,9.81,9.81,0,0,1,.1-2.9,13.77,13.77,0,0,1,1.4-4.2,12.84,12.84,0,0,1,3.6-4.2,14,14,0,0,1,5-2.3,11.23,11.23,0,0,1,4.4-.2,24.93,24.93,0,0,1,2.9.7A9.24,9.24,0,0,1,88,68.3Z" fill="#3a3750"/><path d="M103.2,77.1a13,13,0,0,1-2.7.4,21.68,21.68,0,0,1-6.5-.4,17.75,17.75,0,0,1-6-2.5,7,7,0,0,1-1.5-1.3,4.43,4.43,0,0,1-.5-.6,11,11,0,0,0,2.4,1.1c1.5.5,3.7,1,6,1.6s4.5,1,6.1,1.3S103.2,77.1,103.2,77.1Z" fill="#3a3750"/><path d="M78.3,73.6a3.61,3.61,0,0,0-.4.5,7.25,7.25,0,0,0-1.1,1.5A29.14,29.14,0,0,0,74,80.7a22.13,22.13,0,0,0-1.6,5.6c-.1.8-.2,1.4-.2,1.8,0,.2.1.3.1.4l.1.1s-.3,0-.5-.5a7.81,7.81,0,0,1-.4-1.9,12.61,12.61,0,0,1,.9-6.3,12.38,12.38,0,0,1,3.8-5.1,9.25,9.25,0,0,1,1.6-1.1A2,2,0,0,0,78.3,73.6Z" fill="#3a3750"/><path d="M70.3,97.1a2.79,2.79,0,0,1-.1,1.2A5.79,5.79,0,0,1,69,101a5.94,5.94,0,0,1-2.4,1.7,3.37,3.37,0,0,1-1.2.3s.3-.4.7-1a19.62,19.62,0,0,1,1.6-2.1A17,17,0,0,1,69.5,98C70,97.4,70.3,97.1,70.3,97.1Z" fill="#3a3750"/><polygon points="92 149.3 68.9 180.3 91.7 200.2 117.2 168.7 92 149.3" fill="#5e4941"/><path d="M74.8,121.5s8.5,4.1,4.4,18.3-13.5,43-11.3,43.5,21.9-15.7,21.9-15.7l8.5,9.6s-28.9,32.2-41.1,26.5S53.8,115.7,74.8,121.5Z" fill="#ef5843"/><polygon points="71.7 121.7 76.2 113.3 94.2 119.3 96.4 125.5 71.7 121.7" fill="#fff"/><path d="M92.6,166s2.2-5.4.7-8.4l2.2-1.2,2.4,5.5s2.8-5,2-6l-1.2-1.4s3.3-.5,4,.8l2.1.4,1.3,1.6,2,.7,1.9,3.5-4.9,7.5-7.6,7.3-5.8-6.5Z" fill="#ffdfc4"/><polygon points="223.9 197.8 212.8 197.8 214.2 191.8 223.8 191.6 223.9 197.8" fill="#ffc1a0"/><path d="M192.6,185.8h5.7l6.2-3.2s7.6.6,19.7,9.4l-1.5,2.9h-3.4L214,200l-6.4,1.1-9-4.3-7.2-2.3Z" fill="#ffdfc4"/><path d="M223.7,188.2l-7.4-2.8L213,182l-3.9-.5s-3.6,4-4.4,7l3,2.1,7.5-4.4,8.8,5.4Z" fill="#ffc1a0"/><polygon points="211.7 194.5 208.6 193 207.9 191.5 203.8 189.7 202.1 190.1 200.3 189.7 198.2 198.3 200.8 200.4 201.4 202.2 206.5 203 211.6 201.5 211.7 194.5" fill="#ffc1a0"/><polygon points="133.6 105 149.9 110.6 148.1 103 145.4 92.5 137.4 87.4 133.8 89.4 133.7 96.1 133.6 105" fill="#ffdfc4"/><path d="M133.7,96.1a11.78,11.78,0,0,0,1.9,1.1c3.1,1.7,6.4,3,9.6,4.5.8.3,1.8,1,2.8,1.4l-2.6-10.5-8.1-5-3.5,1.9Z" fill="#ffc1a0"/><polygon points="168.3 266.4 161.7 219.1 130 216.7 140.2 266.4 168.3 266.4" fill="#3b4182"/><path d="M150.7,266.4l11-47.3H122.5s-3.1,13.1-4,18.3c-.5,2.8-.5,15-.4,29.1h32.6Z" fill="#444a97"/><path d="M118.6,220.2l45.2,2.3s1.3-36.6,1.2-61.9c0-6.5-.2-12.3-.4-16.5-.8-11.6-5-19.3-8.5-23.9a24.93,24.93,0,0,0-4.9-5l-21.4-7a47.28,47.28,0,0,0-11.1,27.2Z" fill="#dddde9"/><path d="M155.6,65.5s7,14.4,10.1,18.1c2.1,2.6-4.4,3.1-4.4,3.1s3.2,25.9-10.4,16c-12-8.7-13.5-12.6-13.5-12.6s-4.9.5-5.9-2.9-.1-8.1,4.8-5.9c0,0,2.9-3.3,3.1-6.7s-1.2-10.2,4.1-9.9S155.6,65.5,155.6,65.5Z" fill="#ffdfc4"/><polygon points="131.4 104.1 154.3 110.6 156 120.2 129.8 108.2 131.4 104.1" fill="#fff"/><path d="M129.8,108.2s33.3,38.5,35.2,50.9,3.2,67.5,3.2,67.5-42.9,14.8-53.9,10.4Z" fill="#2958ce"/><path d="M129.8,108.2s12.4,13.3,8.7,25.7-8.7,41.2-8.7,41.2l60.9,6.2-2.1,16.9s-74.7,3-83-4S108.7,113.7,129.8,108.2Z" fill="#5077f5"/><polygon points="197.8 181.7 188.5 178.6 185.9 201 194.4 201 197.8 181.7" fill="#5077f5"/><path d="M146.9,85a3.2,3.2,0,0,0,6.4,0,3.29,3.29,0,0,0-3.2-3.2A3.16,3.16,0,0,0,146.9,85Z" fill="#ffc1a0"/><path d="M134.7,82.5a1.54,1.54,0,0,0-1.3.5,1.71,1.71,0,0,0-.1,1.7,5.84,5.84,0,0,0,1.8,2.6,10.09,10.09,0,0,1-.7-1.5,4.15,4.15,0,0,1-.3-1.6,1.91,1.91,0,0,1,.7-1.4,1.23,1.23,0,0,1,1.3-.1A3.18,3.18,0,0,0,134.7,82.5Z" fill="#ffc1a0"/><path d="M134.6,89.9a7.62,7.62,0,0,1-3.1-7.1c.6-2.4,3.5-2.4,5.6-1.2,3.1-3.6,4.2-8.3,3.9-13.1a23.21,23.21,0,0,0,17-.5c3.7-1.6,7.2-4.3,8.9-8s1.6-8.4-.9-11.5c-1.4,3.5-6,4.4-9.7,4.8s-7.5-.4-11.2-.9-7.7-.5-11,1.3-5.5,6-4,9.5c-3.6,0-6.6,3-8.2,6.3a19.77,19.77,0,0,0,2.7,20.6c3.2,3.8,7.9,6.6,9.3,11.3C134.9,98.2,135.5,93.1,134.6,89.9Z" fill="#242143"/><path d="M142.5,64.9a5.12,5.12,0,0,0,1,.7,14.74,14.74,0,0,0,3,1.3,14.49,14.49,0,0,0,4.9.5,18.14,18.14,0,0,0,10.9-4.8,11.92,11.92,0,0,0,2.9-4.1,9.75,9.75,0,0,0,.7-3.2,5.5,5.5,0,0,0-.1-1.2,5.6,5.6,0,0,1-.2,1.2,10.49,10.49,0,0,1-1.2,2.9c-1.3,2.3-4.2,4.6-7.8,6.2a17.88,17.88,0,0,1-9.9,1.7,14.44,14.44,0,0,1-3.1-.7C142.9,65.1,142.5,64.9,142.5,64.9Z" fill="#3a3750"/><path d="M144.9,60.8s.2.1.7.4a16.17,16.17,0,0,0,2,.8,11.79,11.79,0,0,0,7.1.3,16.93,16.93,0,0,0,3.6-1.5,11.12,11.12,0,0,0,2.6-2,9.16,9.16,0,0,0,1.2-1.8,1.42,1.42,0,0,0,.2-.6.35.35,0,0,1,.1-.2.31.31,0,0,1-.1.2c-.1.1-.2.3-.4.4a7,7,0,0,1-1.5,1.3,24.15,24.15,0,0,1-6.1,2.4,22,22,0,0,1-6.5.5c-.9-.1-1.6-.1-2.1-.2Z" fill="#3a3750"/><path d="M132.9,62.8v-.5A6.64,6.64,0,0,1,133,61a7,7,0,0,1,1.5-3.6,7.12,7.12,0,0,1,3.2-2.2,3.92,3.92,0,0,1,1.3-.3,1.21,1.21,0,0,0,.5-.1,5.83,5.83,0,0,0-1.9-.5,5.88,5.88,0,0,0-4.5,1.9,5.3,5.3,0,0,0-1,4.8,4,4,0,0,0,.6,1.3A1.19,1.19,0,0,0,132.9,62.8Z" fill="#3a3750"/><path d="M127.5,89l-.6-.9a19.24,19.24,0,0,1-1.4-2.6,24.33,24.33,0,0,1-1.4-4.1,27.13,27.13,0,0,1-.9-5.1,13.23,13.23,0,0,1,.6-5,8.11,8.11,0,0,1,2.2-3.5,7.43,7.43,0,0,1,2.3-1.7,6.89,6.89,0,0,0,.8-.3.77.77,0,0,1,.3-.1h-.3a2.49,2.49,0,0,0-.8.1,6.73,6.73,0,0,0-2.8,1.3,10,10,0,0,0-3,3.6,11.64,11.64,0,0,0-1,5.7,18.49,18.49,0,0,0,1.2,5.5,17.44,17.44,0,0,0,2.1,4.1,12.54,12.54,0,0,0,2,2.3Z" fill="#3a3750"/><path d="M157.8,129.7l-1.1,13.2,8.3,15.5c0-6.5-.2-10.2-.4-14.4-.8-11.6-5-19.3-8.5-23.9l-3.2-1.4-1.6,7Z" fill="#df543b"/><path d="M129.3,61.6h.3l.4,1.7,6.1,17-2.6.4C133.4,80.6,127.6,66.5,129.3,61.6Z" fill="#dddde9"/><path d="M139.6,84.8c0,3.2-2.1,5.8-4.7,5.8s-4.7-2.6-4.7-5.8,2.1-5.8,4.7-5.8S139.6,81.6,139.6,84.8Z" fill="#fff"/><path d="M137.9,84.8c0,2-1.3,3.6-3,3.6s-3-1.6-3-3.6,1.3-3.6,3-3.6S137.9,82.8,137.9,84.8Z" fill="#dddde9"/><path d="M157,97.2a42.56,42.56,0,0,1-10.9-2,18.36,18.36,0,0,1-9-6.6l.9-.6c2.3,3.4,5.9,5.2,8.5,6.2a40.4,40.4,0,0,0,10.6,2Z" fill="#fff"/><path d="M160.4,96.8a2.2,2.2,0,1,1-2.2-2.2A2.29,2.29,0,0,1,160.4,96.8Z" fill="#fff"/><path d="M203.8,179.4a1.24,1.24,0,0,1-.2-.3,3.28,3.28,0,0,0-.6-.8,8.52,8.52,0,0,0-2.6-2.2,10.37,10.37,0,0,0-4.5-1.4,11.75,11.75,0,0,0-5.4,1,16.94,16.94,0,0,0-7.7,7.2,27.31,27.31,0,0,0-1.5,3.2c-.3.8-.5,1.3-.5,1.3a7.9,7.9,0,0,1-.1-1.4,19.48,19.48,0,0,1,.4-3.7,14.59,14.59,0,0,1,2.3-5.2,14.34,14.34,0,0,1,5.6-4.6,12.42,12.42,0,0,1,7.3-.7,11,11,0,0,1,5.1,3,8.24,8.24,0,0,1,1.9,3.3,5.75,5.75,0,0,1,.2,1C203.8,179.3,203.8,179.4,203.8,179.4Z" fill="#fff"/><path d="M202.3,205.4v.3a4.5,4.5,0,0,1-.2.8,6.77,6.77,0,0,1-1.5,2.7,11.22,11.22,0,0,1-3.8,2.7,10.86,10.86,0,0,1-5.7.6,11.5,11.5,0,0,1-5.3-2.2,10.55,10.55,0,0,1-3.1-3.3,11.19,11.19,0,0,1-1.2-2.7,4.47,4.47,0,0,1-.2-1.1,6,6,0,0,0,.7.8,12.4,12.4,0,0,0,2,1.8,17.14,17.14,0,0,0,7.6,3.2,16.2,16.2,0,0,0,4.4,0,10.26,10.26,0,0,0,3.5-1.2,6.34,6.34,0,0,0,2.1-1.6,2.65,2.65,0,0,0,.5-.6C202.3,205.5,202.3,205.4,202.3,205.4Z" fill="#fff"/><path d="M185.6,168.8l-1,1c-.6.7-1.5,1.7-2.5,3a31.32,31.32,0,0,0-5.2,11,32,32,0,0,0-.6,12.1,20.47,20.47,0,0,0,.8,3.8,13.07,13.07,0,0,1,.4,1.4l-.9-1.2a20.53,20.53,0,0,1-2-3.5,21.88,21.88,0,0,1-1.6-5.9,20,20,0,0,1,.5-7.6,20.9,20.9,0,0,1,3.2-6.9,17.82,17.82,0,0,1,4.2-4.4,20.38,20.38,0,0,1,3.4-2.2C185.1,169,185.6,168.8,185.6,168.8Z" fill="#fff"/><path d="M206.7,175.8a3.22,3.22,0,0,1-.2-.6,9,9,0,0,0-.7-1.4,15.93,15.93,0,0,0-3.1-3.4,47.2,47.2,0,0,0-4-2.7l-1.9-1.1a8.77,8.77,0,0,1,2.3-.1,9.8,9.8,0,0,1,5.3,1.9,7.2,7.2,0,0,1,2.7,5.1,8.12,8.12,0,0,1-.1,1.7Z" fill="#fff"/><path d="M415,389.7s-41.9,4.4-93.5,4.4-93.5-4.4-93.5-4.4,41.9-4.4,93.5-4.4S415,389.7,415,389.7Z" fill="#d3d3d3"/><path d="M367.8,239.6v10.7a4,4,0,0,1-4,4H50.5a4,4,0,0,1-4-4V239.6a4,4,0,0,1,4-4H363.8A4.08,4.08,0,0,1,367.8,239.6Z" fill="#fff"/><path d="M367.8,239.6v10.7a4,4,0,0,1-4,4H321.5V235.6h42.3A4.08,4.08,0,0,1,367.8,239.6Z" fill="#df543b"/><path d="M294.1,386.9l-12,.9-.5-3.6c-4.3,3.7-20.1,5.4-33.1,6.1l-.3-4.5c15.3-4.6,29.4-14.7,30.4-15.8v-.1c.8-1.1,1.3-8,1.2-13.5l11.8-.9-1,16.4a1.38,1.38,0,0,1,.3.4C293.1,375.5,294.1,386.9,294.1,386.9Z" fill="#211e40"/><path d="M290.6,371.8a1.38,1.38,0,0,1,.3.4c-4.2.4-9.8-1.4-12.3-2.4.8-1.1,1.3-8,1.2-13.5l11.8-.9Z" fill="#fff"/><rect x="269.7" y="374.21" width="2.1" height="6.4" transform="translate(-176.04 250.42) rotate(-38.48)" fill="#fff"/><rect x="272.37" y="372.39" width="2.1" height="6.4" transform="translate(-174.33 251.7) rotate(-38.48)" fill="#fff"/><rect x="275.36" y="370.48" width="2.1" height="6.4" transform="translate(-172.49 253.14) rotate(-38.48)" fill="#fff"/><polygon points="281 218.5 271.2 299.1 276.5 365.1 295.1 365.1 297.3 301.2 312.7 216.1 281 218.5" fill="#d8a30e"/><path d="M287.5,119.7s-18.9,51.8-22.2,59.8l-41.6,5.7.3,14.6s56.9,2.6,66.3-4.1,9-62.3,9-62.3S295.9,117.7,287.5,119.7Z" fill="#e2bb17"/><path d="M324.2,219.6,279,221.9s-1.4-37.5-1.2-62.8c0-6.2.2-11.6.4-15.6,1.3-20.3,13.4-28.8,13.4-28.8l21.4-7c.1.1.2.2.2.3a48.22,48.22,0,0,1,10.9,26.9Z" fill="#f2cc2c"/><path d="M313.2,107.9l-33.6,48.6-1.8,2.6c0-6.2.2-11.6.4-15.6.9-13.7,6.7-22,10.3-26a27,27,0,0,1,3-2.8l21.4-7C313,107.7,313.1,107.8,313.2,107.9Z" fill="#dddde9"/><path d="M282.5,132.7l3.6,4.3-6.5,19.4-1.8,2.6c0-6.2.2-11.6.4-15.6.9-13.7,6.7-22,10.3-26l.7.9,1.5,7.7Z" fill="#df543b"/><polygon points="292.8 109.9 309.1 104.4 309 96.3 308.9 89 308.9 88.7 305.4 86.8 297.3 91.8 295.4 99.4 294.8 102 292.8 109.9" fill="#ffdfc4"/><path d="M294.8,102,309,96.2l-.1-7.3a5.19,5.19,0,0,1-3.6.5s-5.1,6.4-9.9,9.9Z" fill="#ffc1a0"/><path d="M287.2,64.9s-7,14.4-10.1,18.1c-2.1,2.6,4.4,3.1,4.4,3.1s-3.2,25.9,10.4,16c12-8.7,13.5-12.6,13.5-12.6s4.9.5,5.9-2.9.1-8.1-4.8-5.9c0,0-2.9-3.3-3.1-6.7s1.2-10.2-4.1-9.9C293.8,64.2,287.2,64.9,287.2,64.9Z" fill="#ffdfc4"/><polygon points="311.3 103.4 287.1 109.9 286.1 120.4 313 107.6 311.3 103.4" fill="#fff"/><path d="M292.2,83.2a3.22,3.22,0,0,0,3.2,3.2,3.29,3.29,0,0,0,3.2-3.2,3.2,3.2,0,0,0-6.4,0Z" fill="#ffc1a0"/><path d="M307.4,82.3a7.34,7.34,0,0,0,.8.2c.2.1.5.2.7.3a1.79,1.79,0,0,1,.5.7,3.81,3.81,0,0,1,.4,1.7,1.54,1.54,0,0,1-.2.8.31.31,0,0,0,.2-.1,2.18,2.18,0,0,0,.4-.5,2.78,2.78,0,0,0,0-2.2,2.19,2.19,0,0,0-.9-1,1.86,1.86,0,0,0-1-.1A1.72,1.72,0,0,0,307.4,82.3Z" fill="#ffc1a0"/><path d="M275.6,51.6s-3.8,16.5,11.8,16.3c6.1-.1,13.4-.6,14.3-.5,0,0-2.4,8.7,4.4,13.6,0,0,3.9-1.4,5.1,1.1,0,0,11.7-11.5,5.1-24.5C311.5,48,287.5,60.4,275.6,51.6Z" fill="#242143"/><path d="M313.1,59s.1.3.3.8.4,1.3.7,2.3a15.1,15.1,0,0,1,.2,7.4,12.76,12.76,0,0,1-3.9,6.2,15.52,15.52,0,0,1-1.8,1.5,4,4,0,0,0-.7.5l.9-.3a17.7,17.7,0,0,0,2.2-1,11.83,11.83,0,0,0,2.9-2.4,10.78,10.78,0,0,0,2.2-4.1,10.28,10.28,0,0,0,.1-4.6,13,13,0,0,0-1.2-3.5q-.75-1.35-1.2-2.1A3.57,3.57,0,0,1,313.1,59Z" fill="#3a3750"/><path d="M306.9,55.9a2.22,2.22,0,0,1,.4.7,20.62,20.62,0,0,1,1.1,1.8,14.19,14.19,0,0,1,1.8,6.3,11.14,11.14,0,0,1-2,6.2,14.71,14.71,0,0,1-1.3,1.7,6.12,6.12,0,0,1-.5.6,2.77,2.77,0,0,0,.7-.4,13.34,13.34,0,0,0,1.7-1.4,8.1,8.1,0,0,0,1.9-2.7,8.46,8.46,0,0,0,1-4,9.82,9.82,0,0,0-.9-4,12.3,12.3,0,0,0-1.8-2.8c-.6-.7-1.1-1.2-1.5-1.6A4.58,4.58,0,0,0,306.9,55.9Z" fill="#3a3750"/><path d="M291.7,63.2a3.22,3.22,0,0,1-.6.2,14.58,14.58,0,0,1-1.7.4,11.44,11.44,0,0,1-5.5-.1,10.17,10.17,0,0,1-4.5-3,7.57,7.57,0,0,1-1-1.4l-.3-.6a1.55,1.55,0,0,0,.2.6A6.76,6.76,0,0,0,279,61a8.16,8.16,0,0,0,1.7,2.2,7.36,7.36,0,0,0,3,1.7,6.68,6.68,0,0,0,3.4.2,13.39,13.39,0,0,0,2.6-.8c.7-.3,1.2-.6,1.6-.8A3,3,0,0,0,291.7,63.2Z" fill="#3a3750"/><path d="M292.9,59.9a3.22,3.22,0,0,1-.6.2,14.58,14.58,0,0,1-1.7.4,11.44,11.44,0,0,1-5.5-.1,10.17,10.17,0,0,1-4.5-3,7.57,7.57,0,0,1-1-1.4l-.3-.6a1.55,1.55,0,0,0,.2.6,6.76,6.76,0,0,0,.7,1.7,8.16,8.16,0,0,0,1.7,2.2,7.36,7.36,0,0,0,3,1.7,6.68,6.68,0,0,0,3.4.2,13.39,13.39,0,0,0,2.6-.8c.7-.3,1.2-.6,1.6-.8A1.73,1.73,0,0,1,292.9,59.9Z" fill="#3a3750"/><path d="M313.7,107.2s-17,8.8-18,24.9-1.1,112.3-1.1,112.3h8.2l-1-110.8c-.1-8.1,2.7-11.1,8-17.2a25.61,25.61,0,0,1,6.2-5.2C319.3,109.3,315.5,106.1,313.7,107.2Z" fill="#211e40"/><path d="M373.3,358.2l-6.1,9.4-2-1-13.1,22.3-9.3,1.3-.5-2.5,6.8-5.3c4.2-12.4,4.1-20.1,3.9-21.5v-.1a39.88,39.88,0,0,0-6.6-11.9l9.5-3.4,5.3,7.4C364.5,352.7,373.3,358.2,373.3,358.2Z" fill="#332e55"/><path d="M361.2,353a13,13,0,0,1-8.2,7.9v-.1a39.88,39.88,0,0,0-6.6-11.9l9.5-3.4Z" fill="#fff"/><rect x="352.04" y="369.04" width="2.1" height="6.4" transform="translate(-57.13 680.39) rotate(-83.43)" fill="#fff"/><rect x="352.59" y="365.86" width="2.1" height="6.4" transform="translate(-53.48 678.12) rotate(-83.43)" fill="#fff"/><rect x="353.38" y="362.38" width="2.1" height="6.4" transform="translate(-49.33 675.82) rotate(-83.43)" fill="#fff"/><path d="M287.5,218l18.4,86.3,40.7,53.8,17.2-10.5-33.2-56.4s.9-49.8,0-55-4-18.3-4-18.3l-39.1.1Z" fill="#f4b21e"/><path d="M341.3,289.3h-55a5.18,5.18,0,0,1-5.4-5V263.1h65.7v21.2A5.09,5.09,0,0,1,341.3,289.3Z" fill="#211e40"/><path d="M278.1,237.9v27.8a5.18,5.18,0,0,0,5.4,5h60.7a5.18,5.18,0,0,0,5.4-5V237.9Z" fill="#3a3750"/><rect x="288.8" y="266.9" width="6.9" height="7.2" fill="#ffcb45"/><rect x="332.4" y="266.9" width="6.9" height="7.2" fill="#ffcb45"/><path d="M266.6,184.3v53.2a2.26,2.26,0,0,0,2.3,2.3h74.2a2.26,2.26,0,0,0,2.3-2.3V184.3a2.26,2.26,0,0,0-2.3-2.3H268.9A2.26,2.26,0,0,0,266.6,184.3Z" fill="#d0d0dd"/><path d="M266.6,184.3v51.4h72.8a2.26,2.26,0,0,0,2.3-2.3V182H268.9A2.26,2.26,0,0,0,266.6,184.3Z" fill="#dddde9"/><circle cx="306" cy="210.9" r="9" fill="#fff"/><path d="M290.1,226.6l-2.9,3.3-6.7.3-4,6.7-.4,3.3-1.6,5.1,2.8,2.9,4.5-.4s4.5,2.1,6.4,1,6.7-8.8,6.7-8.8l-.7-3.9,3.1-2.7Z" fill="#ffc1a0"/><path d="M316,111.6s17.3,7,19.4,24.9,6.9,58.4,3.8,61.8-40.5,38.5-40.5,38.5l-11.1-11.3s22.1-32.6,31.7-39.9c0,0-15.7-51.1-10.1-64.3C313,112.2,316,111.6,316,111.6Z" fill="#f2ca25"/><polygon points="24.5 266.4 98.5 30.3 245.3 30.3 169.2 266.4 24.5 266.4" fill="#fff" opacity="0.3" style="isolation:isolate"/><polygon points="24.5 266.4 98.5 30.3 24.5 30.3 24.5 266.4" fill="#fff" opacity="0.7" style="isolation:isolate"/><path d="M429.8,47.8H357.9a8.81,8.81,0,0,0-8.8,8.8V88.9a8.81,8.81,0,0,0,8.8,8.8h71.9a8.81,8.81,0,0,0,8.8-8.8V56.6A8.81,8.81,0,0,0,429.8,47.8Z" fill="#f0f4f7"/><polygon points="327.9 78.1 355 62.3 355 78.1 327.9 78.1" fill="#f0f4f7"/><rect x="378.7" y="85.8" width="47" height="3.8" fill="#242143"/><rect x="369.3" y="65.9" width="47" height="3.8" fill="#242143"/><rect x="377.8" y="55.9" width="47" height="3.8" fill="#242143"/><rect x="362.1" y="75.8" width="63.7" height="3.9" fill="#242143"/></g></svg>