<svg height="512" viewBox="0 0 512 512" width="512" xmlns="http://www.w3.org/2000/svg"><path d="M421.484 117.179V32.273h-17.923v84.906H314.83v22.405h88.731v88.185h17.923v-88.185H512v-22.405zM285.447 29.073H158.361s-128.67 3.154-128.67 112.092c0 108.919 112.487 96.296 112.487 96.296v27.629c0 11.156 15.095 7.403 16.969 30.001-7.601 0-156.296-3.952-156.296 94.715 0 98.665 131.038 93.942 131.038 93.942s151.558 6.908 151.558-115.646c0-73.408-86.436-97.086-86.436-126.694 0-29.595 65.125-38.179 65.125-107.738 0-41.747-3.85-66.9-36.707-81.698.001-10.368 58.018-3.565 58.018-22.899zm-40.842 347.453c2.594 38.272-37.846 72.159-90.31 75.713-52.455 3.553-97.074-24.583-99.661-62.833-2.598-38.266 37.82-72.158 90.275-75.711 52.469-3.554 97.101 24.576 99.696 62.831zm-77.272-165.207c-31.247 8.496-66.215-20.091-78.117-63.847-11.893-43.744 3.785-86.085 35.027-94.582 31.245-8.502 66.211 20.075 78.108 63.823 11.904 43.757-3.775 86.106-35.018 94.606z"/></svg>