<svg xmlns="http://www.w3.org/2000/svg" width="120" height="13" viewBox="94.576 8.955 120 13"><path d="M99.174 9.088v11.66h-1.649V10.537h-2.632V9.088h4.281zm2.699 6.398h4.481v1.383h-4.481v-1.383zm14.909-.717c0 3.981-2.249 6.113-5.513 6.113-1.099 0-2.149-.217-2.898-.683l.633-1.299c.616.4 1.399.55 2.249.55 2.365 0 3.864-1.482 3.864-4.397v-.416c-.683 1.016-1.916 1.532-3.365 1.532-2.315 0-3.981-1.383-3.981-3.531-.001-2.25 1.798-3.682 4.113-3.682 3.131-.001 4.898 2.098 4.898 5.813zm-2.05-2.215c0-1.201-.966-2.249-2.782-2.249-1.516 0-2.565.883-2.565 2.265 0 1.366 1.016 2.249 2.648 2.249 1.599-.001 2.699-.982 2.699-2.265zm7.212-3.466v11.66h-1.649V10.537h-2.632V9.088h4.281zm11.044 0v1.133l-4.714 10.527h-1.766l4.614-10.211h-5.33v2.082h-1.599V9.088h8.795zm.782 6.398h4.481v1.383h-4.481v-1.383zm14.558-6.398v1.133l-4.714 10.527h-1.766l4.614-10.211h-5.33v2.082h-1.599V9.088h8.795zm1.133 5.83c0-3.798 2.032-5.963 4.764-5.963 2.715 0 4.747 2.165 4.747 5.963s-2.032 5.963-4.747 5.963c-2.732.001-4.764-2.164-4.764-5.963zm7.845 0c0-2.982-1.266-4.481-3.082-4.481-1.832 0-3.098 1.499-3.098 4.481s1.266 4.481 3.098 4.481c1.817 0 3.082-1.499 3.082-4.481zm11.41 4.382v1.449h-8.38v-1.134l4.747-4.581c1.233-1.199 1.466-1.932 1.466-2.665 0-1.199-.849-1.932-2.482-1.932-1.249 0-2.265.4-2.982 1.266l-1.133-.983c.899-1.116 2.45-1.766 4.265-1.766 2.432 0 3.998 1.249 3.998 3.248 0 1.133-.333 2.149-1.916 3.664l-3.565 3.431h5.98v.003zm1.4-3.814h4.481v1.383h-4.481v-1.383zm14.558-6.398v1.133l-4.714 10.527h-1.766l4.614-10.211h-5.33v2.082h-1.599V9.088h8.795zm9.96 0v1.133l-4.714 10.527h-1.766l4.614-10.211h-5.33v2.082h-1.599V9.088h8.795zm10.144 5.681c0 3.981-2.249 6.113-5.513 6.113-1.099 0-2.149-.217-2.898-.683L197 18.9c.616.4 1.399.55 2.249.55 2.365 0 3.864-1.482 3.864-4.397v-.416c-.683 1.016-1.916 1.532-3.365 1.532-2.315 0-3.981-1.383-3.981-3.531 0-2.25 1.799-3.682 4.114-3.682 3.132-.001 4.897 2.098 4.897 5.813zm-2.048-2.215c0-1.201-.966-2.249-2.782-2.249-1.516 0-2.565.883-2.565 2.265 0 1.366 1.016 2.249 2.648 2.249 1.599-.001 2.699-.982 2.699-2.265zm11.459 4.763c0 1.965-1.449 3.565-4.414 3.565-1.666 0-3.298-.533-4.281-1.416l.766-1.316c.783.733 2.082 1.249 3.515 1.249 1.749 0 2.748-.8 2.748-2.065 0-1.233-.883-2.032-2.882-2.032h-.933v-1.166l2.932-3.598h-5.613v-1.45h7.695v1.133l-3.048 3.764c2.333.217 3.515 1.534 3.515 3.332z" fill="inherit"/></svg>