<svg width="0" height="0" style="position:absolute"><symbol viewBox="0 0 47 39" id="checkmark" xmlns="http://www.w3.org/2000/svg"><path fill="#231F20" d="M37.143.444l-1.981 1.979-8.91 8.91-8.909 8.909-.707.707-1.757-1.757-5.092-5.091-.93-.93-9.192 9.192.929.93 5.093 5.092 1.757 1.758h-.001l9.193 9.191 9.192-9.191.707-.707 8.91-8.911 8.909-8.909 1.981-1.98z"/></symbol><symbol viewBox="0 0 512 512" id="fb" xmlns="http://www.w3.org/2000/svg"><path d="M308.3 508.5c-2.5.1-4.1.3-5.7.3-34.2 0-68.3-.1-102.5.1-4.8 0-6.1-1.3-6.1-6.1.1-79.6.1-159.3.1-238.9V257H139v-85h5.4c15 0 30-.1 45 .1 3.8 0 4.8-1.1 4.8-4.8-.2-22.3-.2-44.7 0-67 .1-15.6 2.6-30.8 9.8-44.9 10.3-19.9 26.6-32.8 47.2-40.8 16.8-6.6 34.5-9 52.3-9.3 29-.4 58-.2 87-.3 2.7 0 4.9-.1 4.9 3.7-.1 27.5-.1 55-.1 82.5 0 .3-.1.6-.5 1.9h-5.5c-18 0-36-.1-54 0-10.4 0-18.8 4.2-24.1 13.3-1.6 2.7-2.6 6.2-2.6 9.4-.3 17 0 34-.2 51 0 4 1.2 5.1 5.1 5.1 25-.2 50-.1 75-.1h7.3c-3.5 28.6-6.9 56.6-10.4 84.9h-77.1v251.8z"/></symbol><symbol viewBox="0 0 512 512" id="gp" xmlns="http://www.w3.org/2000/svg"><path d="M421.484 117.179V32.273h-17.923v84.906H314.83v22.405h88.731v88.185h17.923v-88.185H512v-22.405zM285.447 29.073H158.361s-128.67 3.154-128.67 112.092c0 108.919 112.487 96.296 112.487 96.296v27.629c0 11.156 15.095 7.403 16.969 30.001-7.601 0-156.296-3.952-156.296 94.715 0 98.665 131.038 93.942 131.038 93.942s151.558 6.908 151.558-115.646c0-73.408-86.436-97.086-86.436-126.694 0-29.595 65.125-38.179 65.125-107.738 0-41.747-3.85-66.9-36.707-81.698.001-10.368 58.018-3.565 58.018-22.899zm-40.842 347.453c2.594 38.272-37.846 72.159-90.31 75.713-52.455 3.553-97.074-24.583-99.661-62.833-2.598-38.266 37.82-72.158 90.275-75.711 52.469-3.554 97.101 24.576 99.696 62.831zm-77.272-165.207c-31.247 8.496-66.215-20.091-78.117-63.847-11.893-43.744 3.785-86.085 35.027-94.582 31.245-8.502 66.211 20.075 78.108 63.823 11.904 43.757-3.775 86.106-35.018 94.606z"/></symbol><symbol viewBox="0 0 56.693 56.693" id="in" xmlns="http://www.w3.org/2000/svg"><path d="M43.414 4.831H13c-5.283 0-9.581 4.297-9.581 9.58v30.415c0 5.283 4.298 9.58 9.581 9.58h30.415c5.283 0 9.58-4.297 9.58-9.58V14.41c-.001-5.283-4.298-9.579-9.581-9.579zm2.748 5.713l1.096-.004v8.403l-8.375.027-.029-8.402 7.308-.024zM21.131 24.53c1.588-2.197 4.164-3.638 7.076-3.638s5.488 1.441 7.074 3.638a8.677 8.677 0 0 1 1.652 5.088c0 4.811-3.918 8.725-8.727 8.725-4.812 0-8.726-3.914-8.726-8.725a8.683 8.683 0 0 1 1.651-5.088zm27.033 20.295a4.754 4.754 0 0 1-4.75 4.75H13a4.755 4.755 0 0 1-4.751-4.75V24.53h7.4a13.483 13.483 0 0 0-.998 5.088c0 7.473 6.08 13.557 13.556 13.557 7.475 0 13.555-6.084 13.555-13.557 0-1.799-.361-3.516-1-5.088h7.402v20.295z"/></symbol><symbol viewBox="94.576 8.955 120 13" id="number" xmlns="http://www.w3.org/2000/svg"><path d="M99.174 9.088v11.66h-1.649V10.537h-2.632V9.088h4.281zm2.699 6.398h4.481v1.383h-4.481v-1.383zm14.909-.717c0 3.981-2.249 6.113-5.513 6.113-1.099 0-2.149-.217-2.898-.683l.633-1.299c.616.4 1.399.55 2.249.55 2.365 0 3.864-1.482 3.864-4.397v-.416c-.683 1.016-1.916 1.532-3.365 1.532-2.315 0-3.981-1.383-3.981-3.531-.001-2.25 1.798-3.682 4.113-3.682 3.131-.001 4.898 2.098 4.898 5.813zm-2.05-2.215c0-1.201-.966-2.249-2.782-2.249-1.516 0-2.565.883-2.565 2.265 0 1.366 1.016 2.249 2.648 2.249 1.599-.001 2.699-.982 2.699-2.265zm7.212-3.466v11.66h-1.649V10.537h-2.632V9.088h4.281zm11.044 0v1.133l-4.714 10.527h-1.766l4.614-10.211h-5.33v2.082h-1.599V9.088h8.795zm.782 6.398h4.481v1.383h-4.481v-1.383zm14.558-6.398v1.133l-4.714 10.527h-1.766l4.614-10.211h-5.33v2.082h-1.599V9.088h8.795zm1.133 5.83c0-3.798 2.032-5.963 4.764-5.963 2.715 0 4.747 2.165 4.747 5.963s-2.032 5.963-4.747 5.963c-2.732.001-4.764-2.164-4.764-5.963zm7.845 0c0-2.982-1.266-4.481-3.082-4.481-1.832 0-3.098 1.499-3.098 4.481s1.266 4.481 3.098 4.481c1.817 0 3.082-1.499 3.082-4.481zm11.41 4.382v1.449h-8.38v-1.134l4.747-4.581c1.233-1.199 1.466-1.932 1.466-2.665 0-1.199-.849-1.932-2.482-1.932-1.249 0-2.265.4-2.982 1.266l-1.133-.983c.899-1.116 2.45-1.766 4.265-1.766 2.432 0 3.998 1.249 3.998 3.248 0 1.133-.333 2.149-1.916 3.664l-3.565 3.431h5.98v.003zm1.4-3.814h4.481v1.383h-4.481v-1.383zm14.558-6.398v1.133l-4.714 10.527h-1.766l4.614-10.211h-5.33v2.082h-1.599V9.088h8.795zm9.96 0v1.133l-4.714 10.527h-1.766l4.614-10.211h-5.33v2.082h-1.599V9.088h8.795zm10.144 5.681c0 3.981-2.249 6.113-5.513 6.113-1.099 0-2.149-.217-2.898-.683L197 18.9c.616.4 1.399.55 2.249.55 2.365 0 3.864-1.482 3.864-4.397v-.416c-.683 1.016-1.916 1.532-3.365 1.532-2.315 0-3.981-1.383-3.981-3.531 0-2.25 1.799-3.682 4.114-3.682 3.132-.001 4.897 2.098 4.897 5.813zm-2.048-2.215c0-1.201-.966-2.249-2.782-2.249-1.516 0-2.565.883-2.565 2.265 0 1.366 1.016 2.249 2.648 2.249 1.599-.001 2.699-.982 2.699-2.265zm11.459 4.763c0 1.965-1.449 3.565-4.414 3.565-1.666 0-3.298-.533-4.281-1.416l.766-1.316c.783.733 2.082 1.249 3.515 1.249 1.749 0 2.748-.8 2.748-2.065 0-1.233-.883-2.032-2.882-2.032h-.933v-1.166l2.932-3.598h-5.613v-1.45h7.695v1.133l-3.048 3.764c2.333.217 3.515 1.534 3.515 3.332z" fill="inherit"/></symbol><symbol viewBox="0 0 56.693 56.693" id="tw" xmlns="http://www.w3.org/2000/svg"><path d="M52.837 15.065a20.11 20.11 0 0 1-5.805 1.591 10.125 10.125 0 0 0 4.444-5.592 20.232 20.232 0 0 1-6.418 2.454 10.093 10.093 0 0 0-7.377-3.192c-5.581 0-10.106 4.525-10.106 10.107 0 .791.089 1.562.262 2.303-8.4-.422-15.848-4.445-20.833-10.56a10.055 10.055 0 0 0-1.368 5.082c0 3.506 1.784 6.6 4.496 8.412a10.078 10.078 0 0 1-4.578-1.265l-.001.128c0 4.896 3.484 8.98 8.108 9.91a10.162 10.162 0 0 1-4.565.172c1.287 4.015 5.019 6.938 9.441 7.019a20.276 20.276 0 0 1-12.552 4.327c-.815 0-1.62-.048-2.411-.142a28.6 28.6 0 0 0 15.493 4.541c18.591 0 28.756-15.4 28.756-28.756 0-.438-.009-.875-.028-1.309a20.47 20.47 0 0 0 5.042-5.23z"/></symbol></svg>