<?xml version="1.0" encoding="utf-8"?>
<!-- Generator: Adobe Illustrator 21.1.0, SVG Export Plug-In . SVG Version: 6.00 Build 0)  -->
<svg version="1.1" id="Layer_1" xmlns="http://www.w3.org/2000/svg" xmlns:xlink="http://www.w3.org/1999/xlink" x="0px" y="0px"
	 width="28px" height="32px" viewBox="0 0 28 32" enable-background="new 0 0 28 32" xml:space="preserve">
<path d="M26,10h-4V8c0-4.4-3.6-8-8-8S6,3.6,6,8v2H2c-1.1,0-2,0.9-2,2v12c0,4.4,3.6,8,8,8h12c4.4,0,8-3.6,8-8V12
	C28,10.9,27.1,10,26,10z M10,8c0-2.2,1.8-4,4-4s4,1.8,4,4v2h-8V8z M24,24c0,2.2-1.8,4-4,4H8c-2.2,0-4-1.8-4-4V14h2v2
	c0,1.1,0.9,2,2,2s2-0.9,2-2v-2h8v2c0,1.1,0.9,2,2,2s2-0.9,2-2v-2h2V24z"/>
</svg>
