<?xml version="1.0" encoding="iso-8859-1"?>
<!-- Generator: Adobe Illustrator 19.0.0, SVG Export Plug-In . SVG Version: 6.00 Build 0)  -->
<svg version="1.1" id="Capa_1" xmlns="http://www.w3.org/2000/svg" xmlns:xlink="http://www.w3.org/1999/xlink" x="0px" y="0px"
	 viewBox="0 0 512.045 512.045" style="enable-background:new 0 0 512.045 512.045;" xml:space="preserve">
<g>
	<g>
		<path d="M458.689,0.045H309.356c-1.558-0.059-3.117-0.059-4.675,0c-34.055,1.291-60.616,29.945-59.325,64h21.333
			c0-1.739,0.491-42.667,42.667-42.667h138.667v256h-96c-1.558-0.059-3.117-0.059-4.675,0c-34.055,1.291-60.616,29.945-59.325,64
			h21.333c0-1.739,0.491-42.667,42.667-42.667h106.667c5.891,0,10.667-4.776,10.667-10.667V10.712
			C469.356,4.821,464.58,0.045,458.689,0.045z"/>
	</g>
</g>
<g>
	<g>
		<rect x="245.356" y="64.045" width="21.333" height="309.333"/>
	</g>
</g>
<g>
	<g>
		<path d="M32.023,330.712c-17.673,0-32,14.327-32,32s14.327,32,32,32s32-14.327,32-32S49.696,330.712,32.023,330.712z
			 M32.023,373.379c-5.891,0-10.667-4.776-10.667-10.667s4.776-10.667,10.667-10.667s10.667,4.776,10.667,10.667
			S37.914,373.379,32.023,373.379z"/>
	</g>
</g>
<g>
	<g>
		<path d="M101.356,394.712c-20.619,0-37.333,16.715-37.333,37.333c0,20.619,16.715,37.333,37.333,37.333
			c20.619,0,37.333-16.715,37.333-37.333C138.689,411.427,121.975,394.712,101.356,394.712z M101.356,448.045
			c-8.837,0-16-7.163-16-16s7.163-16,16-16c8.837,0,16,7.163,16,16S110.192,448.045,101.356,448.045z"/>
	</g>
</g>
<g>
	<g>
		<path d="M256.023,426.712c-23.564,0-42.667,19.102-42.667,42.667c0,23.564,19.103,42.667,42.667,42.667
			s42.667-19.103,42.667-42.667C298.689,445.814,279.587,426.712,256.023,426.712z M256.023,490.712
			c-11.782,0-21.333-9.551-21.333-21.333c0-11.782,9.551-21.333,21.333-21.333c11.782,0,21.333,9.551,21.333,21.333
			C277.356,481.161,267.805,490.712,256.023,490.712z"/>
	</g>
</g>
<g>
	<g>
		<path d="M266.689,59.37c-1.291-34.055-29.945-60.616-64-59.325H53.356c-5.891,0-10.667,4.776-10.667,10.667v277.333
			c0,5.891,4.776,10.667,10.667,10.667h106.667c1.081-0.043,2.162-0.043,3.243,0c22.669,0.895,40.319,19.998,39.424,42.667h10.667
			h10.667c0.059-1.558,0.059-3.117,0-4.675c-1.291-34.055-29.945-60.616-64-59.325h-96v-256h138.667
			c1.088-0.043,2.177-0.043,3.265,0c22.663,0.902,40.303,20.004,39.402,42.667h21.333C266.748,62.487,266.748,60.928,266.689,59.37z
			"/>
	</g>
</g>
<g>
	<g>
		<path d="M170.689,224.045h-32v21.333h32c13.462-1.31,26.514,5.078,33.739,16.512l17.856-11.691
			C211.003,232.879,191.328,222.905,170.689,224.045z"/>
	</g>
</g>
<g>
	<g>
		<path d="M202.689,341.378c0,5.891-4.776,10.667-10.667,10.667h-74.667v21.333h74.667c17.673,0,32-14.327,32-32H202.689z"/>
	</g>
</g>
<g>
	<g>
		<path d="M202.689,384.045c0,17.673-14.327,32-32,32h-42.667v21.333h42.667c29.441-0.035,53.298-23.893,53.333-53.333H202.689z"/>
	</g>
</g>
<g>
	<g>
		<rect x="85.356" y="224.045" width="32" height="21.333"/>
	</g>
</g>
<g>
	<g>
		<path d="M170.689,181.378v21.333c22.763,0,27.829,0.256,35.125,7.541l15.083-15.083
			C207.105,181.378,194.935,181.378,170.689,181.378z"/>
	</g>
</g>
<g>
	<g>
		<path d="M170.689,138.712h-42.667v21.333h42.667c22.763,0,27.829,0.256,35.125,7.541l15.083-15.083
			C207.105,138.712,194.935,138.712,170.689,138.712z"/>
	</g>
</g>
<g>
	<g>
		<path d="M170.689,96.045h-32v21.333h32c22.763,0,27.829,0.256,35.125,7.541l15.083-15.083
			C207.105,96.045,194.935,96.045,170.689,96.045z"/>
	</g>
</g>
<g>
	<g>
		<path d="M170.689,53.378v21.333c22.763,0,27.829,0.256,35.125,7.541l15.083-15.083C207.105,53.378,194.935,53.378,170.689,53.378z
			"/>
	</g>
</g>
<g>
	<g>
		<rect x="85.356" y="181.378" width="64" height="21.333"/>
	</g>
</g>
<g>
	<g>
		<rect x="85.356" y="138.712" width="21.333" height="21.333"/>
	</g>
</g>
<g>
	<g>
		<rect x="85.356" y="96.045" width="32" height="21.333"/>
	</g>
</g>
<g>
	<g>
		<rect x="85.356" y="53.378" width="64" height="21.333"/>
	</g>
</g>
<g>
	<g>
		<path d="M480.023,330.712c-17.673,0-32,14.327-32,32s14.327,32,32,32s32-14.327,32-32S497.696,330.712,480.023,330.712z
			 M480.023,373.379c-5.891,0-10.667-4.776-10.667-10.667s4.776-10.667,10.667-10.667c5.891,0,10.667,4.776,10.667,10.667
			S485.914,373.379,480.023,373.379z"/>
	</g>
</g>
<g>
	<g>
		<path d="M410.689,394.712c-20.619,0-37.333,16.715-37.333,37.333c0,20.619,16.715,37.333,37.333,37.333
			s37.333-16.715,37.333-37.333C448.023,411.427,431.308,394.712,410.689,394.712z M410.689,448.045c-8.837,0-16-7.163-16-16
			s7.163-16,16-16s16,7.163,16,16S419.526,448.045,410.689,448.045z"/>
	</g>
</g>
<g>
	<g>
		<path d="M341.356,224.045c-20.63-1.149-40.304,8.808-51.595,26.112l17.856,11.733c7.225-11.434,20.276-17.822,33.739-16.512h32
			v-21.333H341.356z"/>
	</g>
</g>
<g>
	<g>
		<path d="M320.023,352.045c-5.891,0-10.667-4.776-10.667-10.667h-21.333c0,17.673,14.327,32,32,32h74.667v-21.333H320.023z"/>
	</g>
</g>
<g>
	<g>
		<path d="M341.356,416.045c-17.673,0-32-14.327-32-32h-21.333c0.035,29.441,23.893,53.298,53.333,53.333h42.667v-21.333H341.356z"
			/>
	</g>
</g>
<g>
	<g>
		<rect x="394.689" y="224.045" width="32" height="21.333"/>
	</g>
</g>
<g>
	<g>
		<path d="M291.148,195.171l15.083,15.083c7.296-7.285,12.363-7.541,35.125-7.541v-21.333
			C317.111,181.379,304.94,181.379,291.148,195.171z"/>
	</g>
</g>
<g>
	<g>
		<path d="M341.356,138.712c-24.245,0-36.416,0-50.208,13.792l15.083,15.083c7.296-7.285,12.363-7.541,35.125-7.541h42.667v-21.333
			H341.356z"/>
	</g>
</g>
<g>
	<g>
		<path d="M341.356,96.045c-24.245,0-36.416,0-50.208,13.792l15.083,15.083v0c7.296-7.285,12.363-7.541,35.125-7.541h32V96.045
			H341.356z"/>
	</g>
</g>
<g>
	<g>
		<path d="M291.148,67.17l15.083,15.083c7.296-7.285,12.363-7.541,35.125-7.541V53.378C317.111,53.378,304.94,53.378,291.148,67.17z
			"/>
	</g>
</g>
<g>
	<g>
		<rect x="362.689" y="181.378" width="64" height="21.333"/>
	</g>
</g>
<g>
	<g>
		<rect x="405.356" y="138.712" width="21.333" height="21.333"/>
	</g>
</g>
<g>
	<g>
		<rect x="394.689" y="96.045" width="32" height="21.333"/>
	</g>
</g>
<g>
	<g>
		<rect x="362.689" y="53.378" width="64" height="21.333"/>
	</g>
</g>
<g>
	<g>
		<rect x="245.356" y="394.712" width="21.333" height="21.333"/>
	</g>
</g>
<g>
	<g>
		<rect x="416.023" y="352.045" width="21.333" height="21.333"/>
	</g>
</g>
<g>
	<g>
		<rect x="85.356" y="352.045" width="21.333" height="21.333"/>
	</g>
</g>
<g>
</g>
<g>
</g>
<g>
</g>
<g>
</g>
<g>
</g>
<g>
</g>
<g>
</g>
<g>
</g>
<g>
</g>
<g>
</g>
<g>
</g>
<g>
</g>
<g>
</g>
<g>
</g>
<g>
</g>
</svg>
