<?xml version="1.0" encoding="iso-8859-1"?>
<!-- Generator: Adobe Illustrator 19.0.0, SVG Export Plug-In . SVG Version: 6.00 Build 0)  -->
<svg version="1.1" id="Capa_1" xmlns="http://www.w3.org/2000/svg" xmlns:xlink="http://www.w3.org/1999/xlink" x="0px" y="0px"
	 viewBox="0 0 512 512" style="enable-background:new 0 0 512 512;" xml:space="preserve">
<g>
	<g>
		<path d="M256,170.667c-17.673,0-32,14.327-32,32c0,17.673,14.327,32,32,32c17.673,0,32-14.327,32-32
			C288,184.995,273.673,170.667,256,170.667z M256,213.333c-5.891,0-10.667-4.776-10.667-10.667c0-5.891,4.776-10.667,10.667-10.667
			s10.667,4.776,10.667,10.667C266.667,208.558,261.891,213.333,256,213.333z"/>
	</g>
</g>
<g>
	<g>
		<rect x="245.33" y="106.67" width="21.333" height="74.67"/>
	</g>
</g>
<g>
	<g>
		<path d="M329.909,209.376l-42.667-106.667c-1.619-4.053-5.545-6.711-9.909-6.709h-42.667c-4.376-0.015-8.318,2.645-9.941,6.709
			l-42.667,106.667c-1.293,3.267-0.894,6.962,1.067,9.877l42.667,64c1.979,2.966,5.309,4.747,8.875,4.747h42.667
			c3.554-0.01,6.87-1.79,8.843-4.747l42.667-64C330.803,216.339,331.202,212.643,329.909,209.376z M271.627,266.667h-31.253
			l-36.384-54.581l37.899-94.752h28.224l37.899,94.752L271.627,266.667z"/>
	</g>
</g>
<g>
	<g>
		<rect x="160" y="256" width="21.333" height="21.333"/>
	</g>
</g>
<g>
	<g>
		<rect x="330.67" y="256" width="21.333" height="21.333"/>
	</g>
</g>
<g>
	<g>
		<rect x="245.33" y="309.33" width="21.333" height="64"/>
	</g>
</g>
<g>
	<g>
		<rect x="245.33" y="394.67" width="21.333" height="21.333"/>
	</g>
</g>
<g>
	<g>
		<path d="M502.56,202.732l-52.853-5.877c-3.802-12.454-8.804-24.511-14.933-36l33.216-41.504
			c3.396-4.245,3.056-10.365-0.789-14.208l-60.352-60.277c-3.841-3.839-9.954-4.179-14.197-0.789L351.136,77.28
			c-11.486-6.136-23.543-11.138-36-14.933l-5.867-52.853C308.671,4.089,304.104,0,298.667,0h-85.333
			c-5.437,0-10.005,4.089-10.603,9.493l-5.867,52.8c-12.457,3.796-24.514,8.797-36,14.933L119.349,44.01
			c-4.243-3.39-10.356-3.05-14.197,0.789L44.8,105.141c-3.842,3.846-4.177,9.965-0.779,14.208l33.259,41.504
			c-6.13,11.489-11.131,23.546-14.933,36L9.494,202.73C4.089,203.329,0,207.896,0,213.333v85.333c0,5.437,4.089,10.005,9.493,10.603
			l52.8,5.877c3.802,12.454,8.804,24.511,14.933,36l-33.215,41.494c-3.396,4.245-3.056,10.365,0.789,14.208l60.352,60.352
			c3.858,3.82,9.97,4.132,14.197,0.725l41.515-33.205c11.486,6.136,23.543,11.138,36,14.933l5.867,52.853
			c0.598,5.404,5.165,9.494,10.603,9.493h85.333c5.419,0.003,9.979-4.057,10.603-9.44l5.867-52.853
			c12.457-3.796,24.514-8.797,36-14.933l41.515,33.216c4.243,3.39,10.356,3.05,14.197-0.789l60.288-60.352
			c3.845-3.843,4.185-9.963,0.789-14.208l-33.205-41.493c6.13-11.489,11.131-23.546,14.933-36l52.853-5.877
			c5.404-0.598,9.494-5.165,9.493-10.603v-85.333C512.003,207.914,507.943,203.354,502.56,202.732z M490.669,289.12h-0.002
			l-50.421,5.611c-4.374,0.486-8,3.608-9.131,7.861c-4.112,15.507-10.271,30.397-18.315,44.277
			c-2.211,3.808-1.855,8.583,0.896,12.021l31.712,39.616l-46.837,46.848l-39.637-31.723c-3.44-2.748-8.216-3.1-12.021-0.885
			c-13.874,8.047-28.761,14.203-44.267,18.304c-4.256,1.132-7.379,4.763-7.861,9.141l-5.611,50.475h-66.24l-5.664-50.475
			c-0.482-4.378-3.605-8.009-7.861-9.141c-15.505-4.101-30.393-10.257-44.267-18.304c-3.806-2.214-8.581-1.863-12.021,0.885
			l-39.637,31.723l-46.837-46.848l31.712-39.563c2.751-3.438,3.107-8.213,0.896-12.021c-8.044-13.88-14.203-28.771-18.315-44.277
			c-1.13-4.253-4.757-7.375-9.131-7.861l-50.475-5.611v-66.24l50.475-5.664c4.374-0.486,8-3.608,9.131-7.861
			c4.112-15.507,10.271-30.397,18.315-44.277c2.211-3.808,1.855-8.583-0.896-12.021l-31.712-39.627l46.837-46.837l39.691,31.723
			c3.44,2.748,8.216,3.1,12.021,0.885c13.874-8.047,28.761-14.203,44.267-18.304c4.256-1.132,7.379-4.763,7.861-9.141l5.611-50.475
			h66.187l5.611,50.475c0.482,4.378,3.605,8.009,7.861,9.141c15.505,4.101,30.393,10.257,44.267,18.304
			c3.806,2.214,8.581,1.863,12.021-0.885l39.637-31.723l46.891,46.837l-31.712,39.627c-2.751,3.438-3.107,8.213-0.896,12.021
			c8.03,13.9,14.171,28.808,18.261,44.331c1.13,4.253,4.757,7.375,9.131,7.861l50.475,5.611V289.12z"/>
	</g>
</g>
<g>
	<g>
		<path d="M335.872,117.419l-10.667,18.453c26.382,15.204,47.026,38.67,58.745,66.774c29.474,70.684-3.933,151.879-74.617,181.354
			v-64c1.375-21.122-9.124-41.253-27.232-52.213l-9.675,19.019C283.252,294.229,289.21,306.93,288,320v79.125
			c0,5.891,4.776,10.667,10.667,10.667c1.04,0.005,2.075-0.143,3.072-0.437c39.198-11.701,72.426-37.972,92.854-73.414
			C438.721,259.382,412.431,161.547,335.872,117.419z"/>
	</g>
</g>
<g>
	<g>
		<path d="M239.573,286.805l-4.906-9.471l-4.768-9.547c-18.108,10.961-28.607,31.091-27.232,52.213v64
			c-28.102-11.721-51.565-32.367-66.767-58.749c-38.235-66.356-15.439-151.144,50.916-189.379l-10.667-18.453
			c-35.432,20.427-61.696,53.646-73.398,92.835c-25.283,84.671,22.86,173.807,107.531,199.09c0.99,0.296,2.017,0.447,3.051,0.448
			c5.891,0,10.667-4.776,10.667-10.667V320C222.79,306.93,228.748,294.229,239.573,286.805z"/>
	</g>
</g>
<g>
</g>
<g>
</g>
<g>
</g>
<g>
</g>
<g>
</g>
<g>
</g>
<g>
</g>
<g>
</g>
<g>
</g>
<g>
</g>
<g>
</g>
<g>
</g>
<g>
</g>
<g>
</g>
<g>
</g>
</svg>
