<?xml version="1.0" encoding="utf-8"?>
<!-- Generator: Adobe Illustrator 21.1.0, SVG Export Plug-In . SVG Version: 6.00 Build 0)  -->
<svg version="1.1" id="Layer_1" xmlns="http://www.w3.org/2000/svg" xmlns:xlink="http://www.w3.org/1999/xlink" x="0px" y="0px"
	 width="62px" height="19.7px" viewBox="0 0 62 19.7" enable-background="new 0 0 62 19.7" xml:space="preserve">
<g>
	<g>
		<g>
			<circle fill="#EF9122" cx="32.9" cy="5.3" r="5.2"/>
		</g>
	</g>
	<g>
		<g>
			<path fill="#F26E21" d="M27.7,5.3c0-2.9,2.3-5.2,5.2-5.2s5.2,2.3,5.2,5.2s-2.3,5.2-5.2,5.2"/>
		</g>
	</g>
	<g>
		<g>
			<path fill="#F44500" d="M29.3,1.6c2-2,5.3-2,7.3,0s2,5.3,0,7.3"/>
		</g>
	</g>
	<g>
		<g>
			<path fill="#595A5B" d="M2.8,0.4H0v9.8h2.8c1.5,0,2.6-0.4,3.5-1.1c1.1-0.9,1.8-2.3,1.8-3.8C8.1,2.4,6,0.4,2.8,0.4z M5.1,7.8
				C4.5,8.3,3.7,8.6,2.5,8.6H1.9V2.1h0.5c1.2,0,2,0.2,2.6,0.8c0.7,0.6,1.1,1.5,1.1,2.4C6.2,6.2,5.8,7.2,5.1,7.8z"/>
		</g>
		<g>
			<rect x="9" y="0.4" fill="#595A5B" width="1.9" height="9.8"/>
		</g>
		<g>
			<path fill="#595A5B" d="M15.7,4.2c-1.2-0.4-1.5-0.7-1.5-1.2c0-0.6,0.6-1.1,1.4-1.1c0.6,0,1.1,0.2,1.6,0.8l1-1.3
				c-0.8-0.7-1.8-1.1-2.9-1.1c-1.7,0-3.1,1.2-3.1,2.8c0,1.4,0.6,2,2.4,2.7c0.8,0.3,1.1,0.4,1.3,0.6c0.4,0.2,0.6,0.6,0.6,1
				c0,0.8-0.6,1.4-1.5,1.4s-1.7-0.5-2.1-1.3l-1.2,1.2c0.9,1.3,2,1.9,3.4,1.9c2,0,3.4-1.3,3.4-3.2C18.5,5.7,17.9,5,15.7,4.2z"/>
		</g>
		<g>
			<path fill="#3B3D3F" d="M19.1,5.3c0,2.9,2.3,5.1,5.2,5.1c0.8,0,1.5-0.2,2.4-0.6V7.5c-0.8,0.8-1.5,1.1-2.3,1.1
				c-1.9,0-3.3-1.4-3.3-3.4c0-1.9,1.4-3.4,3.2-3.4c0.9,0,1.6,0.3,2.4,1.1V0.6C25.9,0.2,25.2,0,24.3,0C21.5,0.2,19.1,2.5,19.1,5.3z"
				/>
		</g>
		<g>
			<polygon points="42.4,7 39.8,0.4 37.7,0.4 41.8,10.5 42.9,10.5 47.2,0.4 45.1,0.4 			"/>
		</g>
		<g>
			<polygon points="48,10.2 53.5,10.2 53.5,8.6 50,8.6 50,5.9 53.4,5.9 53.4,4.2 50,4.2 50,2.1 53.5,2.1 53.5,0.4 48,0.4 			"/>
		</g>
		<g>
			<path fill="#595A5B" d="M58.9,6.1c1.5-0.3,2.3-1.3,2.3-2.8c0-1.8-1.3-2.9-3.5-2.9h-2.9v9.8h1.9V6.3H57l2.7,3.9H62L58.9,6.1z
				 M57.3,4.9h-0.6v-3h0.6c1.2,0,1.9,0.5,1.9,1.5S58.5,4.9,57.3,4.9z"/>
		</g>
	</g>
	<g>
		<g>
			<path fill="#595A5B" d="M2.8,0.4H0v9.8h2.8c1.5,0,2.6-0.4,3.5-1.1c1.1-0.9,1.8-2.3,1.8-3.8C8.1,2.4,6,0.4,2.8,0.4z M5.1,7.8
				C4.5,8.3,3.7,8.6,2.5,8.6H1.9V2.1h0.5c1.2,0,2,0.2,2.6,0.8c0.7,0.6,1.1,1.5,1.1,2.4C6.2,6.2,5.8,7.2,5.1,7.8z"/>
		</g>
		<g>
			<rect x="9" y="0.4" fill="#595A5B" width="1.9" height="9.8"/>
		</g>
		<g>
			<path fill="#595A5B" d="M15.7,4.2c-1.2-0.4-1.5-0.7-1.5-1.2c0-0.6,0.6-1.1,1.4-1.1c0.6,0,1.1,0.2,1.6,0.8l1-1.3
				c-0.8-0.7-1.8-1.1-2.9-1.1c-1.7,0-3.1,1.2-3.1,2.8c0,1.4,0.6,2,2.4,2.7c0.8,0.3,1.1,0.4,1.3,0.6c0.4,0.2,0.6,0.6,0.6,1
				c0,0.8-0.6,1.4-1.5,1.4s-1.7-0.5-2.1-1.3l-1.2,1.2c0.9,1.3,2,1.9,3.4,1.9c2,0,3.4-1.3,3.4-3.2C18.5,5.7,17.9,5,15.7,4.2z"/>
		</g>
		<g>
			<path fill="#595A5B" d="M24.4,10.4c0.8,0,1.5-0.2,2.4-0.6V7.5c-0.8,0.8-1.5,1.1-2.3,1.1c-1.9,0-3.3-1.4-3.3-3.4
				c0-1,0.4-1.8,1-2.5l-1.3-1.3c-1,0.9-1.7,2.3-1.7,3.8C19.1,8.2,21.4,10.4,24.4,10.4z"/>
		</g>
		<g>
			<path d="M58.9,6.1c1.5-0.3,2.3-1.3,2.3-2.8c0-1.8-1.3-2.9-3.5-2.9h-2.9v9.8h1.9V6.3H57l2.7,3.9H62L58.9,6.1z M57.3,4.9h-0.6v-3
				h0.6c1.2,0,1.9,0.5,1.9,1.5S58.5,4.9,57.3,4.9z"/>
		</g>
	</g>
	<g>
		<g>
			<g>
				<path fill="#F26E21" d="M14.1,19.3v-5.5l3.8,3.9v-3.6h0.8v5.5l-3.8-3.9v3.6H14.1z"/>
			</g>
		</g>
		<g>
			<g>
				<path fill="#F26E21" d="M22.7,14.9h-2.1v1.2h2v0.8h-2v1.7h2.1v0.7h-2.9v-5.2h2.9V14.9z"/>
			</g>
		</g>
		<g>
			<g>
				<path fill="#F26E21" d="M25.2,14.9v4.4h-0.8v-4.4h-1.2v-0.7h3.2v0.7H25.2z"/>
			</g>
		</g>
		<g>
			<g>
				<path fill="#F26E21" d="M27.6,14.2l1.3,3.5l1.4-3.7l1.3,3.7l1.4-3.5h1l-2.3,5.5L30.4,16L29,19.7l-2.2-5.5
					C26.8,14.2,27.6,14.2,27.6,14.2z"/>
			</g>
		</g>
		<g>
			<g>
				<path fill="#F26E21" d="M34.1,16.7c0-0.7,0.3-1.4,0.8-1.9s1.2-0.8,1.9-0.8s1.4,0.3,1.9,0.8s0.8,1.2,0.8,1.9s-0.3,1.4-0.8,1.9
					s-1.2,0.8-1.9,0.8s-1.3-0.2-1.8-0.7C34.4,18.2,34.1,17.6,34.1,16.7z M34.9,16.7c0,0.6,0.2,1,0.6,1.4c0.4,0.4,0.8,0.6,1.3,0.6
					s1-0.2,1.4-0.6s0.6-0.8,0.6-1.4s-0.2-1-0.6-1.4c-0.4-0.4-0.8-0.6-1.4-0.6c-0.5,0-1,0.2-1.4,0.6C35.1,15.7,34.9,16.2,34.9,16.7z"
					/>
			</g>
		</g>
		<g>
			<g>
				<path fill="#F26E21" d="M42.3,17.1l1.6,2.2h-1l-1.5-2.1h-0.1v2.1h-0.8v-5.2h0.9c0.7,0,1.2,0.1,1.5,0.4c0.3,0.3,0.5,0.7,0.5,1.1
					s-0.1,0.7-0.3,0.9C42.9,16.9,42.6,17.1,42.3,17.1z M41.3,16.5h0.2c0.7,0,1.1-0.3,1.1-0.8s-0.4-0.8-1.1-0.8h-0.3L41.3,16.5
					L41.3,16.5z"/>
			</g>
		</g>
		<g>
			<g>
				<path fill="#F26E21" d="M45.4,16.2l2-2.1h1l-2.3,2.3l2.3,2.8h-1l-1.9-2.3l-0.2,0.2v2.1h-0.8V14h0.8v2.2H45.4z"/>
			</g>
		</g>
	</g>
	<g>
		<polygon fill="#3B3D3F" points="51.8,8.6 50,8.6 50,6.8 48,4.8 48,10.2 53.4,10.2 		"/>
	</g>
	<g>
		<polygon fill="#3B3D3F" points="44.6,1.4 42.4,7 39.8,0.4 37.7,0.4 41.8,10.5 42.9,10.5 46.1,2.9 		"/>
	</g>
</g>
</svg>
