<?xml version="1.0" encoding="utf-8"?>
<!-- Generator: Adobe Illustrator 21.1.0, SVG Export Plug-In . SVG Version: 6.00 Build 0)  -->
<svg version="1.1" id="Слой_1" xmlns="http://www.w3.org/2000/svg" xmlns:xlink="http://www.w3.org/1999/xlink" x="0px" y="0px"
	 width="62px" height="86px" viewBox="0 0 62 86" enable-background="new 0 0 62 86" xml:space="preserve">
<path d="M61.5,71.4l-14,14.1c-0.3,0.3-0.8,0.5-1.2,0.5H1.7C0.8,86,0,85.2,0,84.3V1.7C0,0.8,0.8,0,1.7,0h58.6
	C61.2,0,62,0.8,62,1.7v68.5C62,70.6,61.8,71.1,61.5,71.4z M48,80.1l8.2-8.3l-8.2,0L48,80.1L48,80.1z M58.6,3.4H3.4v79.1h41.2V70.2
	c0-0.5,0.2-0.9,0.5-1.2c0.3-0.3,0.7-0.5,1.2-0.5h12.3V3.4L58.6,3.4z M24.4,52.7c0-1,0.8-1.7,1.7-1.7h25.1c0.9,0,1.7,0.8,1.7,1.7
	c0,0.9-0.8,1.7-1.7,1.7H26.1C25.1,54.4,24.4,53.6,24.4,52.7L24.4,52.7z M51.2,37.8H26.1c-0.9,0-1.7-0.8-1.7-1.7
	c0-0.9,0.8-1.7,1.7-1.7h25.1c0.9,0,1.7,0.8,1.7,1.7C52.9,37.1,52.1,37.8,51.2,37.8z M51.2,21.2h-0.6c-0.9,0-1.7-0.8-1.7-1.7
	s0.8-1.7,1.7-1.7l0.6,0c0.9,0,1.7,0.8,1.7,1.7S52.1,21.2,51.2,21.2z M45.2,21.2H26.1c-0.9,0-1.7-0.8-1.7-1.7s0.8-1.7,1.7-1.7l19.1,0
	c0.9,0,1.7,0.8,1.7,1.7S46.1,21.2,45.2,21.2z M14.4,56.2c-0.3,0.3-0.8,0.5-1.2,0.5s-0.9-0.2-1.2-0.5l-2.4-2.5
	c-0.7-0.7-0.7-1.8,0-2.4c0.7-0.7,1.7-0.7,2.4,0l1.3,1.3l5-5c0.7-0.7,1.7-0.7,2.4,0c0.7,0.7,0.7,1.8,0,2.4
	C20.7,49.9,14.5,56.2,14.4,56.2z M14.4,39.7c-0.3,0.3-0.8,0.5-1.2,0.5s-0.9-0.2-1.2-0.5l-2.4-2.5c-0.7-0.7-0.7-1.8,0-2.4
	c0.7-0.7,1.7-0.7,2.4,0l1.3,1.3l5-5c0.7-0.7,1.7-0.7,2.4,0c0.7,0.7,0.7,1.7,0,2.4C20.7,33.4,14.5,39.7,14.4,39.7z M14.4,23.1
	c-0.3,0.3-0.8,0.5-1.2,0.5s-0.9-0.2-1.2-0.5l-2.4-2.5c-0.7-0.7-0.7-1.8,0-2.4c0.7-0.7,1.7-0.7,2.4,0l1.3,1.3l5-5
	c0.7-0.7,1.7-0.7,2.4,0c0.7,0.7,0.7,1.7,0,2.4L14.4,23.1L14.4,23.1z"/>
</svg>
