<?xml version="1.0" encoding="utf-8"?>
<!-- Generator: Adobe Illustrator 21.1.0, SVG Export Plug-In . SVG Version: 6.00 Build 0)  -->
<svg version="1.1" id="Layer_1" xmlns="http://www.w3.org/2000/svg" xmlns:xlink="http://www.w3.org/1999/xlink" x="0px" y="0px"
	 width="32px" height="32px" viewBox="0 0 32 32" enable-background="new 0 0 32 32" xml:space="preserve">
<g>
	<circle fill="#E02F2F" cx="16" cy="16" r="16"/>
	<g>
		<path fill="#FFFFFF" d="M19,6c0,0-4.6,0-6.2,0C10,6,7.4,8,7.4,10.5c0,2.5,1.9,4.5,4.8,4.5c0.2,0,0.4,0,0.6-0.1
			c-0.2,0.4-0.3,0.7-0.3,1.2c0,0.7,0.4,1.3,0.9,1.7c-0.4,0-0.7,0-1.1,0C8.7,17.8,6,20,6,22.3c0,2.3,2.9,3.7,6.4,3.7
			c4,0,6.2-2.3,6.2-4.5c0-1.8-0.5-2.9-2.2-4.1c-0.6-0.4-1.7-1.4-1.7-2c0-0.7,0.2-1,1.2-1.8c1-0.8,1.8-1.8,1.8-3.1
			c0-1.6-0.7-3.5-2-3.5H18L19,6z M16.9,21.1c0,0.2,0.1,0.4,0.1,0.6c0,1.8-1.2,3.3-4.6,3.3c-2.4,0-4.2-1.5-4.2-3.4
			c0-1.8,2.2-3.3,4.6-3.3c0.6,0,1.1,0.1,1.6,0.2C15.7,19.5,16.7,20,16.9,21.1z M13.1,14.2c-1.6,0-3.2-1.8-3.4-3.9
			C9.3,8.2,10.4,6.5,12,6.6c1.6,0.1,3.2,1.8,3.4,3.9C15.8,12.6,14.7,14.3,13.1,14.2z"/>
		<polygon fill="#FFFFFF" points="24,14 24,11 22,11 22,14 19,14 19,16 22,16 22,19 24,19 24,16 27,16 27,14 		"/>
	</g>
</g>
</svg>
