<?xml version="1.0" encoding="iso-8859-1"?>
<!-- Generator: Adobe Illustrator 19.0.0, SVG Export Plug-In . SVG Version: 6.00 Build 0)  -->
<svg xmlns="http://www.w3.org/2000/svg" xmlns:xlink="http://www.w3.org/1999/xlink" version="1.1" id="Capa_1" x="0px" y="0px" viewBox="0 0 512 512" style="enable-background:new 0 0 512 512;" xml:space="preserve" width="512px" height="512px">
<g>
	<g>
		<path d="M469.333,0h-320c-3.007,0.002-5.873,1.272-7.893,3.499L34.773,120.832C32.99,122.794,32.002,125.349,32,128v373.333    C32,507.224,36.776,512,42.667,512h426.667c5.891,0,10.667-4.776,10.667-10.667V10.667C480,4.776,475.224,0,469.333,0z     M149.333,26.485v90.848H66.752L149.333,26.485z M458.667,490.667H53.333v-352H160c5.891,0,10.667-4.776,10.667-10.667V21.333h288    V490.667z" fill="#5077f6"/>
	</g>
</g>
<g>
	<g>
		<path d="M424.096,271.861c-3.722-2.799-5.629-7.399-4.981-12.011c0.463-3.216,0.463-6.481,0-9.697    c-2.678-18.601-19.927-31.509-38.528-28.831c-4.61,0.677-9.219-1.232-12-4.971c-1.94-2.588-4.239-4.887-6.827-6.827    c-15.052-11.281-36.399-8.225-47.68,6.827c-2.782,3.737-7.39,5.646-12,4.971c-3.216-0.463-6.481-0.463-9.697,0    c-18.601,2.678-31.509,19.927-28.831,38.528c0.663,4.61-1.248,9.214-4.981,12c-2.583,1.937-4.877,4.231-6.814,6.814    c-11.285,15.049-8.234,36.397,6.814,47.682c3.722,2.799,5.629,7.399,4.981,12.011c-0.459,3.203-0.46,6.456-0.001,9.659    c2.665,18.614,19.915,31.544,38.529,28.879c4.609-0.673,9.216,1.236,12,4.971c6.416,8.593,16.529,13.632,27.253,13.579    c10.732,0.043,20.846-5.012,27.253-13.621c2.775-3.746,7.389-5.658,12-4.971c3.187,0.456,6.422,0.457,9.609,0.004    c18.617-2.646,31.564-19.883,28.919-38.5c-0.648-4.612,1.26-9.211,4.981-12.011c2.585-1.938,4.881-4.234,6.82-6.82    C442.195,304.481,439.142,283.141,424.096,271.861z M411.307,309.269c-9.949,7.462-15.039,19.753-13.28,32.064    c0.163,1.167,0.164,2.35,0.004,3.518c-0.964,7.003-7.422,11.899-14.425,10.936c-12.314-1.783-24.617,3.313-32.064,13.28    c-0.575,0.709-1.223,1.357-1.932,1.932c-5.638,4.571-13.913,3.706-18.484-1.932c-6.422-8.59-16.517-13.65-27.243-13.653v0    c-1.613,0.003-3.224,0.117-4.821,0.341c-1.155,0.158-2.326,0.158-3.48,0c-7.004-0.961-11.902-7.418-10.941-14.421    c1.757-12.311-3.333-24.601-13.28-32.064c-0.974-0.729-1.838-1.593-2.567-2.567c-4.214-5.632-3.065-13.613,2.567-17.828    c9.947-7.463,15.037-19.753,13.28-32.064c-0.585-3.977,0.753-7.995,3.605-10.827c2.841-2.83,6.845-4.164,10.816-3.605    c12.311,1.762,24.604-3.33,32.064-13.28c0.571-0.703,1.213-1.344,1.915-1.915c5.638-4.58,13.921-3.723,18.501,1.915    c7.449,9.966,19.75,15.061,32.064,13.28c1.159-0.159,2.334-0.159,3.493,0.001c7.003,0.967,11.896,7.428,10.929,14.431    c-1.757,12.311,3.333,24.601,13.28,32.064c0.974,0.729,1.838,1.593,2.567,2.567C418.088,297.074,416.939,305.055,411.307,309.269z    " fill="#5077f6"/>
	</g>
</g>
<g>
	<g>
		<path d="M362.667,373.333v65.429l-15.413-10.293c-3.58-2.382-8.239-2.382-11.819,0L320,438.763v-65.429h-21.333v85.333    c0.003,2.097,0.625,4.147,1.786,5.893c3.264,4.904,9.885,6.234,14.789,2.971l26.091-17.397l26.091,17.408    c1.75,1.167,3.806,1.79,5.909,1.792c5.891,0,10.667-4.776,10.667-10.667v-85.333H362.667z" fill="#5077f6"/>
	</g>
</g>
<g>
	<g>
		<path d="M309.333,298.667H288c0.029,29.443,23.89,53.304,53.333,53.333v-21.333C323.66,330.667,309.333,316.34,309.333,298.667z" fill="#5077f6"/>
	</g>
</g>
<g>
	<g>
		<path d="M341.333,245.333v21.333c17.673,0,32,14.327,32,32h21.333C394.637,269.224,370.776,245.363,341.333,245.333z" fill="#5077f6"/>
	</g>
</g>
<g>
	<g>
		<rect x="330.667" y="288.011" width="21.333" height="21.301" fill="#5077f6"/>
	</g>
</g>
<g>
	<g>
		<path d="M426.667,42.667h-224c-5.891,0-10.667,4.776-10.667,10.667V128h21.333V64H416v64h21.333V53.333    C437.333,47.442,432.558,42.667,426.667,42.667z" fill="#5077f6"/>
	</g>
</g>
<g>
	<g>
		<rect x="234.667" y="128.011" width="74.667" height="21.301" fill="#5077f6"/>
	</g>
</g>
<g>
	<g>
		<rect x="330.667" y="128.011" width="21.333" height="21.301" fill="#5077f6"/>
	</g>
</g>
<g>
	<g>
		<rect x="373.333" y="128.011" width="21.333" height="21.301" fill="#5077f6"/>
	</g>
</g>
<g>
	<g>
		<rect x="266.667" y="85.344" width="96" height="21.301" fill="#5077f6"/>
	</g>
</g>
<g>
	<g>
		<rect x="85.333" y="181.344" width="128" height="21.301" fill="#5077f6"/>
	</g>
</g>
<g>
	<g>
		<rect x="85.333" y="224.011" width="64" height="21.301" fill="#5077f6"/>
	</g>
</g>
<g>
	<g>
		<rect x="170.667" y="224.011" width="21.333" height="21.301" fill="#5077f6"/>
	</g>
</g>
<g>
	<g>
		<rect x="85.333" y="266.677" width="21.333" height="21.301" fill="#5077f6"/>
	</g>
</g>
<g>
	<g>
		<rect x="128" y="266.677" width="64" height="21.301" fill="#5077f6"/>
	</g>
</g>
<g>
	<g>
		<rect x="85.333" y="309.344" width="21.333" height="21.301" fill="#5077f6"/>
	</g>
</g>
<g>
	<g>
		<rect x="128" y="309.344" width="21.333" height="21.301" fill="#5077f6"/>
	</g>
</g>
<g>
	<g>
		<rect x="170.667" y="309.344" width="21.333" height="21.301" fill="#5077f6"/>
	</g>
</g>
<g>
	<g>
		<path d="M234.667,352H85.333c-5.891,0-10.667,4.776-10.667,10.667V448H96v-74.667h128V448h21.333v-85.333    C245.333,356.776,240.558,352,234.667,352z" fill="#5077f6"/>
	</g>
</g>
<g>
	<g>
		<rect x="117.333" y="394.677" width="21.333" height="21.301" fill="#5077f6"/>
	</g>
</g>
<g>
	<g>
		<rect x="160" y="394.677" width="42.667" height="21.301" fill="#5077f6"/>
	</g>
</g>
<g>
</g>
<g>
</g>
<g>
</g>
<g>
</g>
<g>
</g>
<g>
</g>
<g>
</g>
<g>
</g>
<g>
</g>
<g>
</g>
<g>
</g>
<g>
</g>
<g>
</g>
<g>
</g>
<g>
</g>
</svg>
