<?xml version="1.0" encoding="utf-8"?>
<!-- Generator: Adobe Illustrator 21.1.0, SVG Export Plug-In . SVG Version: 6.00 Build 0)  -->
<svg version="1.1" id="Capa_1" xmlns="http://www.w3.org/2000/svg" xmlns:xlink="http://www.w3.org/1999/xlink" x="0px" y="0px"
	 width="448px" height="512px" viewBox="0 0 448 512" enable-background="new 0 0 448 512" xml:space="preserve">
<g>
	<g>
		<path d="M437.3,0h-320c-3,0-5.9,1.3-7.9,3.5L2.8,120.8C1,122.8,0,125.3,0,128v373.3c0,5.9,4.8,10.7,10.7,10.7
			h426.7c5.9,0,10.7-4.8,10.7-10.7V10.7C448,4.8,443.2,0,437.3,0z M117.3,26.5v90.8H34.8L117.3,26.5z M426.7,490.7H21.3v-352H128
			c5.9,0,10.7-4.8,10.7-10.7V21.3h288V490.7z"/>
	</g>
</g>
<g>
	<g>
		<path d="M392.1,271.9c-3.7-2.8-5.6-7.4-5-12c0.5-3.2,0.5-6.5,0-9.7c-2.7-18.6-19.9-31.5-38.5-28.8
			c-4.6,0.7-9.2-1.2-12-5c-1.9-2.6-4.2-4.9-6.8-6.8c-15.1-11.3-36.4-8.2-47.7,6.8c-2.8,3.7-7.4,5.6-12,5c-3.2-0.5-6.5-0.5-9.7,0
			c-18.6,2.7-31.5,19.9-28.8,38.5c0.7,4.6-1.2,9.2-5,12c-2.6,1.9-4.9,4.2-6.8,6.8c-11.3,15-8.2,36.4,6.8,47.7c3.7,2.8,5.6,7.4,5,12
			c-0.5,3.2-0.5,6.5,0,9.7c2.7,18.6,19.9,31.5,38.5,28.9c4.6-0.7,9.2,1.2,12,5c6.4,8.6,16.5,13.6,27.3,13.6c10.7,0,20.8-5,27.3-13.6
			c2.8-3.7,7.4-5.7,12-5c3.2,0.5,6.4,0.5,9.6,0c18.6-2.6,31.6-19.9,28.9-38.5c-0.6-4.6,1.3-9.2,5-12c2.6-1.9,4.9-4.2,6.8-6.8
			C410.2,304.5,407.1,283.1,392.1,271.9z M379.3,309.3c-9.9,7.5-15,19.8-13.3,32.1c0.2,1.2,0.2,2.4,0,3.5c-1,7-7.4,11.9-14.4,10.9
			c-12.3-1.8-24.6,3.3-32.1,13.3c-0.6,0.7-1.2,1.4-1.9,1.9c-5.6,4.6-13.9,3.7-18.5-1.9c-6.4-8.6-16.5-13.6-27.2-13.7l0,0
			c-1.6,0-3.2,0.1-4.8,0.3c-1.2,0.2-2.3,0.2-3.5,0c-7-1-11.9-7.4-10.9-14.4c1.8-12.3-3.3-24.6-13.3-32.1c-1-0.7-1.8-1.6-2.6-2.6
			c-4.2-5.6-3.1-13.6,2.6-17.8c9.9-7.5,15-19.8,13.3-32.1c-0.6-4,0.8-8,3.6-10.8c2.8-2.8,6.8-4.2,10.8-3.6
			c12.3,1.8,24.6-3.3,32.1-13.3c0.6-0.7,1.2-1.3,1.9-1.9c5.6-4.6,13.9-3.7,18.5,1.9c7.4,10,19.8,15.1,32.1,13.3
			c1.2-0.2,2.3-0.2,3.5,0c7,1,11.9,7.4,10.9,14.4c-1.8,12.3,3.3,24.6,13.3,32.1c1,0.7,1.8,1.6,2.6,2.6
			C386.1,297.1,384.9,305.1,379.3,309.3z"/>
	</g>
</g>
<g>
	<g>
		<path d="M330.7,373.3v65.4l-15.4-10.3c-3.6-2.4-8.2-2.4-11.8,0L288,438.8v-65.4h-21.3v85.3c0,2.1,0.6,4.1,1.8,5.9
			c3.3,4.9,9.9,6.2,14.8,3l26.1-17.4l26.1,17.4c1.8,1.2,3.8,1.8,5.9,1.8c5.9,0,10.7-4.8,10.7-10.7v-85.3L330.7,373.3L330.7,373.3z"
			/>
	</g>
</g>
<g>
	<g>
		<path d="M277.3,298.7H256c0,29.4,23.9,53.3,53.3,53.3v-21.3C291.7,330.7,277.3,316.3,277.3,298.7z"/>
	</g>
</g>
<g>
	<g>
		<path d="M309.3,245.3v21.3c17.7,0,32,14.3,32,32h21.3C362.6,269.2,338.8,245.4,309.3,245.3z"/>
	</g>
</g>
<g>
	<g>
		<rect x="298.7" y="288" width="21.3" height="21.3"/>
	</g>
</g>
<g>
	<g>
		<path d="M394.7,42.7h-224c-5.9,0-10.7,4.8-10.7,10.7V128h21.3V64H384v64h21.3V53.3
			C405.3,47.4,400.6,42.7,394.7,42.7z"/>
	</g>
</g>
<g>
	<g>
		<rect x="202.7" y="128" width="74.7" height="21.3"/>
	</g>
</g>
<g>
	<g>
		<rect x="298.7" y="128" width="21.3" height="21.3"/>
	</g>
</g>
<g>
	<g>
		<rect x="341.3" y="128" width="21.3" height="21.3"/>
	</g>
</g>
<g>
	<g>
		<rect x="234.7" y="85.3" width="96" height="21.3"/>
	</g>
</g>
<g>
	<g>
		<rect x="53.3" y="181.3" width="128" height="21.3"/>
	</g>
</g>
<g>
	<g>
		<rect x="53.3" y="224" width="64" height="21.3"/>
	</g>
</g>
<g>
	<g>
		<rect x="138.7" y="224" width="21.3" height="21.3"/>
	</g>
</g>
<g>
	<g>
		<rect x="53.3" y="266.7" width="21.3" height="21.3"/>
	</g>
</g>
<g>
	<g>
		<rect x="96" y="266.7" width="64" height="21.3"/>
	</g>
</g>
<g>
	<g>
		<rect x="53.3" y="309.3" width="21.3" height="21.3"/>
	</g>
</g>
<g>
	<g>
		<rect x="96" y="309.3" width="21.3" height="21.3"/>
	</g>
</g>
<g>
	<g>
		<rect x="138.7" y="309.3" width="21.3" height="21.3"/>
	</g>
</g>
<g>
	<g>
		<path d="M202.7,352H53.3c-5.9,0-10.7,4.8-10.7,10.7V448H64v-74.7h128V448h21.3v-85.3
			C213.3,356.8,208.6,352,202.7,352z"/>
	</g>
</g>
<g>
	<g>
		<rect x="85.3" y="394.7" width="21.3" height="21.3"/>
	</g>
</g>
<g>
	<g>
		<rect x="128" y="394.7" width="42.7" height="21.3"/>
	</g>
</g>
</svg>
