<?xml version="1.0" encoding="utf-8"?>
<!-- Generator: Adobe Illustrator 21.1.0, SVG Export Plug-In . SVG Version: 6.00 Build 0)  -->
<svg version="1.1" id="Слой_1" xmlns="http://www.w3.org/2000/svg" xmlns:xlink="http://www.w3.org/1999/xlink" x="0px" y="0px"
	 width="62px" height="86px" viewBox="0 0 62 86" enable-background="new 0 0 62 86" xml:space="preserve">
<path d="M61.8,84.3c0,0.9-0.8,1.7-1.7,1.7H1.7C0.8,86,0,85.2,0,84.3V1.7C0,0.8,0.8,0,1.7,0h58.6
	c0.5,0,0.9,0.2,1.2,0.5S62,1.3,62,1.7L61.8,84.3L61.8,84.3z M3.4,3.4v79.1h55l0.1-79.1C58.6,3.4,3.4,3.4,3.4,3.4z M54.8,74.5
	l-3.7,0.4l-0.4,3.7c-0.1,0.7-0.5,1.2-1.1,1.4c-0.2,0.1-0.4,0.1-0.6,0.1c-0.4,0-0.9-0.2-1.2-0.5L40,71.8c-0.2,0-0.5,0-0.7,0
	s-0.5,0-0.7,0l-7.9,7.9c-0.3,0.3-0.8,0.5-1.2,0.5c-0.2,0-0.4,0-0.6-0.1c-0.6-0.2-1.1-0.8-1.1-1.4l-0.4-3.7l-3.7-0.4
	c-0.7-0.1-1.2-0.5-1.4-1.1c-0.2-0.6-0.1-1.3,0.4-1.8l7.9-7.9c0-0.2,0-0.5,0-0.7c0-4.9,3.9-8.8,8.8-8.8s8.8,4,8.8,8.8
	c0,0.2,0,0.5,0,0.7l7.8,7.9c0.5,0.5,0.6,1.2,0.4,1.8C56,74,55.5,74.5,54.8,74.5L54.8,74.5z M31.6,67.4l-4.1,4.1l1.5,0.2
	c0.8,0.1,1.4,0.7,1.5,1.5l0.2,1.6l4.1-4.1C33.5,69.8,32.4,68.7,31.6,67.4L31.6,67.4z M39.3,57.5c-3,0-5.4,2.4-5.4,5.4
	c0,3,2.4,5.4,5.4,5.4s5.4-2.4,5.4-5.4C44.7,60,42.2,57.5,39.3,57.5z M46.9,67.4c-0.8,1.3-1.9,2.4-3.3,3.2l4.1,4.1l0.2-1.5
	c0.1-0.8,0.7-1.4,1.5-1.5l1.6-0.2L46.9,67.4L46.9,67.4z M51,20.9H11c-0.9,0-1.7-0.8-1.7-1.7c0-1,0.8-1.7,1.7-1.7H51
	c0.9,0,1.7,0.8,1.7,1.7C52.7,20.1,52,20.9,51,20.9L51,20.9z M37.9,13.7H24.1c-1,0-1.7-0.8-1.7-1.7c0-0.9,0.8-1.7,1.7-1.7h13.8
	c1,0,1.7,0.8,1.7,1.7C39.6,12.9,38.8,13.7,37.9,13.7z M19.4,46.3h-0.9c-0.9,0-1.7-0.8-1.7-1.7c0-0.9,0.8-1.7,1.7-1.7h0.9
	c1,0,1.7,0.8,1.7,1.7C21.1,45.5,20.4,46.3,19.4,46.3L19.4,46.3z M19.4,32.7h-0.9c-0.9,0-1.7-0.8-1.7-1.7c0-1,0.8-1.7,1.7-1.7h0.9
	c1,0,1.7,0.8,1.7,1.7C21.1,32,20.4,32.7,19.4,32.7L19.4,32.7z M19.4,39.4h-0.9c-0.9,0-1.7-0.8-1.7-1.7c0-1,0.8-1.7,1.7-1.7h0.9
	c1,0,1.7,0.8,1.7,1.7C21.1,38.6,20.4,39.4,19.4,39.4L19.4,39.4z M43.5,46.3h-18c-1,0-1.7-0.8-1.7-1.7c0-0.9,0.8-1.7,1.7-1.7h18
	c0.9,0,1.7,0.8,1.7,1.7C45.2,45.5,44.5,46.3,43.5,46.3z M43.5,32.7h-18c-1,0-1.7-0.8-1.7-1.7c0-1,0.8-1.7,1.7-1.7h18
	c0.9,0,1.7,0.8,1.7,1.7C45.2,32,44.5,32.7,43.5,32.7L43.5,32.7z M43.5,39.4h-18c-1,0-1.7-0.8-1.7-1.7c0-1,0.8-1.7,1.7-1.7h18
	c0.9,0,1.7,0.8,1.7,1.7C45.2,38.7,44.5,39.4,43.5,39.4z M23.3,59.1c0.9,0,1.7,0.8,1.7,1.7c0,0.9-0.8,1.7-1.7,1.7H10.2
	c-0.9,0-1.7-0.8-1.7-1.7c0-1,0.8-1.7,1.7-1.7L23.3,59.1L23.3,59.1z"/>
</svg>
