<?xml version="1.0" encoding="iso-8859-1"?>
<!-- Generator: Adobe Illustrator 19.0.0, SVG Export Plug-In . SVG Version: 6.00 Build 0)  -->
<svg version="1.1" id="Capa_1" xmlns="http://www.w3.org/2000/svg" xmlns:xlink="http://www.w3.org/1999/xlink" x="0px" y="0px"
	 viewBox="0 0 512.001 512.001" style="enable-background:new 0 0 512.001 512.001;" xml:space="preserve">
<g>
	<g>
		<path d="M218.805,51.676C168.982,1.526,87.937,1.261,37.787,51.084c-50.15,49.823-50.416,130.868-0.592,181.018
			c24.131,24.214,37.617,57.047,37.472,91.232v42.667c0,5.891,4.776,10.667,10.667,10.667h85.333
			c5.891,0,10.667-4.776,10.667-10.667v-42.667c0.443-34.786,14.402-68.036,38.923-92.715
			c22.983-23.768,35.804-55.555,35.743-88.618C256.03,108.16,242.656,75.684,218.805,51.676z M204.885,215.814
			c-28.358,28.651-44.455,67.211-44.885,107.52v32H96v-32c0.16-39.825-15.56-78.071-43.68-106.272
			c-16.816-16.913-27.475-38.977-30.27-62.662c-6.9-58.463,34.9-111.451,93.363-118.351c31.653-3.731,63.317,6.887,86.32,28.949
			C244.25,105.774,245.662,173.297,204.885,215.814z"/>
	</g>
</g>
<g>
	<g>
		<rect x="53.33" y="312.671" width="149.33" height="21.333"/>
	</g>
</g>
<g>
	<g>
		<path d="M437.333,56.668H288.864l28.8-36L301.003,7.334l-42.667,53.333c-1.516,1.893-2.341,4.246-2.34,6.671
			c0.002,5.891,4.78,10.665,10.671,10.663h170.667c29.441,0.035,53.298,23.893,53.333,53.333v96
			c0.053,27.542-10.63,54.02-29.781,73.813c-28.358,28.651-44.455,67.211-44.885,107.52v32h-64v-32
			c0.18-39.825-15.521-78.078-43.627-106.293c-23.548-23.631-34.644-56.941-29.973-89.973c5.97-45.837,41.166-82.405,86.741-90.123
			c33.309-5.962,67.472,4.234,92.064,27.477l14.645-15.509c-49.867-45.779-126.756-44.815-175.46,2.198
			c-50.862,49.097-52.293,130.129-3.196,180.991c24.131,24.214,37.617,57.047,37.472,91.232v42.667
			c0,5.891,4.776,10.667,10.667,10.667h85.333c5.891,0,10.667-4.776,10.667-10.667v-42.667
			c0.443-34.786,14.402-68.036,38.923-92.715c22.984-23.768,35.805-55.555,35.744-88.619v-96
			C511.953,90.117,478.551,56.715,437.333,56.668z"/>
	</g>
</g>
<g>
	<g>
		<rect x="309.33" y="398.001" width="149.33" height="21.333"/>
	</g>
</g>
<g>
	<g>
		<path d="M195.125,123.772l-36.48,36.48l-24.725-16.48c-3.584-2.391-8.256-2.391-11.84,0l-24.725,16.48l-36.48-36.48
			l-15.083,15.083l42.667,42.667c3.596,3.597,9.23,4.155,13.461,1.333L128,165.468l26.08,17.408c1.753,1.169,3.813,1.792,5.92,1.792
			c2.832-0.006,5.545-1.138,7.541-3.147l42.667-42.667L195.125,123.772z"/>
	</g>
</g>
<g>
	<g>
		<rect x="117.33" y="184.671" width="21.333" height="128"/>
	</g>
</g>
<g>
	<g>
		<path d="M277.333,398.001H128c-17.673,0-32-14.327-32-32H74.667c0.035,29.441,23.893,53.298,53.333,53.333h127.136l-28.8,36
			l16.661,13.333l42.667-53.333c1.516-1.893,2.341-4.246,2.34-6.671C288.002,402.773,283.224,397.999,277.333,398.001z"/>
	</g>
</g>
<g>
	<g>
		<path d="M451.125,209.105l-36.48,36.48l-24.725-16.48c-3.584-2.391-8.256-2.391-11.84,0l-24.725,16.48l-36.48-36.48
			l-15.083,15.083l42.667,42.667c3.596,3.597,9.23,4.155,13.461,1.333L384,250.801l26.08,17.408c1.753,1.169,3.813,1.792,5.92,1.792
			c2.832-0.006,5.545-1.138,7.541-3.147l42.667-42.667L451.125,209.105z"/>
	</g>
</g>
<g>
	<g>
		<rect x="373.33" y="270.001" width="21.333" height="128"/>
	</g>
</g>
<g>
	<g>
		<path d="M416,451.334c0,17.673-14.327,32-32,32c-17.673,0-32-14.327-32-32h-21.333c0.035,29.441,23.893,53.298,53.333,53.333
			c29.441-0.035,53.298-23.893,53.333-53.333H416z"/>
	</g>
</g>
<g>
	<g>
		<rect x="181.33" y="440.671" width="21.333" height="21.333"/>
	</g>
</g>
<g>
	<g>
		<rect x="138.67" y="440.671" width="21.333" height="21.333"/>
	</g>
</g>
<g>
	<g>
		<rect x="384" y="14.001" width="21.333" height="21.333"/>
	</g>
</g>
<g>
	<g>
		<rect x="341.33" y="14.001" width="21.333" height="21.333"/>
	</g>
</g>
<g>
</g>
<g>
</g>
<g>
</g>
<g>
</g>
<g>
</g>
<g>
</g>
<g>
</g>
<g>
</g>
<g>
</g>
<g>
</g>
<g>
</g>
<g>
</g>
<g>
</g>
<g>
</g>
<g>
</g>
</svg>
