<?xml version="1.0" encoding="iso-8859-1"?>
<!-- Generator: Adobe Illustrator 19.0.0, SVG Export Plug-In . SVG Version: 6.00 Build 0)  -->
<svg version="1.1" id="Capa_1" xmlns="http://www.w3.org/2000/svg" xmlns:xlink="http://www.w3.org/1999/xlink" x="0px" y="0px"
	 viewBox="0 0 512 512" style="enable-background:new 0 0 512 512;" xml:space="preserve">
<g>
	<g>
		<path d="M223.999,0H74.665c-0.57,0-1.133,0.058-1.689,0.147c-0.122,0.019-0.245,0.031-0.366,0.055
			c-0.162,0.032-0.32,0.078-0.479,0.117c-0.18,0.044-0.361,0.082-0.539,0.136c-0.116,0.035-0.228,0.081-0.343,0.12
			c-0.216,0.073-0.433,0.144-0.645,0.231c-0.087,0.036-0.169,0.08-0.255,0.118c-0.233,0.103-0.465,0.206-0.691,0.327
			c-0.081,0.043-0.157,0.095-0.237,0.14c-0.222,0.126-0.445,0.252-0.659,0.395c-0.117,0.078-0.226,0.167-0.339,0.249
			c-0.169,0.123-0.341,0.24-0.505,0.374c-0.275,0.225-0.54,0.464-0.793,0.717l-64,64c-2,2-3.125,4.713-3.125,7.541v256
			c0,17.673,14.327,32,32,32h96v-21.333h-0.002h-96c-5.891,0-10.667-4.776-10.667-10.667V79.083l42.667-42.667V64H42.665v21.333h32
			c5.891,0,10.667-4.776,10.667-10.667V21.334h138.666c5.891,0,10.667,4.776,10.667,10.667v117.333h21.333V32
			C255.999,14.327,241.672,0,223.999,0z"/>
	</g>
</g>
<g>
	<g>
		<path d="M415.999,0c-53.019,0-96,42.981-96,96s42.981,96,96,96c25.474,0.068,49.917-10.057,67.883-28.117
			c18.004-18.004,28.118-42.422,28.118-67.883C511.999,42.98,469.018,0,415.999,0z M489.923,85.334
			c0.509,3.529,0.766,7.094,0.768,10.667h-59.609l-4.416-4.416v-6.251H489.923z M426.665,22.091
			c9.863,1.421,19.313,4.803,27.811,9.909h-27.811V22.091z M426.665,53.334L426.665,53.334h50.634
			c2.37,3.403,4.437,6.97,6.186,10.667h-56.82V53.334z M426.756,169.879c-40.811,5.916-78.69-22.372-84.606-63.182
			s22.372-78.69,63.182-84.606V96c0.001,2.829,1.125,5.541,3.125,7.541l52.267,52.267
			C450.751,163.256,439.074,168.094,426.756,169.879z M483.49,128h-20.408l-10.667-10.667h35.177
			C486.512,120.955,485.145,124.521,483.49,128z"/>
	</g>
</g>
<g>
	<g>
		<path d="M466.194,248.445L466.194,248.445c-4.167-4.149-10.909-4.146-15.069,0.014l-42.667,42.667l15.083,15.083l24.458-24.459
			v129.835l-32,32l-29.792-29.792c-4.165-4.164-10.917-4.164-15.083,0l-44.875,44.875h-27.584v-21.333v-0.001V404.29
			c0.036-4.208,2.543-8.002,6.4-9.685c25.416-11.701,45.814-32.099,57.515-57.515c27.099-58.863,1.349-128.549-57.515-155.648
			c-58.863-27.099-128.549-1.349-155.648,57.515s-1.349,128.549,57.515,155.648c3.85,1.68,6.356,5.463,6.4,9.664v33.067v21.333
			h-53.333c-29.441-0.035-53.298-23.893-53.333-53.333V384H85.332v21.333c0.053,41.216,33.452,74.615,74.667,74.667h53.333
			c0,17.673,14.327,32,32,32h21.333c17.673,0,32-14.327,32-32h32c2.829-0.001,5.541-1.125,7.541-3.125l40.459-40.459l29.792,29.792
			c4.165,4.164,10.917,4.164,15.083,0l42.667-42.667c2.001-2,3.125-4.713,3.125-7.541V281.753l24.445,24.445l15.085-15.085
			L466.194,248.445z M266.665,490.667h-21.333c-5.891,0-10.667-4.776-10.667-10.667h42.667
			C277.332,485.891,272.557,490.667,266.665,490.667z M277.333,458.667h-42.667V448h42.667V458.667z M296.126,375.211
			c-11.386,5.202-18.719,16.538-18.795,29.056v22.4h-10.667V309.334h21.335c17.673,0,32-14.327,32-32v-10.667h-21.333v10.667
			c0,5.891-4.776,10.667-10.667,10.667h-32h-32c-5.891,0-10.667-4.776-10.667-10.667v-10.667h-21.333v10.667
			c0,17.673,14.327,32,32,32h21.333v117.333h-10.667v-22.4c-0.074-12.504-7.399-23.829-18.773-29.024
			c-8.665-3.99-16.687-9.249-23.802-15.605c-39.541-35.321-42.962-96.009-7.641-135.549c35.321-39.541,96.009-42.962,135.549-7.641
			c9.808,8.773,17.708,19.469,23.208,31.423C365.368,296.036,344.29,353.048,296.126,375.211z"/>
	</g>
</g>
<g>
	<g>
		<rect x="42.665" y="298.67" width="21.333" height="21.333"/>
	</g>
</g>
<g>
	<g>
		<rect x="85.329" y="298.67" width="21.333" height="21.333"/>
	</g>
</g>
<g>
	<g>
		<rect x="42.665" y="256" width="21.333" height="21.333"/>
	</g>
</g>
<g>
	<g>
		<rect x="42.665" y="106.67" width="42.667" height="21.333"/>
	</g>
</g>
<g>
	<g>
		<rect x="42.665" y="149.33" width="85.33" height="21.333"/>
	</g>
</g>
<g>
</g>
<g>
</g>
<g>
</g>
<g>
</g>
<g>
</g>
<g>
</g>
<g>
</g>
<g>
</g>
<g>
</g>
<g>
</g>
<g>
</g>
<g>
</g>
<g>
</g>
<g>
</g>
<g>
</g>
</svg>
