<?xml version="1.0" encoding="iso-8859-1"?>
<!-- Generator: Adobe Illustrator 19.0.0, SVG Export Plug-In . SVG Version: 6.00 Build 0)  -->
<svg version="1.1" id="Capa_1" xmlns="http://www.w3.org/2000/svg" xmlns:xlink="http://www.w3.org/1999/xlink" x="0px" y="0px"
	 viewBox="0 0 512.009 512.009" style="enable-background:new 0 0 512.009 512.009;" xml:space="preserve">
<g>
	<g>
		<path d="M170.667,384.005c-17.673,0-32,14.327-32,32c0,17.673,14.327,32,32,32c17.673,0,32-14.327,32-32
			C202.667,398.332,188.34,384.005,170.667,384.005z M170.667,426.671c-5.891,0-10.667-4.776-10.667-10.667
			s4.776-10.667,10.667-10.667s10.667,4.776,10.667,10.667C181.333,421.896,176.558,426.671,170.667,426.671z"/>
	</g>
</g>
<g>
	<g>
		
			<rect x="95.622" y="442.67" transform="matrix(0.7071 -0.7071 0.7071 0.7071 -281.5052 227.059)" width="75.419" height="21.333"/>
	</g>
</g>
<g>
	<g>
		<path d="M243.733,373.114l-30.176-30.176c-2.407-2.408-5.82-3.521-9.184-2.997l-78.016,12.192
			c-3.721,0.582-6.859,3.084-8.256,6.581L75.435,465.381c-1.583,3.96-0.656,8.482,2.357,11.499l32,32
			c2,2.001,4.713,3.125,7.541,3.125c1.359,0.001,2.705-0.256,3.968-0.757l106.667-42.667c3.496-1.402,5.994-4.544,6.571-8.267
			l12.192-78.005C247.258,378.941,246.144,375.524,243.733,373.114z M214.411,451.023l-94.507,37.792l-22.048-22.048l37.792-94.496
			l66.667-10.411l22.507,22.507L214.411,451.023z"/>
	</g>
</g>
<g>
	<g>
		<path d="M503.659,86.328c-12.31-14.129-33.743-15.604-47.872-3.294c-51.808,45.355-222.389,194.848-242.208,214.656
			c-15.908,13.96-22.715,35.62-17.653,56.171l20.267-6.592c-2.41-12.907,2.357-26.107,12.459-34.496
			c15.371-15.371,134.656-120.459,241.152-213.675c4.749-4.159,11.842-4.161,16.593-0.005c5.237,4.58,5.769,12.539,1.188,17.776
			c-32.117,36.736-193.632,221.12-213.653,241.216c-8.386,10.105-21.589,14.873-34.496,12.459l-6.592,20.267
			c4.156,1.212,8.471,1.794,12.8,1.728c16.493-0.298,32.15-7.313,43.349-19.424c20-20.043,169.344-190.443,214.667-242.208
			C514.789,118.131,514.789,99.103,503.659,86.328z"/>
	</g>
</g>
<g>
	<g>
		<path d="M74.667,298.673v-0.002C33.451,298.724,0.053,332.123,0,373.338v64c0.053,41.215,33.451,74.614,74.667,74.667v-21.333
			c-29.441-0.035-53.298-23.893-53.333-53.333v-64c0.035-29.441,23.893-53.298,53.333-53.333h106.667v-21.333H74.667z"/>
	</g>
</g>
<g>
	<g>
		<path d="M256,74.671V0.005h-21.333v74.667c0.059,52.995,43.005,95.941,96,96v-21.333C289.451,149.285,256.053,115.887,256,74.671z
			"/>
	</g>
</g>
<g>
	<g>
		<path d="M487.616,174.938l-15.232,14.933c11.729,11.966,18.298,28.056,18.295,44.812c-0.007,35.346-28.666,63.995-64.012,63.988
			h-53.333v21.333h53.333c22.339,0.002,43.789-8.756,59.742-24.393C520.066,262.622,520.606,208.594,487.616,174.938z"/>
	</g>
</g>
<g>
	<g>
		<path d="M74.667,256.006L74.667,256.006c-25.399-0.071-50.123,8.171-70.4,23.466l12.8,17.067
			c16.586-12.523,36.818-19.267,57.6-19.2h10.667v-21.333H74.667z"/>
	</g>
</g>
<g>
	<g>
		<rect x="106.67" y="256" width="21.333" height="21.333"/>
	</g>
</g>
<g>
	<g>
		<rect x="149.33" y="256" width="21.333" height="21.333"/>
	</g>
</g>
<g>
	<g>
		<path d="M494.933,322.138c-16.587,12.521-36.818,19.265-57.6,19.2H384v21.333h53.333c25.399,0.071,50.124-8.17,70.4-23.467
			L494.933,322.138z"/>
	</g>
</g>
<g>
	<g>
		<rect x="341.33" y="341.34" width="21.333" height="21.333"/>
	</g>
</g>
<g>
	<g>
		<path d="M213.333,74.671H192c0.088,76.547,62.12,138.578,138.667,138.667v-21.333C265.897,191.928,213.41,139.441,213.333,74.671z
			"/>
	</g>
</g>
<g>
	<g>
		<rect x="192" y="32.01" width="21.333" height="21.333"/>
	</g>
</g>
<g>
	<g>
		<rect x="277.33" y="0.005" width="21.333" height="21.333"/>
	</g>
</g>
<g>
	<g>
		<rect x="277.33" y="42.671" width="21.333" height="21.333"/>
	</g>
</g>
<g>
</g>
<g>
</g>
<g>
</g>
<g>
</g>
<g>
</g>
<g>
</g>
<g>
</g>
<g>
</g>
<g>
</g>
<g>
</g>
<g>
</g>
<g>
</g>
<g>
</g>
<g>
</g>
<g>
</g>
</svg>
