<?xml version="1.0" encoding="iso-8859-1"?>
<!-- Generator: Adobe Illustrator 19.0.0, SVG Export Plug-In . SVG Version: 6.00 Build 0)  -->
<svg xmlns="http://www.w3.org/2000/svg" xmlns:xlink="http://www.w3.org/1999/xlink" version="1.1" id="Capa_1" x="0px" y="0px" viewBox="0 0 512 512" style="enable-background:new 0 0 512 512;" xml:space="preserve" width="512px" height="512px">
<g>
	<g>
		<g>
			<path d="M512,256c0-52.332-15.716-100.988-42.667-141.531V74.667H448v12.027C401.091,33.538,332.467,0,256,0     S110.909,33.538,64,86.693V74.667H42.667v39.803C15.716,155.012,0,203.668,0,256s15.716,100.988,42.667,141.531v39.803H64     v-12.027C110.909,478.462,179.533,512,256,512c76.479-0.089,145.097-33.682,192-86.878v12.212h21.333v-40.012     C496.233,356.824,511.939,308.248,512,256z M483.581,313.407l-81.494-26.479c2.111-9.979,3.234-20.323,3.246-30.928     c0-14.153-1.97-27.846-5.649-40.821l40.554-13.157c5.023,17.124,7.74,35.234,7.761,53.978h21.333     c-0.024-21.041-3.105-41.364-8.798-60.563l20.297-6.585c6.363,21.275,9.808,43.809,9.835,67.148     C490.667,275.806,488.201,295.035,483.581,313.407z M75.224,320.616l40.548-13.155c8.669,23.616,23.139,44.428,41.676,60.725     l-25.118,34.548C106.675,381.084,86.77,352.843,75.224,320.616z M174.426,381.093c20.657,13.498,44.858,22.018,70.907,23.857     v42.738c-35.4-1.978-68.24-13.532-95.974-32.116L174.426,381.093z M245.333,469.056v21.359     c-44.79-2.004-86.313-16.557-121.133-40.239l12.605-17.337C168.077,453.973,205.248,467.037,245.333,469.056z M266.667,404.939     c26.038-1.864,50.227-10.397,70.876-23.899l50.238,69.15c-34.817,23.673-76.332,38.221-121.114,40.225V404.939z M256,384     c-70.692,0-128-57.308-128-128s57.308-128,128-128c70.661,0.076,127.924,57.339,128,128C384,326.692,326.692,384,256,384z      M266.667,107.05V64.312c33.19,1.855,64.125,12.131,90.716,28.723l-25.124,34.556     C312.811,116.016,290.513,108.733,266.667,107.05z M266.667,42.944V21.597c42.553,1.951,82.155,15.208,115.859,36.856     l-12.57,17.29C339.803,56.626,304.538,44.851,266.667,42.944z M245.333,107.05c-23.842,1.683-46.135,8.963-65.581,20.534     l-50.303-69.237c33.713-21.63,73.325-34.858,115.884-36.763V107.05z M349.761,139.778l25.067-34.477     c25.381,20.049,45.582,46.363,58.272,76.609l-40.708,13.207C382.704,173.446,368.001,154.511,349.761,139.778z M473.793,168.708     l-20.346,6.601c-14.161-34.552-37.104-64.573-66.069-87.27l12.544-17.253C432.474,96.126,458.174,129.846,473.793,168.708z      M112.047,70.673l50.202,69.096c-18.247,14.737-32.955,33.677-42.645,55.356l-81.462-26.472     C53.75,129.76,79.467,96.017,112.047,70.673z M31.115,188.802l81.198,26.386c-3.677,12.972-5.646,26.662-5.646,40.812     c0,10.61,1.114,20.959,3.218,30.943l-40.727,13.213C65.807,285.979,64.018,271.198,64,256H42.667     c0.02,17.494,2.159,34.489,6.145,50.757l-20.401,6.619c-4.615-18.363-7.078-37.581-7.078-57.376     C21.333,232.644,24.762,210.093,31.115,188.802z M34.56,333.809l20.367-6.608c12.97,36.545,35.599,68.513,64.83,92.826     l-12.63,17.372C74.296,410.424,48.93,374.706,34.56,333.809z M404.855,437.414l-50.337-69.286     c18.525-16.292,32.989-37.089,41.668-60.687l81.243,26.398C463.055,374.732,437.687,410.444,404.855,437.414z" fill="#5077f6"/>
			<rect x="448" y="490.667" width="21.333" height="21.333" fill="#5077f6"/>
			<rect x="448" y="458.667" width="21.333" height="21.333" fill="#5077f6"/>
			<rect x="42.667" y="490.667" width="21.333" height="21.333" fill="#5077f6"/>
			<rect x="42.667" y="458.667" width="21.333" height="21.333" fill="#5077f6"/>
			<rect x="42.667" width="21.333" height="21.333" fill="#5077f6"/>
			<rect x="42.667" y="32" width="21.333" height="21.333" fill="#5077f6"/>
			<rect x="448" width="21.333" height="21.333" fill="#5077f6"/>
			<rect x="448" y="32" width="21.333" height="21.333" fill="#5077f6"/>
		</g>
	</g>
</g>
<g>
</g>
<g>
</g>
<g>
</g>
<g>
</g>
<g>
</g>
<g>
</g>
<g>
</g>
<g>
</g>
<g>
</g>
<g>
</g>
<g>
</g>
<g>
</g>
<g>
</g>
<g>
</g>
<g>
</g>
</svg>
