<?xml version="1.0" encoding="utf-8"?>
<!-- Generator: Adobe Illustrator 22.1.0, SVG Export Plug-In . SVG Version: 6.00 Build 0)  -->
<svg version="1.1" id="Capa_1" xmlns="http://www.w3.org/2000/svg" xmlns:xlink="http://www.w3.org/1999/xlink" x="0px" y="0px"
	 viewBox="0 0 512 512" style="enable-background:new 0 0 512 512;" xml:space="preserve">
<style type="text/css">
	.st0{fill:#FFFFFF;}
</style>
<path class="st0" d="M468.9,390.8C494.5,350.6,508,303.9,508,256c0-47.9-13.5-94.6-39.1-134.8C422.8,48.4,343.9,4.6,257.8,4l-0.1,0
	h-0.1h0l0,0c-0.4,0-0.9,0-1.3,0l-0.2,0l0,0l0,0l0,0c-0.7,0-1.3,0-2,0l0,0h0c-0.1,0-0.1,0-0.2,0c-35.3,0.3-69.3,7.8-101.2,22.2
	l-2.4,1.1l-1.9-1.8c-7.4-6.7-17-10.4-26.9-10.4c-22.1,0-40,18-40,40c0,3.5,0.9,8,2.6,13.8l0.7,2.4L82.8,73
	c-15.2,14.4-28.5,30.6-39.7,48.2c-7.1,11.3-13.4,23.2-18.7,35.4c-1.3,3.1,0.1,6.6,3.2,7.9c0.8,0.3,1.6,0.5,2.4,0.5
	c2.4,0,4.6-1.4,5.6-3.7c4.2-9.9,9.2-19.6,14.8-28.9l1.2-1.9h2.3h40.8h5.8l-2.1,5.4c-13,33.6-20.4,71.7-21.5,110.2l-0.1,3.9h-3.9
	H20.3h-4.2l0.2-4.2c0.3-7.2,0.9-14.4,1.8-21.4c0.2-1.6-0.2-3.2-1.2-4.5c-1-1.3-2.4-2.1-4-2.3c-0.3,0-0.5-0.1-0.8-0.1
	c-3,0-5.6,2.3-6,5.3C4.7,233.7,4,244.9,4,256c0,47.9,13.5,94.6,39.1,134.8c22.3,35.2,53.3,64.6,89.6,85
	C170.1,496.9,212.8,508,256,508c43.2,0,85.9-11.1,123.3-32.2C415.6,455.4,446.6,426,468.9,390.8z M495.7,266.2
	c-1.7,40-13.5,79.2-34,113.4l-1.2,1.9h-2.3h-40.8h-5.8l2.1-5.4c13-33.6,20.4-71.7,21.5-110.2l0.1-3.9h3.9h52.6h4.2L495.7,266.2z
	 M402.5,151.3c-14.4,6.5-23.8,20.8-23.8,36.6c0,6.6,3.6,21.7,20.7,56.4l2.8,5.8h-6.4h-51.2h-3.9l-0.1-3.9
	c-0.5-38.7-3.9-77.1-10-110.8l-0.8-4.7h4.8h61.2h2.7l1,2.5c1.8,4.2,3.5,8.7,5.2,13.3l1.3,3.5L402.5,151.3z M414.6,160.2
	c1.4-0.2,2.8-0.3,4.2-0.3c7.5,0,14.5,2.9,19.8,8.2c5.3,5.3,8.2,12.3,8.2,19.8c0,7.9-8.6,29.6-22.9,58l0,0l0,0c-0.5,1-1,1.9-1.4,2.8
	l-3.6,7l-3.6-7c-15.5-30.3-24.4-52.5-24.4-60.8C390.8,174.1,401.1,162.2,414.6,160.2z M330.7,376.8c6-33.8,9.5-72.1,10-110.8
	l0.1-3.9h3.9h61.5h2.4l1.1,2.1c2.3,4.4,3.8,7.1,3.8,7.1c1,1.8,3,3,5.1,3.1l4.1,0.1l-0.3,4.1c-2.4,35.8-10.1,69.6-23,100.4l-1,2.5
	h-2.7h-61.1h-4.8L330.7,376.8z M460.5,130.5l1.2,1.9c20.6,34.2,32.4,73.4,34,113.4l0.2,4.2h-4.2h-50h-6.4l2.8-5.8
	c8.9-18.1,15.1-32.6,18.3-43.1c2.5-8.1,2.5-11.6,2.5-13.3c0-21.4-16.8-39-38.2-40l-2.7-0.1l-0.9-2.6c-1.1-3.1-2.2-6.2-3.4-9.2
	l-2.1-5.4h5.8h40.8H460.5z M360.1,39.7c34.4,16.5,64.8,41.5,87.8,72.3l4.8,6.4h-8h-35.9h-2.5l-1.1-2.3
	c-13.2-27.9-29.9-51.4-49.6-69.9l-18.9-17.8L360.1,39.7z M299.3,24.2c18,6.9,35,18,50.4,33.1c15.5,15,29,33.6,40.2,55.2l3,5.8h-6.6
	h-55.8h-3.2l-0.7-3.1c-8-36.5-19.2-65.9-32.2-85l-7.2-10.6L299.3,24.2z M214.2,327.5c-6.6-7.3-15.6-11.9-25.4-13l-3.3-0.4l-0.2-3.3
	c-1.1-14.6-1.7-29.6-1.9-44.7l-0.1-4.1h4.1h137.2h4.1l-0.1,4.1c-0.5,39.5-4.1,78.3-10.4,112.2l-0.6,3.3h-3.3h-91.3h-5.8l2-5.4
	c4.8-13,5.4-18.7,5.4-21.8C224.6,344.4,220.9,334.9,214.2,327.5z M212.5,354.3c0,2.9-1.3,10.9-10,30.8l0,0l0,0l0,0.1
	c-3.3,7.6-7.4,16.3-12.2,25.7c-0.7,1.4-1.4,2.8-2.1,4.1l-3.6,7l-3.6-7c-5.6-11-10.5-21.1-14.3-29.9c0,0,0-0.1,0-0.1l0-0.1
	c-8.7-19.9-10-27.8-10-30.8c0-14,10.4-25.9,24.2-27.7l0.1,0l0,0l0,0l0,0c1.2-0.2,2.4-0.2,3.6-0.2C200,326.4,212.5,338.9,212.5,354.3
	z M183.3,250l0.1-4.1c0.5-39.4,4.1-78.2,10.4-112.2l0.6-3.3h3.3h116.5h3.3l0.6,3.3c6.3,33.9,9.9,72.7,10.4,112.2l0.1,4.1h-4.1H187.4
	H183.3z M256,16.1c11.2,0,22.7,9.8,33.3,28.4c9.6,16.9,18.2,40.8,24.7,69l1.1,4.9h-5H201.9h-5l1.1-4.9c6.5-28.3,15.1-52.2,24.7-69.1
	C233.3,25.9,244.8,16.1,256,16.1z M160.9,59.8l0.2-1.3l0.9-0.9c15.6-15.2,32.6-26.4,50.7-33.3l11.9-4.6l-7.2,10.6
	c-13,19.1-24.1,48.5-32.2,85l-0.7,3.1h-3.2h-37.7h-6.4l2.9-5.8C152.1,88.3,159.1,70.5,160.9,59.8z M101.5,35.4
	c5.3-5.3,12.3-8.2,19.8-8.2c8.9,0,17,4.1,22.4,11.2l0.1,0.2l0,0c3.6,4.8,5.5,10.5,5.5,16.6l0,0.1l0,0.1l0,0.1l0,0l0,0.1
	c-0.3,8.8-9.2,30.8-24.4,60.5l-3.5,6.8l-3.6-6.7c0-0.1-0.1-0.1-0.1-0.2c-6.4-12.6-15.2-30.6-20.3-44.7c0-0.1,0-0.1-0.1-0.1
	c-3.3-9.2-4-13.7-4-15.8C93.3,47.7,96.2,40.7,101.5,35.4z M98.9,118.4H67.3h-8l4.8-6.4c6.4-8.5,13.4-16.6,20.8-24.2l4.2-4.2l2.4,5.5
	c3,7.1,6.7,15,11,23.6l2.9,5.8H98.9z M88.9,245.8c1.1-36.8,8.2-73.3,20.6-105.5l2.6-6.7l4.3,5.7c1.1,1.5,2.9,2.4,4.8,2.4
	c2.2,0,4.2-1.2,5.3-3.1l0,0c0.4-0.8,1.6-2.8,3.2-6l1.1-2.1h2.4h44.1h4.8l-0.8,4.7c-6,33.8-9.5,72.1-10,110.8l-0.1,3.9h-3.9H92.9
	h-4.1L88.9,245.8z M92.9,262h74.4h3.9l0.1,3.9c0.2,15.8,0.9,31.5,2,46.7l0.2,3l-2.8,1c-15.7,5.8-26.2,20.9-26.2,37.6
	c0,3.2,0.6,8.9,5.4,21.8l2,5.4h-5.8h-29.9h-2.7l-1-2.5C98.3,345,90.1,306,88.9,266.2l-0.1-4.1H92.9z M51.5,381.5l-1.2-1.9
	c-20.6-34.2-32.4-73.4-34-113.4l-0.2-4.2h4.2h52.5h3.9l0.1,3.9c1.1,38.4,8.5,76.5,21.5,110.2l2.1,5.4h-5.8H53.8H51.5z M152.3,472.5
	c-34.6-16.5-65-41.6-88.2-72.5l-4.8-6.4h8h35.9h2.5l1.1,2.3c13.1,27.5,30.3,51.7,49.9,70.1l19,17.7L152.3,472.5z M212.7,487.8
	c-18-6.9-35-18-50.4-33.1c-15.4-15-29-33.6-40.2-55.3l-3-5.8h6.6h29h2.6l1.1,2.3c9.6,21,20.6,41,21,41.8c1.1,1.9,3.1,3.1,5.3,3.1
	c2.1,0,4.1-1.1,5.2-2.9l4.4-7.3l2.8,8.1c6.1,17.5,12.9,32,20.5,43.1l7.2,10.5L212.7,487.8z M256,495.9c-10.1,0-20.2-7.6-29.8-22.5
	c-8.9-13.8-17.1-33.7-23.8-57.5l-0.4-1.5l0.7-1.4c3-6,5.7-11.8,8.2-17.1l1.1-2.3h2.6h95.6h5l-1.1,4.9c-6.5,28.3-15.1,52.2-24.7,69
	C278.7,486.1,267.2,495.9,256,495.9z M287.4,492.4l7.2-10.6c13-19.1,24.1-48.5,32.2-85l0.7-3.1h3.2h55.8h6.6l-3,5.8
	c-11.3,21.6-24.8,40.2-40.2,55.3c-15.4,15-32.4,26.1-50.4,33.1L287.4,492.4z M359.7,472.5l-23.4,11.2l19-17.7
	c19.6-18.4,36.9-42.6,49.9-70.1l1.1-2.3h2.5h35.9h8l-4.8,6.4C424.8,430.9,394.3,456,359.7,472.5z"/>
<g>
	<g>
		<path class="st0" d="M418.8,177.8c-12.9,0-12.9,20.1,0,20.1C431.7,197.9,431.7,177.8,418.8,177.8z"/>
	</g>
</g>
<g>
	<g>
		<path class="st0" d="M184.5,344.3c-12.9,0-12.9,20.1,0,20.1C197.5,364.4,197.5,344.3,184.5,344.3z"/>
	</g>
</g>
<g>
	<g>
		<path class="st0" d="M121.2,45.1c-12.9,0-12.9,20.1,0,20.1C134.2,65.2,134.2,45.1,121.2,45.1z"/>
	</g>
</g>
<g>
	<g>
		<path class="st0" d="M18.1,180c-12.9,0-12.9,20.1,0,20.1C31,200.1,31,180,18.1,180z"/>
	</g>
</g>
</svg>
