<?xml version="1.0" encoding="utf-8"?>
<!-- Generator: Adobe Illustrator 21.1.0, SVG Export Plug-In . SVG Version: 6.00 Build 0)  -->
<svg version="1.1" id="Layer_1" xmlns="http://www.w3.org/2000/svg" xmlns:xlink="http://www.w3.org/1999/xlink" x="0px" y="0px"
	 width="63px" height="37.8px" viewBox="0 0 63 37.8" enable-background="new 0 0 63 37.8" xml:space="preserve">
<g>
	<g>
		<g>
			<path fill="#07A9E2" d="M31.5,32.9c3.8-3.4,6.2-8.4,6.2-14s-2.4-10.5-6.2-14C28.2,1.9,23.7,0,18.9,0C8.5,0,0,8.5,0,18.9
				s8.5,18.8,18.9,18.8C23.7,37.8,28.2,35.9,31.5,32.9L31.5,32.9z"/>
		</g>
	</g>
	<g>
		<g>
			<path fill="#009DDD" d="M0,18.9c0,10.4,8.5,18.8,18.9,18.8c4.9,0,9.3-1.8,12.6-4.9l0,0c3.8-3.4,6.2-8.4,6.2-14S35.3,8.4,31.5,4.9
				C28.2,1.9,23.7,0,18.9,0"/>
		</g>
	</g>
	<g>
		<path fill="#0284CC" d="M31.5,4.9C28.2,1.9,23.7,0,18.9,0c-0.3,0-0.6,0-0.9,0c-5.9,4.3-9.7,11.2-9.7,18.9s3.8,14.6,9.6,18.8
			c0.3,0,0.6,0,0.9,0c4.9,0,9.3-1.8,12.6-4.9c3.8-3.4,6.2-8.4,6.2-14S35.3,8.4,31.5,4.9z"/>
	</g>
	<g>
		<g>
			<path fill="#FF2957" d="M44.2,0c-4.9,0-9.3,1.8-12.7,4.9c-0.7,0.6-1.3,1.3-1.9,2h3.8c0.5,0.6,1,1.3,1.4,2h-6.7
				c-0.4,0.7-0.8,1.3-1.1,2h8.9c0.3,0.7,0.6,1.3,0.8,2H26.3c-0.2,0.7-0.4,1.3-0.6,2h11.6c0.3,1.3,0.4,2.6,0.4,4c0,2.1-0.3,4.1-1,6
				H26.3c0.2,0.7,0.5,1.3,0.8,2H36c-0.3,0.7-0.7,1.4-1.1,2h-6.7c0.4,0.7,0.9,1.4,1.4,2h3.8c-0.6,0.7-1.2,1.4-1.9,2
				c3.4,3,7.8,4.9,12.7,4.9C54.6,37.8,63,29.4,63,19C63,8.5,54.6,0,44.2,0L44.2,0z"/>
		</g>
	</g>
	<g>
		<g>
			<path fill="#ED1C2E" d="M44.2,0L44.2,0c-4.9,0-9.3,1.8-12.7,4.9c-0.7,0.6-1.3,1.3-1.9,2h3.8c0.5,0.6,1,1.3,1.4,2h-6.7
				c-0.4,0.7-0.8,1.3-1.1,2h8.9c0.3,0.7,0.6,1.3,0.8,2H26.3c-0.2,0.7-0.4,1.3-0.6,2h11.6c0.3,1.3,0.4,2.6,0.4,4c0,2.1-0.3,4.1-1,6
				H26.3c0.2,0.7,0.5,1.3,0.8,2H36c-0.3,0.7-0.7,1.4-1.1,2h-6.7c0.4,0.7,0.9,1.4,1.4,2h3.8c-0.6,0.7-1.2,1.4-1.9,2
				c3.4,3,7.8,4.9,12.7,4.9C54.6,37.8,63,29.4,63,19"/>
		</g>
	</g>
	<g>
		<g>
			<path fill="#0466B5" d="M31.5,32.9c3.8-3.4,6.2-8.4,6.2-14s-2.4-10.5-6.2-14V32.9L31.5,32.9z"/>
		</g>
	</g>
	<g>
		<g>
			<path fill="#FFFFFF" d="M56.5,23c0-0.3,0.3-0.6,0.6-0.6s0.6,0.3,0.6,0.6s-0.3,0.6-0.6,0.6S56.5,23.3,56.5,23L56.5,23z M57.1,23.5
				c0.3,0,0.4-0.2,0.4-0.5s-0.2-0.4-0.4-0.4c-0.3,0-0.5,0.2-0.5,0.4S56.9,23.5,57.1,23.5L57.1,23.5z M57.1,23.2L57.1,23.2L57,22.7
				h0.2c0.1,0,0.1,0,0.1,0l0.1,0.1c0,0.1,0,0.1-0.1,0.1l0.1,0.2h-0.1l-0.1-0.2h-0.1L57.1,23.2L57.1,23.2z M57.1,22.9L57.1,22.9
				C57.2,22.9,57.2,22.9,57.1,22.9C57.2,22.9,57.2,22.9,57.1,22.9L57.1,22.9L57.1,22.9L57.1,22.9L57.1,22.9L57.1,22.9z"/>
		</g>
	</g>
	<g>
		<path fill="#D1094B" d="M31.5,4.9c-0.7,0.6-1.3,1.3-1.9,2h3.8c0.5,0.6,1,1.3,1.4,2h-6.7c-0.4,0.7-0.8,1.3-1.1,2h8.9
			c0.3,0.7,0.6,1.3,0.8,2H26.3c-0.2,0.7-0.4,1.3-0.6,2h11.6c0.3,1.3,0.4,2.6,0.4,4c0,2.1-0.3,4.1-1,6H26.3c0.2,0.7,0.5,1.3,0.8,2H36
			c-0.3,0.7-0.7,1.4-1.1,2h-6.7c0.4,0.7,0.9,1.4,1.4,2h3.8c-0.6,0.7-1.2,1.4-1.9,2c3.4,3,7.8,4.9,12.7,4.9c0.3,0,0.6,0,0.9,0
			c5.8-4.2,9.6-11.1,9.6-18.8S50.9,4.4,45.1,0.2c-0.3,0-0.6,0-0.9,0C39.3,0,34.9,1.9,31.5,4.9z"/>
	</g>
	<g>
		<g>
			<polygon fill="#FFFFFF" points="16.5,23.6 14.1,23.6 15.5,16.3 12.3,23.6 10.2,23.6 9.8,16.3 8.4,23.6 6.3,23.6 8.1,14 11.8,14 
				12,20 14.6,14 18.4,14 			"/>
		</g>
	</g>
	<g>
		<path fill="#DCE5E5" d="M14.2,19.4l1.4-3.1l-1.1,5.8c0.1,0.5,0.2,1.1,0.4,1.6h1.6l1.8-9.6h-3.5c-0.4,1.5-0.7,3.2-0.7,4.9
			C14.2,19.1,14.2,19.2,14.2,19.4z"/>
	</g>
	<g>
		<g>
			<path fill="#DCE5E5" d="M42.7,23.5c-0.7,0.2-1.1,0.3-1.7,0.3c-1.2,0-1.8-0.6-1.8-1.7c0-0.2,0-0.4,0.1-0.7l0.1-0.8l0.1-0.6
				l1.1-5.9h2.3l-0.3,1.8h1.2l-0.3,1.8h-1.2l-0.6,3.2c0,0.1-0.1,0.3-0.1,0.3c0,0.4,0.3,0.6,0.8,0.6c0.3,0,0.5,0,0.6-0.1L42.7,23.5
				L42.7,23.5z"/>
		</g>
	</g>
	<g>
		<g>
			<path fill="#DCE5E5" d="M49.6,15.9c-0.2-0.1-0.2-0.1-0.3-0.1s-0.2,0-0.2-0.1c-0.1,0-0.1,0-0.3,0c-0.8,0-1.3,0.3-2,1.3l0.2-1.2
				h-2.1l-1.4,7.8h2.4c0.8-4.8,1.2-5.6,2.3-5.6c0.1,0,0.2,0,0.3,0l0.3,0.1L49.6,15.9L49.6,15.9z"/>
		</g>
	</g>
	<g>
		<g>
			<path fill="#DCE5E5" d="M33.4,18.3c0,1,0.6,1.7,1.8,2.1c1,0.4,1.1,0.5,1.1,0.9c0,0.5-0.4,0.7-1.4,0.7c-0.7,0-1.4-0.1-2.1-0.3
				l-0.3,1.8h0.1l0.4,0.1c0.1,0,0.4,0,0.6,0c0.6,0.1,1,0.1,1.3,0.1c2.5,0,3.7-0.8,3.7-2.6c0-1.1-0.5-1.7-1.7-2.2
				c-1-0.4-1.1-0.5-1.1-0.8c0-0.4,0.4-0.6,1.2-0.6c0.4,0,1.1,0,1.7,0.1l0.3-1.8c-0.6-0.1-1.5-0.1-2.1-0.1
				C34.3,15.7,33.4,16.9,33.4,18.3L33.4,18.3z"/>
		</g>
	</g>
	<g>
		<g>
			<path fill="#DCE5E5" d="M24.1,23.6h-1.9v-0.8c-0.6,0.6-1.4,0.9-2.5,0.9c-1.3,0-2.1-0.9-2.1-2.1c0-1.9,1.5-3,4.1-3
				c0.3,0,0.6,0,1,0c0.1-0.3,0.1-0.4,0.1-0.5c0-0.5-0.4-0.7-1.5-0.7c-0.7,0-1.4,0.1-1.9,0.2l-0.3,0.1h-0.2l0.3-1.7
				c1.2-0.3,1.9-0.4,2.8-0.4c2,0,3.1,0.8,3.1,2.3c0,0.4,0,0.7-0.2,1.6l-0.5,2.8l-0.1,0.5l-0.1,0.4L24.1,23.6L24.1,23.6L24.1,23.6z
				 M22.4,20.1c-0.3,0-0.4,0-0.5,0c-1.3,0-2,0.4-2,1.2c0,0.5,0.3,0.8,0.8,0.8C21.7,22.1,22.4,21.3,22.4,20.1L22.4,20.1z"/>
		</g>
	</g>
	<g>
		<g>
			<path fill="#DCE5E5" d="M31.8,23.4c-0.8,0.2-1.6,0.3-2.4,0.3c-2.6,0-4-1.2-4-3.5c0-2.7,1.7-4.6,4.1-4.6c1.9,0,3.1,1.1,3.1,2.8
				c0,0.6-0.1,1.1-0.3,1.9h-4.7c0,0.1,0,0.2,0,0.3c0,0.9,0.7,1.4,2,1.4c0.9,0,1.6-0.1,2.4-0.5L31.8,23.4L31.8,23.4z M30.6,18.8
				c0-0.1,0-0.3,0-0.4c0-0.6-0.4-1-1.1-1s-1.3,0.5-1.5,1.4H30.6L30.6,18.8z"/>
		</g>
	</g>
	<g>
		<g>
			<path fill="#FFFFFF" d="M56.9,20.1c-0.4,2.6-2.2,3.7-4.6,3.7c-2.6,0-3.7-1.6-3.7-3.6c0-2.7,1.8-4.6,4.6-4.6
				c2.4,0,3.7,1.6,3.7,3.5C56.9,19.6,56.9,19.6,56.9,20.1L56.9,20.1z M54.4,19.1c0-0.8-0.3-1.5-1.3-1.5c-1.2,0-1.9,1.4-1.9,2.7
				c0,1,0.5,1.7,1.3,1.7c0.5,0,1.6-0.7,1.8-1.9C54.4,19.7,54.4,19.4,54.4,19.1L54.4,19.1z"/>
		</g>
	</g>
	<g>
		<path fill="#FFFFFF" d="M48.7,21.1c0.1-0.7,0.2-1.5,0.2-2.2c0-0.1,0-0.2,0-0.2c-0.1,0.5-0.2,1-0.2,1.6
			C48.6,20.5,48.6,20.8,48.7,21.1z"/>
	</g>
</g>
</svg>
