<?xml version="1.0" encoding="utf-8"?>
<!-- Generator: Adobe Illustrator 21.1.0, SVG Export Plug-In . SVG Version: 6.00 Build 0)  -->
<svg version="1.1" id="Layer_1" xmlns="http://www.w3.org/2000/svg" xmlns:xlink="http://www.w3.org/1999/xlink" x="0px" y="0px"
	 width="63px" height="37.8px" viewBox="0 0 63 37.8" enable-background="new 0 0 63 37.8" xml:space="preserve">
<g>
	<g>
		<g>
			<path fill="#FFB600" d="M63,18.9c0,10.4-8.4,18.9-18.9,18.9c-10.4,0-18.9-8.5-18.9-18.9l0,0C25.2,8.5,33.6,0,44,0
				C54.6,0,63,8.5,63,18.9L63,18.9z"/>
		</g>
	</g>
	<g>
		<g>
			<path fill="#F7981D" d="M44.1,0C54.5,0,63,8.5,63,18.9l0,0c0,10.4-8.4,18.9-18.9,18.9c-10.4,0-18.9-8.5-18.9-18.9"/>
		</g>
	</g>
	<g>
		<g>
			<path fill="#FF8500" d="M44.1,0C54.5,0,63,8.5,63,18.9l0,0c0,10.4-8.4,18.9-18.9,18.9"/>
		</g>
	</g>
	<g>
		<g>
			<path fill="#FF5050" d="M18.7,0C8.4,0.1,0,8.5,0,18.9s8.4,18.9,18.9,18.9c4.9,0,9.3-1.9,12.7-4.9l0,0l0,0c0.7-0.6,1.3-1.3,1.9-2
				h-3.9c-0.5-0.6-1-1.3-1.4-1.9h6.7c0.4-0.6,0.8-1.3,1.1-2h-8.9c-0.3-0.6-0.6-1.3-0.8-2h10.4c0.6-1.9,1-3.9,1-6
				c0-1.4-0.2-2.7-0.4-4H25.7c0.1-0.7,0.3-1.3,0.5-2h10.4c-0.2-0.7-0.5-1.4-0.8-2H27c0.3-0.7,0.7-1.3,1.1-2h6.7
				c-0.4-0.7-0.9-1.4-1.5-2h-3.7c0.6-0.7,1.2-1.3,1.9-1.9C28.2,2,23.7,0.2,18.8,0.2C18.8,0,18.8,0,18.7,0z"/>
		</g>
	</g>
	<g>
		<g>
			<path fill="#E52836" d="M0,18.9c0,10.4,8.4,18.9,18.9,18.9c4.9,0,9.3-1.9,12.7-4.9l0,0l0,0c0.7-0.6,1.3-1.3,1.9-2h-3.9
				c-0.5-0.6-1-1.3-1.4-1.9h6.7c0.4-0.6,0.8-1.3,1.1-2h-8.9c-0.3-0.6-0.6-1.3-0.8-2h10.4c0.6-1.9,1-3.9,1-6c0-1.4-0.2-2.7-0.4-4
				H25.7c0.1-0.7,0.3-1.3,0.5-2h10.4c-0.2-0.7-0.5-1.4-0.8-2H27c0.3-0.7,0.7-1.3,1.1-2h6.7c-0.4-0.7-0.9-1.4-1.5-2h-3.7
				c0.6-0.7,1.2-1.3,1.9-1.9C28.2,2,23.7,0.2,18.8,0.2h-0.1"/>
		</g>
	</g>
	<g>
		<g>
			<path fill="#CB2026" d="M18.9,37.8c4.9,0,9.3-1.9,12.7-4.9l0,0l0,0c0.7-0.6,1.3-1.3,1.9-2h-3.9c-0.5-0.6-1-1.3-1.4-1.9h6.7
				c0.4-0.6,0.8-1.3,1.1-2h-8.9c-0.3-0.6-0.6-1.3-0.8-2h10.4c0.6-1.9,1-3.9,1-6c0-1.4-0.2-2.7-0.4-4H25.7c0.1-0.7,0.3-1.3,0.5-2
				h10.4c-0.2-0.7-0.5-1.4-0.8-2H27c0.3-0.7,0.7-1.3,1.1-2h6.7c-0.4-0.7-0.9-1.4-1.5-2h-3.7c0.6-0.7,1.2-1.3,1.9-1.9
				C28.2,2,23.7,0.2,18.8,0.2h-0.1"/>
		</g>
	</g>
	<g>
		<g>
			<g>
				<path fill="#FFFFFF" d="M25.6,23.7l0.3-1.7c-0.1,0-0.3,0.1-0.5,0.1c-0.7,0-0.8-0.4-0.7-0.6l0.6-3.5h1.1l0.3-1.9h-1l0.2-1.2h-2
					c0,0-1.2,6.6-1.2,7.4c0,1.2,0.7,1.7,1.6,1.7C24.9,24,25.4,23.8,25.6,23.7z"/>
			</g>
		</g>
		<g>
			<g>
				<path fill="#FFFFFF" d="M26.3,20.5c0,2.8,1.9,3.5,3.5,3.5c1.5,0,2.1-0.3,2.1-0.3l0.4-1.9c0,0-1.1,0.5-2.1,0.5
					c-2.2,0-1.8-1.6-1.8-1.6h4.1c0,0,0.3-1.3,0.3-1.8c0-1.3-0.7-2.9-2.9-2.9C27.8,15.8,26.3,18,26.3,20.5z M29.8,17.6
					c1.1,0,0.9,1.3,0.9,1.4h-2.2C28.5,18.9,28.7,17.6,29.8,17.6z"/>
			</g>
		</g>
		<g>
			<g>
				<path fill="#FFFFFF" d="M42.5,23.7l0.4-2.2c0,0-1,0.5-1.7,0.5c-1.4,0-2-1.1-2-2.3c0-2.4,1.2-3.7,2.6-3.7c1,0,1.8,0.6,1.8,0.6
					l0.3-2.1c0,0-1.2-0.5-2.3-0.5c-2.3,0-4.6,2-4.6,5.8c0,2.5,1.2,4.2,3.6,4.2C41.4,24,42.5,23.7,42.5,23.7z"/>
			</g>
		</g>
		<g>
			<g>
				<path fill="#FFFFFF" d="M14.6,15.8c-1.4,0-2.4,0.4-2.4,0.4l-0.3,1.7c0,0,0.9-0.4,2.2-0.4c0.7,0,1.3,0.1,1.3,0.7
					c0,0.4-0.1,0.5-0.1,0.5s-0.6,0-0.9,0c-1.7,0-3.6,0.7-3.6,3c0,1.8,1.2,2.2,1.9,2.2c1.4,0,2-0.9,2.1-0.9l-0.1,0.8h1.8l0.8-5.5
					C17.3,15.9,15.3,15.8,14.6,15.8z M15,20.3c0,0.3-0.2,1.9-1.4,1.9c-0.6,0-0.8-0.5-0.8-0.8c0-0.5,0.3-1.2,1.8-1.2
					C14.9,20.3,15,20.3,15,20.3z"/>
			</g>
		</g>
		<g>
			<g>
				<path fill="#FFFFFF" d="M19.2,23.9c0.5,0,3,0.1,3-2.6c0-2.5-2.4-2-2.4-3c0-0.5,0.4-0.7,1.1-0.7c0.3,0,1.4,0.1,1.4,0.1l0.3-1.8
					c0,0-0.7-0.2-1.9-0.2c-1.5,0-3,0.6-3,2.6c0,2.3,2.5,2.1,2.5,3c0,0.6-0.7,0.7-1.2,0.7c-0.9,0-1.8-0.3-1.8-0.3l-0.3,1.8
					C17,23.7,17.5,23.9,19.2,23.9z"/>
			</g>
		</g>
		<g>
			<g>
				<path fill="#FFFFFF" d="M59.1,14.2l-0.4,2.7c0,0-0.8-1-1.9-1c-1.8,0-3.4,2.2-3.4,4.8c0,1.6,0.8,3.3,2.5,3.3
					c1.2,0,1.9-0.8,1.9-0.8l-0.1,0.7h2l1.5-9.6L59.1,14.2z M58.2,19.5c0,1.1-0.5,2.5-1.6,2.5c-0.7,0-1.1-0.6-1.1-1.6
					c0-1.6,0.7-2.6,1.6-2.6C57.8,17.8,58.2,18.3,58.2,19.5z"/>
			</g>
		</g>
		<g>
			<g>
				<path fill="#FFFFFF" d="M3.7,23.8l1.2-7.2l0.2,7.2h1.4l2.6-7.2L8,23.8h2.1l1.6-9.6H8.4l-2,5.9l-0.1-5.9H3.4l-1.6,9.6H3.7z"/>
			</g>
		</g>
		<g>
			<g>
				<path fill="#FFFFFF" d="M34.7,23.8c0.6-3.3,0.7-6,2.1-5.5c0.2-1.3,0.5-1.8,0.7-2.3c0,0-0.1,0-0.4,0c-0.9,0-1.6,1.2-1.6,1.2
					l0.2-1.1h-1.9l-1.3,7.8L34.7,23.8L34.7,23.8z"/>
			</g>
		</g>
		<g>
			<g>
				<path fill="#FFFFFF" d="M47.1,15.8c-1.4,0-2.4,0.4-2.4,0.4l-0.3,1.7c0,0,0.9-0.4,2.2-0.4c0.7,0,1.3,0.1,1.3,0.7
					c0,0.4-0.1,0.5-0.1,0.5s-0.6,0-0.9,0c-1.7,0-3.6,0.7-3.6,3c0,1.8,1.2,2.2,1.9,2.2c1.4,0,2-0.9,2.1-0.9l-0.1,0.8H49l0.8-5.5
					C49.9,15.9,47.8,15.8,47.1,15.8z M47.6,20.3c0,0.3-0.2,1.9-1.4,1.9c-0.6,0-0.8-0.5-0.8-0.8c0-0.5,0.3-1.2,1.8-1.2
					C47.5,20.3,47.5,20.3,47.6,20.3z"/>
			</g>
		</g>
		<g>
			<g>
				<path fill="#FFFFFF" d="M51.5,23.8c0.6-3.3,0.7-6,2.1-5.5c0.2-1.3,0.5-1.8,0.7-2.3c0,0-0.1,0-0.4,0c-0.9,0-1.6,1.2-1.6,1.2
					l0.2-1.1h-1.9l-1.3,7.8L51.5,23.8L51.5,23.8z"/>
			</g>
		</g>
	</g>
	<g>
		<g>
			<g>
				<path fill="#DCE5E5" d="M22.5,22.3c0,1.2,0.7,1.7,1.6,1.7c0.7,0,1.3-0.2,1.5-0.3l0.3-1.7c-0.1,0-0.3,0.1-0.5,0.1
					c-0.7,0-0.8-0.4-0.7-0.6l0.6-3.5h1.1l0.3-1.9h-1l0.2-1.2"/>
			</g>
		</g>
		<g>
			<g>
				<path fill="#DCE5E5" d="M27.3,20.5c0,2.8,0.9,3.5,2.5,3.5c1.5,0,2.1-0.3,2.1-0.3l0.4-1.9c0,0-1.1,0.5-2.1,0.5
					c-2.2,0-1.8-1.6-1.8-1.6h4.1c0,0,0.3-1.3,0.3-1.8c0-1.3-0.7-2.9-2.9-2.9C27.8,15.8,27.3,18,27.3,20.5z M29.8,17.6
					c1.1,0,1.3,1.3,1.3,1.4h-2.6C28.5,18.9,28.7,17.6,29.8,17.6z"/>
			</g>
		</g>
		<g>
			<g>
				<path fill="#DCE5E5" d="M42.5,23.7l0.4-2.2c0,0-1,0.5-1.7,0.5c-1.4,0-2-1.1-2-2.3c0-2.4,1.2-3.7,2.6-3.7c1,0,1.8,0.6,1.8,0.6
					l0.3-2.1c0,0-1.2-0.5-2.3-0.5c-2.3,0-3.6,2-3.6,5.8c0,2.5,0.2,4.2,2.6,4.2C41.4,24,42.5,23.7,42.5,23.7z"/>
			</g>
		</g>
		<g>
			<g>
				<path fill="#DCE5E5" d="M11.9,18c0,0,0.9-0.4,2.2-0.4c0.7,0,1.3,0.1,1.3,0.7c0,0.4-0.1,0.5-0.1,0.5s-0.6,0-0.9,0
					c-1.7,0-3.6,0.7-3.6,3c0,1.8,1.2,2.2,1.9,2.2c1.4,0,2-0.9,2.1-0.9l-0.1,0.8h1.8l0.8-5.5c0-2.3-2-2.4-2.8-2.4 M16,20.3
					c0,0.3-1.2,1.9-2.4,1.9c-0.6,0-0.8-0.5-0.8-0.8c0-0.5,0.3-1.2,1.8-1.2C14.9,20.3,16,20.3,16,20.3z"/>
			</g>
		</g>
		<g>
			<g>
				<path fill="#DCE5E5" d="M17,23.7c0,0,0.6,0.2,2.3,0.2c0.5,0,3,0.1,3-2.6c0-2.5-2.4-2-2.4-3c0-0.5,0.4-0.7,1.1-0.7
					c0.3,0,1.4,0.1,1.4,0.1l0.3-1.8c0,0-0.7-0.2-1.9-0.2c-1.5,0-2,0.6-2,2.6c0,2.3,1.5,2.1,1.5,3c0,0.6-0.7,0.7-1.2,0.7"/>
			</g>
		</g>
		<g>
			<g>
				<path fill="#DCE5E5" d="M58.7,16.9c0,0-0.8-1-1.9-1c-1.8,0-2.4,2.2-2.4,4.8c0,1.6-0.2,3.3,1.5,3.3c1.2,0,1.9-0.8,1.9-0.8
					l-0.1,0.7h2l1.5-9.6 M58.6,19.5c0,1.1-0.9,2.5-2,2.5c-0.7,0-1.1-0.6-1.1-1.6c0-1.6,0.7-2.6,1.6-2.6
					C57.8,17.8,58.6,18.3,58.6,19.5z"/>
			</g>
		</g>
		<g>
			<g>
				<path fill="#DCE5E5" d="M3.7,23.8l1.2-7.2l0.2,7.2h1.4l2.6-7.2L8,23.8h2.1l1.6-9.6H9.2l-2.8,5.9l-0.1-5.9H5.2l-3.4,9.6H3.7z"/>
			</g>
		</g>
		<g>
			<g>
				<path fill="#DCE5E5" d="M32.6,23.8h2.1c0.6-3.3,0.7-6,2.1-5.5c0.2-1.3,0.5-1.8,0.7-2.3c0,0-0.1,0-0.4,0c-0.9,0-1.6,1.2-1.6,1.2
					l0.2-1.1"/>
			</g>
		</g>
		<g>
			<g>
				<path fill="#DCE5E5" d="M44.4,18c0,0,0.9-0.4,2.2-0.4c0.7,0,1.3,0.1,1.3,0.7c0,0.4-0.1,0.5-0.1,0.5s-0.6,0-0.9,0
					c-1.7,0-3.6,0.7-3.6,3c0,1.8,1.2,2.2,1.9,2.2c1.4,0,2-0.9,2.1-0.9l-0.1,0.8H49l0.8-5.5c0-2.3-2-2.4-2.8-2.4 M48.5,20.3
					c0,0.3-1.2,1.9-2.4,1.9c-0.6,0-0.8-0.5-0.8-0.8c0-0.5,0.3-1.2,1.8-1.2C47.5,20.3,48.5,20.3,48.5,20.3z"/>
			</g>
		</g>
		<g>
			<g>
				<path fill="#DCE5E5" d="M49.4,23.8h2.1c0.6-3.3,0.7-6,2.1-5.5c0.2-1.3,0.5-1.8,0.7-2.3c0,0-0.1,0-0.4,0c-0.9,0-1.6,1.2-1.6,1.2
					l0.2-1.1"/>
			</g>
		</g>
	</g>
</g>
</svg>
