<?xml version="1.0" encoding="utf-8"?>
<!-- Generator: Adobe Illustrator 21.1.0, SVG Export Plug-In . SVG Version: 6.00 Build 0)  -->
<svg version="1.1" id="Слой_1" xmlns="http://www.w3.org/2000/svg" xmlns:xlink="http://www.w3.org/1999/xlink" x="0px" y="0px"
	 width="69px" height="86px" viewBox="0 0 69 86" enable-background="new 0 0 69 86" xml:space="preserve">
<path d="M65.3,65.6c-0.1,1.3-0.8,2.4-1.8,3.1L36.6,85.4C36,85.8,35.2,86,34.5,86s-1.5-0.2-2.1-0.6L5.5,68.6
	c-1-0.7-1.7-1.8-1.8-3.1L0.1,4.1C0,3,0.4,2,1.1,1.2C1.9,0.4,2.9,0,4,0H65c1.1,0,2.1,0.4,2.8,1.2C68.6,2,69,3,68.9,4.1
	C68.9,4.1,65.3,65.6,65.3,65.6z M65.4,3.6c-0.1-0.1-0.2-0.1-0.3-0.1H4c-0.2,0-0.3,0.1-0.3,0.1C3.6,3.6,3.5,3.7,3.5,3.9l3.7,61.5
	c0,0.1,0.1,0.3,0.2,0.3l26.9,16.8c0.1,0.1,0.3,0.1,0.5,0l26.9-16.8c0.1-0.1,0.2-0.2,0.2-0.3l3.6-61.5C65.5,3.7,65.4,3.6,65.4,3.6
	L65.4,3.6z M55.8,62.5L35.4,75.2c-0.3,0.2-0.6,0.3-0.9,0.3c-0.3,0-0.6-0.1-0.9-0.3L13.2,62.5c-0.5-0.3-0.8-0.8-0.8-1.3L9.7,11
	c0-0.5,0.1-0.9,0.5-1.3c0.3-0.3,0.8-0.5,1.3-0.5h46.2c0.5,0,0.9,0.2,1.3,0.5c0.3,0.3,0.5,0.8,0.5,1.3l-2.7,50.2
	C56.6,61.7,56.3,62.2,55.8,62.5L55.8,62.5z M13.3,12.6l2.6,47.5l18.7,11.7l18.7-11.7l2.5-47.5L13.3,12.6L13.3,12.6z M45.1,18.9h-2
	c-1,0-1.7-0.8-1.7-1.7c0-1,0.8-1.7,1.7-1.7h2c0.9,0,1.7,0.8,1.7,1.7C46.8,18.1,46,18.9,45.1,18.9L45.1,18.9z M37,18.9H18.3
	c-1,0-1.7-0.8-1.7-1.7c0-1,0.8-1.7,1.7-1.7H37c1,0,1.7,0.8,1.7,1.7C38.7,18.1,38,18.9,37,18.9L37,18.9z M25.9,50.6
	c1.2,0,2.3,3.3,7.4,3.5V42.4c-4-1.4-8.2-2.8-8.2-8.5c0-5.5,4.2-7.5,8.2-7.8v-1.3c0-0.5,0.5-0.9,1.2-0.9c0.6,0,1.2,0.4,1.2,0.9V26
	c3.2,0.1,7,1.1,7,2.9c0,0.7-0.6,2-1.6,2c-0.9,0-2.2-1.5-5.4-1.6v10c3.8,1.4,7.8,3.2,7.8,9.2c0,5.4-3.2,8.2-7.8,8.8V59
	c0,0.5-0.6,0.9-1.2,0.9c-0.7,0-1.1-0.4-1.1-0.9v-1.5c-5.5-0.1-9-3.1-9-5C24.3,51.7,25.1,50.5,25.9,50.6L25.9,50.6z M35.4,54
	c2.8-0.4,4.4-2.1,4.4-5c0-3.3-2-4.7-4.4-5.7L35.4,54L35.4,54z M33.4,38.6v-9.2c-2.7,0.3-4.8,1.4-4.8,4.2
	C28.6,36.6,30.8,37.7,33.4,38.6L33.4,38.6z"/>
</svg>
