<?xml version="1.0" encoding="utf-8"?>
<!-- Generator: Adobe Illustrator 21.1.0, SVG Export Plug-In . SVG Version: 6.00 Build 0)  -->
<svg version="1.1" id="Capa_1" xmlns="http://www.w3.org/2000/svg" xmlns:xlink="http://www.w3.org/1999/xlink" x="0px" y="0px"
	 width="405.3px" height="512px" viewBox="0 0 405.3 512" enable-background="new 0 0 405.3 512" xml:space="preserve">
<g>
	<g>
		<rect x="64" y="64" width="106.7" height="21.3"/>
	</g>
</g>
<g>
	<g>
		<rect x="64" y="106.7" width="21.3" height="21.3"/>
	</g>
</g>
<g>
	<g>
		<rect x="106.7" y="106.7" width="21.3" height="21.3"/>
	</g>
</g>
<g>
	<g>
		<path d="M402.2,88.5L316.9,3.1c-2-2-4.7-3.1-7.5-3.1H32C14.3,0,0,14.3,0,32v448c0,17.7,14.3,32,32,32h341.3
			c17.7,0,32-14.3,32-32V96C405.3,93.2,404.2,90.5,402.2,88.5z M384,480c0,5.9-4.8,10.7-10.7,10.7H32c-5.9,0-10.7-4.8-10.7-10.7V32
			c0-5.9,4.8-10.7,10.7-10.7h272.9l79.1,79.1V480z"/>
	</g>
</g>
<g>
	<g>
		<path d="M330.7,85.3c-5.9,0-10.7-4.8-10.7-10.7v-64h-21.3v64c0,17.7,14.3,32,32,32H352V85.3H330.7z"/>
	</g>
</g>
<g>
	<g>
		<rect x="288" y="234.7" width="42.7" height="21.3"/>
	</g>
</g>
<g>
	<g>
		<path d="M330.7,181.3H288c-5.9,0-10.7,4.8-10.7,10.7v213.3c0,2.8,1.1,5.5,3.1,7.5l21.3,21.3c2,2,4.7,3.1,7.5,3.1
			c2.8,0,5.5-1.1,7.5-3.1l21.3-21.3c2-2,3.1-4.7,3.1-7.5V192C341.3,186.1,336.6,181.3,330.7,181.3z M320,400.9l-10.7,10.7
			l-10.7-10.7V202.7H320V400.9z"/>
	</g>
</g>
<g>
	<g>
		<path d="M245.3,202.7v-21.3H74.7c-5.9,0-10.7,4.8-10.7,10.7v64c0,17.7,14.3,32,32,32h149.3v-21.3H96
			c-5.9,0-10.7-4.8-10.7-10.7v-53.3L245.3,202.7L245.3,202.7z"/>
	</g>
</g>
<g>
	<g>
		<rect x="138.7" y="320" width="106.7" height="21.3"/>
	</g>
</g>
<g>
	<g>
		<rect x="64" y="362.7" width="181.3" height="21.3"/>
	</g>
</g>
<g>
	<g>
		<rect x="224" y="405.3" width="21.3" height="21.3"/>
	</g>
</g>
<g>
	<g>
		<rect x="181.3" y="405.3" width="21.3" height="21.3"/>
	</g>
</g>
</svg>
