<?xml version="1.0" encoding="utf-8"?>
<!-- Generator: Adobe Illustrator 21.1.0, SVG Export Plug-In . SVG Version: 6.00 Build 0)  -->
<svg version="1.1" id="Layer_1" xmlns="http://www.w3.org/2000/svg" xmlns:xlink="http://www.w3.org/1999/xlink" x="0px" y="0px"
	 width="61.1px" height="17px" viewBox="0 0 61.1 17" enable-background="new 0 0 61.1 17" xml:space="preserve">
<g>
	<g>
		<g>
			<g>
				<g>
					<g>
						<path fill="#32A6CE" d="M47.7,3C46.2,3,45,3.4,44,3.6l-0.3,2.3c0.5-0.2,1.9-0.6,3.1-0.7c1.2,0,1.9,0.2,1.7,1.3
							c-3.6,0-6,0.7-6.5,3.1c-0.7,4,3.7,4.1,5.4,2.3L47.2,13h3.2l1.4-6.5C52.3,3.8,49.9,2.9,47.7,3z M47.9,9.7
							c-0.2,0.8-0.9,1.1-1.7,1.2c-0.7,0-1.3-0.4-0.9-1.2c0.4-0.6,1.3-0.6,2-0.6c0.2,0,0.5,0,0.8,0C48,9,47.9,9.4,47.9,9.7z"/>
					</g>
				</g>
				<g>
					<g>
						<path fill="#1A80AD" d="M43.7,5.9c0.5-0.2,1.9-0.6,3.1-0.7c1.2,0,1.9,0.2,1.7,1.3c-3.6,0-6,0.7-6.5,3.1
							c-0.7,4,3.7,4.1,5.4,2.3L47.2,13h3.2l1.4-6.5c0.6-2.7-1.9-3.4-4.1-3.4 M47.9,9.7c-0.2,0.8-0.9,1.1-1.7,1.2
							c-0.7,0-1.3-0.4-0.9-1.2c0.4-0.6,1.3-0.6,2-0.6c0.2,0,0.5,0,0.8,0C48,9,47.9,9.4,47.9,9.7z"/>
					</g>
				</g>
				<g>
					<g>
						<polygon fill="#32A6CE" points="54.5,0 51.9,13 55.1,13 57.8,0 						"/>
					</g>
				</g>
				<g>
					<g>
						<polygon fill="#1A80AD" points="56.8,0 51.9,13 55.1,13 57.8,0 54.5,0 54.5,0 						"/>
					</g>
				</g>
				<g>
					<g>
						<path fill="#32A6CE" d="M39.6,0h-5.9l-2.6,13h3.5l0.9-4H38c2.4,0,4.4-1.4,4.9-3.9C43.4,2.2,41.3,0,39.6,0z M39.5,4.5
							c-0.2,0.9-1.1,1.5-2,1.5h-1.6l0.7-3h1.7C39.2,3,39.7,3.6,39.5,4.5z"/>
					</g>
				</g>
				<g>
					<g>
						<path fill="#1A80AD" d="M39.6,0h-4L31,13h3.5l0.9-4h2.5c2.4,0,4.4-1.4,4.9-3.9C43.4,2.2,41.3,0,39.6,0z M39.5,4.5
							c-0.2,0.9-1.1,1.5-2,1.5h-1.6l0.7-3h1.7C39.2,3,39.7,3.6,39.5,4.5z"/>
					</g>
				</g>
			</g>
			<g>
				<g>
					<g>
						<path fill="#21789E" d="M16.5,3c-1.5,0-2.7,0.4-3.6,0.6l-0.3,2.3c0.4-0.2,1.9-0.6,3.1-0.7c1.2,0,1.9,0.2,1.7,1.3
							c-3.5,0-5.9,0.7-6.4,3.1c-0.7,4,3.6,4.1,5.3,2.3L16.1,13h3.2l1.4-6.5C21.2,3.8,18.7,2.9,16.5,3z M16.8,9.7
							c-0.2,0.8-0.9,1.1-1.7,1.2c-0.7,0-1.3-0.4-0.8-1.2c0.4-0.6,1.3-0.6,1.9-0.6c0.3,0,0.5,0,0.8,0C16.9,9,16.8,9.4,16.8,9.7z"/>
					</g>
				</g>
				<g>
					<g>
						<path fill="#1A5B80" d="M12.7,5.9c0.4-0.2,1.9-0.6,3.1-0.7c1.2,0,1.9,0.2,1.7,1.3c-3.5,0-5.9,0.7-6.4,3.1
							c-0.7,4,3.6,4.1,5.3,2.3L16.1,13h3.2l1.4-6.5c0.6-2.7-1.9-3.4-4.1-3.4 M16.8,9.7c-0.2,0.8-0.9,1.1-1.7,1.2
							c-0.7,0-1.3-0.4-0.8-1.2c0.4-0.6,1.3-0.6,1.9-0.6c0.3,0,0.5,0,0.8,0C16.9,9,16.8,9.4,16.8,9.7z"/>
					</g>
				</g>
				<g>
					<g>
						<polygon fill="#21789E" points="22,3 25.2,3 25.7,8.6 28.9,3 32.2,3 24.6,17 21,17 23.3,12.8 						"/>
					</g>
				</g>
				<g>
					<g>
						<path fill="#1A5B80" d="M22,3.2"/>
					</g>
					<g>
						<polyline fill="#1A5B80" points="25.2,3.2 25.7,8.7 28.9,3 32.2,3 24.6,17 21,17 23.3,12.9 						"/>
					</g>
				</g>
				<g>
					<g>
						<path fill="#21789E" d="M8.6,0h-6L0,13h3.5l0.9-4h2.5c2.4,0,4.4-1.4,4.9-3.9C12.4,2.2,10.3,0,8.6,0z M8.5,4.5
							C8.3,5.4,7.4,6,6.5,6H4.9l0.7-3h1.7C8.2,3,8.7,3.6,8.5,4.5z"/>
					</g>
				</g>
				<g>
					<g>
						<path fill="#1A5B80" d="M8.6,0H5.9L0,13h3.5l0.9-4h2.5c2.4,0,4.4-1.4,4.9-3.9C12.4,2.2,10.3,0,8.6,0z M8.5,4.5
							C8.3,5.4,7.4,6,6.5,6H4.9l0.7-3h1.7C8.2,3,8.7,3.6,8.5,4.5z"/>
					</g>
				</g>
			</g>
		</g>
		<g>
			<g>
				<path fill="#06435E" d="M15.9,6.5c-2.7,0.2-4.5,1-4.9,3c-0.7,4,3.6,4.1,5.3,2.3L16.1,13h3.2l0.5-2.4L15.9,6.5z M16.8,9.7
					c-0.2,0.8-0.9,1.1-1.7,1.2c-0.7,0-1.3-0.4-0.8-1.2c0.4-0.6,1.3-0.6,1.9-0.6c0.3,0,0.5,0,0.8,0C16.9,9,16.8,9.4,16.8,9.7z"/>
			</g>
		</g>
		<g>
			<polygon fill="#06435E" points="25.9,8.5 25.7,8.8 27.8,10.8 32.2,3 28.9,3 			"/>
		</g>
		<g>
			<polygon fill="#06435E" points="3.5,13 4.4,9 0.3,13 			"/>
		</g>
		<g>
			<polygon fill="#2273AA" points="34.5,13 35.4,8.8 35.4,8.9 31.3,13 			"/>
		</g>
		<g>
			<g>
				<path fill="#2273AA" d="M47,6.5c-2.7,0.2-4.5,1-4.9,3c-0.7,4,3.7,4.1,5.4,2.3L47.2,13h3.2l0.5-2.4L47,6.5z M47.9,9.7
					c-0.2,0.8-0.9,1.1-1.7,1.2c-0.7,0-1.3-0.4-0.9-1.2c0.4-0.6,1.3-0.6,2-0.6c0.2,0,0.5,0,0.8,0C48,9,47.9,9.4,47.9,9.7z"/>
			</g>
		</g>
		<g>
			<polygon fill="#2273AA" points="54.2,7.1 51.9,13 55.1,13 56,9 			"/>
		</g>
	</g>
	<g>
		<g>
			<g>
				<path fill="#32A6CE" d="M58.5,2.1V0.7H58V0.5h1.3v0.2h-0.5v1.4H58.5z"/>
			</g>
		</g>
		<g>
			<g>
				<path fill="#32A6CE" d="M59.5,2.1V0.5h0.3l0.4,1.1c0,0.1,0.1,0.2,0.1,0.2c0-0.1,0-0.1,0.1-0.3l0.4-1.1h0.3V2h-0.2V0.6L60.4,2
					h-0.3l-0.5-1.4L59.5,2.1L59.5,2.1L59.5,2.1z"/>
			</g>
		</g>
	</g>
</g>
</svg>
