<?xml version="1.0" encoding="utf-8"?>
<!-- Generator: Adobe Illustrator 21.1.0, SVG Export Plug-In . SVG Version: 6.00 Build 0)  -->
<svg version="1.1" id="Layer_1" xmlns="http://www.w3.org/2000/svg" xmlns:xlink="http://www.w3.org/1999/xlink" x="0px" y="0px"
	 width="335.4px" height="512px" viewBox="0 0 335.4 512" style="enable-background:new 0 0 335.4 512;" xml:space="preserve">
<style type="text/css">
	.st0{fill:#EFF2FA;}
	.st1{fill:#F6360F;}
	.st2{fill:#DD5239;}
	.st3{fill:#C7CFE2;}
	.st4{fill:#E4EAF6;}
	.st5{fill:#959CB3;}
	.st6{fill:#D29B6E;}
	.st7{fill:#1A31EA;}
	.st8{fill:#694B4B;}
	.st9{fill:#F0C087;}
</style>
<g>
	<path class="st0" d="M203,512H26.5C11.9,512,0,500.1,0,485.5V132.4c0-14.6,11.9-26.5,26.5-26.5H203c14.6,0,26.5,11.9,26.5,26.5
		v353.1C229.5,500.1,217.7,512,203,512z"/>
	<path class="st1" d="M203,459H26.5c-4.9,0-8.8-4-8.8-8.8V167.7c0-4.9,4-8.8,8.8-8.8H203c4.9,0,8.8,4,8.8,8.8v282.5
		C211.9,455.1,207.9,459,203,459z"/>
	<path class="st2" d="M211.9,250.8c-19.8-33-55.8-55.2-97.1-55.2s-77.3,22.2-97.1,55.2v116.3c19.8,33,55.8,55.2,97.1,55.2
		s77.3-22.2,97.1-55.2V250.8z"/>
	<path class="st3" d="M132.4,141.2H97.1c-4.9,0-8.8-4-8.8-8.8l0,0c0-4.9,4-8.8,8.8-8.8h35.3c4.9,0,8.8,4,8.8,8.8l0,0
		C141.2,137.3,137.3,141.2,132.4,141.2z"/>
	<path class="st4" d="M123.6,503.2h-17.7c-9.8,0-17.7-7.9-17.7-17.7l0,0c0-9.8,7.9-17.7,17.7-17.7h17.7c9.8,0,17.7,7.9,17.7,17.7
		l0,0C141.2,495.3,133.3,503.2,123.6,503.2z"/>
	<path class="st5" d="M61.8,141.2L61.8,141.2c-4.9,0-8.8-4-8.8-8.8l0,0c0-4.9,4-8.8,8.8-8.8l0,0c4.9,0,8.8,4,8.8,8.8l0,0
		C70.6,137.3,66.7,141.2,61.8,141.2z"/>
	<polygon class="st6" points="136.4,336.2 136.4,317.2 93.2,317.2 93.2,336.2 114.8,358 	"/>
	<path class="st0" d="M169.2,339.7l-29.4-6.6c-0.4-0.1-0.9-0.3-1.2-0.5l-23.8,13.2L91.9,332c-0.6,0.5-1.3,0.9-2.2,1.1l-29.4,6.6
		c-4.3,1-7.3,4.6-7.3,8.8v17.7c0,2.5,2.1,4.5,4.8,4.5h114.1c2.6,0,4.8-2,4.8-4.5v-17.7C176.6,344.3,173.5,340.6,169.2,339.7z"/>
	<g>
		<path class="st4" d="M159.1,356.1l15.4-13.2c1.3,1.6,2,3.5,2,5.6v17.7c0,2.5-2.1,4.5-4.8,4.5h-16.6v-6.3
			C155.2,361.3,156.6,358.2,159.1,356.1z"/>
		<path class="st4" d="M70.4,356.1L55,342.9c-1.3,1.6-2,3.5-2,5.6v17.7c0,2.5,2.1,4.5,4.8,4.5h16.6v-6.3
			C74.4,361.3,72.9,358.2,70.4,356.1z"/>
	</g>
	<polygon class="st7" points="120.7,370.8 108.8,370.8 110.3,345.8 119.2,345.8 	"/>
	<g>
		<path class="st4" d="M93,327.2l21.7,18.6c0,0-6.1,2.9-13.6,8.8c-1.5,1.2-3.9,0.7-4.7-1l-10.2-21.4l3.2-4.6
			C90.3,326.5,92,326.3,93,327.2z"/>
		<path class="st4" d="M136.5,327.2l-21.7,18.6c0,0,6.1,2.9,13.6,8.8c1.5,1.2,3.9,0.7,4.7-1l10.2-21.4l-3.2-4.6
			C139.2,326.5,137.6,326.3,136.5,327.2z"/>
	</g>
	<path class="st8" d="M123.6,238.3h-17.7c-14.6,0-26.5,11.9-26.5,26.5V284c0,4.7,1.9,9.2,5.2,12.5l3.7,3.7h53l3.7-3.7
		c3.3-3.3,5.2-7.8,5.2-12.5v-19.2C150.1,250.2,138.2,238.3,123.6,238.3z"/>
	<path class="st9" d="M87.3,283.8l1.1,25.4c0.2,4,2.1,7.6,5.2,10l9,6.9c2.3,1.7,5,2.7,7.8,2.7h8.7c2.8,0,5.6-0.9,7.8-2.7l9-6.9
		c3.1-2.4,5-6.1,5.2-10l1.1-25.4c0.4-9.3-6.8-17-15.9-17h-23C94.2,266.8,86.9,274.5,87.3,283.8z"/>
	<g>
		<path class="st4" d="M256,141.2c-4.9,0-8.8-4-8.8-8.8c0-24.3-19.8-44.1-44.1-44.1c-4.9,0-8.8-4-8.8-8.8s4-8.8,8.8-8.8
			c34.1,0,61.8,27.7,61.8,61.8C264.8,137.3,260.9,141.2,256,141.2z"/>
		<path class="st4" d="M291.3,141.2c-4.9,0-8.8-4-8.8-8.8c0-43.8-35.6-79.4-79.4-79.4c-4.9,0-8.8-4-8.8-8.8s4-8.8,8.8-8.8
			c53.5,0,97.1,43.6,97.1,97.1C300.1,137.3,296.2,141.2,291.3,141.2z"/>
		<path class="st4" d="M326.6,141.2c-4.9,0-8.8-4-8.8-8.8c0-63.3-51.5-114.8-114.8-114.8c-4.9,0-8.8-4-8.8-8.8s4-8.8,8.8-8.8
			c73,0,132.4,59.4,132.4,132.4C335.4,137.3,331.5,141.2,326.6,141.2z"/>
	</g>
</g>
</svg>
