<?xml version="1.0" encoding="utf-8"?>
<!-- Generator: Adobe Illustrator 21.1.0, SVG Export Plug-In . SVG Version: 6.00 Build 0)  -->
<svg version="1.1" id="Слой_1" xmlns="http://www.w3.org/2000/svg" xmlns:xlink="http://www.w3.org/1999/xlink" x="0px" y="0px"
	 width="92px" height="91px" viewBox="0 0 92 91" enable-background="new 0 0 92 91" xml:space="preserve">
<path d="M90.7,89.8c-0.3,0.4-0.8,0.7-1.4,0.7H2c-0.5,0-1-0.2-1.4-0.7c-0.3-0.4-0.5-1-0.4-1.5L2,78.7
	c1-5.4,3.6-10.4,7.5-14.3c3.9-3.8,8.7-6.4,14-7.4c1.6-0.3,3.3-0.5,5-0.5h5.3c0.5,0,1,0.2,1.3,0.5l10.7,10.7l10.7-10.7
	c0.3-0.3,0.8-0.5,1.3-0.5h5.3c1.7,0,3.4,0.2,5,0.5c5.3,1,10.2,3.6,14,7.4c3.9,3.9,6.5,8.8,7.4,14.3l1.8,9.7
	C91.3,88.9,91.1,89.4,90.7,89.8L90.7,89.8z M32.9,60.2h-4.5c-0.3,0-0.5,0-0.7,0l12.8,12.8l2.6-2.6L32.9,60.2L32.9,60.2z M62.9,60.2
	h-4.5L47,71.6l-3.9,3.9l2.6,2.6l17.9-18C63.4,60.2,63.1,60.2,62.9,60.2L62.9,60.2z M85.8,79.3c-1.7-9.1-8.7-16.5-17.7-18.5L47,82
	c0,0-0.1,0.1-0.1,0.1c-0.7,0.6-1.6,0.6-2.3,0c0,0-0.1-0.1-0.1-0.1L23.2,60.8c-9,2.1-16,9.4-17.7,18.5l-1.4,7.6h83L85.8,79.3
	L85.8,79.3z M26.4,50.5c1,0,1.8,0.8,1.8,1.8v0.7c0,1-0.8,1.8-1.8,1.8s-1.8-0.8-1.8-1.8v-0.8C24.7,51.3,25.5,50.5,26.4,50.5
	L26.4,50.5z M69.3,35.9c0,0.3-0.7,7.3-5.9,10.1c-1.1,0.6-2.2,0.9-3.5,1c-1.5,2.3-3.5,4.2-6,5.5c-2.6,1.4-5.4,2.1-8.2,2.1
	S40,54,37.5,52.5c-4.9-2.7-8.1-7.4-8.7-12.9h-0.5v7.3c0,1-0.8,1.8-1.8,1.8s-1.8-0.8-1.8-1.8v-7.5c-1.5-0.5-2.6-1.9-2.7-3.5l-0.7-8
	c-0.1-1.1,0.3-2.3,1.1-3.1c0.8-0.9,1.9-1.3,3.1-1.3h2.3l-0.1-1.5l-0.5-7.2c-0.2-3.7,1-7.3,3.6-10c2.5-2.7,6-4.2,9.7-4.2H51
	c3.7,0,7.2,1.5,9.7,4.2c2.5,2.7,3.8,6.3,3.6,10L64,19.5l-0.3,3.9h2.1c1.2,0,2.3,0.5,3.1,1.3c0.8,0.9,1.2,2,1.1,3.1L69.3,35.9
	L69.3,35.9z M27.9,27h-2.5c-0.2,0-0.3,0.1-0.4,0.2c-0.1,0.1-0.1,0.2-0.1,0.4l0.7,8c0,0.3,0.2,0.5,0.5,0.5h2.4L27.9,27L27.9,27z
	 M32.3,38.5c0.3,4.6,2.9,8.6,6.9,10.9c4,2.2,8.9,2.2,12.9,0c1.3-0.7,2.5-1.6,3.4-2.7c-1.6-0.4-3.4-1.1-5.3-2
	c-0.7,0.4-1.5,0.6-2.3,0.6c-2.5,0-4.5-2-4.5-4.5s2-4.5,4.5-4.5s4.5,2,4.5,4.5c0,0.3,0,0.7-0.1,1c2,1,3.8,1.5,5.3,1.7
	c0.7-1.5,1.2-3.2,1.3-4.9l1.2-17.7c-3.3-0.8-5.8-1.6-7.2-2.4c-1.4-0.7-2.4-1.5-3.1-2.3c-2.7,2.7-8.3,6.4-18.5,7.4L32.3,38.5
	L32.3,38.5z M48.9,40.7c0-0.5-0.4-0.9-0.9-0.9s-0.9,0.4-0.9,0.9s0.4,0.9,0.9,0.9S48.9,41.2,48.9,40.7z M51,4.1H40.4
	c-2.7,0-5.2,1.1-7.1,3c-1.8,2-2.7,4.6-2.6,7.3l0.4,5.4c13.2-1.2,17.3-7.4,17.8-8.2l2.8-7.5C51.5,4.1,51.2,4.1,51,4.1L51,4.1z
	 M58,7.1c-0.8-0.9-1.8-1.6-2.8-2.1l-3,8c0,0,0,0,0,0c0,0.3,0.5,1.1,2.4,2.1c0.8,0.4,2.5,1.1,5.8,1.9l0.2-2.7
	C60.8,11.7,59.9,9.2,58,7.1L58,7.1z M62,42.6c1.1-0.7,1.9-1.8,2.5-2.9h-1.9C62.5,40.7,62.3,41.7,62,42.6L62,42.6z M66.2,27.2
	C66.1,27.1,66,27,65.8,27h-2.4l-0.6,9.1h2.3c0.3,0,0.5-0.2,0.5-0.5l0.7-8.1C66.3,27.3,66.3,27.2,66.2,27.2L66.2,27.2z"/>
</svg>
