<?xml version="1.0" encoding="utf-8"?>
<!-- Generator: Adobe Illustrator 21.1.0, SVG Export Plug-In . SVG Version: 6.00 Build 0)  -->
<svg version="1.1" id="Capa_1" xmlns="http://www.w3.org/2000/svg" xmlns:xlink="http://www.w3.org/1999/xlink" x="0px" y="0px"
	 width="512px" height="469.3px" viewBox="0 0 512 469.3" enable-background="new 0 0 512 469.3" xml:space="preserve">
<g>
	<g>
		<path d="M442,42.7h-9.3c-1.4,0-2.9,0.1-4.3,0.3c-19.1,2.4-32.6,19.8-30.2,38.9l4.6,37c2.2,17.4,17,30.5,34.6,30.5
			c17.6,0,32.4-13.1,34.6-30.5l4.6-37c0.2-1.4,0.3-2.9,0.3-4.3C476.8,58.3,461.2,42.7,442,42.7z M455.3,79.2l-4.6,37
			c-0.8,6.1-5.6,10.9-11.7,11.7c-7.4,0.9-14.2-4.3-15.1-11.7l-4.6-37c-0.1-0.6-0.1-1.1-0.1-1.7c0-7.5,6-13.5,13.5-13.5h9.3
			c0.6,0,1.1,0,1.7,0.1C451,65,456.3,71.8,455.3,79.2z"/>
	</g>
</g>
<g>
	<g>
		<path d="M389.3,124.5c-13.2,7.7-22.5,20.6-25.6,35.5h-33.1c-17.7,0-32,14.3-32,32s14.3,32,32,32h32v42.7H384v-53.3
			c0-5.9-4.8-10.7-10.7-10.7h-42.7c-5.9,0-10.7-4.8-10.7-10.7s4.8-10.7,10.7-10.7h42.7c5.9,0,10.7-4.8,10.7-10.7
			c0-11.4,6.1-22,16-27.7L389.3,124.5z"/>
	</g>
</g>
<g>
	<g>
		<rect x="277.4" y="84.1" transform="matrix(0.7593 -0.6508 0.6508 0.7593 -17.4201 219.5302)" width="21.3" height="98.4"/>
	</g>
</g>
<g>
	<g>
		<path d="M277.1,302.2c-15.7-17.6-42.7-19.1-60.2-3.3s-19.1,42.7-3.3,60.2l15.9-14.2c-7.2-8.1-7.2-20.3,0-28.4
			c7.9-8.8,21.3-9.5,30.1-1.7s9.5,21.3,1.7,30.1l15.9,14.2C291.6,342.9,291.6,318.4,277.1,302.2z"/>
	</g>
</g>
<g>
	<g>
		<path d="M245.3,341.3c-41.2,0-74.7,33.4-74.7,74.7v53.3H192V416c0-29.5,23.9-53.3,53.3-53.3s53.3,23.9,53.3,53.3v53.3H320V416
			C320,374.8,286.6,341.3,245.3,341.3z"/>
	</g>
</g>
<g>
	<g>
		<rect x="266.7" y="416" width="21.3" height="53.3"/>
	</g>
</g>
<g>
	<g>
		<path d="M149.1,302.2c-15.7-17.6-42.7-19.1-60.2-3.3s-19.1,42.7-3.3,60.2l15.9-14.2c-7.2-8.1-7.2-20.3,0-28.4
			c7.9-8.8,21.3-9.5,30.1-1.7s9.5,21.3,1.7,30.1l15.9,14.2C163.6,342.9,163.6,318.4,149.1,302.2z"/>
	</g>
</g>
<g>
	<g>
		<path d="M117.3,341.3c-41.2,0-74.7,33.4-74.7,74.7v53.3H64V416c0-29.5,23.9-53.3,53.3-53.3s53.3,23.9,53.3,53.3v53.3H192V416
			C192,374.8,158.6,341.3,117.3,341.3z"/>
	</g>
</g>
<g>
	<g>
		<rect x="74.7" y="416" width="21.3" height="53.3"/>
	</g>
</g>
<g>
	<g>
		<g>
			<path d="M405.1,359.1L405.1,359.1L405.1,359.1z"/>
			<path d="M405.1,302.2c-15.7-17.6-42.7-19.1-60.2-3.3s-19.1,42.7-3.3,60.2l15.9-14.2c-7.2-8.1-7.2-20.3,0-28.4
				c7.9-8.8,21.3-9.5,30.1-1.7s9.5,21.3,1.7,30.1l15.9,14.2C419.6,342.9,419.6,318.4,405.1,302.2z"/>
		</g>
	</g>
</g>
<g>
	<g>
		<path d="M485.3,124.5l-10.7,18.5c9.9,5.7,16,16.3,16,27.7V448H448v-32c0-41.2-33.4-74.7-74.7-74.7c-41.2,0-74.7,33.4-74.7,74.7
			v53.3H320V416c0-29.5,23.9-53.3,53.3-53.3s53.3,23.9,53.3,53.3v42.7c0,5.9,4.8,10.7,10.7,10.7h64c5.9,0,10.7-4.8,10.7-10.7v-288
			C512,151.6,501.8,134,485.3,124.5z"/>
	</g>
</g>
<g>
	<g>
		<rect x="330.7" y="416" width="21.3" height="53.3"/>
	</g>
</g>
<g>
	<g>
		<path d="M461.8,163.1l-24.5,24.5l-24.5-24.5l-15.1,15.1l32,32c2,2,4.7,3.1,7.5,3.1c2.8,0,5.5-1.1,7.5-3.1l32-32L461.8,163.1z"/>
	</g>
</g>
<g>
	<g>
		<rect x="426.7" y="192" width="21.3" height="117.3"/>
	</g>
</g>
<g>
	<g>
		<path d="M437.3,0H10.7C4.8,0,0,4.8,0,10.7V256c0,5.9,4.8,10.7,10.7,10.7h330.7v-21.3h-320v-224h405.3v32H448V10.7
			C448,4.8,443.2,0,437.3,0z"/>
	</g>
</g>
<g>
	<g>
		<rect y="256" width="21.3" height="64"/>
	</g>
</g>
<g>
	<g>
		<rect y="341.3" width="21.3" height="21.3"/>
	</g>
</g>
<g>
	<g>
		<rect y="384" width="21.3" height="21.3"/>
	</g>
</g>
<g>
	<g>
		<path d="M213.3,64V42.7h-160c-5.9,0-10.7,4.8-10.7,10.7V96c0,5.9,4.8,10.7,10.7,10.7h160V85.3H64V64H213.3z"/>
	</g>
</g>
<g>
	<g>
		<rect x="42.7" y="128" width="85.3" height="21.3"/>
	</g>
</g>
<g>
	<g>
		<rect x="149.3" y="128" width="21.3" height="21.3"/>
	</g>
</g>
<g>
	<g>
		<rect x="192" y="128" width="21.3" height="21.3"/>
	</g>
</g>
<g>
	<g>
		<rect x="42.7" y="170.7" width="21.3" height="21.3"/>
	</g>
</g>
<g>
	<g>
		<rect x="85.3" y="170.7" width="21.3" height="21.3"/>
	</g>
</g>
<g>
	<g>
		<rect x="128" y="170.7" width="85.3" height="21.3"/>
	</g>
</g>
</svg>
