<?xml version="1.0" encoding="iso-8859-1"?>
<!-- Generator: Adobe Illustrator 19.0.0, SVG Export Plug-In . SVG Version: 6.00 Build 0)  -->
<svg xmlns="http://www.w3.org/2000/svg" xmlns:xlink="http://www.w3.org/1999/xlink" version="1.1" id="Capa_1" x="0px" y="0px" viewBox="0 0 512.022 512.022" style="enable-background:new 0 0 512.022 512.022;" xml:space="preserve" width="512px" height="512px">
<g>
	<g>
		<path d="M505.233,96.739l-245.333-96c-2.497-0.976-5.269-0.976-7.765,0l-245.333,96c-2.651,1.032-4.78,3.079-5.914,5.688    c-2.349,5.403,0.127,11.686,5.53,14.035L251.75,223.129c1.345,0.591,2.798,0.892,4.267,0.885c1.461,0.004,2.907-0.298,4.245-0.885    l245.333-106.667c2.609-1.131,4.659-3.258,5.693-5.907C513.432,105.068,510.72,98.882,505.233,96.739z M256.017,201.71    L38.63,107.203l217.387-85.067l217.387,85.067L256.017,201.71z" fill="#5077f6"/>
	</g>
</g>
<g>
	<g>
		<path d="M256.017,64.014c-35.883,0-64,18.741-64,42.667c0,23.925,28.117,42.667,64,42.667s64-18.741,64-42.667    C320.017,82.755,291.899,64.014,256.017,64.014z M256.017,128.014c-24.416,0-42.667-11.264-42.667-21.333    s18.251-21.333,42.667-21.333s42.667,11.264,42.667,21.333S280.433,128.014,256.017,128.014z" fill="#5077f6"/>
	</g>
</g>
<g>
	<g>
		<rect x="96.017" y="96.014" width="106.667" height="21.333" fill="#5077f6"/>
	</g>
</g>
<g>
	<g>
		<path d="M224.017,394.681h-85.333c-5.891,0-10.667,4.776-10.667,10.667v64c-0.009,1.675,0.376,3.328,1.125,4.827    c2.633,5.27,9.04,7.407,14.31,4.773l37.899-19.008l37.899,19.008c1.485,0.72,3.118,1.085,4.768,1.067    c5.891,0,10.667-4.776,10.667-10.667v-64C234.683,399.456,229.908,394.681,224.017,394.681z M213.35,452.089l-27.232-13.675    c-1.485-0.72-3.118-1.085-4.768-1.067c-1.655-0.002-3.287,0.382-4.768,1.12l-27.232,13.621v-36.075h64V452.089z" fill="#5077f6"/>
	</g>
</g>
<g>
	<g>
		<path d="M478.235,379.257l-17.76-11.829c-13.595,20.929-21.56,45.012-23.125,69.92c1.566,24.908,9.531,48.991,23.125,69.92    l17.749-11.84c-11.264-17.423-17.982-37.391-19.541-58.08C460.279,416.661,466.999,396.698,478.235,379.257z" fill="#5077f6"/>
	</g>
</g>
<g>
	<g>
		<rect x="352.017" y="405.347" width="96" height="21.333" fill="#5077f6"/>
	</g>
</g>
<g>
	<g>
		<rect x="309.35" y="405.347" width="21.333" height="21.333" fill="#5077f6"/>
	</g>
</g>
<g>
	<g>
		<rect x="266.683" y="405.347" width="21.333" height="21.333" fill="#5077f6"/>
	</g>
</g>
<g>
	<g>
		<rect x="266.683" y="448.014" width="106.667" height="21.333" fill="#5077f6"/>
	</g>
</g>
<g>
	<g>
		<rect x="394.683" y="448.014" width="21.333" height="21.333" fill="#5077f6"/>
	</g>
</g>
<g>
	<g>
		<path d="M82.939,384.121l18.976,9.493c3.002,1.5,6.534,1.5,9.536,0l19.083-9.6h360.149c5.891,0,10.667-4.776,10.667-10.667v-224    h-21.333v213.333h-352c-1.655-0.002-3.287,0.382-4.768,1.12l-16.565,8.288l-16.565-8.341c-1.485-0.72-3.117-1.085-4.768-1.067    c-41.237,0-74.667,33.429-74.667,74.667c0,41.237,33.429,74.667,74.667,74.667c1.65,0.018,3.283-0.347,4.768-1.067l16.565-8.341    l16.565,8.341c1.485,0.72,3.118,1.085,4.768,1.067H501.35v-21.227H130.534l-19.083-9.6c-3.002-1.5-6.534-1.5-9.536,0    l-18.976,9.493c-27.581-1.235-49.661-23.314-50.895-50.895C30.727,410.36,53.514,385.438,82.939,384.121z" fill="#5077f6"/>
	</g>
</g>
<g>
	<g>
		<rect x="10.683" y="149.347" width="21.333" height="288" fill="#5077f6"/>
	</g>
</g>
<g>
	<g>
		<path d="M394.683,149.347v96c0,35.253-59.307,74.667-138.667,74.667S117.35,280.601,117.35,245.347v-96H96.017v96    c0,52.043,73.269,96,160,96s160-43.957,160-96v-96H394.683z" fill="#5077f6"/>
	</g>
</g>
<g>
	<g>
		<path d="M352.017,170.681v73.6c-4.075,7.467-36.523,33.067-96,33.067v21.333c66.944,0,117.333-32.352,117.333-53.333v-74.667    H352.017z" fill="#5077f6"/>
	</g>
</g>
<g>
	<g>
		<rect x="341.35" y="96.014" width="21.333" height="21.333" fill="#5077f6"/>
	</g>
</g>
<g>
	<g>
		<rect x="384.017" y="96.014" width="21.333" height="21.333" fill="#5077f6"/>
	</g>
</g>
<g>
	<g>
		<rect x="53.35" y="170.681" width="21.333" height="21.333" fill="#5077f6"/>
	</g>
</g>
<g>
	<g>
		<rect x="53.35" y="213.347" width="21.333" height="21.333" fill="#5077f6"/>
	</g>
</g>
<g>
</g>
<g>
</g>
<g>
</g>
<g>
</g>
<g>
</g>
<g>
</g>
<g>
</g>
<g>
</g>
<g>
</g>
<g>
</g>
<g>
</g>
<g>
</g>
<g>
</g>
<g>
</g>
<g>
</g>
</svg>
