<?xml version="1.0" encoding="iso-8859-1"?>
<!-- Generator: Adobe Illustrator 19.0.0, SVG Export Plug-In . SVG Version: 6.00 Build 0)  -->
<svg xmlns="http://www.w3.org/2000/svg" xmlns:xlink="http://www.w3.org/1999/xlink" version="1.1" id="Capa_1" x="0px" y="0px" viewBox="0 0 512.554 512.554" style="enable-background:new 0 0 512.554 512.554;" xml:space="preserve" width="512px" height="512px">
<g>
	<g>
		<path d="M416.031,384.539c-17.673,0-32,14.327-32,32s14.327,32,32,32s32-14.327,32-32S433.704,384.539,416.031,384.539z     M416.031,427.206c-5.891,0-10.667-4.776-10.667-10.667c0-5.891,4.776-10.667,10.667-10.667c5.891,0,10.667,4.776,10.667,10.667    C426.698,422.43,421.922,427.206,416.031,427.206z" fill="#5077f6"/>
	</g>
</g>
<g>
	<g>
		
			<rect x="442.698" y="416.156" transform="matrix(0.7071 -0.7071 0.7071 0.7071 -188.1461 453.5121)" width="21.333" height="75.424" fill="#5077f6"/>
	</g>
</g>
<g>
	<g>
		<g>
			<path d="M511.274,465.915l-42.667-106.667c-1.416-3.544-4.617-6.062-8.395-6.603l-74.667-10.667     c-3.327-0.492-6.689,0.629-9.056,3.019l-32,32c-2.376,2.375-3.495,5.73-3.019,9.056l10.667,74.667     c0.539,3.775,3.052,6.976,6.592,8.395l106.667,42.667c1.263,0.501,2.609,0.758,3.968,0.757c2.829-0.001,5.541-1.125,7.541-3.125     l32-32C511.923,474.399,512.854,469.876,511.274,465.915z M466.794,489.35l-94.411-37.76l-9.035-63.275l24.459-24.459     l63.275,9.035l37.771,94.411L466.794,489.35z" fill="#5077f6"/>
			<polygon points="469.365,512.539 469.365,512.539 469.365,512.539    " fill="#5077f6"/>
		</g>
	</g>
</g>
<g>
	<g>
		<path d="M352.479,395.206l-0.853-21.333c-16.882-0.169-33.083-6.68-45.387-18.24c-3.573-3.584-14.219-15.211-31.627-34.411    l-15.829,14.315c17.899,19.808,28.491,31.317,32.373,35.2c16.16,15.471,37.598,24.218,59.968,24.469v0    C351.871,395.206,352.341,395.206,352.479,395.206z" fill="#5077f6"/>
	</g>
</g>
<g>
	<g>
		<path d="M41.962,25.072C59.765,41.36,110.506,86.747,164.298,134.8l73.397,65.728l14.229-15.893l-73.451-65.696    C124.831,70.939,74.047,25.531,56.351,9.35C43.492-2.449,23.743-2.447,10.886,9.355c-13.68,12.556-14.59,33.825-2.034,47.504    c16.181,17.696,61.579,68.48,109.579,122.133l44.32,49.6l15.893-14.187l-44.352-49.6C86.25,111.024,40.853,60.272,24.565,42.47    c-4.804-4.804-4.804-12.593,0-17.397S37.158,20.268,41.962,25.072z" fill="#5077f6"/>
	</g>
</g>
<g>
	<g>
		<g>
			<path d="M359.253,281.328l-14.443,15.691c5.013,4.629,8.576,7.968,10.347,9.728c11.537,12.316,18.034,28.512,18.208,45.387     l21.333,0.853c0.1-22.843-8.673-44.832-24.469-61.333C368.351,289.776,364.586,286.235,359.253,281.328z" fill="#5077f6"/>
			<polygon points="394.698,352.987 394.698,352.987 394.698,352.987    " fill="#5077f6"/>
		</g>
	</g>
</g>
<g>
	<g>
		<rect x="96.031" y="235.206" width="21.333" height="21.333" fill="#5077f6"/>
	</g>
</g>
<g>
	<g>
		<rect x="53.365" y="235.206" width="21.333" height="21.333" fill="#5077f6"/>
	</g>
</g>
<g>
	<g>
		<rect x="405.365" y="235.206" width="21.333" height="21.333" fill="#5077f6"/>
	</g>
</g>
<g>
	<g>
		<rect x="448.031" y="235.206" width="21.333" height="21.333" fill="#5077f6"/>
	</g>
</g>
<g>
	<g>
		<path d="M135.573,451.664l-74.667-74.667c-2.5-2.463-6.039-3.561-9.493-2.944c-3.454,0.642-6.37,2.944-7.797,6.155L2.474,472.784    c-1.614,3.623-2.447,7.546-2.445,11.512c0.007,15.605,12.664,28.25,28.269,28.242c3.959,0.005,7.874-0.828,11.488-2.443    l92.587-41.141c1.195-0.532,2.283-1.28,3.208-2.206C139.744,462.581,139.74,455.828,135.573,451.664z M31.114,490.598    c-0.787,0.325-1.626,0.504-2.477,0.53c-3.898,0.118-7.154-2.946-7.272-6.844c-0.002-0.974,0.202-1.937,0.597-2.827l34.837-78.4    l52.704,52.715L31.114,490.598z" fill="#5077f6"/>
	</g>
</g>
<g>
	<g>
		
			<rect x="37.371" y="441.916" transform="matrix(0.7071 -0.7071 0.7071 0.7071 -314.4135 170.0303)" width="21.333" height="45.259" fill="#5077f6"/>
	</g>
</g>
<g>
	<g>
		
			<rect x="34.177" y="256.541" transform="matrix(0.7071 -0.7071 0.7071 0.7071 -117.078 251.7644)" width="422.381" height="21.333" fill="#5077f6"/>
	</g>
</g>
<g>
	<g>
		<path d="M434.239,152.998l-74.667-74.667c-4.165-4.164-10.917-4.164-15.083,0L45.823,376.998l15.083,15.083l291.125-291.125    l59.584,59.584L120.49,451.664l15.083,15.083L434.239,168.08C438.403,163.915,438.403,157.163,434.239,152.998z" fill="#5077f6"/>
	</g>
</g>
<g>
	<g>
		<path d="M493.439,18.084C468.367-6.41,428.185-5.942,403.69,19.131l-59.2,59.2l15.083,15.083l59.2-59.2    c0.142-0.144,0.285-0.287,0.428-0.428c16.572-16.335,43.249-16.144,59.584,0.428c16.335,16.572,16.144,43.249-0.428,59.584    l-59.2,59.2l15.083,15.083l59.2-59.2c0.353-0.345,0.702-0.694,1.046-1.046C518.98,82.761,518.512,42.579,493.439,18.084z" fill="#5077f6"/>
	</g>
</g>
<g>
	<g>
		<rect x="421.364" y="27.744" transform="matrix(0.7071 -0.7071 0.7071 0.7071 69.5891 329.081)" width="21.333" height="105.59" fill="#5077f6"/>
	</g>
</g>
<g>
</g>
<g>
</g>
<g>
</g>
<g>
</g>
<g>
</g>
<g>
</g>
<g>
</g>
<g>
</g>
<g>
</g>
<g>
</g>
<g>
</g>
<g>
</g>
<g>
</g>
<g>
</g>
<g>
</g>
</svg>
