<?xml version="1.0" encoding="utf-8"?>
<!-- Generator: Adobe Illustrator 21.1.0, SVG Export Plug-In . SVG Version: 6.00 Build 0)  -->
<svg version="1.1" id="Слой_1" xmlns="http://www.w3.org/2000/svg" xmlns:xlink="http://www.w3.org/1999/xlink" x="0px" y="0px"
	 width="86px" height="86px" viewBox="0 0 86 86" enable-background="new 0 0 86 86" xml:space="preserve">
<path d="M79.2,53.9c-0.7,2.4-1.7,4.7-2.9,6.9c2.2,3.4,1.7,7.9-1.2,10.9l-3.4,3.4c-2.9,2.9-7.5,3.3-10.8,1.2
	c-2.2,1.2-4.5,2.1-6.9,2.9C53,83.1,49.5,86,45.4,86h-4.8c-4.1,0-7.6-2.9-8.5-6.8c-2.4-0.7-4.7-1.7-6.9-2.9
	c-3.4,2.2-7.9,1.7-10.9-1.2l-3.4-3.4C8,68.8,7.6,64.2,9.7,60.8c-1.2-2.2-2.1-4.5-2.9-6.9C2.9,53,0,49.5,0,45.4v-4.8
	c0-4.1,2.9-7.7,6.8-8.5c0.7-2.4,1.7-4.7,2.9-6.9c-2.2-3.4-1.7-7.9,1.2-10.9l3.4-3.4c2.9-2.9,7.5-3.3,10.9-1.2
	c2.2-1.2,4.5-2.1,6.9-2.9C33,2.9,36.5,0,40.6,0h4.8c4.1,0,7.6,2.9,8.5,6.8c2.4,0.7,4.7,1.7,6.9,2.9c3.4-2.2,7.9-1.7,10.8,1.2
	l3.4,3.4c2.9,2.9,3.3,7.5,1.2,10.9c1.2,2.2,2.1,4.5,2.9,6.9c3.9,0.9,6.8,4.4,6.8,8.5v4.8C86,49.5,83,53,79.2,53.9L79.2,53.9z
	 M82.6,40.6c0-2.8-2.1-5.1-4.9-5.3c-0.7-0.1-1.3-0.6-1.5-1.3c-0.8-2.9-1.9-5.6-3.4-8.2c-0.3-0.6-0.3-1.4,0.2-2
	c1.8-2.1,1.7-5.2-0.3-7.2l-3.4-3.4c-1.9-1.9-5.1-2.1-7.2-0.3c-0.5,0.5-1.3,0.6-2,0.2c-2.6-1.5-5.3-2.6-8.2-3.4
	c-0.7-0.2-1.2-0.8-1.3-1.5c-0.2-2.8-2.5-4.9-5.3-4.9h-4.8c-2.8,0-5.1,2.2-5.3,4.9c0,0.7-0.5,1.3-1.3,1.5c-2.9,0.8-5.6,1.9-8.2,3.4
	c-0.6,0.4-1.4,0.3-2-0.2c-2.1-1.8-5.2-1.6-7.2,0.3l-3.4,3.4c-1.9,2-2.1,5.1-0.3,7.2c0.5,0.5,0.6,1.3,0.2,2c-1.5,2.6-2.6,5.3-3.4,8.2
	c-0.2,0.7-0.8,1.2-1.5,1.3c-2.8,0.2-4.9,2.5-4.9,5.3v4.8c0,2.8,2.2,5.1,4.9,5.3C9,50.8,9.6,51.3,9.8,52c0.8,2.9,1.9,5.6,3.4,8.2
	c0.4,0.6,0.3,1.4-0.2,2c-1.8,2.1-1.6,5.2,0.3,7.2l3.4,3.4c2,1.9,5.1,2.1,7.2,0.3c0.3-0.3,0.7-0.4,1.1-0.4c0.3,0,0.6,0.1,0.9,0.2
	c2.6,1.5,5.3,2.6,8.2,3.4c0.7,0.2,1.2,0.8,1.3,1.5c0.2,2.8,2.5,4.9,5.3,4.9h4.8c2.8,0,5.1-2.2,5.3-4.9c0-0.7,0.5-1.3,1.2-1.5
	c2.9-0.8,5.6-1.9,8.2-3.4c0.6-0.4,1.4-0.3,2,0.2c2.1,1.8,5.2,1.7,7.2-0.3l3.4-3.4c1.9-1.9,2.1-5.1,0.3-7.2c-0.5-0.5-0.6-1.3-0.2-2
	c1.5-2.6,2.6-5.3,3.4-8.2c0.2-0.7,0.8-1.2,1.5-1.3c2.8-0.2,4.9-2.5,4.9-5.3L82.6,40.6L82.6,40.6z M43,73.4
	c-16.8,0-30.4-13.6-30.4-30.4S26.2,12.6,43,12.6S73.4,26.2,73.4,43S59.8,73.4,43,73.4z M43,16c-14.9,0-27,12.1-27,27s12.1,27,27,27
	s27-12.1,27-27S57.9,16,43,16z M61,29.1c0.8-0.5,1.8-0.3,2.4,0.5c2.6,4,4,8.6,4,13.4c0,1-0.8,1.7-1.7,1.7c-0.9,0-1.7-0.8-1.7-1.7
	c0-4.1-1.2-8.1-3.5-11.6C60,30.6,60.2,29.6,61,29.1L61,29.1z M58.5,28.1c-0.4,0-0.8-0.2-1.2-0.5c-0.2-0.2-0.5-0.4-0.7-0.6
	c-0.7-0.6-0.8-1.7-0.2-2.4c0.6-0.7,1.7-0.8,2.4-0.2c0.3,0.2,0.6,0.5,0.8,0.7c0.7,0.6,0.7,1.7,0.1,2.4C59.4,27.9,58.9,28.1,58.5,28.1
	z M61.1,55.5c0.3,1.4-0.1,2.9-1.1,4c-0.9,1.2-2.3,1.8-3.8,1.8H29.8c-1.5,0-2.8-0.7-3.8-1.8c-0.9-1.1-1.3-2.6-1.1-4
	c0.9-4.7,4.6-8.4,9.2-9.3c0.7-0.1,1.4-0.2,2.2-0.2h2.1c0.5,0,0.9,0.2,1.2,0.5L43,50l3.5-3.5c0.3-0.3,0.8-0.5,1.2-0.5h2.1
	c0.7,0,1.4,0.1,2.1,0.2C56.5,47.1,60.2,50.8,61.1,55.5L61.1,55.5z M57.7,56.1c-0.6-3.3-3.2-5.9-6.5-6.5c-0.5-0.1-1-0.1-1.5-0.1h-1.4
	l-4.2,4.2c-0.3,0.3-0.8,0.5-1.2,0.5c-0.5,0-0.9-0.2-1.2-0.5l-4.2-4.2h-1.4c-0.5,0-1,0-1.5,0.1c-3.3,0.6-5.9,3.2-6.5,6.5
	c-0.1,0.6,0.2,1,0.3,1.2c0.1,0.2,0.5,0.5,1.1,0.5h26.5c0.6,0,1-0.3,1.2-0.5C57.5,57.1,57.8,56.7,57.7,56.1L57.7,56.1z M50.7,37.6
	c-0.2,2.6-1.7,5-4,6.2c-1.2,0.6-2.4,1-3.7,1s-2.5-0.3-3.7-1c-2.3-1.3-3.8-3.6-4-6.2L34.9,31l-0.2-2.8c-0.1-1.7,0.5-3.4,1.7-4.6
	s2.8-2,4.5-2h4.1c1.7,0,3.4,0.7,4.5,1.9c1.2,1.3,1.8,3,1.7,4.6l-0.1,1.9L50.7,37.6L50.7,37.6z M40.9,25c-0.8,0-1.5,0.3-2,0.9
	c-0.5,0.5-0.8,1.3-0.8,2.1l0.1,1c3.6-0.6,4.9-2.2,5.1-2.5l0.5-1.5L40.9,25L40.9,25z M44.6,30c-1.2,1-3.2,2-6.2,2.4l0.3,5
	c0.1,1.5,0.9,2.7,2.2,3.4c1.3,0.7,2.8,0.7,4.1,0c1.3-0.7,2.1-2,2.2-3.4l0.4-6.1c-1-0.3-1.7-0.5-2.3-0.8C45.1,30.3,44.8,30.2,44.6,30
	L44.6,30z M47.2,26l-0.5,1.3c0.1,0,0.2,0.1,0.3,0.1c0.1,0.1,0.4,0.2,0.9,0.3C47.9,27.1,47.6,26.5,47.2,26L47.2,26z"/>
</svg>
